%TF.GenerationSoftware,KiCad,Pcbnew,10.0.3*%
%TF.CreationDate,2026-07-23T12:42:31-04:00*%
%TF.ProjectId,magnetic_expension_v2,6d61676e-6574-4696-935f-657870656e73,v2*%
%TF.SameCoordinates,Original*%
%TF.FileFunction,Copper,L4,Bot*%
%TF.FilePolarity,Positive*%
%FSLAX46Y46*%
G04 Gerber Fmt 4.6, Leading zero omitted, Abs format (unit mm)*
G04 Created by KiCad (PCBNEW 10.0.3) date 2026-07-23 12:42:31*
%MOMM*%
%LPD*%
G01*
G04 APERTURE LIST*
G04 Aperture macros list*
%AMRoundRect*
0 Rectangle with rounded corners*
0 $1 Rounding radius*
0 $2 $3 $4 $5 $6 $7 $8 $9 X,Y pos of 4 corners*
0 Add a 4 corners polygon primitive as box body*
4,1,4,$2,$3,$4,$5,$6,$7,$8,$9,$2,$3,0*
0 Add four circle primitives for the rounded corners*
1,1,$1+$1,$2,$3*
1,1,$1+$1,$4,$5*
1,1,$1+$1,$6,$7*
1,1,$1+$1,$8,$9*
0 Add four rect primitives between the rounded corners*
20,1,$1+$1,$2,$3,$4,$5,0*
20,1,$1+$1,$4,$5,$6,$7,0*
20,1,$1+$1,$6,$7,$8,$9,0*
20,1,$1+$1,$8,$9,$2,$3,0*%
G04 Aperture macros list end*
%TA.AperFunction,ComponentPad*%
%ADD10C,1.100000*%
%TD*%
%TA.AperFunction,SMDPad,CuDef*%
%ADD11R,0.350000X2.500000*%
%TD*%
%TA.AperFunction,SMDPad,CuDef*%
%ADD12R,2.500000X2.000000*%
%TD*%
%TA.AperFunction,SMDPad,CuDef*%
%ADD13RoundRect,0.200000X0.275000X-0.200000X0.275000X0.200000X-0.275000X0.200000X-0.275000X-0.200000X0*%
%TD*%
%TA.AperFunction,ViaPad*%
%ADD14C,0.600000*%
%TD*%
%TA.AperFunction,Conductor*%
%ADD15C,0.400000*%
%TD*%
%TA.AperFunction,Conductor*%
%ADD16C,0.250000*%
%TD*%
%TA.AperFunction,Conductor*%
%ADD17C,0.200000*%
%TD*%
G04 APERTURE END LIST*
D10*
%TO.P,U1,1,S/R+_1*%
%TO.N,/SENSOR_3AXIS_HMC100X/SETRESET_STRAP*%
X107045000Y-87800000D03*
%TO.P,U1,2,OFFSET+_2*%
%TO.N,GND*%
X105775000Y-87800000D03*
%TO.P,U1,3,S/R-_3*%
%TO.N,/SENSOR_3AXIS_HMC100X/SETRESET_AFTER_1001*%
X104505000Y-87800000D03*
%TO.P,U1,4,GND_4*%
%TO.N,GND*%
X103235000Y-87800000D03*
%TO.P,U1,5,OUT+_5*%
%TO.N,/SENSOR_3AXIS_HMC100X/BR_Z-*%
X101965000Y-87800000D03*
%TO.P,U1,6,OFFSET-_6*%
%TO.N,GND*%
X100695000Y-87800000D03*
%TO.P,U1,7,VBRIDGE_7*%
%TO.N,+9Vb*%
X99425000Y-87800000D03*
%TO.P,U1,8,OUT-_8*%
%TO.N,/SENSOR_3AXIS_HMC100X/BR_Z+*%
X98155000Y-87800000D03*
%TD*%
D11*
%TO.P,J1,1*%
%TO.N,GND*%
X107045000Y-130150000D03*
%TO.P,J1,2*%
%TO.N,+1V65*%
X106410000Y-130150000D03*
%TO.P,J1,3*%
%TO.N,+18V*%
X105775000Y-130150000D03*
%TO.P,J1,4*%
%TO.N,+5VA*%
X105140000Y-130150000D03*
%TO.P,J1,5*%
%TO.N,-5VA*%
X104505000Y-130150000D03*
%TO.P,J1,6*%
%TO.N,+9VA*%
X103870000Y-130150000D03*
%TO.P,J1,7*%
%TO.N,+9Vb*%
X103235000Y-130150000D03*
%TO.P,J1,8*%
%TO.N,+3V3A*%
X102600000Y-130150000D03*
%TO.P,J1,9*%
%TO.N,+3V3D*%
X101965000Y-130150000D03*
%TO.P,J1,10*%
%TO.N,/CONNECTOR/SENSOR_SET_CTRL*%
X101330000Y-130150000D03*
%TO.P,J1,11*%
%TO.N,/CONNECTOR/SENSOR_RESET_CTRL*%
X100695000Y-130150000D03*
%TO.P,J1,12*%
%TO.N,GND*%
X100060000Y-130150000D03*
%TO.P,J1,13*%
%TO.N,unconnected-(J1-Pad13)*%
X99425000Y-130150000D03*
%TO.P,J1,14*%
%TO.N,unconnected-(J1-Pad14)*%
X98790000Y-130150000D03*
%TO.P,J1,15*%
%TO.N,GND*%
X98155000Y-130150000D03*
%TO.P,J1,16*%
X107045000Y-125450000D03*
%TO.P,J1,17*%
%TO.N,/CONNECTOR/DEVICE_DETECT*%
X106410000Y-125450000D03*
%TO.P,J1,18*%
%TO.N,GND*%
X105775000Y-125450000D03*
%TO.P,J1,19*%
%TO.N,/CONNECTOR/Z_CONN+*%
X105140000Y-125450000D03*
%TO.P,J1,20*%
%TO.N,/CONNECTOR/Z_CONN-*%
X104505000Y-125450000D03*
%TO.P,J1,21*%
%TO.N,GND*%
X103870000Y-125450000D03*
%TO.P,J1,22*%
%TO.N,/CONNECTOR/Y_CONN+*%
X103235000Y-125450000D03*
%TO.P,J1,23*%
%TO.N,/CONNECTOR/Y_CONN-*%
X102600000Y-125450000D03*
%TO.P,J1,24*%
%TO.N,GND*%
X101965000Y-125450000D03*
%TO.P,J1,25*%
%TO.N,/CONNECTOR/X_CONN+*%
X101330000Y-125450000D03*
%TO.P,J1,26*%
%TO.N,/CONNECTOR/X_CONN-*%
X100695000Y-125450000D03*
%TO.P,J1,27*%
%TO.N,GND*%
X100060000Y-125450000D03*
%TO.P,J1,28*%
%TO.N,/CONNECTOR/TH+*%
X99425000Y-125450000D03*
%TO.P,J1,29*%
%TO.N,/CONNECTOR/TH-*%
X98790000Y-125450000D03*
%TO.P,J1,30*%
%TO.N,GND*%
X98155000Y-125450000D03*
D12*
%TO.P,J1,P1*%
X110749988Y-127800000D03*
%TO.P,J1,P2*%
X94450012Y-127800000D03*
%TD*%
D13*
%TO.P,TH1,1*%
%TO.N,GND*%
X102600000Y-94625000D03*
%TO.P,TH1,2*%
%TO.N,/THERMISTOR/TH_BRIDGE-*%
X102600000Y-92975000D03*
%TD*%
D14*
%TO.N,+9VA*%
X92500000Y-112600000D03*
X104100000Y-128400000D03*
X85600000Y-111300000D03*
X119400000Y-92200000D03*
X91300000Y-87600000D03*
X91700000Y-103100000D03*
X86700000Y-122800000D03*
X110500000Y-112300000D03*
X121700000Y-111500000D03*
X110700000Y-117900000D03*
%TO.N,GND*%
X109100000Y-115900000D03*
X103600000Y-94800000D03*
X105984154Y-123826399D03*
X88400000Y-107800000D03*
X101600000Y-100800000D03*
X99600000Y-99700000D03*
X84000000Y-99300000D03*
X96300000Y-101000000D03*
X121900000Y-94700000D03*
X101600000Y-92800000D03*
X99600000Y-89800000D03*
X115300000Y-104800000D03*
X99600000Y-102800000D03*
X95600000Y-104800000D03*
X95600000Y-94700000D03*
X84600000Y-78800000D03*
X91600000Y-130800000D03*
X82600000Y-77800000D03*
X85500000Y-114200000D03*
X112600000Y-128800000D03*
X99500000Y-94700000D03*
X115600000Y-117800000D03*
X104400000Y-117600000D03*
X105600000Y-98800000D03*
X101600000Y-102800000D03*
X89600000Y-74800000D03*
X84600000Y-130800000D03*
X92600000Y-126800000D03*
X86600000Y-103800000D03*
X83100000Y-116500000D03*
X105600000Y-96800000D03*
X109600000Y-96800000D03*
X103600000Y-89800000D03*
X84200000Y-97300000D03*
X103300000Y-69400000D03*
X117950000Y-115100000D03*
X99600000Y-104800000D03*
X101600000Y-96800000D03*
X100060000Y-131900000D03*
X110600000Y-101300000D03*
X83600000Y-125800000D03*
X114900000Y-93100000D03*
X119600000Y-88800000D03*
X105600000Y-104800000D03*
X121600000Y-117800000D03*
X100200000Y-70500000D03*
X100200000Y-72900000D03*
X84100000Y-110400000D03*
X101600000Y-89800000D03*
X121600000Y-82800000D03*
X103600000Y-96800000D03*
X105600000Y-94800000D03*
X96350000Y-97650000D03*
X83100000Y-118400000D03*
X103600000Y-102800000D03*
X97600000Y-104800000D03*
X103600000Y-100800000D03*
X101900000Y-127300000D03*
X109100000Y-109000000D03*
X104600000Y-120800000D03*
X101600000Y-94800000D03*
X115600000Y-73800000D03*
X114600000Y-121300000D03*
X101600000Y-104800000D03*
X109600000Y-94800000D03*
X91600000Y-92100000D03*
X99600000Y-101000000D03*
X104680000Y-122030000D03*
X105800000Y-92100000D03*
X90500000Y-99500000D03*
X92200000Y-87900000D03*
X94950000Y-110600000D03*
X94450000Y-116650000D03*
X101600000Y-106800000D03*
X107600000Y-104800000D03*
X121300000Y-90300000D03*
X112600000Y-69800000D03*
X121800000Y-106000000D03*
X109600000Y-87800000D03*
X120600000Y-124800000D03*
X116600000Y-119800000D03*
X97600000Y-75800000D03*
X107700000Y-129900000D03*
X99400000Y-114200000D03*
X91750000Y-97600000D03*
X103600000Y-91800000D03*
X92600000Y-69800000D03*
X110100000Y-114900000D03*
X96600000Y-131800000D03*
X95600000Y-89800000D03*
X107600000Y-125700000D03*
X108500000Y-69100000D03*
X90600000Y-104800000D03*
X109600000Y-89800000D03*
X99500000Y-97200000D03*
X94550000Y-118800000D03*
X109600000Y-85800000D03*
X106600000Y-78800000D03*
X96300000Y-99700000D03*
X100100000Y-120700000D03*
X109950000Y-72325000D03*
X107600000Y-72325000D03*
X109600000Y-104800000D03*
X97400000Y-129800000D03*
X97600000Y-89800000D03*
X89600000Y-129800000D03*
X120400000Y-112800000D03*
X95600000Y-87800000D03*
X119600000Y-75800000D03*
X105600000Y-89800000D03*
X115600000Y-129800000D03*
X119600000Y-69800000D03*
X101600000Y-98800000D03*
X93400000Y-113100000D03*
X95600000Y-85800000D03*
X97500000Y-125700000D03*
X82600000Y-122800000D03*
X118050000Y-116900000D03*
X112300000Y-78800000D03*
X89000000Y-118625000D03*
X96400000Y-94600000D03*
X98200000Y-122300000D03*
X107600000Y-89800000D03*
X103600000Y-98800000D03*
X104900000Y-70700000D03*
X105600000Y-100800000D03*
X85600000Y-75800000D03*
%TO.N,/Y_BALANCING/COMP+*%
X119300000Y-89800000D03*
X121300000Y-105000000D03*
%TO.N,/SENSOR_3AXIS_HMC100X/BR_Y+*%
X110400000Y-92150000D03*
X111450000Y-88800000D03*
%TO.N,+9Vb*%
X92400000Y-95000000D03*
X111000000Y-100200000D03*
X98200000Y-117900000D03*
X103200000Y-128500000D03*
X98300000Y-86100000D03*
%TO.N,/SENSOR_3AXIS_HMC100X/SETRESET_AFTER_1001*%
X99900000Y-98400000D03*
%TO.N,/CONNECTOR/Y_CONN-*%
X116900000Y-124100000D03*
%TO.N,/CONNECTOR/Y_CONN+*%
X116300000Y-123500000D03*
%TO.N,+4V5B*%
X104900000Y-116700000D03*
X101900000Y-113700000D03*
X99893413Y-110193413D03*
X100000000Y-115000000D03*
X115200000Y-111400000D03*
X88400000Y-84600000D03*
X97400000Y-117600000D03*
X106000000Y-113000000D03*
X85100000Y-81500000D03*
X85000000Y-92400000D03*
X114800000Y-102800000D03*
X120200000Y-92600000D03*
X84450000Y-103750000D03*
%TO.N,/X_BALANCING/COMP+*%
X94600000Y-112200000D03*
X100800000Y-110100000D03*
X90998608Y-108381114D03*
X109800000Y-107500000D03*
%TO.N,/CONNECTOR/SENSOR_SET_CTRL*%
X91700000Y-75700000D03*
%TO.N,/CONNECTOR/DEVICE_DETECT*%
X120400000Y-122700000D03*
%TO.N,/Y_BALANCING/COMP-*%
X118700000Y-88800000D03*
X118700000Y-108300000D03*
X115100000Y-109500000D03*
%TO.N,/THERMISTOR/TH_BRIDGE-*%
X118300000Y-81900000D03*
%TO.N,+3V3A*%
X108300000Y-123800000D03*
X119700000Y-78400000D03*
X102600000Y-131600000D03*
%TO.N,+1V65B*%
X111900000Y-120300000D03*
X83800000Y-116100000D03*
X116000000Y-113700000D03*
%TO.N,/SENSOR_3AXIS_HMC100X/BR_Z+*%
X102550000Y-83050000D03*
%TO.N,/SENSOR_SET_RESET_DRIVER/PULSE_SET_CTRL*%
X103700000Y-76100000D03*
X99000000Y-77200000D03*
%TO.N,/Y_BALANCING/INA_OUT-*%
X119500000Y-95600000D03*
X117875000Y-113800000D03*
%TO.N,/Y_BALANCING/INA_OUT+*%
X120400000Y-95600000D03*
X118725000Y-113800000D03*
%TO.N,/Z_BALANCING/INA_OUT-*%
X88000000Y-80895000D03*
X85700000Y-116400000D03*
%TO.N,/Z_BALANCING/INA_OUT+*%
X88600000Y-117300000D03*
X88200000Y-82200000D03*
%TO.N,/Z_BALANCING/COMP+*%
X88000000Y-97400000D03*
X96500000Y-80900000D03*
%TO.N,/Z_BALANCING/COMP-*%
X86700000Y-99300000D03*
X96693921Y-81624497D03*
%TO.N,/CONNECTOR/Z_CONN-*%
X103975000Y-122625000D03*
%TO.N,/CONNECTOR/Z_CONN+*%
X105200000Y-123800000D03*
%TO.N,/CONNECTOR/SENSOR_RESET_CTRL*%
X121100000Y-87900000D03*
%TO.N,/X_BALANCING/COMP-*%
X98100000Y-110300000D03*
X109450003Y-106749997D03*
%TO.N,/X_BALANCING/INA_OUT-*%
X87900000Y-105650000D03*
X103695000Y-113700000D03*
%TO.N,/X_BALANCING/INA_OUT+*%
X88457473Y-105075000D03*
X104442458Y-113638302D03*
%TO.N,/CONNECTOR/TH+*%
X116600000Y-87200000D03*
%TO.N,/CONNECTOR/TH-*%
X115700000Y-87000000D03*
%TO.N,/Z_BALANCING/INT_FB*%
X86700000Y-97500000D03*
X84400000Y-89200000D03*
%TO.N,/CONNECTOR/X_CONN+*%
X91075000Y-116000000D03*
%TO.N,/CONNECTOR/X_CONN-*%
X91925000Y-116000000D03*
%TO.N,+1V65*%
X106450000Y-131600000D03*
%TO.N,+18V*%
X114900000Y-82700000D03*
X108300000Y-129200000D03*
%TD*%
%TO.N,+9VA*%
D15*
X104100000Y-128400000D02*
X103870000Y-128630000D01*
X103870000Y-128630000D02*
X103870000Y-130150000D01*
%TO.N,GND*%
D16*
X100060000Y-131900000D02*
X100060000Y-129900000D01*
X97500000Y-129900000D02*
X97400000Y-129800000D01*
X105775000Y-124625000D02*
X105775000Y-125700000D01*
X105775000Y-124035553D02*
X105775000Y-125450000D01*
X98155000Y-125700000D02*
X97500000Y-125700000D01*
X105984154Y-123826399D02*
X105984154Y-123925000D01*
X98155000Y-129900000D02*
X97500000Y-129900000D01*
X101965000Y-127235000D02*
X101900000Y-127300000D01*
X107045000Y-125700000D02*
X107600000Y-125700000D01*
X101965000Y-125700000D02*
X101965000Y-127235000D01*
X105984154Y-123925000D02*
X105960000Y-123925000D01*
X107045000Y-129900000D02*
X107700000Y-129900000D01*
X105984154Y-123826399D02*
X105775000Y-124035553D01*
%TO.N,/Y_BALANCING/COMP+*%
X119300000Y-89800000D02*
X119300000Y-90600000D01*
X121300000Y-92600000D02*
X121300000Y-105000000D01*
X119300000Y-90600000D02*
X121300000Y-92600000D01*
%TO.N,+9Vb*%
D15*
X103200000Y-128500000D02*
X103235000Y-128535000D01*
X103235000Y-128535000D02*
X103235000Y-129900000D01*
%TO.N,/SENSOR_3AXIS_HMC100X/SETRESET_AFTER_1001*%
X100300000Y-98000000D02*
X99900000Y-98400000D01*
X104505000Y-87895000D02*
X100300000Y-92100000D01*
X104505000Y-87800000D02*
X104505000Y-87895000D01*
X100300000Y-92100000D02*
X100300000Y-98000000D01*
%TO.N,/CONNECTOR/Y_CONN-*%
D16*
X114950000Y-126000000D02*
X109100000Y-126000000D01*
X103450000Y-127700000D02*
X102600000Y-126850000D01*
X109100000Y-126000000D02*
X107400000Y-127700000D01*
X116850000Y-124100000D02*
X114950000Y-126000000D01*
X116900000Y-124100000D02*
X116850000Y-124100000D01*
X107400000Y-127700000D02*
X103450000Y-127700000D01*
X102600000Y-126850000D02*
X102600000Y-125700000D01*
%TO.N,/CONNECTOR/Y_CONN+*%
X103235000Y-126850000D02*
X103585000Y-127200000D01*
X108970000Y-125400000D02*
X114600000Y-125400000D01*
X103235000Y-125700000D02*
X103235000Y-126850000D01*
X107170000Y-127200000D02*
X108970000Y-125400000D01*
X103585000Y-127200000D02*
X107170000Y-127200000D01*
X116300000Y-123700000D02*
X116300000Y-123500000D01*
X114600000Y-125400000D02*
X116300000Y-123700000D01*
%TO.N,+4V5B*%
D15*
X86800000Y-107819239D02*
X96580761Y-117600000D01*
X86800000Y-106100000D02*
X86800000Y-107819239D01*
X84450000Y-103750000D02*
X86800000Y-106100000D01*
X96580761Y-117600000D02*
X97400000Y-117600000D01*
X101900000Y-113700000D02*
X104900000Y-116700000D01*
%TO.N,/X_BALANCING/COMP+*%
D16*
X91100000Y-108700000D02*
X94600000Y-112200000D01*
X91100000Y-108482506D02*
X91100000Y-108700000D01*
X90998608Y-108381114D02*
X91100000Y-108482506D01*
%TO.N,/CONNECTOR/SENSOR_SET_CTRL*%
X82250000Y-85163173D02*
X82250000Y-120050000D01*
X91700000Y-75700000D02*
X91700000Y-75713173D01*
X87800000Y-124500000D02*
X92800000Y-129500000D01*
X97700000Y-128400000D02*
X100820000Y-128400000D01*
X82250000Y-120050000D02*
X86700000Y-124500000D01*
X92800000Y-129500000D02*
X96600000Y-129500000D01*
X101330000Y-128910000D02*
X101330000Y-129900000D01*
X100820000Y-128400000D02*
X101330000Y-128910000D01*
X96600000Y-129500000D02*
X97700000Y-128400000D01*
X91700000Y-75713173D02*
X82250000Y-85163173D01*
X86700000Y-124500000D02*
X87800000Y-124500000D01*
%TO.N,/CONNECTOR/DEVICE_DETECT*%
X106410000Y-125700000D02*
X106410000Y-124803173D01*
X115900000Y-122700000D02*
X120400000Y-122700000D01*
X108170000Y-124600000D02*
X114000000Y-124600000D01*
X107470000Y-123900000D02*
X108170000Y-124600000D01*
X106410000Y-124213726D02*
X106723726Y-123900000D01*
X106723726Y-123900000D02*
X107470000Y-123900000D01*
X106410000Y-125450000D02*
X106410000Y-124213726D01*
X114000000Y-124600000D02*
X115900000Y-122700000D01*
%TO.N,/Y_BALANCING/COMP-*%
X117500000Y-109500000D02*
X118700000Y-108300000D01*
X115100000Y-109500000D02*
X117500000Y-109500000D01*
X118700000Y-108300000D02*
X118700000Y-88800000D01*
%TO.N,/THERMISTOR/TH_BRIDGE-*%
X102600000Y-92975000D02*
X108425000Y-92975000D01*
X108425000Y-92975000D02*
X118300000Y-83100000D01*
X118300000Y-83100000D02*
X118300000Y-81900000D01*
%TO.N,+3V3A*%
X119700000Y-78400000D02*
X119700000Y-86000000D01*
X102600000Y-129900000D02*
X102600000Y-131600000D01*
X119700000Y-86000000D02*
X113300000Y-92400000D01*
X113300000Y-92400000D02*
X113300000Y-113100000D01*
X113300000Y-113100000D02*
X108300000Y-118100000D01*
X108300000Y-118100000D02*
X108300000Y-123800000D01*
%TO.N,/SENSOR_3AXIS_HMC100X/BR_Z+*%
D17*
X97100000Y-86200000D02*
X97100000Y-87550000D01*
X97350000Y-87800000D02*
X98155000Y-87800000D01*
X97100000Y-87550000D02*
X97350000Y-87800000D01*
X100250000Y-83050000D02*
X97100000Y-86200000D01*
X102550000Y-83050000D02*
X100250000Y-83050000D01*
%TO.N,/SENSOR_SET_RESET_DRIVER/PULSE_SET_CTRL*%
D16*
X102600000Y-77200000D02*
X103700000Y-76100000D01*
X99000000Y-77200000D02*
X102600000Y-77200000D01*
%TO.N,/Y_BALANCING/INA_OUT-*%
X119500000Y-95600000D02*
X119900000Y-96000000D01*
X119900000Y-96000000D02*
X119900000Y-111046446D01*
X119900000Y-111046446D02*
X118050000Y-112896446D01*
X118050000Y-113625000D02*
X117875000Y-113800000D01*
X118050000Y-112896446D02*
X118050000Y-113625000D01*
%TO.N,/Y_BALANCING/INA_OUT+*%
X118550000Y-113625000D02*
X118725000Y-113800000D01*
X118550000Y-113103554D02*
X118550000Y-113625000D01*
X120400000Y-95600000D02*
X120400000Y-111253554D01*
X120400000Y-111253554D02*
X118550000Y-113103554D01*
%TO.N,/Z_BALANCING/INA_OUT-*%
X88000000Y-80895000D02*
X87605000Y-80895000D01*
X87605000Y-80895000D02*
X82850000Y-85650000D01*
X82850000Y-113303554D02*
X85700000Y-116153554D01*
X82850000Y-85650000D02*
X82850000Y-113303554D01*
X85700000Y-116153554D02*
X85700000Y-116400000D01*
%TO.N,/Z_BALANCING/INA_OUT+*%
X88200000Y-82200000D02*
X87007107Y-82200000D01*
X87600000Y-117300000D02*
X88600000Y-117300000D01*
X83400000Y-85807107D02*
X83400000Y-113100000D01*
X87007107Y-82200000D02*
X83400000Y-85807107D01*
X83400000Y-113100000D02*
X87600000Y-117300000D01*
%TO.N,/Z_BALANCING/COMP+*%
X88000000Y-97400000D02*
X88000000Y-89400000D01*
X88000000Y-89400000D02*
X96500000Y-80900000D01*
%TO.N,/Z_BALANCING/COMP-*%
X96537377Y-81549450D02*
X88600000Y-89486827D01*
X88600000Y-97613173D02*
X86913173Y-99300000D01*
X96618874Y-81549450D02*
X96537377Y-81549450D01*
X86913173Y-99300000D02*
X86700000Y-99300000D01*
X96693921Y-81624497D02*
X96618874Y-81549450D01*
X88600000Y-89486827D02*
X88600000Y-97613173D01*
%TO.N,/CONNECTOR/Z_CONN-*%
X103975000Y-122625000D02*
X104505000Y-123155000D01*
X104505000Y-123155000D02*
X104505000Y-125700000D01*
%TO.N,/CONNECTOR/Z_CONN+*%
X105140000Y-123860000D02*
X105140000Y-125700000D01*
X105200000Y-123800000D02*
X105140000Y-123860000D01*
%TO.N,/CONNECTOR/SENSOR_RESET_CTRL*%
X100695000Y-130150000D02*
X100695000Y-131650000D01*
X100695000Y-131650000D02*
X101220000Y-132175000D01*
X101220000Y-132175000D02*
X119425000Y-132175000D01*
X122900000Y-128700000D02*
X122900000Y-89700000D01*
X122900000Y-89700000D02*
X121100000Y-87900000D01*
X100695000Y-131050000D02*
X100695000Y-129900000D01*
X119425000Y-132175000D02*
X122900000Y-128700000D01*
%TO.N,/X_BALANCING/INA_OUT-*%
X89850000Y-107600000D02*
X99646446Y-107600000D01*
X87900000Y-105650000D02*
X89850000Y-107600000D01*
X103849578Y-111803132D02*
X103849578Y-113545422D01*
X103849578Y-113545422D02*
X103695000Y-113700000D01*
X99646446Y-107600000D02*
X103849578Y-111803132D01*
%TO.N,/X_BALANCING/INA_OUT+*%
X104349578Y-111596024D02*
X104349578Y-113545422D01*
X104349578Y-113545422D02*
X104442458Y-113638302D01*
X88457473Y-105132473D02*
X90425000Y-107100000D01*
X88457473Y-105075000D02*
X88457473Y-105132473D01*
X99853554Y-107100000D02*
X104349578Y-111596024D01*
X90425000Y-107100000D02*
X99853554Y-107100000D01*
%TO.N,/CONNECTOR/TH+*%
D17*
X112625000Y-112293198D02*
X112625000Y-90793198D01*
X115940901Y-87859099D02*
X116600000Y-87200000D01*
X112625000Y-90793198D02*
X115559099Y-87859099D01*
X115559099Y-87859099D02*
X115940901Y-87859099D01*
X99425000Y-125700000D02*
X99425000Y-124975000D01*
X99425000Y-124975000D02*
X99332500Y-124882500D01*
X99332500Y-124167500D02*
X109575000Y-113925000D01*
X99332500Y-124882500D02*
X99332500Y-124167500D01*
X110993198Y-113925000D02*
X112625000Y-112293198D01*
X109575000Y-113925000D02*
X110993198Y-113925000D01*
%TO.N,/CONNECTOR/TH-*%
X112175000Y-112106802D02*
X112175000Y-90606802D01*
X115700000Y-87081802D02*
X115700000Y-87000000D01*
X110806802Y-113475000D02*
X112175000Y-112106802D01*
X112175000Y-90606802D02*
X115700000Y-87081802D01*
X109388606Y-113475000D02*
X110806802Y-113475000D01*
X98882500Y-124882500D02*
X98882500Y-123981106D01*
X98790000Y-125700000D02*
X98790000Y-124975000D01*
X98882500Y-123981106D02*
X109388606Y-113475000D01*
X98790000Y-124975000D02*
X98882500Y-124882500D01*
%TO.N,/Z_BALANCING/INT_FB*%
D16*
X84400000Y-89200000D02*
X84400000Y-95200000D01*
X84400000Y-95200000D02*
X86700000Y-97500000D01*
%TO.N,/CONNECTOR/X_CONN+*%
X91250000Y-119003554D02*
X95450000Y-123203554D01*
X100553554Y-127700000D02*
X101262500Y-126991054D01*
X101330000Y-126425000D02*
X101330000Y-125700000D01*
X91250000Y-116175000D02*
X91250000Y-119003554D01*
X95450000Y-125603554D02*
X97546446Y-127700000D01*
X91075000Y-116000000D02*
X91250000Y-116175000D01*
X101262500Y-126492500D02*
X101330000Y-126425000D01*
X95450000Y-123203554D02*
X95450000Y-125603554D01*
X97546446Y-127700000D02*
X100553554Y-127700000D01*
X101262500Y-126991054D02*
X101262500Y-126492500D01*
%TO.N,/CONNECTOR/X_CONN-*%
X100346446Y-127200000D02*
X100762500Y-126783946D01*
X91925000Y-116000000D02*
X91750000Y-116175000D01*
X100695000Y-126425000D02*
X100695000Y-125700000D01*
X91750000Y-116175000D02*
X91750000Y-118796446D01*
X100762500Y-126783946D02*
X100762500Y-126492500D01*
X95950000Y-122996446D02*
X95950000Y-125396446D01*
X97753554Y-127200000D02*
X100346446Y-127200000D01*
X95950000Y-125396446D02*
X97753554Y-127200000D01*
X100762500Y-126492500D02*
X100695000Y-126425000D01*
X91750000Y-118796446D02*
X95950000Y-122996446D01*
%TO.N,+1V65*%
D15*
X106450000Y-131530000D02*
X106410000Y-131490000D01*
X106450000Y-131600000D02*
X106450000Y-131530000D01*
X106410000Y-131490000D02*
X106410000Y-129900000D01*
%TO.N,+18V*%
X107500000Y-128400000D02*
X108300000Y-129200000D01*
X106100000Y-128400000D02*
X107500000Y-128400000D01*
X105775000Y-128725000D02*
X106100000Y-128400000D01*
X105775000Y-129900000D02*
X105775000Y-128725000D01*
%TD*%
%TA.AperFunction,Conductor*%
%TO.N,GND*%
G36*
X82322251Y-120583061D02*
G01*
X82329252Y-120589579D01*
X86439534Y-124699861D01*
X86439535Y-124699862D01*
X86500138Y-124760465D01*
X86500139Y-124760466D01*
X86568374Y-124799861D01*
X86574362Y-124803318D01*
X86657147Y-124825500D01*
X87609669Y-124825500D01*
X87682115Y-124846772D01*
X87704421Y-124864748D01*
X92539533Y-129699859D01*
X92539535Y-129699862D01*
X92600138Y-129760465D01*
X92637250Y-129781891D01*
X92674361Y-129803318D01*
X92674365Y-129803319D01*
X92674364Y-129803319D01*
X92757147Y-129825500D01*
X96642853Y-129825500D01*
X96725639Y-129803318D01*
X96799862Y-129760465D01*
X97795579Y-128764748D01*
X97861847Y-128728562D01*
X97890331Y-128725500D01*
X98282002Y-128725500D01*
X98354448Y-128746772D01*
X98403893Y-128803834D01*
X98413919Y-128873574D01*
X98415145Y-128873695D01*
X98414500Y-128880246D01*
X98414500Y-131419749D01*
X98426133Y-131478230D01*
X98426134Y-131478233D01*
X98470447Y-131544551D01*
X98470448Y-131544552D01*
X98536769Y-131588867D01*
X98578606Y-131597188D01*
X98595250Y-131600500D01*
X98595252Y-131600500D01*
X98984750Y-131600500D01*
X98999320Y-131597601D01*
X99043231Y-131588867D01*
X99043236Y-131588863D01*
X99055427Y-131583815D01*
X99057207Y-131588113D01*
X99105015Y-131573107D01*
X99158003Y-131587604D01*
X99159573Y-131583815D01*
X99171765Y-131588864D01*
X99171769Y-131588867D01*
X99213606Y-131597188D01*
X99230250Y-131600500D01*
X99230252Y-131600500D01*
X99619750Y-131600500D01*
X99634320Y-131597601D01*
X99678231Y-131588867D01*
X99744552Y-131544552D01*
X99788867Y-131478231D01*
X99800500Y-131419748D01*
X99800500Y-128880252D01*
X99800500Y-128880246D01*
X99799855Y-128873695D01*
X99802665Y-128873418D01*
X99803601Y-128862963D01*
X99800362Y-128840430D01*
X99806900Y-128826112D01*
X99808304Y-128810434D01*
X99822272Y-128792454D01*
X99831728Y-128771749D01*
X99844967Y-128763240D01*
X99854626Y-128750808D01*
X99876096Y-128743234D01*
X99895246Y-128730928D01*
X99921818Y-128727107D01*
X99925831Y-128725692D01*
X99932998Y-128725500D01*
X100187002Y-128725500D01*
X100259448Y-128746772D01*
X100308893Y-128803834D01*
X100318919Y-128873574D01*
X100320145Y-128873695D01*
X100319500Y-128880246D01*
X100319500Y-131419749D01*
X100331133Y-131478230D01*
X100331134Y-131478234D01*
X100346915Y-131501850D01*
X100369479Y-131573904D01*
X100369500Y-131576299D01*
X100369500Y-131692853D01*
X100391680Y-131775634D01*
X100391683Y-131775641D01*
X100434535Y-131849863D01*
X100655420Y-132070748D01*
X100691606Y-132137016D01*
X100686219Y-132212328D01*
X100640971Y-132272773D01*
X100570227Y-132299159D01*
X100560668Y-132299500D01*
X84862818Y-132299500D01*
X84790372Y-132278228D01*
X84768066Y-132260252D01*
X82139748Y-129631934D01*
X82103562Y-129565666D01*
X82100500Y-129537182D01*
X82100500Y-127665182D01*
X84199500Y-127665182D01*
X84199500Y-127934817D01*
X84229688Y-128202731D01*
X84229688Y-128202737D01*
X84289680Y-128465579D01*
X84289687Y-128465601D01*
X84378727Y-128720064D01*
X84378733Y-128720079D01*
X84495712Y-128962991D01*
X84495714Y-128962994D01*
X84639160Y-129191287D01*
X84807271Y-129402091D01*
X84997908Y-129592728D01*
X84997912Y-129592731D01*
X84997915Y-129592734D01*
X85090281Y-129666393D01*
X85208712Y-129760839D01*
X85437005Y-129904285D01*
X85437008Y-129904287D01*
X85566524Y-129966658D01*
X85679921Y-130021267D01*
X85934409Y-130110316D01*
X85934414Y-130110317D01*
X85934420Y-130110319D01*
X86094271Y-130146803D01*
X86197268Y-130170312D01*
X86465191Y-130200500D01*
X86465198Y-130200500D01*
X86734802Y-130200500D01*
X86734809Y-130200500D01*
X87002732Y-130170312D01*
X87002736Y-130170311D01*
X87002737Y-130170311D01*
X87265579Y-130110319D01*
X87265581Y-130110318D01*
X87265591Y-130110316D01*
X87520079Y-130021267D01*
X87762997Y-129904284D01*
X87991289Y-129760838D01*
X88202085Y-129592734D01*
X88392734Y-129402085D01*
X88560838Y-129191289D01*
X88704284Y-128962997D01*
X88821267Y-128720079D01*
X88910316Y-128465591D01*
X88938043Y-128344114D01*
X88970311Y-128202737D01*
X88970311Y-128202736D01*
X88970312Y-128202732D01*
X89000500Y-127934809D01*
X89000500Y-127665191D01*
X88970312Y-127397268D01*
X88970311Y-127397262D01*
X88910319Y-127134420D01*
X88910317Y-127134414D01*
X88910316Y-127134409D01*
X88821267Y-126879921D01*
X88763309Y-126759570D01*
X88704287Y-126637008D01*
X88704285Y-126637005D01*
X88560839Y-126408712D01*
X88496921Y-126328562D01*
X88392734Y-126197915D01*
X88392731Y-126197912D01*
X88392728Y-126197908D01*
X88202091Y-126007271D01*
X87991287Y-125839160D01*
X87762994Y-125695714D01*
X87762991Y-125695712D01*
X87520079Y-125578733D01*
X87520064Y-125578727D01*
X87265601Y-125489687D01*
X87265579Y-125489680D01*
X87002734Y-125429688D01*
X86734817Y-125399500D01*
X86734809Y-125399500D01*
X86465191Y-125399500D01*
X86465182Y-125399500D01*
X86197268Y-125429688D01*
X86197262Y-125429688D01*
X85934420Y-125489680D01*
X85934398Y-125489687D01*
X85679935Y-125578727D01*
X85679920Y-125578733D01*
X85437008Y-125695712D01*
X85437005Y-125695714D01*
X85208712Y-125839160D01*
X84997908Y-126007271D01*
X84807271Y-126197908D01*
X84639160Y-126408712D01*
X84495714Y-126637005D01*
X84495712Y-126637008D01*
X84378733Y-126879920D01*
X84378727Y-126879935D01*
X84289687Y-127134398D01*
X84289680Y-127134420D01*
X84229688Y-127397262D01*
X84229688Y-127397268D01*
X84199500Y-127665182D01*
X82100500Y-127665182D01*
X82100500Y-120684331D01*
X82121772Y-120611885D01*
X82178834Y-120562440D01*
X82253570Y-120551695D01*
X82322251Y-120583061D01*
G37*
%TD.AperFunction*%
%TA.AperFunction,Conductor*%
G36*
X120409628Y-68321772D02*
G01*
X120431934Y-68339748D01*
X123060252Y-70968066D01*
X123096438Y-71034334D01*
X123099500Y-71062818D01*
X123099500Y-89115669D01*
X123078228Y-89188115D01*
X123021166Y-89237560D01*
X122946430Y-89248305D01*
X122877749Y-89216939D01*
X122870748Y-89210421D01*
X121639748Y-87979421D01*
X121603562Y-87913153D01*
X121600500Y-87884669D01*
X121600500Y-87834107D01*
X121566393Y-87706818D01*
X121566389Y-87706807D01*
X121500501Y-87592687D01*
X121500496Y-87592681D01*
X121407318Y-87499503D01*
X121407312Y-87499498D01*
X121293192Y-87433610D01*
X121293181Y-87433606D01*
X121165892Y-87399500D01*
X121034108Y-87399500D01*
X120906818Y-87433606D01*
X120906807Y-87433610D01*
X120792687Y-87499498D01*
X120792681Y-87499503D01*
X120699503Y-87592681D01*
X120699498Y-87592687D01*
X120633610Y-87706807D01*
X120633606Y-87706818D01*
X120599500Y-87834107D01*
X120599500Y-87965892D01*
X120633606Y-88093181D01*
X120633610Y-88093192D01*
X120699498Y-88207312D01*
X120699503Y-88207318D01*
X120792681Y-88300496D01*
X120792687Y-88300501D01*
X120906807Y-88366389D01*
X120906811Y-88366390D01*
X120906814Y-88366392D01*
X121034108Y-88400500D01*
X121084669Y-88400500D01*
X121157115Y-88421772D01*
X121179421Y-88439748D01*
X122535252Y-89795579D01*
X122571438Y-89861847D01*
X122574500Y-89890331D01*
X122574500Y-128509669D01*
X122553228Y-128582115D01*
X122535252Y-128604421D01*
X119329421Y-131810252D01*
X119263153Y-131846438D01*
X119234669Y-131849500D01*
X107075934Y-131849500D01*
X107003488Y-131828228D01*
X106954043Y-131771166D01*
X106943298Y-131696430D01*
X106946497Y-131680831D01*
X106950500Y-131665892D01*
X106950500Y-131534108D01*
X106935528Y-131478233D01*
X106916393Y-131406818D01*
X106916389Y-131406807D01*
X106850501Y-131292687D01*
X106850496Y-131292681D01*
X106849748Y-131291933D01*
X106849317Y-131291145D01*
X106845152Y-131285716D01*
X106845998Y-131285066D01*
X106813562Y-131225665D01*
X106810500Y-131197181D01*
X106810500Y-129847272D01*
X106790066Y-129771010D01*
X106785500Y-129736329D01*
X106785500Y-128934500D01*
X106806772Y-128862054D01*
X106863834Y-128812609D01*
X106919500Y-128800500D01*
X107278603Y-128800500D01*
X107351049Y-128821772D01*
X107373355Y-128839748D01*
X107774110Y-129240503D01*
X107808792Y-129300573D01*
X107833607Y-129393183D01*
X107833610Y-129393192D01*
X107899498Y-129507312D01*
X107899503Y-129507318D01*
X107992681Y-129600496D01*
X107992687Y-129600501D01*
X108106807Y-129666389D01*
X108106811Y-129666390D01*
X108106814Y-129666392D01*
X108234108Y-129700500D01*
X108365892Y-129700500D01*
X108493186Y-129666392D01*
X108493189Y-129666389D01*
X108493192Y-129666389D01*
X108607312Y-129600501D01*
X108607311Y-129600501D01*
X108607314Y-129600500D01*
X108700500Y-129507314D01*
X108761251Y-129402091D01*
X108766389Y-129393192D01*
X108766389Y-129393189D01*
X108766392Y-129393186D01*
X108800500Y-129265892D01*
X108800500Y-129134108D01*
X108766392Y-129006814D01*
X108766390Y-129006811D01*
X108766389Y-129006807D01*
X108700501Y-128892687D01*
X108700496Y-128892681D01*
X108607318Y-128799503D01*
X108607312Y-128799498D01*
X108507665Y-128741967D01*
X108455561Y-128687322D01*
X108441272Y-128613182D01*
X108469334Y-128543086D01*
X108530838Y-128499290D01*
X108600806Y-128494495D01*
X108630995Y-128500500D01*
X108630996Y-128500500D01*
X108768980Y-128500500D01*
X108768981Y-128500500D01*
X108904316Y-128473580D01*
X109031799Y-128420775D01*
X109146530Y-128344114D01*
X109244102Y-128246542D01*
X109320763Y-128131811D01*
X109373568Y-128004328D01*
X109400488Y-127868993D01*
X109400488Y-127731007D01*
X109387394Y-127665182D01*
X116199500Y-127665182D01*
X116199500Y-127934817D01*
X116229688Y-128202731D01*
X116229688Y-128202737D01*
X116289680Y-128465579D01*
X116289687Y-128465601D01*
X116378727Y-128720064D01*
X116378733Y-128720079D01*
X116495712Y-128962991D01*
X116495714Y-128962994D01*
X116639160Y-129191287D01*
X116807271Y-129402091D01*
X116997908Y-129592728D01*
X116997912Y-129592731D01*
X116997915Y-129592734D01*
X117090281Y-129666393D01*
X117208712Y-129760839D01*
X117437005Y-129904285D01*
X117437008Y-129904287D01*
X117566524Y-129966658D01*
X117679921Y-130021267D01*
X117934409Y-130110316D01*
X117934414Y-130110317D01*
X117934420Y-130110319D01*
X118094271Y-130146803D01*
X118197268Y-130170312D01*
X118465191Y-130200500D01*
X118465198Y-130200500D01*
X118734802Y-130200500D01*
X118734809Y-130200500D01*
X119002732Y-130170312D01*
X119002736Y-130170311D01*
X119002737Y-130170311D01*
X119265579Y-130110319D01*
X119265581Y-130110318D01*
X119265591Y-130110316D01*
X119520079Y-130021267D01*
X119762997Y-129904284D01*
X119991289Y-129760838D01*
X120202085Y-129592734D01*
X120392734Y-129402085D01*
X120560838Y-129191289D01*
X120704284Y-128962997D01*
X120821267Y-128720079D01*
X120910316Y-128465591D01*
X120938043Y-128344114D01*
X120970311Y-128202737D01*
X120970311Y-128202736D01*
X120970312Y-128202732D01*
X121000500Y-127934809D01*
X121000500Y-127665191D01*
X120970312Y-127397268D01*
X120970311Y-127397262D01*
X120910319Y-127134420D01*
X120910317Y-127134414D01*
X120910316Y-127134409D01*
X120821267Y-126879921D01*
X120763309Y-126759570D01*
X120704287Y-126637008D01*
X120704285Y-126637005D01*
X120560839Y-126408712D01*
X120496921Y-126328562D01*
X120392734Y-126197915D01*
X120392731Y-126197912D01*
X120392728Y-126197908D01*
X120202091Y-126007271D01*
X119991287Y-125839160D01*
X119762994Y-125695714D01*
X119762991Y-125695712D01*
X119520079Y-125578733D01*
X119520064Y-125578727D01*
X119265601Y-125489687D01*
X119265579Y-125489680D01*
X119002734Y-125429688D01*
X118734817Y-125399500D01*
X118734809Y-125399500D01*
X118465191Y-125399500D01*
X118465182Y-125399500D01*
X118197268Y-125429688D01*
X118197262Y-125429688D01*
X117934420Y-125489680D01*
X117934398Y-125489687D01*
X117679935Y-125578727D01*
X117679920Y-125578733D01*
X117437008Y-125695712D01*
X117437005Y-125695714D01*
X117208712Y-125839160D01*
X116997908Y-126007271D01*
X116807271Y-126197908D01*
X116639160Y-126408712D01*
X116495714Y-126637005D01*
X116495712Y-126637008D01*
X116378733Y-126879920D01*
X116378727Y-126879935D01*
X116289687Y-127134398D01*
X116289680Y-127134420D01*
X116229688Y-127397262D01*
X116229688Y-127397268D01*
X116199500Y-127665182D01*
X109387394Y-127665182D01*
X109373568Y-127595672D01*
X109320763Y-127468189D01*
X109296103Y-127431283D01*
X109244105Y-127353461D01*
X109146526Y-127255882D01*
X109031798Y-127179224D01*
X108904318Y-127126421D01*
X108904311Y-127126418D01*
X108784813Y-127102649D01*
X108768981Y-127099500D01*
X108768980Y-127099500D01*
X108762525Y-127098216D01*
X108762848Y-127096590D01*
X108700389Y-127071363D01*
X108656780Y-127009726D01*
X108653418Y-126934296D01*
X108688792Y-126871534D01*
X108817394Y-126742933D01*
X109195579Y-126364748D01*
X109261847Y-126328562D01*
X109290331Y-126325500D01*
X114992853Y-126325500D01*
X115075639Y-126303318D01*
X115149862Y-126260465D01*
X116770577Y-124639747D01*
X116836845Y-124603562D01*
X116865329Y-124600500D01*
X116965892Y-124600500D01*
X117093186Y-124566392D01*
X117093189Y-124566389D01*
X117093192Y-124566389D01*
X117207312Y-124500501D01*
X117207311Y-124500501D01*
X117207314Y-124500500D01*
X117300500Y-124407314D01*
X117316973Y-124378782D01*
X117366389Y-124293192D01*
X117366389Y-124293189D01*
X117366392Y-124293186D01*
X117400500Y-124165892D01*
X117400500Y-124034108D01*
X117398737Y-124027530D01*
X117366393Y-123906818D01*
X117366389Y-123906807D01*
X117300501Y-123792687D01*
X117300496Y-123792681D01*
X117207318Y-123699503D01*
X117207312Y-123699498D01*
X117093192Y-123633610D01*
X117093181Y-123633606D01*
X116965892Y-123599500D01*
X116934500Y-123599500D01*
X116862054Y-123578228D01*
X116812609Y-123521166D01*
X116800500Y-123465500D01*
X116800500Y-123434107D01*
X116766393Y-123306818D01*
X116766389Y-123306807D01*
X116720023Y-123226500D01*
X116702222Y-123153124D01*
X116726917Y-123081773D01*
X116786267Y-123035099D01*
X116836070Y-123025500D01*
X119962182Y-123025500D01*
X120034628Y-123046772D01*
X120056935Y-123064749D01*
X120092682Y-123100497D01*
X120092687Y-123100501D01*
X120206807Y-123166389D01*
X120206811Y-123166390D01*
X120206814Y-123166392D01*
X120334108Y-123200500D01*
X120465892Y-123200500D01*
X120593186Y-123166392D01*
X120593189Y-123166389D01*
X120593192Y-123166389D01*
X120707312Y-123100501D01*
X120707311Y-123100501D01*
X120707314Y-123100500D01*
X120800500Y-123007314D01*
X120843799Y-122932318D01*
X120866389Y-122893192D01*
X120866389Y-122893189D01*
X120866392Y-122893186D01*
X120900500Y-122765892D01*
X120900500Y-122634108D01*
X120893951Y-122609668D01*
X120866393Y-122506818D01*
X120866389Y-122506807D01*
X120800501Y-122392687D01*
X120800496Y-122392681D01*
X120707318Y-122299503D01*
X120707312Y-122299498D01*
X120593192Y-122233610D01*
X120593181Y-122233606D01*
X120465892Y-122199500D01*
X120334108Y-122199500D01*
X120206818Y-122233606D01*
X120206807Y-122233610D01*
X120092687Y-122299498D01*
X120092682Y-122299502D01*
X120056935Y-122335251D01*
X119990667Y-122371437D01*
X119962182Y-122374500D01*
X115951078Y-122374500D01*
X115951062Y-122374499D01*
X115942853Y-122374499D01*
X115857147Y-122374499D01*
X115774362Y-122396681D01*
X115750093Y-122410692D01*
X115737250Y-122418108D01*
X115700138Y-122439535D01*
X115639535Y-122500138D01*
X115639533Y-122500140D01*
X115634964Y-122504708D01*
X115634959Y-122504713D01*
X113904421Y-124235252D01*
X113838153Y-124271438D01*
X113809669Y-124274500D01*
X108836070Y-124274500D01*
X108763624Y-124253228D01*
X108714179Y-124196166D01*
X108703434Y-124121430D01*
X108720023Y-124073500D01*
X108766389Y-123993192D01*
X108766389Y-123993189D01*
X108766392Y-123993186D01*
X108800500Y-123865892D01*
X108800500Y-123734108D01*
X108791226Y-123699498D01*
X108773571Y-123633606D01*
X108766392Y-123606814D01*
X108766390Y-123606811D01*
X108766389Y-123606807D01*
X108700501Y-123492687D01*
X108700496Y-123492681D01*
X108664748Y-123456933D01*
X108628562Y-123390665D01*
X108625500Y-123362181D01*
X108625500Y-120234107D01*
X111399500Y-120234107D01*
X111399500Y-120365892D01*
X111433606Y-120493181D01*
X111433610Y-120493192D01*
X111499498Y-120607312D01*
X111499503Y-120607318D01*
X111592681Y-120700496D01*
X111592687Y-120700501D01*
X111706807Y-120766389D01*
X111706811Y-120766390D01*
X111706814Y-120766392D01*
X111834108Y-120800500D01*
X111965892Y-120800500D01*
X112093186Y-120766392D01*
X112093189Y-120766389D01*
X112093192Y-120766389D01*
X112207312Y-120700501D01*
X112207311Y-120700501D01*
X112207314Y-120700500D01*
X112300500Y-120607314D01*
X112366392Y-120493186D01*
X112400500Y-120365892D01*
X112400500Y-120234108D01*
X112366392Y-120106814D01*
X112366390Y-120106811D01*
X112366389Y-120106807D01*
X112300501Y-119992687D01*
X112300496Y-119992681D01*
X112207318Y-119899503D01*
X112207312Y-119899498D01*
X112093192Y-119833610D01*
X112093181Y-119833606D01*
X111965892Y-119799500D01*
X111834108Y-119799500D01*
X111706818Y-119833606D01*
X111706807Y-119833610D01*
X111592687Y-119899498D01*
X111592681Y-119899503D01*
X111499503Y-119992681D01*
X111499498Y-119992687D01*
X111433610Y-120106807D01*
X111433606Y-120106818D01*
X111399500Y-120234107D01*
X108625500Y-120234107D01*
X108625500Y-118290329D01*
X108646772Y-118217883D01*
X108664743Y-118195582D01*
X109026218Y-117834107D01*
X110199500Y-117834107D01*
X110199500Y-117965892D01*
X110233606Y-118093181D01*
X110233610Y-118093192D01*
X110299498Y-118207312D01*
X110299503Y-118207318D01*
X110392681Y-118300496D01*
X110392687Y-118300501D01*
X110506807Y-118366389D01*
X110506811Y-118366390D01*
X110506814Y-118366392D01*
X110634108Y-118400500D01*
X110765892Y-118400500D01*
X110893186Y-118366392D01*
X110893189Y-118366389D01*
X110893192Y-118366389D01*
X111007312Y-118300501D01*
X111007311Y-118300501D01*
X111007314Y-118300500D01*
X111100500Y-118207314D01*
X111116973Y-118178782D01*
X111166389Y-118093192D01*
X111166389Y-118093189D01*
X111166392Y-118093186D01*
X111200500Y-117965892D01*
X111200500Y-117834108D01*
X111166392Y-117706814D01*
X111166390Y-117706811D01*
X111166389Y-117706807D01*
X111100501Y-117592687D01*
X111100496Y-117592681D01*
X111007318Y-117499503D01*
X111007312Y-117499498D01*
X110893192Y-117433610D01*
X110893181Y-117433606D01*
X110765892Y-117399500D01*
X110634108Y-117399500D01*
X110506818Y-117433606D01*
X110506807Y-117433610D01*
X110392687Y-117499498D01*
X110392681Y-117499503D01*
X110299503Y-117592681D01*
X110299498Y-117592687D01*
X110233610Y-117706807D01*
X110233606Y-117706818D01*
X110199500Y-117834107D01*
X109026218Y-117834107D01*
X113226217Y-113634107D01*
X115499500Y-113634107D01*
X115499500Y-113765892D01*
X115533606Y-113893181D01*
X115533610Y-113893192D01*
X115599498Y-114007312D01*
X115599503Y-114007318D01*
X115692681Y-114100496D01*
X115692687Y-114100501D01*
X115806807Y-114166389D01*
X115806811Y-114166390D01*
X115806814Y-114166392D01*
X115934108Y-114200500D01*
X116065892Y-114200500D01*
X116193186Y-114166392D01*
X116193189Y-114166389D01*
X116193192Y-114166389D01*
X116278782Y-114116973D01*
X116307314Y-114100500D01*
X116400500Y-114007314D01*
X116436119Y-113945620D01*
X116466389Y-113893192D01*
X116466389Y-113893189D01*
X116466392Y-113893186D01*
X116500500Y-113765892D01*
X116500500Y-113634108D01*
X116500499Y-113634106D01*
X116466393Y-113506818D01*
X116466389Y-113506807D01*
X116400501Y-113392687D01*
X116400496Y-113392681D01*
X116307318Y-113299503D01*
X116307312Y-113299498D01*
X116193192Y-113233610D01*
X116193181Y-113233606D01*
X116065892Y-113199500D01*
X115934108Y-113199500D01*
X115806818Y-113233606D01*
X115806807Y-113233610D01*
X115692687Y-113299498D01*
X115692681Y-113299503D01*
X115599503Y-113392681D01*
X115599498Y-113392687D01*
X115533610Y-113506807D01*
X115533606Y-113506818D01*
X115499500Y-113634107D01*
X113226217Y-113634107D01*
X113488826Y-113371498D01*
X113488836Y-113371491D01*
X113560463Y-113299864D01*
X113560466Y-113299860D01*
X113581881Y-113262767D01*
X113581891Y-113262750D01*
X113603318Y-113225639D01*
X113625500Y-113142853D01*
X113625500Y-113057147D01*
X113625500Y-111334107D01*
X114699500Y-111334107D01*
X114699500Y-111465892D01*
X114733606Y-111593181D01*
X114733610Y-111593192D01*
X114799498Y-111707312D01*
X114799503Y-111707318D01*
X114892681Y-111800496D01*
X114892687Y-111800501D01*
X115006807Y-111866389D01*
X115006811Y-111866390D01*
X115006814Y-111866392D01*
X115134108Y-111900500D01*
X115265892Y-111900500D01*
X115393186Y-111866392D01*
X115393189Y-111866389D01*
X115393192Y-111866389D01*
X115507312Y-111800501D01*
X115507311Y-111800501D01*
X115507314Y-111800500D01*
X115600500Y-111707314D01*
X115658233Y-111607318D01*
X115666389Y-111593192D01*
X115666389Y-111593189D01*
X115666392Y-111593186D01*
X115700500Y-111465892D01*
X115700500Y-111334108D01*
X115666392Y-111206814D01*
X115666390Y-111206811D01*
X115666389Y-111206807D01*
X115600501Y-111092687D01*
X115600496Y-111092681D01*
X115507318Y-110999503D01*
X115507312Y-110999498D01*
X115393192Y-110933610D01*
X115393181Y-110933606D01*
X115265892Y-110899500D01*
X115134108Y-110899500D01*
X115006818Y-110933606D01*
X115006807Y-110933610D01*
X114892687Y-110999498D01*
X114892681Y-110999503D01*
X114799503Y-111092681D01*
X114799498Y-111092687D01*
X114733610Y-111206807D01*
X114733606Y-111206818D01*
X114699500Y-111334107D01*
X113625500Y-111334107D01*
X113625500Y-109434107D01*
X114599500Y-109434107D01*
X114599500Y-109565892D01*
X114633606Y-109693181D01*
X114633610Y-109693192D01*
X114699498Y-109807312D01*
X114699503Y-109807318D01*
X114792681Y-109900496D01*
X114792687Y-109900501D01*
X114906807Y-109966389D01*
X114906811Y-109966390D01*
X114906814Y-109966392D01*
X115034108Y-110000500D01*
X115165892Y-110000500D01*
X115293186Y-109966392D01*
X115293189Y-109966389D01*
X115293192Y-109966389D01*
X115396378Y-109906814D01*
X115407314Y-109900500D01*
X115443065Y-109864749D01*
X115509333Y-109828563D01*
X115537818Y-109825500D01*
X117542853Y-109825500D01*
X117625639Y-109803318D01*
X117699862Y-109760465D01*
X118620579Y-108839748D01*
X118686847Y-108803562D01*
X118715331Y-108800500D01*
X118765892Y-108800500D01*
X118893186Y-108766392D01*
X118893189Y-108766389D01*
X118893192Y-108766389D01*
X119007312Y-108700501D01*
X119007311Y-108700501D01*
X119007314Y-108700500D01*
X119100500Y-108607314D01*
X119166392Y-108493186D01*
X119200500Y-108365892D01*
X119200500Y-108234108D01*
X119166392Y-108106814D01*
X119166390Y-108106811D01*
X119166389Y-108106807D01*
X119100501Y-107992687D01*
X119100496Y-107992681D01*
X119064748Y-107956933D01*
X119028562Y-107890665D01*
X119025500Y-107862181D01*
X119025500Y-96136070D01*
X119046772Y-96063624D01*
X119103834Y-96014179D01*
X119178570Y-96003434D01*
X119226500Y-96020023D01*
X119306807Y-96066389D01*
X119306811Y-96066390D01*
X119306814Y-96066392D01*
X119434108Y-96100500D01*
X119440500Y-96100500D01*
X119512946Y-96121772D01*
X119562391Y-96178834D01*
X119574500Y-96234500D01*
X119574500Y-110856114D01*
X119553228Y-110928560D01*
X119535252Y-110950866D01*
X117789538Y-112696579D01*
X117789535Y-112696582D01*
X117746683Y-112770804D01*
X117746680Y-112770812D01*
X117726693Y-112845409D01*
X117726691Y-112845417D01*
X117724501Y-112853588D01*
X117724500Y-112853596D01*
X117724500Y-113231598D01*
X117703228Y-113304044D01*
X117657500Y-113347645D01*
X117567687Y-113399498D01*
X117567681Y-113399503D01*
X117474503Y-113492681D01*
X117474498Y-113492687D01*
X117408610Y-113606807D01*
X117408606Y-113606818D01*
X117374500Y-113734107D01*
X117374500Y-113865892D01*
X117408606Y-113993181D01*
X117408610Y-113993192D01*
X117474498Y-114107312D01*
X117474503Y-114107318D01*
X117567681Y-114200496D01*
X117567687Y-114200501D01*
X117681807Y-114266389D01*
X117681811Y-114266390D01*
X117681814Y-114266392D01*
X117809108Y-114300500D01*
X117940892Y-114300500D01*
X118068186Y-114266392D01*
X118068189Y-114266389D01*
X118068192Y-114266389D01*
X118182312Y-114200501D01*
X118182311Y-114200501D01*
X118182314Y-114200500D01*
X118191608Y-114191206D01*
X118205248Y-114177567D01*
X118271516Y-114141381D01*
X118346828Y-114146768D01*
X118394752Y-114177567D01*
X118417681Y-114200496D01*
X118417687Y-114200501D01*
X118531807Y-114266389D01*
X118531811Y-114266390D01*
X118531814Y-114266392D01*
X118659108Y-114300500D01*
X118790892Y-114300500D01*
X118918186Y-114266392D01*
X118918189Y-114266389D01*
X118918192Y-114266389D01*
X119032312Y-114200501D01*
X119032311Y-114200501D01*
X119032314Y-114200500D01*
X119125500Y-114107314D01*
X119141973Y-114078782D01*
X119191389Y-113993192D01*
X119191389Y-113993189D01*
X119191392Y-113993186D01*
X119225500Y-113865892D01*
X119225500Y-113734108D01*
X119191392Y-113606814D01*
X119191390Y-113606811D01*
X119191389Y-113606807D01*
X119125501Y-113492687D01*
X119125496Y-113492681D01*
X119032318Y-113399503D01*
X119032314Y-113399500D01*
X118981987Y-113370443D01*
X118929883Y-113315797D01*
X118915595Y-113241657D01*
X118943658Y-113171561D01*
X118954228Y-113159652D01*
X120660465Y-111453416D01*
X120671613Y-111434107D01*
X121199500Y-111434107D01*
X121199500Y-111565892D01*
X121233606Y-111693181D01*
X121233610Y-111693192D01*
X121299498Y-111807312D01*
X121299503Y-111807318D01*
X121392681Y-111900496D01*
X121392687Y-111900501D01*
X121506807Y-111966389D01*
X121506811Y-111966390D01*
X121506814Y-111966392D01*
X121634108Y-112000500D01*
X121765892Y-112000500D01*
X121893186Y-111966392D01*
X121893189Y-111966389D01*
X121893192Y-111966389D01*
X122007312Y-111900501D01*
X122007311Y-111900501D01*
X122007314Y-111900500D01*
X122100500Y-111807314D01*
X122143053Y-111733610D01*
X122166389Y-111693192D01*
X122166389Y-111693189D01*
X122166392Y-111693186D01*
X122200500Y-111565892D01*
X122200500Y-111434108D01*
X122190332Y-111396162D01*
X122166393Y-111306818D01*
X122166389Y-111306807D01*
X122100501Y-111192687D01*
X122100496Y-111192681D01*
X122007318Y-111099503D01*
X122007312Y-111099498D01*
X121893192Y-111033610D01*
X121893181Y-111033606D01*
X121765892Y-110999500D01*
X121634108Y-110999500D01*
X121506818Y-111033606D01*
X121506807Y-111033610D01*
X121392687Y-111099498D01*
X121392681Y-111099503D01*
X121299503Y-111192681D01*
X121299498Y-111192687D01*
X121233610Y-111306807D01*
X121233606Y-111306818D01*
X121199500Y-111434107D01*
X120671613Y-111434107D01*
X120703318Y-111379193D01*
X120725500Y-111296407D01*
X120725500Y-111210701D01*
X120725500Y-105456818D01*
X120746772Y-105384373D01*
X120803834Y-105334928D01*
X120878570Y-105324183D01*
X120947251Y-105355549D01*
X120954252Y-105362067D01*
X120992681Y-105400496D01*
X120992687Y-105400501D01*
X121106807Y-105466389D01*
X121106811Y-105466390D01*
X121106814Y-105466392D01*
X121234108Y-105500500D01*
X121365892Y-105500500D01*
X121493186Y-105466392D01*
X121493189Y-105466389D01*
X121493192Y-105466389D01*
X121607312Y-105400501D01*
X121607311Y-105400501D01*
X121607314Y-105400500D01*
X121700500Y-105307314D01*
X121766392Y-105193186D01*
X121800500Y-105065892D01*
X121800500Y-104934108D01*
X121766392Y-104806814D01*
X121766390Y-104806811D01*
X121766389Y-104806807D01*
X121700501Y-104692687D01*
X121700496Y-104692681D01*
X121664748Y-104656933D01*
X121628562Y-104590665D01*
X121625500Y-104562181D01*
X121625500Y-92557146D01*
X121615678Y-92520492D01*
X121615675Y-92520480D01*
X121603318Y-92474361D01*
X121560465Y-92400138D01*
X121560464Y-92400136D01*
X119664748Y-90504420D01*
X119648854Y-90475313D01*
X119630928Y-90447420D01*
X119629964Y-90440720D01*
X119628562Y-90438152D01*
X119625500Y-90409668D01*
X119625500Y-90237818D01*
X119646772Y-90165372D01*
X119664749Y-90143065D01*
X119700497Y-90107317D01*
X119700500Y-90107314D01*
X119766392Y-89993186D01*
X119800500Y-89865892D01*
X119800500Y-89734108D01*
X119766392Y-89606814D01*
X119766390Y-89606811D01*
X119766389Y-89606807D01*
X119700501Y-89492687D01*
X119700496Y-89492681D01*
X119607318Y-89399503D01*
X119607312Y-89399498D01*
X119493192Y-89333610D01*
X119493181Y-89333606D01*
X119365892Y-89299500D01*
X119234108Y-89299500D01*
X119225325Y-89299500D01*
X119225325Y-89296778D01*
X119164199Y-89287235D01*
X119107738Y-89237105D01*
X119087342Y-89164408D01*
X119105283Y-89099028D01*
X119166392Y-88993186D01*
X119200500Y-88865892D01*
X119200500Y-88734108D01*
X119200365Y-88733606D01*
X119166393Y-88606818D01*
X119166389Y-88606807D01*
X119100501Y-88492687D01*
X119100496Y-88492681D01*
X119007318Y-88399503D01*
X119007312Y-88399498D01*
X118893192Y-88333610D01*
X118893181Y-88333606D01*
X118765892Y-88299500D01*
X118634108Y-88299500D01*
X118506818Y-88333606D01*
X118506807Y-88333610D01*
X118392687Y-88399498D01*
X118392681Y-88399503D01*
X118299503Y-88492681D01*
X118299498Y-88492687D01*
X118233610Y-88606807D01*
X118233606Y-88606818D01*
X118199500Y-88734107D01*
X118199500Y-88865892D01*
X118233606Y-88993181D01*
X118233610Y-88993192D01*
X118299498Y-89107312D01*
X118299502Y-89107317D01*
X118335251Y-89143065D01*
X118371437Y-89209333D01*
X118374500Y-89237818D01*
X118374500Y-107862181D01*
X118353228Y-107934627D01*
X118335252Y-107956933D01*
X118299503Y-107992681D01*
X118299498Y-107992687D01*
X118233610Y-108106807D01*
X118233606Y-108106818D01*
X118199500Y-108234107D01*
X118199500Y-108284669D01*
X118178228Y-108357115D01*
X118160252Y-108379421D01*
X117404421Y-109135252D01*
X117338153Y-109171438D01*
X117309669Y-109174500D01*
X115537818Y-109174500D01*
X115465372Y-109153228D01*
X115443065Y-109135251D01*
X115407317Y-109099502D01*
X115407312Y-109099498D01*
X115293192Y-109033610D01*
X115293181Y-109033606D01*
X115165892Y-108999500D01*
X115034108Y-108999500D01*
X114906818Y-109033606D01*
X114906807Y-109033610D01*
X114792687Y-109099498D01*
X114792681Y-109099503D01*
X114699503Y-109192681D01*
X114699498Y-109192687D01*
X114633610Y-109306807D01*
X114633606Y-109306818D01*
X114599500Y-109434107D01*
X113625500Y-109434107D01*
X113625500Y-102734107D01*
X114299500Y-102734107D01*
X114299500Y-102865892D01*
X114333606Y-102993181D01*
X114333610Y-102993192D01*
X114399498Y-103107312D01*
X114399503Y-103107318D01*
X114492681Y-103200496D01*
X114492687Y-103200501D01*
X114606807Y-103266389D01*
X114606811Y-103266390D01*
X114606814Y-103266392D01*
X114734108Y-103300500D01*
X114865892Y-103300500D01*
X114993186Y-103266392D01*
X114993189Y-103266389D01*
X114993192Y-103266389D01*
X115107312Y-103200501D01*
X115107311Y-103200501D01*
X115107314Y-103200500D01*
X115200500Y-103107314D01*
X115266392Y-102993186D01*
X115300500Y-102865892D01*
X115300500Y-102734108D01*
X115291226Y-102699498D01*
X115266393Y-102606818D01*
X115266389Y-102606807D01*
X115200501Y-102492687D01*
X115200496Y-102492681D01*
X115107318Y-102399503D01*
X115107312Y-102399498D01*
X114993192Y-102333610D01*
X114993181Y-102333606D01*
X114865892Y-102299500D01*
X114734108Y-102299500D01*
X114606818Y-102333606D01*
X114606807Y-102333610D01*
X114492687Y-102399498D01*
X114492681Y-102399503D01*
X114399503Y-102492681D01*
X114399498Y-102492687D01*
X114333610Y-102606807D01*
X114333606Y-102606818D01*
X114299500Y-102734107D01*
X113625500Y-102734107D01*
X113625500Y-92590329D01*
X113646772Y-92517883D01*
X113664743Y-92495582D01*
X119899859Y-86260466D01*
X119899862Y-86260465D01*
X119960465Y-86199862D01*
X119987678Y-86152727D01*
X120003318Y-86125639D01*
X120025500Y-86042853D01*
X120025500Y-85957147D01*
X120025500Y-78837818D01*
X120046772Y-78765372D01*
X120064749Y-78743065D01*
X120100497Y-78707317D01*
X120100500Y-78707314D01*
X120166392Y-78593186D01*
X120200500Y-78465892D01*
X120200500Y-78334108D01*
X120166392Y-78206814D01*
X120166390Y-78206811D01*
X120166389Y-78206807D01*
X120100501Y-78092687D01*
X120100496Y-78092681D01*
X120007318Y-77999503D01*
X120007312Y-77999498D01*
X119893192Y-77933610D01*
X119893181Y-77933606D01*
X119765892Y-77899500D01*
X119634108Y-77899500D01*
X119506818Y-77933606D01*
X119506807Y-77933610D01*
X119392687Y-77999498D01*
X119392681Y-77999503D01*
X119299503Y-78092681D01*
X119299498Y-78092687D01*
X119233610Y-78206807D01*
X119233606Y-78206818D01*
X119199500Y-78334107D01*
X119199500Y-78465892D01*
X119233606Y-78593181D01*
X119233610Y-78593192D01*
X119299498Y-78707312D01*
X119299502Y-78707317D01*
X119335251Y-78743065D01*
X119371437Y-78809333D01*
X119374500Y-78837818D01*
X119374500Y-85809668D01*
X119353228Y-85882114D01*
X119335252Y-85904420D01*
X113154252Y-92085420D01*
X113087984Y-92121606D01*
X113012672Y-92116219D01*
X112952227Y-92070971D01*
X112925841Y-92000227D01*
X112925500Y-91990668D01*
X112925500Y-90973173D01*
X112946772Y-90900727D01*
X112964748Y-90878421D01*
X115644322Y-88198847D01*
X115710590Y-88162661D01*
X115739074Y-88159599D01*
X115980463Y-88159599D01*
X116056890Y-88139120D01*
X116125412Y-88099559D01*
X116181361Y-88043610D01*
X116485222Y-87739747D01*
X116551490Y-87703562D01*
X116579974Y-87700500D01*
X116665892Y-87700500D01*
X116793186Y-87666392D01*
X116793189Y-87666389D01*
X116793192Y-87666389D01*
X116907312Y-87600501D01*
X116907311Y-87600501D01*
X116907314Y-87600500D01*
X117000500Y-87507314D01*
X117043053Y-87433610D01*
X117066389Y-87393192D01*
X117066389Y-87393189D01*
X117066392Y-87393186D01*
X117100500Y-87265892D01*
X117100500Y-87134108D01*
X117095856Y-87116778D01*
X117066393Y-87006818D01*
X117066389Y-87006807D01*
X117000501Y-86892687D01*
X117000496Y-86892681D01*
X116907318Y-86799503D01*
X116907312Y-86799498D01*
X116793192Y-86733610D01*
X116793181Y-86733606D01*
X116665892Y-86699500D01*
X116534108Y-86699500D01*
X116406818Y-86733606D01*
X116406809Y-86733610D01*
X116310844Y-86789015D01*
X116237468Y-86806815D01*
X116166117Y-86782120D01*
X116127798Y-86739967D01*
X116100501Y-86692687D01*
X116100496Y-86692681D01*
X116007318Y-86599503D01*
X116007312Y-86599498D01*
X115893192Y-86533610D01*
X115893181Y-86533606D01*
X115765892Y-86499500D01*
X115684331Y-86499500D01*
X115611885Y-86478228D01*
X115562440Y-86421166D01*
X115551695Y-86346430D01*
X115583061Y-86277749D01*
X115589579Y-86270748D01*
X118560464Y-83299863D01*
X118560465Y-83299862D01*
X118603318Y-83225639D01*
X118625500Y-83142853D01*
X118625500Y-83057147D01*
X118625500Y-82337818D01*
X118646772Y-82265372D01*
X118664749Y-82243065D01*
X118700497Y-82207317D01*
X118700500Y-82207314D01*
X118761584Y-82101514D01*
X118766389Y-82093192D01*
X118766389Y-82093189D01*
X118766392Y-82093186D01*
X118800500Y-81965892D01*
X118800500Y-81834108D01*
X118791227Y-81799502D01*
X118766393Y-81706818D01*
X118766389Y-81706807D01*
X118700501Y-81592687D01*
X118700496Y-81592681D01*
X118607318Y-81499503D01*
X118607312Y-81499498D01*
X118493192Y-81433610D01*
X118493181Y-81433606D01*
X118365892Y-81399500D01*
X118234108Y-81399500D01*
X118106818Y-81433606D01*
X118106807Y-81433610D01*
X117992687Y-81499498D01*
X117992681Y-81499503D01*
X117899503Y-81592681D01*
X117899498Y-81592687D01*
X117833610Y-81706807D01*
X117833606Y-81706818D01*
X117799500Y-81834107D01*
X117799500Y-81965892D01*
X117833606Y-82093181D01*
X117833610Y-82093192D01*
X117899498Y-82207312D01*
X117899502Y-82207317D01*
X117935251Y-82243065D01*
X117971437Y-82309333D01*
X117974500Y-82337818D01*
X117974500Y-82909668D01*
X117953228Y-82982114D01*
X117935252Y-83004420D01*
X112168516Y-88771155D01*
X112102248Y-88807341D01*
X112026936Y-88801954D01*
X111966491Y-88756706D01*
X111944331Y-88711085D01*
X111916392Y-88606814D01*
X111916390Y-88606811D01*
X111916389Y-88606807D01*
X111850501Y-88492687D01*
X111850496Y-88492681D01*
X111757318Y-88399503D01*
X111757312Y-88399498D01*
X111643192Y-88333610D01*
X111643181Y-88333606D01*
X111515892Y-88299500D01*
X111384108Y-88299500D01*
X111256818Y-88333606D01*
X111256807Y-88333610D01*
X111142687Y-88399498D01*
X111142681Y-88399503D01*
X111049503Y-88492681D01*
X111049498Y-88492687D01*
X110983610Y-88606807D01*
X110983606Y-88606818D01*
X110949500Y-88734107D01*
X110949500Y-88865892D01*
X110983606Y-88993181D01*
X110983610Y-88993192D01*
X111049498Y-89107312D01*
X111049503Y-89107318D01*
X111142681Y-89200496D01*
X111142687Y-89200501D01*
X111256807Y-89266389D01*
X111256811Y-89266390D01*
X111256814Y-89266392D01*
X111361084Y-89294330D01*
X111425555Y-89333626D01*
X111458547Y-89401541D01*
X111449584Y-89476512D01*
X111421155Y-89518516D01*
X108329421Y-92610252D01*
X108263153Y-92646438D01*
X108234669Y-92649500D01*
X103342661Y-92649500D01*
X103270215Y-92628228D01*
X103223266Y-92576335D01*
X103203050Y-92536658D01*
X103113342Y-92446950D01*
X103000304Y-92389354D01*
X102906520Y-92374500D01*
X102293484Y-92374500D01*
X102199695Y-92389354D01*
X102086657Y-92446950D01*
X101996950Y-92536657D01*
X101939354Y-92649695D01*
X101924500Y-92743479D01*
X101924500Y-93206515D01*
X101929085Y-93235464D01*
X101939354Y-93300304D01*
X101996950Y-93413342D01*
X102086658Y-93503050D01*
X102199696Y-93560646D01*
X102293481Y-93575500D01*
X102906518Y-93575499D01*
X103000304Y-93560646D01*
X103113342Y-93503050D01*
X103203050Y-93413342D01*
X103223267Y-93373663D01*
X103275109Y-93318773D01*
X103342661Y-93300500D01*
X108467853Y-93300500D01*
X108550639Y-93278318D01*
X108624862Y-93235465D01*
X109681484Y-92178841D01*
X109747750Y-92142657D01*
X109823062Y-92148044D01*
X109883506Y-92193292D01*
X109905668Y-92238913D01*
X109933607Y-92343183D01*
X109933610Y-92343192D01*
X109999498Y-92457312D01*
X109999503Y-92457318D01*
X110092681Y-92550496D01*
X110092687Y-92550501D01*
X110206807Y-92616389D01*
X110206811Y-92616390D01*
X110206814Y-92616392D01*
X110334108Y-92650500D01*
X110465892Y-92650500D01*
X110593186Y-92616392D01*
X110593189Y-92616389D01*
X110593192Y-92616389D01*
X110707312Y-92550501D01*
X110707311Y-92550501D01*
X110707314Y-92550500D01*
X110800500Y-92457314D01*
X110839737Y-92389354D01*
X110866389Y-92343192D01*
X110866389Y-92343189D01*
X110866392Y-92343186D01*
X110900500Y-92215892D01*
X110900500Y-92084108D01*
X110890630Y-92047274D01*
X110866393Y-91956818D01*
X110866389Y-91956807D01*
X110800501Y-91842687D01*
X110800496Y-91842681D01*
X110707318Y-91749503D01*
X110707312Y-91749498D01*
X110593192Y-91683610D01*
X110593183Y-91683607D01*
X110488913Y-91655668D01*
X110424441Y-91616370D01*
X110391450Y-91548455D01*
X110400414Y-91473485D01*
X110428840Y-91431485D01*
X113819866Y-88040460D01*
X114970748Y-86889579D01*
X114989804Y-86879173D01*
X115005723Y-86864403D01*
X115022266Y-86861447D01*
X115037016Y-86853393D01*
X115058674Y-86854942D01*
X115080050Y-86851123D01*
X115095566Y-86857581D01*
X115112328Y-86858780D01*
X115129710Y-86871791D01*
X115149758Y-86880136D01*
X115159318Y-86893956D01*
X115172773Y-86904028D01*
X115180361Y-86924374D01*
X115192714Y-86942230D01*
X115197046Y-86969107D01*
X115199159Y-86974772D01*
X115199423Y-86979776D01*
X115199500Y-86982039D01*
X115199500Y-87065892D01*
X115202766Y-87078084D01*
X115203288Y-87093405D01*
X115197548Y-87115732D01*
X115196997Y-87138779D01*
X115187708Y-87154014D01*
X115184491Y-87166532D01*
X115174329Y-87175960D01*
X115164117Y-87192712D01*
X112774517Y-89582314D01*
X111990489Y-90366342D01*
X111962514Y-90394317D01*
X111934539Y-90422291D01*
X111934538Y-90422292D01*
X111894979Y-90490811D01*
X111874500Y-90567240D01*
X111874500Y-111926827D01*
X111853228Y-111999273D01*
X111835252Y-112021579D01*
X111143448Y-112713382D01*
X111077180Y-112749568D01*
X111001868Y-112744181D01*
X110941423Y-112698933D01*
X110915037Y-112628189D01*
X110931087Y-112554411D01*
X110932619Y-112551681D01*
X110966392Y-112493186D01*
X111000500Y-112365892D01*
X111000500Y-112234108D01*
X110991226Y-112199498D01*
X110966393Y-112106818D01*
X110966389Y-112106807D01*
X110900501Y-111992687D01*
X110900496Y-111992681D01*
X110807318Y-111899503D01*
X110807312Y-111899498D01*
X110693192Y-111833610D01*
X110693181Y-111833606D01*
X110565892Y-111799500D01*
X110434108Y-111799500D01*
X110306818Y-111833606D01*
X110306807Y-111833610D01*
X110192687Y-111899498D01*
X110192681Y-111899503D01*
X110099503Y-111992681D01*
X110099498Y-111992687D01*
X110033610Y-112106807D01*
X110033606Y-112106818D01*
X109999500Y-112234107D01*
X109999500Y-112365892D01*
X110033606Y-112493181D01*
X110033610Y-112493192D01*
X110099498Y-112607312D01*
X110099503Y-112607318D01*
X110192681Y-112700496D01*
X110192687Y-112700501D01*
X110306807Y-112766389D01*
X110306811Y-112766390D01*
X110306814Y-112766392D01*
X110434108Y-112800500D01*
X110565892Y-112800500D01*
X110693186Y-112766392D01*
X110751631Y-112732648D01*
X110825004Y-112714848D01*
X110896356Y-112739542D01*
X110943031Y-112798892D01*
X110950209Y-112874054D01*
X110915611Y-112941165D01*
X110913383Y-112943448D01*
X110721577Y-113135253D01*
X110655311Y-113171438D01*
X110626827Y-113174500D01*
X109349044Y-113174500D01*
X109272622Y-113194976D01*
X109272615Y-113194979D01*
X109204093Y-113234540D01*
X109204090Y-113234543D01*
X105629252Y-116809382D01*
X105562984Y-116845568D01*
X105487672Y-116840181D01*
X105427227Y-116794933D01*
X105400841Y-116724189D01*
X105400500Y-116714630D01*
X105400500Y-116634107D01*
X105366393Y-116506818D01*
X105366389Y-116506807D01*
X105300501Y-116392687D01*
X105300496Y-116392681D01*
X105207318Y-116299503D01*
X105207312Y-116299498D01*
X105093192Y-116233610D01*
X105093183Y-116233607D01*
X105000572Y-116208792D01*
X104940502Y-116174110D01*
X102425888Y-113659495D01*
X102391206Y-113599423D01*
X102366393Y-113506819D01*
X102366393Y-113506818D01*
X102366392Y-113506814D01*
X102366390Y-113506811D01*
X102366389Y-113506807D01*
X102300501Y-113392687D01*
X102300496Y-113392681D01*
X102207318Y-113299503D01*
X102207312Y-113299498D01*
X102093192Y-113233610D01*
X102093181Y-113233606D01*
X101965892Y-113199500D01*
X101834108Y-113199500D01*
X101706818Y-113233606D01*
X101706807Y-113233610D01*
X101592687Y-113299498D01*
X101592681Y-113299503D01*
X101499503Y-113392681D01*
X101499498Y-113392687D01*
X101433610Y-113506807D01*
X101433606Y-113506818D01*
X101399500Y-113634107D01*
X101399500Y-113765892D01*
X101433606Y-113893181D01*
X101433610Y-113893192D01*
X101499498Y-114007312D01*
X101499503Y-114007318D01*
X101592681Y-114100496D01*
X101592687Y-114100501D01*
X101706807Y-114166389D01*
X101706811Y-114166390D01*
X101706814Y-114166392D01*
X101748521Y-114177567D01*
X101799423Y-114191206D01*
X101859495Y-114225888D01*
X104374110Y-116740502D01*
X104408792Y-116800572D01*
X104433607Y-116893183D01*
X104433610Y-116893192D01*
X104499498Y-117007312D01*
X104499503Y-117007318D01*
X104592681Y-117100496D01*
X104592687Y-117100501D01*
X104706807Y-117166389D01*
X104706811Y-117166390D01*
X104706814Y-117166392D01*
X104834108Y-117200500D01*
X104914630Y-117200500D01*
X104987076Y-117221772D01*
X105036521Y-117278834D01*
X105047266Y-117353570D01*
X105015900Y-117422251D01*
X105009382Y-117429252D01*
X101849056Y-120589579D01*
X98697989Y-123740646D01*
X98680587Y-123758048D01*
X98642039Y-123796595D01*
X98642038Y-123796596D01*
X98602479Y-123865115D01*
X98582204Y-123940781D01*
X98542906Y-124005252D01*
X98527219Y-124017513D01*
X98470447Y-124055448D01*
X98426134Y-124121766D01*
X98426133Y-124121769D01*
X98414500Y-124180250D01*
X98414500Y-126719753D01*
X98415145Y-126726305D01*
X98412334Y-126726581D01*
X98406696Y-126789566D01*
X98360374Y-126849192D01*
X98289169Y-126874308D01*
X98282002Y-126874500D01*
X97943884Y-126874500D01*
X97871438Y-126853228D01*
X97849132Y-126835252D01*
X96314748Y-125300867D01*
X96278562Y-125234599D01*
X96275500Y-125206115D01*
X96275500Y-122953596D01*
X96275500Y-122953593D01*
X96273326Y-122945480D01*
X96253318Y-122870807D01*
X96226149Y-122823750D01*
X96210464Y-122796582D01*
X92114748Y-118700866D01*
X92078562Y-118634598D01*
X92075500Y-118606114D01*
X92075500Y-116568401D01*
X92096772Y-116495955D01*
X92142496Y-116452356D01*
X92232314Y-116400500D01*
X92325500Y-116307314D01*
X92341973Y-116278782D01*
X92391389Y-116193192D01*
X92391389Y-116193189D01*
X92391392Y-116193186D01*
X92425500Y-116065892D01*
X92425500Y-115934108D01*
X92391392Y-115806814D01*
X92391390Y-115806811D01*
X92391389Y-115806807D01*
X92325501Y-115692687D01*
X92325496Y-115692681D01*
X92232318Y-115599503D01*
X92232312Y-115599498D01*
X92118192Y-115533610D01*
X92118181Y-115533606D01*
X91990892Y-115499500D01*
X91859108Y-115499500D01*
X91731818Y-115533606D01*
X91731807Y-115533610D01*
X91617687Y-115599498D01*
X91617681Y-115599503D01*
X91594752Y-115622433D01*
X91528484Y-115658619D01*
X91453172Y-115653232D01*
X91405248Y-115622433D01*
X91382318Y-115599503D01*
X91382312Y-115599498D01*
X91268192Y-115533610D01*
X91268181Y-115533606D01*
X91140892Y-115499500D01*
X91009108Y-115499500D01*
X90881818Y-115533606D01*
X90881807Y-115533610D01*
X90767687Y-115599498D01*
X90767681Y-115599503D01*
X90674503Y-115692681D01*
X90674498Y-115692687D01*
X90608610Y-115806807D01*
X90608606Y-115806818D01*
X90574500Y-115934107D01*
X90574500Y-116065892D01*
X90608606Y-116193181D01*
X90608610Y-116193192D01*
X90674498Y-116307312D01*
X90674503Y-116307318D01*
X90767682Y-116400497D01*
X90767684Y-116400498D01*
X90767686Y-116400500D01*
X90857502Y-116452355D01*
X90909604Y-116506998D01*
X90924500Y-116568401D01*
X90924500Y-119046407D01*
X90946680Y-119129188D01*
X90946683Y-119129195D01*
X90989535Y-119203417D01*
X90989538Y-119203420D01*
X95085252Y-123299133D01*
X95121438Y-123365401D01*
X95124500Y-123393885D01*
X95124500Y-125646407D01*
X95146680Y-125729188D01*
X95146683Y-125729195D01*
X95189535Y-125803417D01*
X95189538Y-125803420D01*
X96386705Y-127000586D01*
X96422891Y-127066854D01*
X96417504Y-127142166D01*
X96372256Y-127202610D01*
X96326636Y-127224772D01*
X96268228Y-127240423D01*
X96131295Y-127319480D01*
X96131291Y-127319483D01*
X96019495Y-127431279D01*
X96019492Y-127431283D01*
X95940434Y-127568217D01*
X95899512Y-127720942D01*
X95899512Y-127879057D01*
X95939097Y-128026793D01*
X95940435Y-128031784D01*
X96003356Y-128140767D01*
X96019492Y-128168716D01*
X96019495Y-128168720D01*
X96131291Y-128280516D01*
X96131295Y-128280519D01*
X96131296Y-128280520D01*
X96268228Y-128359577D01*
X96420955Y-128400500D01*
X96579069Y-128400500D01*
X96731796Y-128359577D01*
X96868728Y-128280520D01*
X96980532Y-128168716D01*
X97059589Y-128031784D01*
X97075239Y-127973376D01*
X97093636Y-127943194D01*
X97110895Y-127912341D01*
X97113185Y-127911120D01*
X97114536Y-127908905D01*
X97146335Y-127893457D01*
X97177530Y-127876836D01*
X97180115Y-127877047D01*
X97182451Y-127875913D01*
X97217552Y-127880109D01*
X97252783Y-127882992D01*
X97255291Y-127884622D01*
X97257421Y-127884877D01*
X97286069Y-127901612D01*
X97293131Y-127907012D01*
X97346584Y-127960465D01*
X97413732Y-127999232D01*
X97420619Y-128004499D01*
X97438018Y-128028243D01*
X97458327Y-128049543D01*
X97460004Y-128058249D01*
X97465247Y-128065403D01*
X97467046Y-128094783D01*
X97472616Y-128123683D01*
X97469319Y-128131915D01*
X97469862Y-128140767D01*
X97455492Y-128166453D01*
X97444554Y-128193778D01*
X97433975Y-128205697D01*
X96504421Y-129135252D01*
X96438153Y-129171438D01*
X96409669Y-129174500D01*
X92990330Y-129174500D01*
X92917884Y-129153228D01*
X92895578Y-129135252D01*
X87999866Y-124239538D01*
X87999863Y-124239535D01*
X87925641Y-124196683D01*
X87925634Y-124196680D01*
X87842853Y-124174500D01*
X86890331Y-124174500D01*
X86817885Y-124153228D01*
X86795579Y-124135252D01*
X85394434Y-122734107D01*
X86199500Y-122734107D01*
X86199500Y-122865892D01*
X86233606Y-122993181D01*
X86233610Y-122993192D01*
X86299498Y-123107312D01*
X86299503Y-123107318D01*
X86392681Y-123200496D01*
X86392687Y-123200501D01*
X86506807Y-123266389D01*
X86506811Y-123266390D01*
X86506814Y-123266392D01*
X86634108Y-123300500D01*
X86765892Y-123300500D01*
X86893186Y-123266392D01*
X86893189Y-123266389D01*
X86893192Y-123266389D01*
X87007312Y-123200501D01*
X87007311Y-123200501D01*
X87007314Y-123200500D01*
X87100500Y-123107314D01*
X87141218Y-123036789D01*
X87166389Y-122993192D01*
X87166389Y-122993189D01*
X87166392Y-122993186D01*
X87200500Y-122865892D01*
X87200500Y-122734108D01*
X87188920Y-122690892D01*
X87166393Y-122606818D01*
X87166389Y-122606807D01*
X87100501Y-122492687D01*
X87100496Y-122492681D01*
X87007318Y-122399503D01*
X87007312Y-122399498D01*
X86893192Y-122333610D01*
X86893181Y-122333606D01*
X86765892Y-122299500D01*
X86634108Y-122299500D01*
X86506818Y-122333606D01*
X86506807Y-122333610D01*
X86392687Y-122399498D01*
X86392681Y-122399503D01*
X86299503Y-122492681D01*
X86299498Y-122492687D01*
X86233610Y-122606807D01*
X86233606Y-122606818D01*
X86199500Y-122734107D01*
X85394434Y-122734107D01*
X82614748Y-119954421D01*
X82578562Y-119888153D01*
X82575500Y-119859669D01*
X82575500Y-116034107D01*
X83299500Y-116034107D01*
X83299500Y-116165892D01*
X83333606Y-116293181D01*
X83333610Y-116293192D01*
X83399498Y-116407312D01*
X83399503Y-116407318D01*
X83492681Y-116500496D01*
X83492687Y-116500501D01*
X83606807Y-116566389D01*
X83606811Y-116566390D01*
X83606814Y-116566392D01*
X83734108Y-116600500D01*
X83865892Y-116600500D01*
X83993186Y-116566392D01*
X83993189Y-116566389D01*
X83993192Y-116566389D01*
X84078782Y-116516973D01*
X84107314Y-116500500D01*
X84200500Y-116407314D01*
X84258233Y-116307318D01*
X84266389Y-116293192D01*
X84266389Y-116293189D01*
X84266392Y-116293186D01*
X84300500Y-116165892D01*
X84300500Y-116034108D01*
X84266392Y-115906814D01*
X84266390Y-115906811D01*
X84266389Y-115906807D01*
X84200501Y-115792687D01*
X84200496Y-115792681D01*
X84107318Y-115699503D01*
X84107312Y-115699498D01*
X83993192Y-115633610D01*
X83993181Y-115633606D01*
X83865892Y-115599500D01*
X83734108Y-115599500D01*
X83606818Y-115633606D01*
X83606807Y-115633610D01*
X83492687Y-115699498D01*
X83492681Y-115699503D01*
X83399503Y-115792681D01*
X83399498Y-115792687D01*
X83333610Y-115906807D01*
X83333606Y-115906818D01*
X83299500Y-116034107D01*
X82575500Y-116034107D01*
X82575500Y-113812885D01*
X82596772Y-113740439D01*
X82653834Y-113690994D01*
X82728570Y-113680249D01*
X82797251Y-113711615D01*
X82804252Y-113718133D01*
X85191439Y-116105319D01*
X85227625Y-116171587D01*
X85226121Y-116234751D01*
X85199500Y-116334106D01*
X85199500Y-116465892D01*
X85233606Y-116593181D01*
X85233610Y-116593192D01*
X85299498Y-116707312D01*
X85299503Y-116707318D01*
X85392681Y-116800496D01*
X85392687Y-116800501D01*
X85506807Y-116866389D01*
X85506811Y-116866390D01*
X85506814Y-116866392D01*
X85634108Y-116900500D01*
X85765892Y-116900500D01*
X85893186Y-116866392D01*
X85893189Y-116866389D01*
X85893192Y-116866389D01*
X86007312Y-116800501D01*
X86007311Y-116800501D01*
X86007314Y-116800500D01*
X86100500Y-116707314D01*
X86166392Y-116593186D01*
X86166392Y-116593184D01*
X86167692Y-116590048D01*
X86169499Y-116587805D01*
X86170784Y-116585580D01*
X86171130Y-116585780D01*
X86215067Y-116531256D01*
X86286706Y-116507410D01*
X86359866Y-116526080D01*
X86386245Y-116546572D01*
X87400133Y-117560461D01*
X87400136Y-117560464D01*
X87400138Y-117560465D01*
X87474361Y-117603318D01*
X87557147Y-117625500D01*
X87642853Y-117625500D01*
X88162182Y-117625500D01*
X88234628Y-117646772D01*
X88256935Y-117664749D01*
X88292682Y-117700497D01*
X88292687Y-117700501D01*
X88406807Y-117766389D01*
X88406811Y-117766390D01*
X88406814Y-117766392D01*
X88534108Y-117800500D01*
X88665892Y-117800500D01*
X88793186Y-117766392D01*
X88793189Y-117766389D01*
X88793192Y-117766389D01*
X88907312Y-117700501D01*
X88907311Y-117700501D01*
X88907314Y-117700500D01*
X89000500Y-117607314D01*
X89066392Y-117493186D01*
X89100500Y-117365892D01*
X89100500Y-117234108D01*
X89091226Y-117199498D01*
X89066393Y-117106818D01*
X89066389Y-117106807D01*
X89000501Y-116992687D01*
X89000496Y-116992681D01*
X88907318Y-116899503D01*
X88907312Y-116899498D01*
X88793192Y-116833610D01*
X88793181Y-116833606D01*
X88665892Y-116799500D01*
X88534108Y-116799500D01*
X88406818Y-116833606D01*
X88406807Y-116833610D01*
X88292687Y-116899498D01*
X88292682Y-116899502D01*
X88256935Y-116935251D01*
X88190667Y-116971437D01*
X88162182Y-116974500D01*
X87790331Y-116974500D01*
X87717885Y-116953228D01*
X87695579Y-116935252D01*
X83764748Y-113004421D01*
X83728562Y-112938153D01*
X83725500Y-112909669D01*
X83725500Y-111234107D01*
X85099500Y-111234107D01*
X85099500Y-111365892D01*
X85133606Y-111493181D01*
X85133610Y-111493192D01*
X85199498Y-111607312D01*
X85199503Y-111607318D01*
X85292681Y-111700496D01*
X85292687Y-111700501D01*
X85406807Y-111766389D01*
X85406811Y-111766390D01*
X85406814Y-111766392D01*
X85534108Y-111800500D01*
X85665892Y-111800500D01*
X85793186Y-111766392D01*
X85793189Y-111766389D01*
X85793192Y-111766389D01*
X85907312Y-111700501D01*
X85907311Y-111700501D01*
X85907314Y-111700500D01*
X86000500Y-111607314D01*
X86024415Y-111565892D01*
X86066389Y-111493192D01*
X86066389Y-111493189D01*
X86066392Y-111493186D01*
X86100500Y-111365892D01*
X86100500Y-111234108D01*
X86089401Y-111192687D01*
X86066393Y-111106818D01*
X86066389Y-111106807D01*
X86000501Y-110992687D01*
X86000496Y-110992681D01*
X85907318Y-110899503D01*
X85907312Y-110899498D01*
X85793192Y-110833610D01*
X85793181Y-110833606D01*
X85665892Y-110799500D01*
X85534108Y-110799500D01*
X85406818Y-110833606D01*
X85406807Y-110833610D01*
X85292687Y-110899498D01*
X85292681Y-110899503D01*
X85199503Y-110992681D01*
X85199498Y-110992687D01*
X85133610Y-111106807D01*
X85133606Y-111106818D01*
X85099500Y-111234107D01*
X83725500Y-111234107D01*
X83725500Y-103993721D01*
X83746772Y-103921275D01*
X83803834Y-103871830D01*
X83878570Y-103861085D01*
X83947251Y-103892451D01*
X83978604Y-103935933D01*
X83979216Y-103935580D01*
X83982696Y-103941607D01*
X83983302Y-103942448D01*
X83983608Y-103943187D01*
X84049498Y-104057312D01*
X84049503Y-104057318D01*
X84142681Y-104150496D01*
X84142687Y-104150501D01*
X84256807Y-104216389D01*
X84256811Y-104216390D01*
X84256814Y-104216392D01*
X84334173Y-104237119D01*
X84349423Y-104241206D01*
X84409495Y-104275888D01*
X86360252Y-106226645D01*
X86396438Y-106292913D01*
X86399500Y-106321397D01*
X86399500Y-107871966D01*
X86426791Y-107973822D01*
X86426794Y-107973829D01*
X86479520Y-108065153D01*
X96334846Y-117920479D01*
X96334848Y-117920480D01*
X96426173Y-117973207D01*
X96528034Y-118000500D01*
X97056781Y-118000500D01*
X97123780Y-118018452D01*
X97206814Y-118066392D01*
X97334108Y-118100500D01*
X97465892Y-118100500D01*
X97601670Y-118064119D01*
X97602651Y-118067780D01*
X97660298Y-118061482D01*
X97727874Y-118095163D01*
X97752780Y-118126394D01*
X97799498Y-118207312D01*
X97799503Y-118207318D01*
X97892681Y-118300496D01*
X97892687Y-118300501D01*
X98006807Y-118366389D01*
X98006811Y-118366390D01*
X98006814Y-118366392D01*
X98134108Y-118400500D01*
X98265892Y-118400500D01*
X98393186Y-118366392D01*
X98393189Y-118366389D01*
X98393192Y-118366389D01*
X98507312Y-118300501D01*
X98507311Y-118300501D01*
X98507314Y-118300500D01*
X98600500Y-118207314D01*
X98616973Y-118178782D01*
X98666389Y-118093192D01*
X98666389Y-118093189D01*
X98666392Y-118093186D01*
X98700500Y-117965892D01*
X98700500Y-117834108D01*
X98666392Y-117706814D01*
X98666390Y-117706811D01*
X98666389Y-117706807D01*
X98600501Y-117592687D01*
X98600496Y-117592681D01*
X98507318Y-117499503D01*
X98507312Y-117499498D01*
X98393192Y-117433610D01*
X98393181Y-117433606D01*
X98265892Y-117399500D01*
X98134108Y-117399500D01*
X97998330Y-117435881D01*
X97997365Y-117432281D01*
X97939285Y-117438442D01*
X97871815Y-117404548D01*
X97847219Y-117373605D01*
X97800501Y-117292687D01*
X97800496Y-117292681D01*
X97707318Y-117199503D01*
X97707312Y-117199498D01*
X97593192Y-117133610D01*
X97593181Y-117133606D01*
X97465892Y-117099500D01*
X97334108Y-117099500D01*
X97206818Y-117133606D01*
X97206811Y-117133609D01*
X97160665Y-117160252D01*
X97123780Y-117181547D01*
X97107042Y-117186032D01*
X97094533Y-117194072D01*
X97056781Y-117199500D01*
X96802158Y-117199500D01*
X96729712Y-117178228D01*
X96707406Y-117160252D01*
X94481261Y-114934107D01*
X99499500Y-114934107D01*
X99499500Y-115065892D01*
X99533606Y-115193181D01*
X99533610Y-115193192D01*
X99599498Y-115307312D01*
X99599503Y-115307318D01*
X99692681Y-115400496D01*
X99692687Y-115400501D01*
X99806807Y-115466389D01*
X99806811Y-115466390D01*
X99806814Y-115466392D01*
X99934108Y-115500500D01*
X100065892Y-115500500D01*
X100193186Y-115466392D01*
X100193189Y-115466389D01*
X100193192Y-115466389D01*
X100307312Y-115400501D01*
X100307311Y-115400501D01*
X100307314Y-115400500D01*
X100400500Y-115307314D01*
X100466392Y-115193186D01*
X100500500Y-115065892D01*
X100500500Y-114934108D01*
X100466392Y-114806814D01*
X100466390Y-114806811D01*
X100466389Y-114806807D01*
X100400501Y-114692687D01*
X100400496Y-114692681D01*
X100307318Y-114599503D01*
X100307312Y-114599498D01*
X100193192Y-114533610D01*
X100193181Y-114533606D01*
X100065892Y-114499500D01*
X99934108Y-114499500D01*
X99806818Y-114533606D01*
X99806807Y-114533610D01*
X99692687Y-114599498D01*
X99692681Y-114599503D01*
X99599503Y-114692681D01*
X99599498Y-114692687D01*
X99533610Y-114806807D01*
X99533606Y-114806818D01*
X99499500Y-114934107D01*
X94481261Y-114934107D01*
X92766179Y-113219025D01*
X92729993Y-113152757D01*
X92735380Y-113077445D01*
X92780628Y-113017000D01*
X92793918Y-113008234D01*
X92807314Y-113000500D01*
X92900500Y-112907314D01*
X92931519Y-112853588D01*
X92966389Y-112793192D01*
X92966389Y-112793189D01*
X92966392Y-112793186D01*
X93000500Y-112665892D01*
X93000500Y-112534108D01*
X93000365Y-112533606D01*
X92966393Y-112406818D01*
X92966389Y-112406807D01*
X92900501Y-112292687D01*
X92900496Y-112292681D01*
X92807318Y-112199503D01*
X92807312Y-112199498D01*
X92693192Y-112133610D01*
X92693181Y-112133606D01*
X92565892Y-112099500D01*
X92434108Y-112099500D01*
X92306818Y-112133606D01*
X92306807Y-112133610D01*
X92192687Y-112199498D01*
X92192681Y-112199503D01*
X92099503Y-112292681D01*
X92099498Y-112292687D01*
X92091772Y-112306070D01*
X92037126Y-112358173D01*
X91962986Y-112372461D01*
X91892891Y-112344397D01*
X91880974Y-112333820D01*
X87239748Y-107692594D01*
X87203562Y-107626326D01*
X87200500Y-107597842D01*
X87200500Y-106047272D01*
X87177773Y-105962453D01*
X87173206Y-105945410D01*
X87120481Y-105854088D01*
X87120476Y-105854082D01*
X86936471Y-105670077D01*
X86850501Y-105584107D01*
X87399500Y-105584107D01*
X87399500Y-105715892D01*
X87433606Y-105843181D01*
X87433610Y-105843192D01*
X87499498Y-105957312D01*
X87499503Y-105957318D01*
X87592681Y-106050496D01*
X87592687Y-106050501D01*
X87706807Y-106116389D01*
X87706811Y-106116390D01*
X87706814Y-106116392D01*
X87834108Y-106150500D01*
X87884669Y-106150500D01*
X87957115Y-106171772D01*
X87979421Y-106189748D01*
X89589534Y-107799861D01*
X89589535Y-107799862D01*
X89650138Y-107860465D01*
X89650139Y-107860466D01*
X89653110Y-107862181D01*
X89724362Y-107903318D01*
X89807147Y-107925500D01*
X89892852Y-107925500D01*
X90451634Y-107925500D01*
X90524080Y-107946772D01*
X90573525Y-108003834D01*
X90584270Y-108078570D01*
X90567681Y-108126500D01*
X90532218Y-108187921D01*
X90532214Y-108187932D01*
X90498108Y-108315221D01*
X90498108Y-108447006D01*
X90532214Y-108574295D01*
X90532218Y-108574306D01*
X90598106Y-108688426D01*
X90598111Y-108688432D01*
X90691290Y-108781611D01*
X90691292Y-108781612D01*
X90691294Y-108781614D01*
X90780157Y-108832919D01*
X90829203Y-108881966D01*
X90839535Y-108899862D01*
X90839538Y-108899866D01*
X94060252Y-112120579D01*
X94096438Y-112186847D01*
X94099500Y-112215331D01*
X94099500Y-112265892D01*
X94133606Y-112393181D01*
X94133610Y-112393192D01*
X94199498Y-112507312D01*
X94199503Y-112507318D01*
X94292681Y-112600496D01*
X94292687Y-112600501D01*
X94406807Y-112666389D01*
X94406811Y-112666390D01*
X94406814Y-112666392D01*
X94534108Y-112700500D01*
X94665892Y-112700500D01*
X94793186Y-112666392D01*
X94793189Y-112666389D01*
X94793192Y-112666389D01*
X94907312Y-112600501D01*
X94907311Y-112600501D01*
X94907314Y-112600500D01*
X95000500Y-112507314D01*
X95016973Y-112478782D01*
X95066389Y-112393192D01*
X95066389Y-112393189D01*
X95066392Y-112393186D01*
X95100500Y-112265892D01*
X95100500Y-112134108D01*
X95100365Y-112133606D01*
X95066393Y-112006818D01*
X95066389Y-112006807D01*
X95000501Y-111892687D01*
X95000496Y-111892681D01*
X94907318Y-111799503D01*
X94907312Y-111799498D01*
X94793192Y-111733610D01*
X94793181Y-111733606D01*
X94665892Y-111699500D01*
X94615331Y-111699500D01*
X94542885Y-111678228D01*
X94520579Y-111660252D01*
X93094434Y-110234107D01*
X97599500Y-110234107D01*
X97599500Y-110365892D01*
X97633606Y-110493181D01*
X97633610Y-110493192D01*
X97699498Y-110607312D01*
X97699503Y-110607318D01*
X97792681Y-110700496D01*
X97792687Y-110700501D01*
X97906807Y-110766389D01*
X97906811Y-110766390D01*
X97906814Y-110766392D01*
X98034108Y-110800500D01*
X98165892Y-110800500D01*
X98293186Y-110766392D01*
X98293189Y-110766389D01*
X98293192Y-110766389D01*
X98407312Y-110700501D01*
X98407311Y-110700501D01*
X98407314Y-110700500D01*
X98500500Y-110607314D01*
X98562036Y-110500731D01*
X98566389Y-110493192D01*
X98566389Y-110493189D01*
X98566392Y-110493186D01*
X98600500Y-110365892D01*
X98600500Y-110234108D01*
X98566392Y-110106814D01*
X98566390Y-110106811D01*
X98566389Y-110106807D01*
X98500501Y-109992687D01*
X98500496Y-109992681D01*
X98407318Y-109899503D01*
X98407312Y-109899498D01*
X98293192Y-109833610D01*
X98293181Y-109833606D01*
X98165892Y-109799500D01*
X98034108Y-109799500D01*
X97906818Y-109833606D01*
X97906807Y-109833610D01*
X97792687Y-109899498D01*
X97792681Y-109899503D01*
X97699503Y-109992681D01*
X97699498Y-109992687D01*
X97633610Y-110106807D01*
X97633606Y-110106818D01*
X97599500Y-110234107D01*
X93094434Y-110234107D01*
X91513286Y-108652959D01*
X91477100Y-108586691D01*
X91478603Y-108523529D01*
X91499108Y-108447006D01*
X91499108Y-108315222D01*
X91490921Y-108284669D01*
X91465001Y-108187932D01*
X91464997Y-108187921D01*
X91429535Y-108126500D01*
X91411734Y-108053124D01*
X91436429Y-107981773D01*
X91495779Y-107935099D01*
X91545582Y-107925500D01*
X99456115Y-107925500D01*
X99528561Y-107946772D01*
X99550867Y-107964748D01*
X100956867Y-109370748D01*
X100993053Y-109437016D01*
X100987666Y-109512328D01*
X100942418Y-109572773D01*
X100871674Y-109599159D01*
X100862115Y-109599500D01*
X100734108Y-109599500D01*
X100606818Y-109633606D01*
X100606807Y-109633610D01*
X100492687Y-109699498D01*
X100492681Y-109699503D01*
X100394752Y-109797433D01*
X100328484Y-109833619D01*
X100253172Y-109828232D01*
X100205248Y-109797433D01*
X100200731Y-109792916D01*
X100200725Y-109792911D01*
X100086605Y-109727023D01*
X100086594Y-109727019D01*
X99959305Y-109692913D01*
X99827521Y-109692913D01*
X99700231Y-109727019D01*
X99700220Y-109727023D01*
X99586100Y-109792911D01*
X99586094Y-109792916D01*
X99492916Y-109886094D01*
X99492911Y-109886100D01*
X99427023Y-110000220D01*
X99427019Y-110000231D01*
X99392913Y-110127520D01*
X99392913Y-110259305D01*
X99427019Y-110386594D01*
X99427023Y-110386605D01*
X99492911Y-110500725D01*
X99492916Y-110500731D01*
X99586094Y-110593909D01*
X99586100Y-110593914D01*
X99700220Y-110659802D01*
X99700224Y-110659803D01*
X99700227Y-110659805D01*
X99827521Y-110693913D01*
X99959305Y-110693913D01*
X100086599Y-110659805D01*
X100086602Y-110659802D01*
X100086605Y-110659802D01*
X100200725Y-110593914D01*
X100200724Y-110593914D01*
X100200727Y-110593913D01*
X100228251Y-110566389D01*
X100298661Y-110495980D01*
X100364929Y-110459794D01*
X100440241Y-110465181D01*
X100488165Y-110495980D01*
X100492681Y-110500496D01*
X100492687Y-110500501D01*
X100606807Y-110566389D01*
X100606811Y-110566390D01*
X100606814Y-110566392D01*
X100734108Y-110600500D01*
X100865892Y-110600500D01*
X100993186Y-110566392D01*
X100993189Y-110566389D01*
X100993192Y-110566389D01*
X101107312Y-110500501D01*
X101107311Y-110500501D01*
X101107314Y-110500500D01*
X101200500Y-110407314D01*
X101266392Y-110293186D01*
X101300500Y-110165892D01*
X101300500Y-110037885D01*
X101321772Y-109965439D01*
X101378834Y-109915994D01*
X101453570Y-109905249D01*
X101522251Y-109936615D01*
X101529252Y-109943133D01*
X103484830Y-111898711D01*
X103521016Y-111964979D01*
X103524078Y-111993463D01*
X103524078Y-113143388D01*
X103502806Y-113215834D01*
X103457079Y-113259435D01*
X103387685Y-113299500D01*
X103387681Y-113299503D01*
X103294503Y-113392681D01*
X103294498Y-113392687D01*
X103228610Y-113506807D01*
X103228606Y-113506818D01*
X103194500Y-113634107D01*
X103194500Y-113765892D01*
X103228606Y-113893181D01*
X103228610Y-113893192D01*
X103294498Y-114007312D01*
X103294503Y-114007318D01*
X103387681Y-114100496D01*
X103387687Y-114100501D01*
X103501807Y-114166389D01*
X103501811Y-114166390D01*
X103501814Y-114166392D01*
X103629108Y-114200500D01*
X103760892Y-114200500D01*
X103888186Y-114166392D01*
X103888189Y-114166389D01*
X103888192Y-114166389D01*
X103973782Y-114116973D01*
X104002314Y-114100500D01*
X104017341Y-114085472D01*
X104083607Y-114049287D01*
X104158919Y-114054672D01*
X104179094Y-114064177D01*
X104249265Y-114104691D01*
X104249269Y-114104692D01*
X104249272Y-114104694D01*
X104376566Y-114138802D01*
X104508350Y-114138802D01*
X104635644Y-114104694D01*
X104635647Y-114104691D01*
X104635650Y-114104691D01*
X104749770Y-114038803D01*
X104749769Y-114038803D01*
X104749772Y-114038802D01*
X104842958Y-113945616D01*
X104873229Y-113893186D01*
X104908847Y-113831494D01*
X104908847Y-113831491D01*
X104908850Y-113831488D01*
X104942958Y-113704194D01*
X104942958Y-113572410D01*
X104921596Y-113492687D01*
X104908851Y-113445120D01*
X104908847Y-113445109D01*
X104842959Y-113330989D01*
X104842954Y-113330983D01*
X104749776Y-113237805D01*
X104749772Y-113237802D01*
X104742075Y-113233358D01*
X104733123Y-113223969D01*
X104721327Y-113218582D01*
X104707554Y-113197152D01*
X104689972Y-113178711D01*
X104686497Y-113164386D01*
X104680506Y-113155064D01*
X104675078Y-113117312D01*
X104675078Y-112934107D01*
X105499500Y-112934107D01*
X105499500Y-113065892D01*
X105533606Y-113193181D01*
X105533610Y-113193192D01*
X105599498Y-113307312D01*
X105599503Y-113307318D01*
X105692681Y-113400496D01*
X105692687Y-113400501D01*
X105806807Y-113466389D01*
X105806811Y-113466390D01*
X105806814Y-113466392D01*
X105934108Y-113500500D01*
X106065892Y-113500500D01*
X106193186Y-113466392D01*
X106193189Y-113466389D01*
X106193192Y-113466389D01*
X106307312Y-113400501D01*
X106307311Y-113400501D01*
X106307314Y-113400500D01*
X106400500Y-113307314D01*
X106440633Y-113237802D01*
X106466389Y-113193192D01*
X106466389Y-113193189D01*
X106466392Y-113193186D01*
X106500500Y-113065892D01*
X106500500Y-112934108D01*
X106493951Y-112909668D01*
X106466393Y-112806818D01*
X106466389Y-112806807D01*
X106400501Y-112692687D01*
X106400496Y-112692681D01*
X106307318Y-112599503D01*
X106307312Y-112599498D01*
X106193192Y-112533610D01*
X106193181Y-112533606D01*
X106065892Y-112499500D01*
X105934108Y-112499500D01*
X105806818Y-112533606D01*
X105806807Y-112533610D01*
X105692687Y-112599498D01*
X105692681Y-112599503D01*
X105599503Y-112692681D01*
X105599498Y-112692687D01*
X105533610Y-112806807D01*
X105533606Y-112806818D01*
X105499500Y-112934107D01*
X104675078Y-112934107D01*
X104675078Y-111553173D01*
X104675077Y-111553167D01*
X104673134Y-111545917D01*
X104673132Y-111545908D01*
X104652897Y-111470390D01*
X104652896Y-111470385D01*
X104610043Y-111396162D01*
X104610042Y-111396160D01*
X100053417Y-106839535D01*
X99979192Y-106796681D01*
X99896407Y-106774500D01*
X90615331Y-106774500D01*
X90542885Y-106753228D01*
X90520579Y-106735252D01*
X90469431Y-106684104D01*
X108949503Y-106684104D01*
X108949503Y-106815889D01*
X108983609Y-106943178D01*
X108983613Y-106943189D01*
X109049501Y-107057309D01*
X109049506Y-107057315D01*
X109142685Y-107150494D01*
X109142687Y-107150495D01*
X109142689Y-107150497D01*
X109255259Y-107215489D01*
X109307361Y-107270132D01*
X109321650Y-107344272D01*
X109317691Y-107366216D01*
X109299500Y-107434107D01*
X109299500Y-107565892D01*
X109333606Y-107693181D01*
X109333610Y-107693192D01*
X109399498Y-107807312D01*
X109399503Y-107807318D01*
X109492681Y-107900496D01*
X109492687Y-107900501D01*
X109606807Y-107966389D01*
X109606811Y-107966390D01*
X109606814Y-107966392D01*
X109734108Y-108000500D01*
X109865892Y-108000500D01*
X109993186Y-107966392D01*
X109993189Y-107966389D01*
X109993192Y-107966389D01*
X110107312Y-107900501D01*
X110107311Y-107900501D01*
X110107314Y-107900500D01*
X110200500Y-107807314D01*
X110266392Y-107693186D01*
X110300500Y-107565892D01*
X110300500Y-107434108D01*
X110266392Y-107306814D01*
X110266390Y-107306811D01*
X110266389Y-107306807D01*
X110200501Y-107192687D01*
X110200496Y-107192681D01*
X110107318Y-107099503D01*
X110107312Y-107099498D01*
X109994745Y-107034508D01*
X109942641Y-106979863D01*
X109928352Y-106905724D01*
X109932308Y-106883793D01*
X109950503Y-106815889D01*
X109950503Y-106684105D01*
X109916395Y-106556811D01*
X109916393Y-106556808D01*
X109916392Y-106556804D01*
X109850504Y-106442684D01*
X109850499Y-106442678D01*
X109757321Y-106349500D01*
X109757315Y-106349495D01*
X109643195Y-106283607D01*
X109643184Y-106283603D01*
X109515895Y-106249497D01*
X109384111Y-106249497D01*
X109256821Y-106283603D01*
X109256810Y-106283607D01*
X109142690Y-106349495D01*
X109142684Y-106349500D01*
X109049506Y-106442678D01*
X109049501Y-106442684D01*
X108983613Y-106556804D01*
X108983609Y-106556815D01*
X108949503Y-106684104D01*
X90469431Y-106684104D01*
X88997221Y-105211894D01*
X88961035Y-105145626D01*
X88957973Y-105117142D01*
X88957973Y-105009107D01*
X88923866Y-104881818D01*
X88923862Y-104881807D01*
X88857974Y-104767687D01*
X88857969Y-104767681D01*
X88764791Y-104674503D01*
X88764785Y-104674498D01*
X88650665Y-104608610D01*
X88650654Y-104608606D01*
X88523365Y-104574500D01*
X88391581Y-104574500D01*
X88264291Y-104608606D01*
X88264280Y-104608610D01*
X88150160Y-104674498D01*
X88150154Y-104674503D01*
X88056976Y-104767681D01*
X88056971Y-104767687D01*
X87991083Y-104881807D01*
X87991079Y-104881818D01*
X87956973Y-105009107D01*
X87956973Y-105015809D01*
X87935701Y-105088255D01*
X87878639Y-105137700D01*
X87840471Y-105148662D01*
X87834107Y-105149500D01*
X87706818Y-105183606D01*
X87706807Y-105183610D01*
X87592687Y-105249498D01*
X87592681Y-105249503D01*
X87499503Y-105342681D01*
X87499498Y-105342687D01*
X87433610Y-105456807D01*
X87433606Y-105456818D01*
X87399500Y-105584107D01*
X86850501Y-105584107D01*
X84975888Y-103709495D01*
X84941206Y-103649423D01*
X84928097Y-103600500D01*
X84916392Y-103556814D01*
X84916390Y-103556811D01*
X84916389Y-103556807D01*
X84850501Y-103442687D01*
X84850496Y-103442681D01*
X84757318Y-103349503D01*
X84757312Y-103349498D01*
X84643192Y-103283610D01*
X84643181Y-103283606D01*
X84515892Y-103249500D01*
X84384108Y-103249500D01*
X84256818Y-103283606D01*
X84256807Y-103283610D01*
X84142687Y-103349498D01*
X84142681Y-103349503D01*
X84049503Y-103442681D01*
X84049498Y-103442687D01*
X83983607Y-103556814D01*
X83983300Y-103557556D01*
X83982873Y-103558085D01*
X83979216Y-103564420D01*
X83978228Y-103563849D01*
X83935924Y-103616348D01*
X83864284Y-103640193D01*
X83791125Y-103621521D01*
X83739674Y-103566260D01*
X83725500Y-103506278D01*
X83725500Y-103034107D01*
X91199500Y-103034107D01*
X91199500Y-103165892D01*
X91233606Y-103293181D01*
X91233610Y-103293192D01*
X91299498Y-103407312D01*
X91299503Y-103407318D01*
X91392681Y-103500496D01*
X91392687Y-103500501D01*
X91506807Y-103566389D01*
X91506811Y-103566390D01*
X91506814Y-103566392D01*
X91634108Y-103600500D01*
X91765892Y-103600500D01*
X91893186Y-103566392D01*
X91893189Y-103566389D01*
X91893192Y-103566389D01*
X92007312Y-103500501D01*
X92007311Y-103500501D01*
X92007314Y-103500500D01*
X92100500Y-103407314D01*
X92133880Y-103349498D01*
X92166389Y-103293192D01*
X92166389Y-103293189D01*
X92166392Y-103293186D01*
X92200500Y-103165892D01*
X92200500Y-103034108D01*
X92166392Y-102906814D01*
X92166390Y-102906811D01*
X92166389Y-102906807D01*
X92100501Y-102792687D01*
X92100496Y-102792681D01*
X92007318Y-102699503D01*
X92007312Y-102699498D01*
X91893192Y-102633610D01*
X91893181Y-102633606D01*
X91765892Y-102599500D01*
X91634108Y-102599500D01*
X91506818Y-102633606D01*
X91506807Y-102633610D01*
X91392687Y-102699498D01*
X91392681Y-102699503D01*
X91299503Y-102792681D01*
X91299498Y-102792687D01*
X91233610Y-102906807D01*
X91233606Y-102906818D01*
X91199500Y-103034107D01*
X83725500Y-103034107D01*
X83725500Y-100134107D01*
X110499500Y-100134107D01*
X110499500Y-100265892D01*
X110533606Y-100393181D01*
X110533610Y-100393192D01*
X110599498Y-100507312D01*
X110599503Y-100507318D01*
X110692681Y-100600496D01*
X110692687Y-100600501D01*
X110806807Y-100666389D01*
X110806811Y-100666390D01*
X110806814Y-100666392D01*
X110934108Y-100700500D01*
X111065892Y-100700500D01*
X111193186Y-100666392D01*
X111193189Y-100666389D01*
X111193192Y-100666389D01*
X111307312Y-100600501D01*
X111307311Y-100600501D01*
X111307314Y-100600500D01*
X111400500Y-100507314D01*
X111466392Y-100393186D01*
X111500500Y-100265892D01*
X111500500Y-100134108D01*
X111466392Y-100006814D01*
X111466390Y-100006811D01*
X111466389Y-100006807D01*
X111400501Y-99892687D01*
X111400496Y-99892681D01*
X111307318Y-99799503D01*
X111307312Y-99799498D01*
X111193192Y-99733610D01*
X111193181Y-99733606D01*
X111065892Y-99699500D01*
X110934108Y-99699500D01*
X110806818Y-99733606D01*
X110806807Y-99733610D01*
X110692687Y-99799498D01*
X110692681Y-99799503D01*
X110599503Y-99892681D01*
X110599498Y-99892687D01*
X110533610Y-100006807D01*
X110533606Y-100006818D01*
X110499500Y-100134107D01*
X83725500Y-100134107D01*
X83725500Y-99234107D01*
X86199500Y-99234107D01*
X86199500Y-99365892D01*
X86233606Y-99493181D01*
X86233610Y-99493192D01*
X86299498Y-99607312D01*
X86299503Y-99607318D01*
X86392681Y-99700496D01*
X86392687Y-99700501D01*
X86506807Y-99766389D01*
X86506811Y-99766390D01*
X86506814Y-99766392D01*
X86634108Y-99800500D01*
X86765892Y-99800500D01*
X86893186Y-99766392D01*
X86893189Y-99766389D01*
X86893192Y-99766389D01*
X87007312Y-99700501D01*
X87007311Y-99700501D01*
X87007314Y-99700500D01*
X87100500Y-99607314D01*
X87138556Y-99541397D01*
X87159845Y-99513653D01*
X88339390Y-98334107D01*
X99399500Y-98334107D01*
X99399500Y-98465892D01*
X99433606Y-98593181D01*
X99433610Y-98593192D01*
X99499498Y-98707312D01*
X99499503Y-98707318D01*
X99592681Y-98800496D01*
X99592687Y-98800501D01*
X99706807Y-98866389D01*
X99706811Y-98866390D01*
X99706814Y-98866392D01*
X99834108Y-98900500D01*
X99965892Y-98900500D01*
X100093186Y-98866392D01*
X100093189Y-98866389D01*
X100093192Y-98866389D01*
X100207312Y-98800501D01*
X100207311Y-98800501D01*
X100207314Y-98800500D01*
X100300500Y-98707314D01*
X100366392Y-98593186D01*
X100391206Y-98500577D01*
X100425888Y-98440504D01*
X100620480Y-98245913D01*
X100673206Y-98154588D01*
X100673207Y-98154587D01*
X100700500Y-98052727D01*
X100700500Y-92321396D01*
X100721772Y-92248950D01*
X100739743Y-92226649D01*
X104376644Y-88589747D01*
X104442912Y-88553562D01*
X104471396Y-88550500D01*
X104578917Y-88550500D01*
X104578918Y-88550500D01*
X104723913Y-88521658D01*
X104860495Y-88465084D01*
X104983416Y-88382951D01*
X105087951Y-88278416D01*
X105170084Y-88155495D01*
X105226658Y-88018913D01*
X105255500Y-87873918D01*
X105255500Y-87726082D01*
X106294500Y-87726082D01*
X106294500Y-87873917D01*
X106323340Y-88018907D01*
X106323341Y-88018911D01*
X106323342Y-88018913D01*
X106332525Y-88041082D01*
X106379915Y-88155494D01*
X106462045Y-88278412D01*
X106566587Y-88382954D01*
X106689505Y-88465084D01*
X106826087Y-88521658D01*
X106971082Y-88550500D01*
X106971083Y-88550500D01*
X107118917Y-88550500D01*
X107118918Y-88550500D01*
X107263913Y-88521658D01*
X107400495Y-88465084D01*
X107523416Y-88382951D01*
X107627951Y-88278416D01*
X107710084Y-88155495D01*
X107766658Y-88018913D01*
X107795500Y-87873918D01*
X107795500Y-87726082D01*
X107766658Y-87581087D01*
X107710084Y-87444505D01*
X107697405Y-87425529D01*
X107627954Y-87321587D01*
X107523412Y-87217045D01*
X107400494Y-87134915D01*
X107263915Y-87078343D01*
X107263913Y-87078342D01*
X107263911Y-87078341D01*
X107263907Y-87078340D01*
X107147602Y-87055205D01*
X107118918Y-87049500D01*
X106971082Y-87049500D01*
X106947135Y-87054263D01*
X106826092Y-87078340D01*
X106826084Y-87078343D01*
X106689505Y-87134915D01*
X106566587Y-87217045D01*
X106462045Y-87321587D01*
X106379915Y-87444505D01*
X106323343Y-87581084D01*
X106323340Y-87581092D01*
X106294500Y-87726082D01*
X105255500Y-87726082D01*
X105226658Y-87581087D01*
X105170084Y-87444505D01*
X105157405Y-87425529D01*
X105087954Y-87321587D01*
X104983412Y-87217045D01*
X104860494Y-87134915D01*
X104723915Y-87078343D01*
X104723913Y-87078342D01*
X104723911Y-87078341D01*
X104723907Y-87078340D01*
X104607602Y-87055205D01*
X104578918Y-87049500D01*
X104431082Y-87049500D01*
X104407135Y-87054263D01*
X104286092Y-87078340D01*
X104286084Y-87078343D01*
X104149505Y-87134915D01*
X104026587Y-87217045D01*
X103922045Y-87321587D01*
X103839915Y-87444505D01*
X103783343Y-87581084D01*
X103783340Y-87581092D01*
X103758334Y-87706807D01*
X103754500Y-87726082D01*
X103754500Y-87873918D01*
X103772795Y-87965892D01*
X103774570Y-87974813D01*
X103767841Y-88050017D01*
X103737897Y-88095708D01*
X99979520Y-91854085D01*
X99926794Y-91945409D01*
X99926791Y-91945416D01*
X99899998Y-92045410D01*
X99899999Y-92045411D01*
X99899500Y-92047274D01*
X99899500Y-97778601D01*
X99890146Y-97810454D01*
X99883067Y-97842898D01*
X99879045Y-97848262D01*
X99878228Y-97851047D01*
X99860190Y-97873416D01*
X99859432Y-97874173D01*
X99799425Y-97908792D01*
X99706815Y-97933607D01*
X99706807Y-97933610D01*
X99592687Y-97999498D01*
X99592681Y-97999503D01*
X99499503Y-98092681D01*
X99499498Y-98092687D01*
X99433610Y-98206807D01*
X99433606Y-98206818D01*
X99399500Y-98334107D01*
X88339390Y-98334107D01*
X88788826Y-97884671D01*
X88788836Y-97884664D01*
X88860461Y-97813039D01*
X88860465Y-97813035D01*
X88903318Y-97738811D01*
X88911758Y-97707314D01*
X88925501Y-97656026D01*
X88925501Y-97570320D01*
X88925501Y-97562112D01*
X88925500Y-97562094D01*
X88925500Y-94934107D01*
X91899500Y-94934107D01*
X91899500Y-95065892D01*
X91933606Y-95193181D01*
X91933610Y-95193192D01*
X91999498Y-95307312D01*
X91999503Y-95307318D01*
X92092681Y-95400496D01*
X92092687Y-95400501D01*
X92206807Y-95466389D01*
X92206811Y-95466390D01*
X92206814Y-95466392D01*
X92334108Y-95500500D01*
X92465892Y-95500500D01*
X92593186Y-95466392D01*
X92593189Y-95466389D01*
X92593192Y-95466389D01*
X92707312Y-95400501D01*
X92707311Y-95400501D01*
X92707314Y-95400500D01*
X92800500Y-95307314D01*
X92818685Y-95275817D01*
X92866389Y-95193192D01*
X92866389Y-95193189D01*
X92866392Y-95193186D01*
X92900500Y-95065892D01*
X92900500Y-94934108D01*
X92866392Y-94806814D01*
X92866390Y-94806811D01*
X92866389Y-94806807D01*
X92800501Y-94692687D01*
X92800496Y-94692681D01*
X92707318Y-94599503D01*
X92707312Y-94599498D01*
X92593192Y-94533610D01*
X92593181Y-94533606D01*
X92465892Y-94499500D01*
X92334108Y-94499500D01*
X92206818Y-94533606D01*
X92206807Y-94533610D01*
X92092687Y-94599498D01*
X92092681Y-94599503D01*
X91999503Y-94692681D01*
X91999498Y-94692687D01*
X91933610Y-94806807D01*
X91933606Y-94806818D01*
X91899500Y-94934107D01*
X88925500Y-94934107D01*
X88925500Y-89677157D01*
X88946772Y-89604711D01*
X88964743Y-89582410D01*
X90680975Y-87866177D01*
X90747241Y-87829993D01*
X90822553Y-87835380D01*
X90882998Y-87880628D01*
X90891770Y-87893927D01*
X90899498Y-87907312D01*
X90899503Y-87907318D01*
X90992681Y-88000496D01*
X90992687Y-88000501D01*
X91106807Y-88066389D01*
X91106811Y-88066390D01*
X91106814Y-88066392D01*
X91234108Y-88100500D01*
X91365892Y-88100500D01*
X91493186Y-88066392D01*
X91493189Y-88066389D01*
X91493192Y-88066389D01*
X91607312Y-88000501D01*
X91607311Y-88000501D01*
X91607314Y-88000500D01*
X91700500Y-87907314D01*
X91742766Y-87834107D01*
X91766389Y-87793192D01*
X91766389Y-87793189D01*
X91766392Y-87793186D01*
X91800500Y-87665892D01*
X91800500Y-87534108D01*
X91791226Y-87499498D01*
X91766393Y-87406818D01*
X91766389Y-87406807D01*
X91700501Y-87292687D01*
X91700496Y-87292681D01*
X91607318Y-87199503D01*
X91607312Y-87199498D01*
X91593927Y-87191770D01*
X91541825Y-87137123D01*
X91527538Y-87062983D01*
X91555603Y-86992888D01*
X91566171Y-86980981D01*
X92386714Y-86160438D01*
X96799500Y-86160438D01*
X96799500Y-87589562D01*
X96813152Y-87640513D01*
X96819979Y-87665990D01*
X96819980Y-87665991D01*
X96820213Y-87666394D01*
X96820202Y-87666400D01*
X96820251Y-87666459D01*
X96859540Y-87734511D01*
X96859543Y-87734514D01*
X96859543Y-87734515D01*
X97109540Y-87984511D01*
X97143936Y-88018907D01*
X97165489Y-88040460D01*
X97165490Y-88040461D01*
X97210406Y-88066393D01*
X97234011Y-88080021D01*
X97310438Y-88100500D01*
X97381545Y-88100500D01*
X97453991Y-88121772D01*
X97492962Y-88160054D01*
X97572045Y-88278412D01*
X97676587Y-88382954D01*
X97799505Y-88465084D01*
X97936087Y-88521658D01*
X98081082Y-88550500D01*
X98081083Y-88550500D01*
X98228917Y-88550500D01*
X98228918Y-88550500D01*
X98373913Y-88521658D01*
X98510495Y-88465084D01*
X98633416Y-88382951D01*
X98695248Y-88321119D01*
X98761516Y-88284933D01*
X98836828Y-88290320D01*
X98884752Y-88321119D01*
X98946587Y-88382954D01*
X99069505Y-88465084D01*
X99206087Y-88521658D01*
X99351082Y-88550500D01*
X99351083Y-88550500D01*
X99498917Y-88550500D01*
X99498918Y-88550500D01*
X99643913Y-88521658D01*
X99780495Y-88465084D01*
X99903416Y-88382951D01*
X100007951Y-88278416D01*
X100090084Y-88155495D01*
X100146658Y-88018913D01*
X100175500Y-87873918D01*
X100175500Y-87726082D01*
X101214500Y-87726082D01*
X101214500Y-87873917D01*
X101243340Y-88018907D01*
X101243341Y-88018911D01*
X101243342Y-88018913D01*
X101252525Y-88041082D01*
X101299915Y-88155494D01*
X101382045Y-88278412D01*
X101486587Y-88382954D01*
X101609505Y-88465084D01*
X101746087Y-88521658D01*
X101891082Y-88550500D01*
X101891083Y-88550500D01*
X102038917Y-88550500D01*
X102038918Y-88550500D01*
X102183913Y-88521658D01*
X102320495Y-88465084D01*
X102443416Y-88382951D01*
X102547951Y-88278416D01*
X102630084Y-88155495D01*
X102686658Y-88018913D01*
X102715500Y-87873918D01*
X102715500Y-87726082D01*
X102686658Y-87581087D01*
X102630084Y-87444505D01*
X102617405Y-87425529D01*
X102547954Y-87321587D01*
X102443412Y-87217045D01*
X102320494Y-87134915D01*
X102183915Y-87078343D01*
X102183913Y-87078342D01*
X102183911Y-87078341D01*
X102183907Y-87078340D01*
X102067602Y-87055205D01*
X102038918Y-87049500D01*
X101891082Y-87049500D01*
X101867135Y-87054263D01*
X101746092Y-87078340D01*
X101746084Y-87078343D01*
X101609505Y-87134915D01*
X101486587Y-87217045D01*
X101382045Y-87321587D01*
X101299915Y-87444505D01*
X101243343Y-87581084D01*
X101243340Y-87581092D01*
X101214500Y-87726082D01*
X100175500Y-87726082D01*
X100146658Y-87581087D01*
X100090084Y-87444505D01*
X100077405Y-87425529D01*
X100007954Y-87321587D01*
X99903412Y-87217045D01*
X99780494Y-87134915D01*
X99643915Y-87078343D01*
X99643913Y-87078342D01*
X99643911Y-87078341D01*
X99643907Y-87078340D01*
X99527602Y-87055205D01*
X99498918Y-87049500D01*
X99351082Y-87049500D01*
X99327135Y-87054263D01*
X99206092Y-87078340D01*
X99206084Y-87078343D01*
X99069505Y-87134915D01*
X98946587Y-87217045D01*
X98946583Y-87217049D01*
X98884752Y-87278881D01*
X98818484Y-87315067D01*
X98743172Y-87309680D01*
X98695248Y-87278881D01*
X98633412Y-87217045D01*
X98510494Y-87134915D01*
X98373915Y-87078343D01*
X98373913Y-87078342D01*
X98373911Y-87078341D01*
X98373907Y-87078340D01*
X98257602Y-87055205D01*
X98228918Y-87049500D01*
X98081082Y-87049500D01*
X98057135Y-87054263D01*
X97936092Y-87078340D01*
X97936084Y-87078343D01*
X97799505Y-87134915D01*
X97676587Y-87217045D01*
X97676583Y-87217049D01*
X97629252Y-87264381D01*
X97562984Y-87300567D01*
X97487672Y-87295180D01*
X97427227Y-87249932D01*
X97400841Y-87179188D01*
X97400500Y-87169629D01*
X97400500Y-86379974D01*
X97409841Y-86348159D01*
X97416891Y-86315755D01*
X97420947Y-86310336D01*
X97421772Y-86307528D01*
X97439744Y-86285226D01*
X97584578Y-86140392D01*
X97650845Y-86104207D01*
X97726157Y-86109594D01*
X97786602Y-86154842D01*
X97808763Y-86200463D01*
X97833607Y-86293183D01*
X97833610Y-86293192D01*
X97899498Y-86407312D01*
X97899503Y-86407318D01*
X97992681Y-86500496D01*
X97992687Y-86500501D01*
X98106807Y-86566389D01*
X98106811Y-86566390D01*
X98106814Y-86566392D01*
X98234108Y-86600500D01*
X98365892Y-86600500D01*
X98493186Y-86566392D01*
X98493189Y-86566389D01*
X98493192Y-86566389D01*
X98607312Y-86500501D01*
X98607311Y-86500501D01*
X98607314Y-86500500D01*
X98700500Y-86407314D01*
X98734653Y-86348159D01*
X98766389Y-86293192D01*
X98766389Y-86293189D01*
X98766392Y-86293186D01*
X98800500Y-86165892D01*
X98800500Y-86034108D01*
X98795511Y-86015490D01*
X98766393Y-85906818D01*
X98766389Y-85906807D01*
X98700501Y-85792687D01*
X98700496Y-85792681D01*
X98607318Y-85699503D01*
X98607312Y-85699498D01*
X98493192Y-85633610D01*
X98493181Y-85633606D01*
X98400463Y-85608763D01*
X98335991Y-85569466D01*
X98302999Y-85501551D01*
X98311963Y-85426580D01*
X98340389Y-85384580D01*
X100335223Y-83389748D01*
X100401491Y-83353562D01*
X100429975Y-83350500D01*
X102087181Y-83350500D01*
X102159627Y-83371772D01*
X102181933Y-83389748D01*
X102242681Y-83450496D01*
X102242687Y-83450501D01*
X102356807Y-83516389D01*
X102356811Y-83516390D01*
X102356814Y-83516392D01*
X102484108Y-83550500D01*
X102615892Y-83550500D01*
X102743186Y-83516392D01*
X102743189Y-83516389D01*
X102743192Y-83516389D01*
X102857312Y-83450501D01*
X102857311Y-83450501D01*
X102857314Y-83450500D01*
X102950500Y-83357314D01*
X102966973Y-83328782D01*
X103016389Y-83243192D01*
X103016389Y-83243189D01*
X103016392Y-83243186D01*
X103050500Y-83115892D01*
X103050500Y-82984108D01*
X103045426Y-82965173D01*
X103016393Y-82856818D01*
X103016389Y-82856807D01*
X102950501Y-82742687D01*
X102950496Y-82742681D01*
X102857318Y-82649503D01*
X102857312Y-82649498D01*
X102830654Y-82634107D01*
X114399500Y-82634107D01*
X114399500Y-82765892D01*
X114433606Y-82893181D01*
X114433610Y-82893192D01*
X114499498Y-83007312D01*
X114499503Y-83007318D01*
X114592681Y-83100496D01*
X114592687Y-83100501D01*
X114706807Y-83166389D01*
X114706811Y-83166390D01*
X114706814Y-83166392D01*
X114834108Y-83200500D01*
X114965892Y-83200500D01*
X115093186Y-83166392D01*
X115093189Y-83166389D01*
X115093192Y-83166389D01*
X115207312Y-83100501D01*
X115207311Y-83100501D01*
X115207314Y-83100500D01*
X115300500Y-83007314D01*
X115366392Y-82893186D01*
X115400500Y-82765892D01*
X115400500Y-82634108D01*
X115381915Y-82564749D01*
X115366393Y-82506818D01*
X115366389Y-82506807D01*
X115300501Y-82392687D01*
X115300496Y-82392681D01*
X115207318Y-82299503D01*
X115207312Y-82299498D01*
X115093192Y-82233610D01*
X115093181Y-82233606D01*
X114965892Y-82199500D01*
X114834108Y-82199500D01*
X114706818Y-82233606D01*
X114706807Y-82233610D01*
X114592687Y-82299498D01*
X114592681Y-82299503D01*
X114499503Y-82392681D01*
X114499498Y-82392687D01*
X114433610Y-82506807D01*
X114433606Y-82506818D01*
X114399500Y-82634107D01*
X102830654Y-82634107D01*
X102743192Y-82583610D01*
X102743181Y-82583606D01*
X102615892Y-82549500D01*
X102484108Y-82549500D01*
X102356818Y-82583606D01*
X102356807Y-82583610D01*
X102242687Y-82649498D01*
X102242681Y-82649503D01*
X102181933Y-82710252D01*
X102115665Y-82746438D01*
X102087181Y-82749500D01*
X100210438Y-82749500D01*
X100134016Y-82769976D01*
X100134009Y-82769979D01*
X100065487Y-82809540D01*
X100065484Y-82809543D01*
X97577029Y-85298000D01*
X96915489Y-85959540D01*
X96887514Y-85987515D01*
X96859539Y-86015489D01*
X96859538Y-86015490D01*
X96819979Y-86084009D01*
X96804871Y-86140393D01*
X96799500Y-86160438D01*
X92386714Y-86160438D01*
X96410958Y-82136194D01*
X96477224Y-82100010D01*
X96540388Y-82101513D01*
X96628029Y-82124997D01*
X96628030Y-82124997D01*
X96759813Y-82124997D01*
X96887107Y-82090889D01*
X96887110Y-82090886D01*
X96887113Y-82090886D01*
X97001233Y-82024998D01*
X97001232Y-82024998D01*
X97001235Y-82024997D01*
X97094421Y-81931811D01*
X97160313Y-81817683D01*
X97194421Y-81690389D01*
X97194421Y-81558605D01*
X97178583Y-81499498D01*
X97160314Y-81431315D01*
X97160310Y-81431304D01*
X97094422Y-81317184D01*
X97094417Y-81317178D01*
X97000817Y-81223578D01*
X96964631Y-81157310D01*
X96966135Y-81094145D01*
X97000500Y-80965892D01*
X97000500Y-80834107D01*
X96966393Y-80706818D01*
X96966389Y-80706807D01*
X96900501Y-80592687D01*
X96900496Y-80592681D01*
X96807318Y-80499503D01*
X96807312Y-80499498D01*
X96693192Y-80433610D01*
X96693181Y-80433606D01*
X96565892Y-80399500D01*
X96434108Y-80399500D01*
X96306818Y-80433606D01*
X96306807Y-80433610D01*
X96192687Y-80499498D01*
X96192681Y-80499503D01*
X96099503Y-80592681D01*
X96099498Y-80592687D01*
X96033610Y-80706807D01*
X96033606Y-80706818D01*
X95999500Y-80834107D01*
X95999500Y-80884668D01*
X95978228Y-80957114D01*
X95960252Y-80979420D01*
X87739538Y-89200133D01*
X87739533Y-89200139D01*
X87696682Y-89274359D01*
X87692116Y-89291402D01*
X87674500Y-89357146D01*
X87674500Y-96962181D01*
X87653228Y-97034627D01*
X87635252Y-97056933D01*
X87599503Y-97092681D01*
X87599498Y-97092687D01*
X87533610Y-97206807D01*
X87533606Y-97206818D01*
X87499500Y-97334107D01*
X87499500Y-97465892D01*
X87533606Y-97593181D01*
X87533610Y-97593192D01*
X87599498Y-97707312D01*
X87599503Y-97707318D01*
X87692684Y-97800499D01*
X87706068Y-97808226D01*
X87758171Y-97862871D01*
X87772460Y-97937011D01*
X87744398Y-98007107D01*
X87733819Y-98019025D01*
X86968436Y-98784408D01*
X86902168Y-98820594D01*
X86839003Y-98819090D01*
X86765892Y-98799500D01*
X86634108Y-98799500D01*
X86506818Y-98833606D01*
X86506807Y-98833610D01*
X86392687Y-98899498D01*
X86392681Y-98899503D01*
X86299503Y-98992681D01*
X86299498Y-98992687D01*
X86233610Y-99106807D01*
X86233606Y-99106818D01*
X86199500Y-99234107D01*
X83725500Y-99234107D01*
X83725500Y-89532827D01*
X83734578Y-89501908D01*
X83740971Y-89470322D01*
X83745101Y-89466069D01*
X83746772Y-89460381D01*
X83771129Y-89439274D01*
X83793580Y-89416163D01*
X83799352Y-89414819D01*
X83803834Y-89410936D01*
X83835737Y-89406349D01*
X83867118Y-89399044D01*
X83872701Y-89401034D01*
X83878570Y-89400191D01*
X83907882Y-89413577D01*
X83938237Y-89424400D01*
X83942888Y-89429564D01*
X83947251Y-89431557D01*
X83965595Y-89450975D01*
X83971069Y-89458070D01*
X83999500Y-89507314D01*
X84041338Y-89549152D01*
X84046595Y-89555966D01*
X84057303Y-89583449D01*
X84071437Y-89609333D01*
X84072980Y-89623686D01*
X84074006Y-89626319D01*
X84073521Y-89628714D01*
X84074500Y-89637818D01*
X84074500Y-95242853D01*
X84096680Y-95325634D01*
X84096683Y-95325641D01*
X84139535Y-95399863D01*
X84139538Y-95399866D01*
X86160252Y-97420579D01*
X86196438Y-97486847D01*
X86199500Y-97515331D01*
X86199500Y-97565892D01*
X86233606Y-97693181D01*
X86233610Y-97693192D01*
X86299498Y-97807312D01*
X86299503Y-97807318D01*
X86392681Y-97900496D01*
X86392687Y-97900501D01*
X86506807Y-97966389D01*
X86506811Y-97966390D01*
X86506814Y-97966392D01*
X86634108Y-98000500D01*
X86765892Y-98000500D01*
X86893186Y-97966392D01*
X86893189Y-97966389D01*
X86893192Y-97966389D01*
X87007312Y-97900501D01*
X87007311Y-97900501D01*
X87007314Y-97900500D01*
X87100500Y-97807314D01*
X87140050Y-97738812D01*
X87166389Y-97693192D01*
X87166389Y-97693189D01*
X87166392Y-97693186D01*
X87200500Y-97565892D01*
X87200500Y-97434108D01*
X87166392Y-97306814D01*
X87166390Y-97306811D01*
X87166389Y-97306807D01*
X87100501Y-97192687D01*
X87100496Y-97192681D01*
X87007318Y-97099503D01*
X87007312Y-97099498D01*
X86893192Y-97033610D01*
X86893181Y-97033606D01*
X86765892Y-96999500D01*
X86715331Y-96999500D01*
X86642885Y-96978228D01*
X86620579Y-96960252D01*
X84764748Y-95104421D01*
X84728562Y-95038153D01*
X84725500Y-95009669D01*
X84725500Y-93019235D01*
X84746772Y-92946789D01*
X84803834Y-92897344D01*
X84878570Y-92886599D01*
X84894163Y-92889796D01*
X84934108Y-92900500D01*
X84934110Y-92900500D01*
X85065892Y-92900500D01*
X85193186Y-92866392D01*
X85193189Y-92866389D01*
X85193192Y-92866389D01*
X85307312Y-92800501D01*
X85307311Y-92800501D01*
X85307314Y-92800500D01*
X85400500Y-92707314D01*
X85425439Y-92664119D01*
X85466389Y-92593192D01*
X85466389Y-92593189D01*
X85466392Y-92593186D01*
X85500500Y-92465892D01*
X85500500Y-92334108D01*
X85466392Y-92206814D01*
X85466390Y-92206811D01*
X85466389Y-92206807D01*
X85400501Y-92092687D01*
X85400496Y-92092681D01*
X85307318Y-91999503D01*
X85307312Y-91999498D01*
X85193192Y-91933610D01*
X85193181Y-91933606D01*
X85065892Y-91899500D01*
X84934108Y-91899500D01*
X84894181Y-91910198D01*
X84818698Y-91908401D01*
X84756169Y-91866080D01*
X84726448Y-91796671D01*
X84725500Y-91780764D01*
X84725500Y-89637818D01*
X84746772Y-89565372D01*
X84764749Y-89543065D01*
X84800497Y-89507317D01*
X84800500Y-89507314D01*
X84827597Y-89460381D01*
X84866389Y-89393192D01*
X84866389Y-89393189D01*
X84866392Y-89393186D01*
X84900500Y-89265892D01*
X84900500Y-89134108D01*
X84895559Y-89115669D01*
X84866393Y-89006818D01*
X84866389Y-89006807D01*
X84800501Y-88892687D01*
X84800496Y-88892681D01*
X84707318Y-88799503D01*
X84707312Y-88799498D01*
X84593192Y-88733610D01*
X84593181Y-88733606D01*
X84465892Y-88699500D01*
X84334108Y-88699500D01*
X84206818Y-88733606D01*
X84206807Y-88733610D01*
X84092687Y-88799498D01*
X84092681Y-88799503D01*
X83999503Y-88892681D01*
X83999500Y-88892685D01*
X83975547Y-88934173D01*
X83920901Y-88986277D01*
X83846761Y-89000565D01*
X83776666Y-88972502D01*
X83732869Y-88910998D01*
X83725500Y-88867172D01*
X83725500Y-85997437D01*
X83746772Y-85924991D01*
X83764748Y-85902685D01*
X85133326Y-84534107D01*
X87899500Y-84534107D01*
X87899500Y-84665892D01*
X87933606Y-84793181D01*
X87933610Y-84793192D01*
X87999498Y-84907312D01*
X87999503Y-84907318D01*
X88092681Y-85000496D01*
X88092687Y-85000501D01*
X88206807Y-85066389D01*
X88206811Y-85066390D01*
X88206814Y-85066392D01*
X88334108Y-85100500D01*
X88465892Y-85100500D01*
X88593186Y-85066392D01*
X88593189Y-85066389D01*
X88593192Y-85066389D01*
X88707312Y-85000501D01*
X88707311Y-85000501D01*
X88707314Y-85000500D01*
X88800500Y-84907314D01*
X88866392Y-84793186D01*
X88900500Y-84665892D01*
X88900500Y-84534108D01*
X88866392Y-84406814D01*
X88866390Y-84406811D01*
X88866389Y-84406807D01*
X88800501Y-84292687D01*
X88800496Y-84292681D01*
X88707318Y-84199503D01*
X88707312Y-84199498D01*
X88593192Y-84133610D01*
X88593181Y-84133606D01*
X88465892Y-84099500D01*
X88334108Y-84099500D01*
X88206818Y-84133606D01*
X88206807Y-84133610D01*
X88092687Y-84199498D01*
X88092681Y-84199503D01*
X87999503Y-84292681D01*
X87999498Y-84292687D01*
X87933610Y-84406807D01*
X87933606Y-84406818D01*
X87899500Y-84534107D01*
X85133326Y-84534107D01*
X87102685Y-82564748D01*
X87168953Y-82528562D01*
X87197437Y-82525500D01*
X87762182Y-82525500D01*
X87834628Y-82546772D01*
X87856935Y-82564749D01*
X87892682Y-82600497D01*
X87892687Y-82600501D01*
X88006807Y-82666389D01*
X88006811Y-82666390D01*
X88006814Y-82666392D01*
X88134108Y-82700500D01*
X88265892Y-82700500D01*
X88393186Y-82666392D01*
X88393189Y-82666389D01*
X88393192Y-82666389D01*
X88507312Y-82600501D01*
X88507311Y-82600501D01*
X88507314Y-82600500D01*
X88600500Y-82507314D01*
X88666392Y-82393186D01*
X88700500Y-82265892D01*
X88700500Y-82134108D01*
X88666392Y-82006814D01*
X88666390Y-82006811D01*
X88666389Y-82006807D01*
X88600501Y-81892687D01*
X88600496Y-81892681D01*
X88507318Y-81799503D01*
X88507312Y-81799498D01*
X88393192Y-81733610D01*
X88393181Y-81733606D01*
X88265892Y-81699500D01*
X88134108Y-81699500D01*
X88006818Y-81733606D01*
X88006807Y-81733610D01*
X87892687Y-81799498D01*
X87892682Y-81799502D01*
X87856935Y-81835251D01*
X87790667Y-81871437D01*
X87762182Y-81874500D01*
X87409331Y-81874500D01*
X87336885Y-81853228D01*
X87287440Y-81796166D01*
X87276695Y-81721430D01*
X87308061Y-81652749D01*
X87314569Y-81645756D01*
X87602320Y-81358005D01*
X87668585Y-81321822D01*
X87743897Y-81327209D01*
X87764063Y-81336709D01*
X87806814Y-81361392D01*
X87934108Y-81395500D01*
X88065892Y-81395500D01*
X88193186Y-81361392D01*
X88193189Y-81361389D01*
X88193192Y-81361389D01*
X88307312Y-81295501D01*
X88307311Y-81295501D01*
X88307314Y-81295500D01*
X88400500Y-81202314D01*
X88426483Y-81157310D01*
X88466389Y-81088192D01*
X88466389Y-81088189D01*
X88466392Y-81088186D01*
X88500500Y-80960892D01*
X88500500Y-80829108D01*
X88466392Y-80701814D01*
X88466390Y-80701811D01*
X88466389Y-80701807D01*
X88400501Y-80587687D01*
X88400496Y-80587681D01*
X88307318Y-80494503D01*
X88307312Y-80494498D01*
X88193192Y-80428610D01*
X88193181Y-80428606D01*
X88065892Y-80394500D01*
X87934108Y-80394500D01*
X87798330Y-80430881D01*
X87797613Y-80428206D01*
X87736267Y-80434794D01*
X87668754Y-80400987D01*
X87630235Y-80336047D01*
X87632940Y-80260592D01*
X87665323Y-80208176D01*
X90739393Y-77134107D01*
X98499500Y-77134107D01*
X98499500Y-77265892D01*
X98533606Y-77393181D01*
X98533610Y-77393192D01*
X98599498Y-77507312D01*
X98599503Y-77507318D01*
X98692681Y-77600496D01*
X98692687Y-77600501D01*
X98806807Y-77666389D01*
X98806811Y-77666390D01*
X98806814Y-77666392D01*
X98934108Y-77700500D01*
X99065892Y-77700500D01*
X99193186Y-77666392D01*
X99193189Y-77666389D01*
X99193192Y-77666389D01*
X99307312Y-77600501D01*
X99307311Y-77600501D01*
X99307314Y-77600500D01*
X99343065Y-77564749D01*
X99409333Y-77528563D01*
X99437818Y-77525500D01*
X102642853Y-77525500D01*
X102725639Y-77503318D01*
X102799862Y-77460465D01*
X103620579Y-76639748D01*
X103686847Y-76603562D01*
X103715331Y-76600500D01*
X103765892Y-76600500D01*
X103893186Y-76566392D01*
X103893189Y-76566389D01*
X103893192Y-76566389D01*
X104007312Y-76500501D01*
X104007311Y-76500501D01*
X104007314Y-76500500D01*
X104100500Y-76407314D01*
X104166392Y-76293186D01*
X104200500Y-76165892D01*
X104200500Y-76034108D01*
X104166392Y-75906814D01*
X104166390Y-75906811D01*
X104166389Y-75906807D01*
X104100501Y-75792687D01*
X104100496Y-75792681D01*
X104007318Y-75699503D01*
X104007312Y-75699498D01*
X103893192Y-75633610D01*
X103893181Y-75633606D01*
X103765892Y-75599500D01*
X103634108Y-75599500D01*
X103506818Y-75633606D01*
X103506807Y-75633610D01*
X103392687Y-75699498D01*
X103392681Y-75699503D01*
X103299503Y-75792681D01*
X103299498Y-75792687D01*
X103233610Y-75906807D01*
X103233606Y-75906818D01*
X103199500Y-76034107D01*
X103199500Y-76084669D01*
X103178228Y-76157115D01*
X103160252Y-76179421D01*
X102504421Y-76835252D01*
X102438153Y-76871438D01*
X102409669Y-76874500D01*
X99437818Y-76874500D01*
X99365372Y-76853228D01*
X99343065Y-76835251D01*
X99307317Y-76799502D01*
X99307312Y-76799498D01*
X99193192Y-76733610D01*
X99193181Y-76733606D01*
X99065892Y-76699500D01*
X98934108Y-76699500D01*
X98806818Y-76733606D01*
X98806807Y-76733610D01*
X98692687Y-76799498D01*
X98692681Y-76799503D01*
X98599503Y-76892681D01*
X98599498Y-76892687D01*
X98533610Y-77006807D01*
X98533606Y-77006818D01*
X98499500Y-77134107D01*
X90739393Y-77134107D01*
X91633752Y-76239748D01*
X91700020Y-76203562D01*
X91728504Y-76200500D01*
X91765892Y-76200500D01*
X91893186Y-76166392D01*
X91893189Y-76166389D01*
X91893192Y-76166389D01*
X92007312Y-76100501D01*
X92007311Y-76100501D01*
X92007314Y-76100500D01*
X92100500Y-76007314D01*
X92166392Y-75893186D01*
X92200500Y-75765892D01*
X92200500Y-75634108D01*
X92200365Y-75633606D01*
X92166393Y-75506818D01*
X92166389Y-75506807D01*
X92100501Y-75392687D01*
X92100496Y-75392681D01*
X92007318Y-75299503D01*
X92007312Y-75299498D01*
X91893192Y-75233610D01*
X91893181Y-75233606D01*
X91765892Y-75199500D01*
X91634108Y-75199500D01*
X91506818Y-75233606D01*
X91506807Y-75233610D01*
X91392687Y-75299498D01*
X91392681Y-75299503D01*
X91299503Y-75392681D01*
X91299498Y-75392687D01*
X91233610Y-75506807D01*
X91233606Y-75506818D01*
X91199500Y-75634107D01*
X91199500Y-75697841D01*
X91178228Y-75770287D01*
X91160252Y-75792593D01*
X85719025Y-81233819D01*
X85652757Y-81270005D01*
X85577445Y-81264618D01*
X85517000Y-81219370D01*
X85508226Y-81206068D01*
X85500499Y-81192684D01*
X85407318Y-81099503D01*
X85407312Y-81099498D01*
X85293192Y-81033610D01*
X85293181Y-81033606D01*
X85165892Y-80999500D01*
X85034108Y-80999500D01*
X84906818Y-81033606D01*
X84906807Y-81033610D01*
X84792687Y-81099498D01*
X84792681Y-81099503D01*
X84699503Y-81192681D01*
X84699498Y-81192687D01*
X84633610Y-81306807D01*
X84633606Y-81306818D01*
X84599500Y-81434107D01*
X84599500Y-81565892D01*
X84633606Y-81693181D01*
X84633610Y-81693192D01*
X84699498Y-81807312D01*
X84699503Y-81807318D01*
X84792684Y-81900499D01*
X84806068Y-81908226D01*
X84858171Y-81962871D01*
X84872460Y-82037011D01*
X84844398Y-82107107D01*
X84833819Y-82119025D01*
X82329252Y-84623593D01*
X82262984Y-84659779D01*
X82187672Y-84654392D01*
X82127227Y-84609144D01*
X82100841Y-84538400D01*
X82100500Y-84528841D01*
X82100500Y-72665182D01*
X84199500Y-72665182D01*
X84199500Y-72934817D01*
X84229688Y-73202731D01*
X84229688Y-73202737D01*
X84289680Y-73465579D01*
X84289687Y-73465601D01*
X84378727Y-73720064D01*
X84378733Y-73720079D01*
X84495712Y-73962991D01*
X84495714Y-73962994D01*
X84639160Y-74191287D01*
X84807271Y-74402091D01*
X84997908Y-74592728D01*
X84997912Y-74592731D01*
X84997915Y-74592734D01*
X85139875Y-74705943D01*
X85208712Y-74760839D01*
X85437005Y-74904285D01*
X85437008Y-74904287D01*
X85566524Y-74966658D01*
X85679921Y-75021267D01*
X85934409Y-75110316D01*
X85934414Y-75110317D01*
X85934420Y-75110319D01*
X86094271Y-75146803D01*
X86197268Y-75170312D01*
X86465191Y-75200500D01*
X86465198Y-75200500D01*
X86734802Y-75200500D01*
X86734809Y-75200500D01*
X87002732Y-75170312D01*
X87002736Y-75170311D01*
X87002737Y-75170311D01*
X87265579Y-75110319D01*
X87265581Y-75110318D01*
X87265591Y-75110316D01*
X87520079Y-75021267D01*
X87762997Y-74904284D01*
X87991289Y-74760838D01*
X88202085Y-74592734D01*
X88392734Y-74402085D01*
X88560838Y-74191289D01*
X88704284Y-73962997D01*
X88821267Y-73720079D01*
X88910316Y-73465591D01*
X88970312Y-73202732D01*
X89000500Y-72934809D01*
X89000500Y-72665191D01*
X89000499Y-72665182D01*
X116199500Y-72665182D01*
X116199500Y-72934817D01*
X116229688Y-73202731D01*
X116229688Y-73202737D01*
X116289680Y-73465579D01*
X116289687Y-73465601D01*
X116378727Y-73720064D01*
X116378733Y-73720079D01*
X116495712Y-73962991D01*
X116495714Y-73962994D01*
X116639160Y-74191287D01*
X116807271Y-74402091D01*
X116997908Y-74592728D01*
X116997912Y-74592731D01*
X116997915Y-74592734D01*
X117139875Y-74705943D01*
X117208712Y-74760839D01*
X117437005Y-74904285D01*
X117437008Y-74904287D01*
X117566524Y-74966658D01*
X117679921Y-75021267D01*
X117934409Y-75110316D01*
X117934414Y-75110317D01*
X117934420Y-75110319D01*
X118094271Y-75146803D01*
X118197268Y-75170312D01*
X118465191Y-75200500D01*
X118465198Y-75200500D01*
X118734802Y-75200500D01*
X118734809Y-75200500D01*
X119002732Y-75170312D01*
X119002736Y-75170311D01*
X119002737Y-75170311D01*
X119265579Y-75110319D01*
X119265581Y-75110318D01*
X119265591Y-75110316D01*
X119520079Y-75021267D01*
X119762997Y-74904284D01*
X119991289Y-74760838D01*
X120202085Y-74592734D01*
X120392734Y-74402085D01*
X120560838Y-74191289D01*
X120704284Y-73962997D01*
X120821267Y-73720079D01*
X120910316Y-73465591D01*
X120970312Y-73202732D01*
X121000500Y-72934809D01*
X121000500Y-72665191D01*
X120970312Y-72397268D01*
X120910316Y-72134409D01*
X120821267Y-71879921D01*
X120766658Y-71766524D01*
X120704287Y-71637008D01*
X120704285Y-71637005D01*
X120560839Y-71408712D01*
X120392728Y-71197908D01*
X120202091Y-71007271D01*
X120180900Y-70990372D01*
X120128959Y-70948950D01*
X119991287Y-70839160D01*
X119762994Y-70695714D01*
X119762991Y-70695712D01*
X119520079Y-70578733D01*
X119520064Y-70578727D01*
X119265601Y-70489687D01*
X119265579Y-70489680D01*
X119002734Y-70429688D01*
X118734817Y-70399500D01*
X118734809Y-70399500D01*
X118465191Y-70399500D01*
X118465182Y-70399500D01*
X118197268Y-70429688D01*
X118197262Y-70429688D01*
X117934420Y-70489680D01*
X117934398Y-70489687D01*
X117679935Y-70578727D01*
X117679920Y-70578733D01*
X117437008Y-70695712D01*
X117437005Y-70695714D01*
X117208712Y-70839160D01*
X116997908Y-71007271D01*
X116807271Y-71197908D01*
X116639160Y-71408712D01*
X116495714Y-71637005D01*
X116495712Y-71637008D01*
X116378733Y-71879920D01*
X116378727Y-71879935D01*
X116289687Y-72134398D01*
X116289680Y-72134420D01*
X116229688Y-72397262D01*
X116229688Y-72397268D01*
X116199500Y-72665182D01*
X89000499Y-72665182D01*
X88970312Y-72397268D01*
X88910316Y-72134409D01*
X88821267Y-71879921D01*
X88766658Y-71766524D01*
X88704287Y-71637008D01*
X88704285Y-71637005D01*
X88560839Y-71408712D01*
X88392728Y-71197908D01*
X88202091Y-71007271D01*
X88180900Y-70990372D01*
X88128959Y-70948950D01*
X87991287Y-70839160D01*
X87762994Y-70695714D01*
X87762991Y-70695712D01*
X87520079Y-70578733D01*
X87520064Y-70578727D01*
X87265601Y-70489687D01*
X87265579Y-70489680D01*
X87002734Y-70429688D01*
X86734817Y-70399500D01*
X86734809Y-70399500D01*
X86465191Y-70399500D01*
X86465182Y-70399500D01*
X86197268Y-70429688D01*
X86197262Y-70429688D01*
X85934420Y-70489680D01*
X85934398Y-70489687D01*
X85679935Y-70578727D01*
X85679920Y-70578733D01*
X85437008Y-70695712D01*
X85437005Y-70695714D01*
X85208712Y-70839160D01*
X84997908Y-71007271D01*
X84807271Y-71197908D01*
X84639160Y-71408712D01*
X84495714Y-71637005D01*
X84495712Y-71637008D01*
X84378733Y-71879920D01*
X84378727Y-71879935D01*
X84289687Y-72134398D01*
X84289680Y-72134420D01*
X84229688Y-72397262D01*
X84229688Y-72397268D01*
X84199500Y-72665182D01*
X82100500Y-72665182D01*
X82100500Y-71062818D01*
X82121772Y-70990372D01*
X82139748Y-70968066D01*
X84768066Y-68339748D01*
X84834334Y-68303562D01*
X84862818Y-68300500D01*
X120337182Y-68300500D01*
X120409628Y-68321772D01*
G37*
%TD.AperFunction*%
%TA.AperFunction,Conductor*%
G36*
X112887328Y-112566622D02*
G01*
X112947773Y-112611870D01*
X112974159Y-112682614D01*
X112974500Y-112692173D01*
X112974500Y-112909668D01*
X112953228Y-112982114D01*
X112935252Y-113004420D01*
X108039538Y-117900133D01*
X108039533Y-117900139D01*
X107996682Y-117974359D01*
X107992116Y-117991402D01*
X107974500Y-118057146D01*
X107974500Y-123362181D01*
X107953228Y-123434627D01*
X107949908Y-123439550D01*
X107943320Y-123448865D01*
X107899500Y-123492686D01*
X107842423Y-123591544D01*
X107838863Y-123596580D01*
X107813896Y-123616346D01*
X107790856Y-123638315D01*
X107784634Y-123639514D01*
X107779666Y-123643448D01*
X107747978Y-123646578D01*
X107716717Y-123652604D01*
X107709700Y-123650360D01*
X107704528Y-123650872D01*
X107693237Y-123645098D01*
X107662454Y-123635258D01*
X107595641Y-123596683D01*
X107595634Y-123596680D01*
X107512853Y-123574500D01*
X106774804Y-123574500D01*
X106774788Y-123574499D01*
X106766579Y-123574499D01*
X106680874Y-123574499D01*
X106598086Y-123596682D01*
X106523865Y-123639533D01*
X106523859Y-123639538D01*
X106470897Y-123692501D01*
X106152530Y-124010867D01*
X106132227Y-124027530D01*
X106090451Y-124055445D01*
X106090446Y-124055449D01*
X106046134Y-124121766D01*
X106046133Y-124121769D01*
X106034500Y-124180250D01*
X106034500Y-126719753D01*
X106035145Y-126726305D01*
X106032334Y-126726581D01*
X106031398Y-126737036D01*
X106034638Y-126759570D01*
X106028099Y-126773887D01*
X106026696Y-126789566D01*
X106012727Y-126807545D01*
X106003272Y-126828251D01*
X105990032Y-126836759D01*
X105980374Y-126849192D01*
X105958903Y-126856765D01*
X105939754Y-126869072D01*
X105913181Y-126872892D01*
X105909169Y-126874308D01*
X105902002Y-126874500D01*
X105647998Y-126874500D01*
X105575552Y-126853228D01*
X105526107Y-126796166D01*
X105516080Y-126726425D01*
X105514855Y-126726305D01*
X105515500Y-126719753D01*
X105515500Y-124247818D01*
X105536772Y-124175372D01*
X105554749Y-124153065D01*
X105600497Y-124107317D01*
X105600500Y-124107314D01*
X105642766Y-124034107D01*
X105666389Y-123993192D01*
X105666389Y-123993189D01*
X105666392Y-123993186D01*
X105700500Y-123865892D01*
X105700500Y-123734108D01*
X105691226Y-123699498D01*
X105673571Y-123633606D01*
X105666392Y-123606814D01*
X105666390Y-123606811D01*
X105666389Y-123606807D01*
X105600501Y-123492687D01*
X105600496Y-123492681D01*
X105507318Y-123399503D01*
X105507312Y-123399498D01*
X105393192Y-123333610D01*
X105393181Y-123333606D01*
X105265892Y-123299500D01*
X105134108Y-123299500D01*
X105134107Y-123299500D01*
X104999180Y-123335652D01*
X104979565Y-123335185D01*
X104960582Y-123340161D01*
X104942600Y-123334305D01*
X104923697Y-123333855D01*
X104907447Y-123322856D01*
X104888789Y-123316780D01*
X104876828Y-123302131D01*
X104861169Y-123291533D01*
X104853444Y-123273495D01*
X104841034Y-123258296D01*
X104835750Y-123232174D01*
X104831447Y-123222125D01*
X104831363Y-123221402D01*
X104830500Y-123213835D01*
X104830500Y-123112147D01*
X104808318Y-123029362D01*
X104808318Y-123029361D01*
X104808317Y-123029359D01*
X104765466Y-122955139D01*
X104765461Y-122955133D01*
X104514748Y-122704420D01*
X104478562Y-122638152D01*
X104475500Y-122609668D01*
X104475500Y-122559107D01*
X104441393Y-122431818D01*
X104441389Y-122431807D01*
X104375501Y-122317687D01*
X104375496Y-122317681D01*
X104282318Y-122224503D01*
X104282312Y-122224498D01*
X104168192Y-122158610D01*
X104168181Y-122158606D01*
X104040892Y-122124500D01*
X103909108Y-122124500D01*
X103781818Y-122158606D01*
X103781807Y-122158610D01*
X103667687Y-122224498D01*
X103667681Y-122224503D01*
X103574503Y-122317681D01*
X103574498Y-122317687D01*
X103508610Y-122431807D01*
X103508606Y-122431818D01*
X103474500Y-122559107D01*
X103474500Y-122690892D01*
X103508606Y-122818181D01*
X103508610Y-122818192D01*
X103574498Y-122932312D01*
X103574503Y-122932318D01*
X103667681Y-123025496D01*
X103667687Y-123025501D01*
X103781807Y-123091389D01*
X103781811Y-123091390D01*
X103781814Y-123091392D01*
X103909108Y-123125500D01*
X103959669Y-123125500D01*
X103991483Y-123134841D01*
X104023888Y-123141891D01*
X104029306Y-123145947D01*
X104032115Y-123146772D01*
X104054421Y-123164748D01*
X104140252Y-123250579D01*
X104176438Y-123316847D01*
X104179500Y-123345331D01*
X104179500Y-124023700D01*
X104158228Y-124096146D01*
X104156917Y-124098146D01*
X104141135Y-124121764D01*
X104141133Y-124121770D01*
X104129500Y-124180250D01*
X104129500Y-126719753D01*
X104130145Y-126726305D01*
X104127334Y-126726581D01*
X104126398Y-126737036D01*
X104129638Y-126759570D01*
X104123099Y-126773887D01*
X104121696Y-126789566D01*
X104107727Y-126807545D01*
X104098272Y-126828251D01*
X104085032Y-126836759D01*
X104075374Y-126849192D01*
X104053903Y-126856765D01*
X104034754Y-126869072D01*
X104008181Y-126872892D01*
X104004169Y-126874308D01*
X103997002Y-126874500D01*
X103775331Y-126874500D01*
X103702885Y-126853228D01*
X103680577Y-126835251D01*
X103649746Y-126804419D01*
X103613562Y-126738150D01*
X103610500Y-126709668D01*
X103610500Y-124180250D01*
X103607188Y-124163606D01*
X103598867Y-124121769D01*
X103554552Y-124055448D01*
X103522615Y-124034108D01*
X103488233Y-124011134D01*
X103488231Y-124011133D01*
X103468736Y-124007255D01*
X103429750Y-123999500D01*
X103429748Y-123999500D01*
X103040252Y-123999500D01*
X103040250Y-123999500D01*
X103001263Y-124007255D01*
X102981769Y-124011133D01*
X102981767Y-124011134D01*
X102969574Y-124016185D01*
X102967800Y-124011902D01*
X102919790Y-124026895D01*
X102867005Y-124012371D01*
X102865426Y-124016185D01*
X102853234Y-124011135D01*
X102853231Y-124011133D01*
X102823665Y-124005252D01*
X102794750Y-123999500D01*
X102794748Y-123999500D01*
X102405252Y-123999500D01*
X102405250Y-123999500D01*
X102346769Y-124011133D01*
X102346766Y-124011134D01*
X102280448Y-124055447D01*
X102280447Y-124055448D01*
X102236134Y-124121766D01*
X102236133Y-124121769D01*
X102224500Y-124180250D01*
X102224500Y-126719749D01*
X102236133Y-126778230D01*
X102236134Y-126778234D01*
X102251915Y-126801850D01*
X102274479Y-126873904D01*
X102274500Y-126876299D01*
X102274500Y-126892853D01*
X102296680Y-126975634D01*
X102296683Y-126975641D01*
X102339535Y-127049863D01*
X102339538Y-127049866D01*
X103092288Y-127802614D01*
X103128474Y-127868882D01*
X103123087Y-127944194D01*
X103077839Y-128004638D01*
X103032221Y-128026799D01*
X103006819Y-128033606D01*
X103006807Y-128033610D01*
X102892687Y-128099498D01*
X102892681Y-128099503D01*
X102799503Y-128192681D01*
X102799498Y-128192687D01*
X102733610Y-128306807D01*
X102733606Y-128306818D01*
X102699500Y-128434107D01*
X102699500Y-128565500D01*
X102678228Y-128637946D01*
X102621166Y-128687391D01*
X102565500Y-128699500D01*
X102405250Y-128699500D01*
X102366263Y-128707255D01*
X102346769Y-128711133D01*
X102346767Y-128711134D01*
X102334574Y-128716185D01*
X102332800Y-128711902D01*
X102284790Y-128726895D01*
X102232005Y-128712371D01*
X102230426Y-128716185D01*
X102218234Y-128711135D01*
X102218231Y-128711133D01*
X102188989Y-128705316D01*
X102159750Y-128699500D01*
X102159748Y-128699500D01*
X101770252Y-128699500D01*
X101770250Y-128699500D01*
X101711768Y-128711133D01*
X101709416Y-128712108D01*
X101703877Y-128712703D01*
X101698827Y-128713708D01*
X101698737Y-128713255D01*
X101634344Y-128720177D01*
X101566827Y-128686379D01*
X101563387Y-128683059D01*
X101019863Y-128139535D01*
X100945641Y-128096683D01*
X100945634Y-128096680D01*
X100910793Y-128087345D01*
X100846321Y-128048048D01*
X100813329Y-127980133D01*
X100822293Y-127905163D01*
X100850722Y-127863159D01*
X101522964Y-127190917D01*
X101522965Y-127190916D01*
X101565818Y-127116693D01*
X101588000Y-127033907D01*
X101588000Y-126957304D01*
X101609272Y-126884858D01*
X101647557Y-126845885D01*
X101649552Y-126844552D01*
X101693867Y-126778231D01*
X101705500Y-126719748D01*
X101705500Y-124180252D01*
X101704529Y-124175372D01*
X101702188Y-124163606D01*
X101693867Y-124121769D01*
X101649552Y-124055448D01*
X101617615Y-124034108D01*
X101583233Y-124011134D01*
X101583231Y-124011133D01*
X101563736Y-124007255D01*
X101524750Y-123999500D01*
X101524748Y-123999500D01*
X101135252Y-123999500D01*
X101135250Y-123999500D01*
X101096263Y-124007255D01*
X101076769Y-124011133D01*
X101076767Y-124011134D01*
X101064574Y-124016185D01*
X101062800Y-124011902D01*
X101014790Y-124026895D01*
X100962005Y-124012371D01*
X100960426Y-124016185D01*
X100948234Y-124011135D01*
X100948231Y-124011133D01*
X100918665Y-124005252D01*
X100889750Y-123999500D01*
X100889748Y-123999500D01*
X100500252Y-123999500D01*
X100500250Y-123999500D01*
X100441769Y-124011133D01*
X100441766Y-124011134D01*
X100375448Y-124055447D01*
X100375447Y-124055448D01*
X100331134Y-124121766D01*
X100331133Y-124121769D01*
X100319500Y-124180250D01*
X100319500Y-126711113D01*
X100310156Y-126742933D01*
X100303110Y-126775330D01*
X100299052Y-126780750D01*
X100298228Y-126783559D01*
X100280254Y-126805864D01*
X100250868Y-126835251D01*
X100184600Y-126871437D01*
X100156114Y-126874500D01*
X99932998Y-126874500D01*
X99860552Y-126853228D01*
X99811107Y-126796166D01*
X99801080Y-126726425D01*
X99799855Y-126726305D01*
X99800500Y-126719753D01*
X99800500Y-124179974D01*
X99821772Y-124107528D01*
X99839748Y-124085222D01*
X109660223Y-114264748D01*
X109726491Y-114228562D01*
X109754975Y-114225500D01*
X111032760Y-114225500D01*
X111109187Y-114205021D01*
X111177709Y-114165460D01*
X111233658Y-114109511D01*
X112745748Y-112597421D01*
X112812016Y-112561235D01*
X112887328Y-112566622D01*
G37*
%TD.AperFunction*%
%TA.AperFunction,Conductor*%
G36*
X107352115Y-124246772D02*
G01*
X107374421Y-124264748D01*
X107909534Y-124799861D01*
X107909535Y-124799862D01*
X107955421Y-124845748D01*
X107970138Y-124860465D01*
X107970139Y-124860466D01*
X107977556Y-124864748D01*
X108044362Y-124903318D01*
X108127147Y-124925500D01*
X108660668Y-124925500D01*
X108733114Y-124946772D01*
X108782559Y-125003834D01*
X108793304Y-125078570D01*
X108761938Y-125147251D01*
X108755420Y-125154252D01*
X107074421Y-126835252D01*
X107045314Y-126851145D01*
X107017421Y-126869072D01*
X107010721Y-126870035D01*
X107008153Y-126871438D01*
X106979669Y-126874500D01*
X106917998Y-126874500D01*
X106845552Y-126853228D01*
X106796107Y-126796166D01*
X106786080Y-126726425D01*
X106784855Y-126726305D01*
X106785500Y-126719753D01*
X106785500Y-124359500D01*
X106806772Y-124287054D01*
X106863834Y-124237609D01*
X106919500Y-124225500D01*
X107279669Y-124225500D01*
X107352115Y-124246772D01*
G37*
%TD.AperFunction*%
%TD*%
M02*
