%TF.GenerationSoftware,KiCad,Pcbnew,10.0.3*%
%TF.CreationDate,2026-07-23T12:42:31-04:00*%
%TF.ProjectId,magnetic_expension_v2,6d61676e-6574-4696-935f-657870656e73,v2*%
%TF.SameCoordinates,Original*%
%TF.FileFunction,Copper,L2,Inr*%
%TF.FilePolarity,Positive*%
%FSLAX46Y46*%
G04 Gerber Fmt 4.6, Leading zero omitted, Abs format (unit mm)*
G04 Created by KiCad (PCBNEW 10.0.3) date 2026-07-23 12:42:31*
%MOMM*%
%LPD*%
G01*
G04 APERTURE LIST*
%TA.AperFunction,ComponentPad*%
%ADD10C,1.100000*%
%TD*%
%TA.AperFunction,ViaPad*%
%ADD11C,0.600000*%
%TD*%
G04 APERTURE END LIST*
D10*
%TO.N,/SENSOR_3AXIS_HMC100X/SETRESET_STRAP*%
%TO.C,U1*%
X107045000Y-87800000D03*
%TO.N,GND*%
X105775000Y-87800000D03*
%TO.N,/SENSOR_3AXIS_HMC100X/SETRESET_AFTER_1001*%
X104505000Y-87800000D03*
%TO.N,GND*%
X103235000Y-87800000D03*
%TO.N,/SENSOR_3AXIS_HMC100X/BR_Z-*%
X101965000Y-87800000D03*
%TO.N,GND*%
X100695000Y-87800000D03*
%TO.N,+9Vb*%
X99425000Y-87800000D03*
%TO.N,/SENSOR_3AXIS_HMC100X/BR_Z+*%
X98155000Y-87800000D03*
%TD*%
D11*
%TO.N,+9VA*%
X92500000Y-112600000D03*
X104100000Y-128400000D03*
X85600000Y-111300000D03*
X119400000Y-92200000D03*
X91300000Y-87600000D03*
X91700000Y-103100000D03*
X86700000Y-122800000D03*
X110500000Y-112300000D03*
X121700000Y-111500000D03*
X110700000Y-117900000D03*
%TO.N,GND*%
X109100000Y-115900000D03*
X103600000Y-94800000D03*
X105984154Y-123826399D03*
X88400000Y-107800000D03*
X101600000Y-100800000D03*
X99600000Y-99700000D03*
X84000000Y-99300000D03*
X96300000Y-101000000D03*
X121900000Y-94700000D03*
X101600000Y-92800000D03*
X99600000Y-89800000D03*
X115300000Y-104800000D03*
X99600000Y-102800000D03*
X95600000Y-104800000D03*
X95600000Y-94700000D03*
X84600000Y-78800000D03*
X91600000Y-130800000D03*
X82600000Y-77800000D03*
X85500000Y-114200000D03*
X112600000Y-128800000D03*
X99500000Y-94700000D03*
X115600000Y-117800000D03*
X104400000Y-117600000D03*
X105600000Y-98800000D03*
X101600000Y-102800000D03*
X89600000Y-74800000D03*
X84600000Y-130800000D03*
X92600000Y-126800000D03*
X86600000Y-103800000D03*
X83100000Y-116500000D03*
X105600000Y-96800000D03*
X109600000Y-96800000D03*
X103600000Y-89800000D03*
X84200000Y-97300000D03*
X103300000Y-69400000D03*
X117950000Y-115100000D03*
X99600000Y-104800000D03*
X101600000Y-96800000D03*
X100060000Y-131900000D03*
X110600000Y-101300000D03*
X83600000Y-125800000D03*
X114900000Y-93100000D03*
X119600000Y-88800000D03*
X105600000Y-104800000D03*
X121600000Y-117800000D03*
X100200000Y-70500000D03*
X100200000Y-72900000D03*
X84100000Y-110400000D03*
X101600000Y-89800000D03*
X121600000Y-82800000D03*
X103600000Y-96800000D03*
X105600000Y-94800000D03*
X96350000Y-97650000D03*
X83100000Y-118400000D03*
X103600000Y-102800000D03*
X97600000Y-104800000D03*
X103600000Y-100800000D03*
X101900000Y-127300000D03*
X109100000Y-109000000D03*
X104600000Y-120800000D03*
X101600000Y-94800000D03*
X115600000Y-73800000D03*
X114600000Y-121300000D03*
X101600000Y-104800000D03*
X109600000Y-94800000D03*
X91600000Y-92100000D03*
X99600000Y-101000000D03*
X104680000Y-122030000D03*
X105800000Y-92100000D03*
X90500000Y-99500000D03*
X92200000Y-87900000D03*
X94950000Y-110600000D03*
X94450000Y-116650000D03*
X101600000Y-106800000D03*
X107600000Y-104800000D03*
X121300000Y-90300000D03*
X112600000Y-69800000D03*
X121800000Y-106000000D03*
X109600000Y-87800000D03*
X120600000Y-124800000D03*
X116600000Y-119800000D03*
X97600000Y-75800000D03*
X107700000Y-129900000D03*
X99400000Y-114200000D03*
X91750000Y-97600000D03*
X103600000Y-91800000D03*
X92600000Y-69800000D03*
X110100000Y-114900000D03*
X96600000Y-131800000D03*
X95600000Y-89800000D03*
X107600000Y-125700000D03*
X108500000Y-69100000D03*
X90600000Y-104800000D03*
X109600000Y-89800000D03*
X99500000Y-97200000D03*
X94550000Y-118800000D03*
X109600000Y-85800000D03*
X106600000Y-78800000D03*
X96300000Y-99700000D03*
X100100000Y-120700000D03*
X109950000Y-72325000D03*
X107600000Y-72325000D03*
X109600000Y-104800000D03*
X97400000Y-129800000D03*
X97600000Y-89800000D03*
X89600000Y-129800000D03*
X120400000Y-112800000D03*
X95600000Y-87800000D03*
X119600000Y-75800000D03*
X105600000Y-89800000D03*
X115600000Y-129800000D03*
X119600000Y-69800000D03*
X101600000Y-98800000D03*
X93400000Y-113100000D03*
X95600000Y-85800000D03*
X97500000Y-125700000D03*
X82600000Y-122800000D03*
X118050000Y-116900000D03*
X112300000Y-78800000D03*
X89000000Y-118625000D03*
X96400000Y-94600000D03*
X98200000Y-122300000D03*
X107600000Y-89800000D03*
X103600000Y-98800000D03*
X104900000Y-70700000D03*
X105600000Y-100800000D03*
X85600000Y-75800000D03*
%TO.N,/Y_BALANCING/COMP+*%
X119300000Y-89800000D03*
X121300000Y-105000000D03*
%TO.N,/SENSOR_3AXIS_HMC100X/BR_Y+*%
X110400000Y-92150000D03*
X111450000Y-88800000D03*
%TO.N,+9Vb*%
X92400000Y-95000000D03*
X111000000Y-100200000D03*
X98200000Y-117900000D03*
X103200000Y-128500000D03*
X98300000Y-86100000D03*
%TO.N,/SENSOR_3AXIS_HMC100X/SETRESET_AFTER_1001*%
X99900000Y-98400000D03*
%TO.N,/CONNECTOR/Y_CONN-*%
X116900000Y-124100000D03*
%TO.N,/CONNECTOR/Y_CONN+*%
X116300000Y-123500000D03*
%TO.N,+4V5B*%
X104900000Y-116700000D03*
X101900000Y-113700000D03*
X99893413Y-110193413D03*
X100000000Y-115000000D03*
X115200000Y-111400000D03*
X88400000Y-84600000D03*
X97400000Y-117600000D03*
X106000000Y-113000000D03*
X85100000Y-81500000D03*
X85000000Y-92400000D03*
X114800000Y-102800000D03*
X120200000Y-92600000D03*
X84450000Y-103750000D03*
%TO.N,/X_BALANCING/COMP+*%
X94600000Y-112200000D03*
X100800000Y-110100000D03*
X90998608Y-108381114D03*
X109800000Y-107500000D03*
%TO.N,/CONNECTOR/SENSOR_SET_CTRL*%
X91700000Y-75700000D03*
%TO.N,/CONNECTOR/DEVICE_DETECT*%
X120400000Y-122700000D03*
%TO.N,/Y_BALANCING/COMP-*%
X118700000Y-88800000D03*
X118700000Y-108300000D03*
X115100000Y-109500000D03*
%TO.N,/THERMISTOR/TH_BRIDGE-*%
X118300000Y-81900000D03*
%TO.N,+3V3A*%
X108300000Y-123800000D03*
X119700000Y-78400000D03*
X102600000Y-131600000D03*
%TO.N,+1V65B*%
X111900000Y-120300000D03*
X83800000Y-116100000D03*
X116000000Y-113700000D03*
%TO.N,/SENSOR_3AXIS_HMC100X/BR_Z+*%
X102550000Y-83050000D03*
%TO.N,/SENSOR_SET_RESET_DRIVER/PULSE_SET_CTRL*%
X103700000Y-76100000D03*
X99000000Y-77200000D03*
%TO.N,/Y_BALANCING/INA_OUT-*%
X119500000Y-95600000D03*
X117875000Y-113800000D03*
%TO.N,/Y_BALANCING/INA_OUT+*%
X120400000Y-95600000D03*
X118725000Y-113800000D03*
%TO.N,/Z_BALANCING/INA_OUT-*%
X88000000Y-80895000D03*
X85700000Y-116400000D03*
%TO.N,/Z_BALANCING/INA_OUT+*%
X88600000Y-117300000D03*
X88200000Y-82200000D03*
%TO.N,/Z_BALANCING/COMP+*%
X88000000Y-97400000D03*
X96500000Y-80900000D03*
%TO.N,/Z_BALANCING/COMP-*%
X86700000Y-99300000D03*
X96693921Y-81624497D03*
%TO.N,/CONNECTOR/Z_CONN-*%
X103975000Y-122625000D03*
%TO.N,/CONNECTOR/Z_CONN+*%
X105200000Y-123800000D03*
%TO.N,/CONNECTOR/SENSOR_RESET_CTRL*%
X121100000Y-87900000D03*
%TO.N,/X_BALANCING/COMP-*%
X98100000Y-110300000D03*
X109450003Y-106749997D03*
%TO.N,/X_BALANCING/INA_OUT-*%
X87900000Y-105650000D03*
X103695000Y-113700000D03*
%TO.N,/X_BALANCING/INA_OUT+*%
X88457473Y-105075000D03*
X104442458Y-113638302D03*
%TO.N,/CONNECTOR/TH+*%
X116600000Y-87200000D03*
%TO.N,/CONNECTOR/TH-*%
X115700000Y-87000000D03*
%TO.N,/Z_BALANCING/INT_FB*%
X86700000Y-97500000D03*
X84400000Y-89200000D03*
%TO.N,/CONNECTOR/X_CONN+*%
X91075000Y-116000000D03*
%TO.N,/CONNECTOR/X_CONN-*%
X91925000Y-116000000D03*
%TO.N,+1V65*%
X106450000Y-131600000D03*
%TO.N,+18V*%
X114900000Y-82700000D03*
X108300000Y-129200000D03*
%TD*%
%TA.AperFunction,Conductor*%
%TO.N,GND*%
G36*
X120409628Y-68321772D02*
G01*
X120431934Y-68339748D01*
X123060252Y-70968066D01*
X123096438Y-71034334D01*
X123099500Y-71062818D01*
X123099500Y-129537182D01*
X123078228Y-129609628D01*
X123060252Y-129631934D01*
X120431934Y-132260252D01*
X120365666Y-132296438D01*
X120337182Y-132299500D01*
X106739526Y-132299500D01*
X106667080Y-132278228D01*
X106617635Y-132221166D01*
X106606890Y-132146430D01*
X106638256Y-132077749D01*
X106672526Y-132049453D01*
X106757312Y-132000501D01*
X106757311Y-132000501D01*
X106757314Y-132000500D01*
X106850500Y-131907314D01*
X106916392Y-131793186D01*
X106950500Y-131665892D01*
X106950500Y-131534108D01*
X106916392Y-131406814D01*
X106916390Y-131406811D01*
X106916389Y-131406807D01*
X106850501Y-131292687D01*
X106850496Y-131292681D01*
X106757318Y-131199503D01*
X106757312Y-131199498D01*
X106643192Y-131133610D01*
X106643181Y-131133606D01*
X106515892Y-131099500D01*
X106384108Y-131099500D01*
X106256818Y-131133606D01*
X106256807Y-131133610D01*
X106142687Y-131199498D01*
X106142681Y-131199503D01*
X106049503Y-131292681D01*
X106049498Y-131292687D01*
X105983610Y-131406807D01*
X105983606Y-131406818D01*
X105949500Y-131534107D01*
X105949500Y-131665892D01*
X105983606Y-131793181D01*
X105983610Y-131793192D01*
X106049498Y-131907312D01*
X106049503Y-131907318D01*
X106142681Y-132000496D01*
X106142687Y-132000501D01*
X106227474Y-132049453D01*
X106279578Y-132104098D01*
X106293867Y-132178238D01*
X106265805Y-132248334D01*
X106204301Y-132292130D01*
X106160474Y-132299500D01*
X102889526Y-132299500D01*
X102817080Y-132278228D01*
X102767635Y-132221166D01*
X102756890Y-132146430D01*
X102788256Y-132077749D01*
X102822526Y-132049453D01*
X102907312Y-132000501D01*
X102907311Y-132000501D01*
X102907314Y-132000500D01*
X103000500Y-131907314D01*
X103066392Y-131793186D01*
X103100500Y-131665892D01*
X103100500Y-131534108D01*
X103066392Y-131406814D01*
X103066390Y-131406811D01*
X103066389Y-131406807D01*
X103000501Y-131292687D01*
X103000496Y-131292681D01*
X102907318Y-131199503D01*
X102907312Y-131199498D01*
X102793192Y-131133610D01*
X102793181Y-131133606D01*
X102665892Y-131099500D01*
X102534108Y-131099500D01*
X102406818Y-131133606D01*
X102406807Y-131133610D01*
X102292687Y-131199498D01*
X102292681Y-131199503D01*
X102199503Y-131292681D01*
X102199498Y-131292687D01*
X102133610Y-131406807D01*
X102133606Y-131406818D01*
X102099500Y-131534107D01*
X102099500Y-131665892D01*
X102133606Y-131793181D01*
X102133610Y-131793192D01*
X102199498Y-131907312D01*
X102199503Y-131907318D01*
X102292681Y-132000496D01*
X102292687Y-132000501D01*
X102377474Y-132049453D01*
X102429578Y-132104098D01*
X102443867Y-132178238D01*
X102415805Y-132248334D01*
X102354301Y-132292130D01*
X102310474Y-132299500D01*
X84862818Y-132299500D01*
X84790372Y-132278228D01*
X84768066Y-132260252D01*
X82139748Y-129631934D01*
X82103562Y-129565666D01*
X82100500Y-129537182D01*
X82100500Y-127665182D01*
X84199500Y-127665182D01*
X84199500Y-127934817D01*
X84229688Y-128202731D01*
X84229688Y-128202737D01*
X84289680Y-128465579D01*
X84289687Y-128465601D01*
X84378727Y-128720064D01*
X84378733Y-128720079D01*
X84495712Y-128962991D01*
X84495714Y-128962994D01*
X84639160Y-129191287D01*
X84807271Y-129402091D01*
X84997908Y-129592728D01*
X84997912Y-129592731D01*
X84997915Y-129592734D01*
X85090281Y-129666393D01*
X85208712Y-129760839D01*
X85437005Y-129904285D01*
X85437008Y-129904287D01*
X85566524Y-129966658D01*
X85679921Y-130021267D01*
X85934409Y-130110316D01*
X85934414Y-130110317D01*
X85934420Y-130110319D01*
X86094271Y-130146803D01*
X86197268Y-130170312D01*
X86465191Y-130200500D01*
X86465198Y-130200500D01*
X86734802Y-130200500D01*
X86734809Y-130200500D01*
X87002732Y-130170312D01*
X87002736Y-130170311D01*
X87002737Y-130170311D01*
X87265579Y-130110319D01*
X87265581Y-130110318D01*
X87265591Y-130110316D01*
X87520079Y-130021267D01*
X87762997Y-129904284D01*
X87991289Y-129760838D01*
X88202085Y-129592734D01*
X88392734Y-129402085D01*
X88560838Y-129191289D01*
X88596768Y-129134107D01*
X107799500Y-129134107D01*
X107799500Y-129265892D01*
X107833606Y-129393181D01*
X107833610Y-129393192D01*
X107899498Y-129507312D01*
X107899503Y-129507318D01*
X107992681Y-129600496D01*
X107992687Y-129600501D01*
X108106807Y-129666389D01*
X108106811Y-129666390D01*
X108106814Y-129666392D01*
X108234108Y-129700500D01*
X108365892Y-129700500D01*
X108493186Y-129666392D01*
X108493189Y-129666389D01*
X108493192Y-129666389D01*
X108607312Y-129600501D01*
X108607311Y-129600501D01*
X108607314Y-129600500D01*
X108700500Y-129507314D01*
X108761251Y-129402091D01*
X108766389Y-129393192D01*
X108766389Y-129393189D01*
X108766392Y-129393186D01*
X108800500Y-129265892D01*
X108800500Y-129134108D01*
X108766392Y-129006814D01*
X108766390Y-129006811D01*
X108766389Y-129006807D01*
X108700501Y-128892687D01*
X108700496Y-128892681D01*
X108607318Y-128799503D01*
X108607312Y-128799498D01*
X108521656Y-128750044D01*
X108521651Y-128750042D01*
X108493186Y-128733608D01*
X108365892Y-128699500D01*
X108234108Y-128699500D01*
X108106818Y-128733606D01*
X108106807Y-128733610D01*
X107992687Y-128799498D01*
X107992681Y-128799503D01*
X107899503Y-128892681D01*
X107899498Y-128892687D01*
X107833610Y-129006807D01*
X107833606Y-129006818D01*
X107799500Y-129134107D01*
X88596768Y-129134107D01*
X88704284Y-128962997D01*
X88821267Y-128720079D01*
X88910316Y-128465591D01*
X88917502Y-128434107D01*
X102699500Y-128434107D01*
X102699500Y-128565892D01*
X102733606Y-128693181D01*
X102733610Y-128693192D01*
X102799498Y-128807312D01*
X102799503Y-128807318D01*
X102892681Y-128900496D01*
X102892687Y-128900501D01*
X103006807Y-128966389D01*
X103006811Y-128966390D01*
X103006814Y-128966392D01*
X103134108Y-129000500D01*
X103265891Y-129000500D01*
X103265892Y-129000500D01*
X103393186Y-128966392D01*
X103393189Y-128966389D01*
X103393192Y-128966389D01*
X103507312Y-128900501D01*
X103507311Y-128900501D01*
X103507314Y-128900500D01*
X103541425Y-128866389D01*
X103605248Y-128802567D01*
X103671516Y-128766381D01*
X103746828Y-128771768D01*
X103784889Y-128796228D01*
X103785716Y-128795152D01*
X103792687Y-128800501D01*
X103906807Y-128866389D01*
X103906811Y-128866390D01*
X103906814Y-128866392D01*
X104034108Y-128900500D01*
X104165892Y-128900500D01*
X104293186Y-128866392D01*
X104293189Y-128866389D01*
X104293192Y-128866389D01*
X104407312Y-128800501D01*
X104407311Y-128800501D01*
X104407314Y-128800500D01*
X104500500Y-128707314D01*
X104566392Y-128593186D01*
X104600500Y-128465892D01*
X104600500Y-128334108D01*
X104586140Y-128280517D01*
X104566393Y-128206818D01*
X104566389Y-128206807D01*
X104500501Y-128092687D01*
X104500496Y-128092681D01*
X104407318Y-127999503D01*
X104407312Y-127999498D01*
X104293192Y-127933610D01*
X104293181Y-127933606D01*
X104165892Y-127899500D01*
X104034108Y-127899500D01*
X103906818Y-127933606D01*
X103906807Y-127933610D01*
X103792687Y-127999498D01*
X103792681Y-127999503D01*
X103694752Y-128097433D01*
X103628484Y-128133619D01*
X103553172Y-128128232D01*
X103515110Y-128103771D01*
X103514284Y-128104848D01*
X103507312Y-128099498D01*
X103393192Y-128033610D01*
X103393181Y-128033606D01*
X103265892Y-127999500D01*
X103134108Y-127999500D01*
X103006818Y-128033606D01*
X103006807Y-128033610D01*
X102892687Y-128099498D01*
X102892681Y-128099503D01*
X102799503Y-128192681D01*
X102799498Y-128192687D01*
X102733610Y-128306807D01*
X102733606Y-128306818D01*
X102699500Y-128434107D01*
X88917502Y-128434107D01*
X88938043Y-128344114D01*
X88970311Y-128202737D01*
X88970311Y-128202736D01*
X88970312Y-128202732D01*
X89000500Y-127934809D01*
X89000500Y-127720942D01*
X95899512Y-127720942D01*
X95899512Y-127879057D01*
X95933078Y-128004330D01*
X95940435Y-128031784D01*
X95979532Y-128099503D01*
X96019492Y-128168716D01*
X96019495Y-128168720D01*
X96131291Y-128280516D01*
X96131295Y-128280519D01*
X96131296Y-128280520D01*
X96268228Y-128359577D01*
X96420955Y-128400500D01*
X96579069Y-128400500D01*
X96731796Y-128359577D01*
X96868728Y-128280520D01*
X96980532Y-128168716D01*
X97059589Y-128031784D01*
X97100512Y-127879057D01*
X97100512Y-127731007D01*
X107999488Y-127731007D01*
X107999488Y-127868992D01*
X108026406Y-128004323D01*
X108026409Y-128004330D01*
X108079212Y-128131810D01*
X108155870Y-128246538D01*
X108253449Y-128344117D01*
X108337833Y-128400500D01*
X108368177Y-128420775D01*
X108495660Y-128473580D01*
X108630995Y-128500500D01*
X108630996Y-128500500D01*
X108768980Y-128500500D01*
X108768981Y-128500500D01*
X108904316Y-128473580D01*
X109031799Y-128420775D01*
X109146530Y-128344114D01*
X109244102Y-128246542D01*
X109320763Y-128131811D01*
X109373568Y-128004328D01*
X109400488Y-127868993D01*
X109400488Y-127731007D01*
X109387394Y-127665182D01*
X116199500Y-127665182D01*
X116199500Y-127934817D01*
X116229688Y-128202731D01*
X116229688Y-128202737D01*
X116289680Y-128465579D01*
X116289687Y-128465601D01*
X116378727Y-128720064D01*
X116378733Y-128720079D01*
X116495712Y-128962991D01*
X116495714Y-128962994D01*
X116639160Y-129191287D01*
X116807271Y-129402091D01*
X116997908Y-129592728D01*
X116997912Y-129592731D01*
X116997915Y-129592734D01*
X117090281Y-129666393D01*
X117208712Y-129760839D01*
X117437005Y-129904285D01*
X117437008Y-129904287D01*
X117566524Y-129966658D01*
X117679921Y-130021267D01*
X117934409Y-130110316D01*
X117934414Y-130110317D01*
X117934420Y-130110319D01*
X118094271Y-130146803D01*
X118197268Y-130170312D01*
X118465191Y-130200500D01*
X118465198Y-130200500D01*
X118734802Y-130200500D01*
X118734809Y-130200500D01*
X119002732Y-130170312D01*
X119002736Y-130170311D01*
X119002737Y-130170311D01*
X119265579Y-130110319D01*
X119265581Y-130110318D01*
X119265591Y-130110316D01*
X119520079Y-130021267D01*
X119762997Y-129904284D01*
X119991289Y-129760838D01*
X120202085Y-129592734D01*
X120392734Y-129402085D01*
X120560838Y-129191289D01*
X120704284Y-128962997D01*
X120821267Y-128720079D01*
X120910316Y-128465591D01*
X120938043Y-128344114D01*
X120970311Y-128202737D01*
X120970311Y-128202736D01*
X120970312Y-128202732D01*
X121000500Y-127934809D01*
X121000500Y-127665191D01*
X120970312Y-127397268D01*
X120970311Y-127397262D01*
X120910319Y-127134420D01*
X120910317Y-127134414D01*
X120910316Y-127134409D01*
X120821267Y-126879921D01*
X120766658Y-126766524D01*
X120704287Y-126637008D01*
X120704285Y-126637005D01*
X120560839Y-126408712D01*
X120392728Y-126197908D01*
X120202091Y-126007271D01*
X119991287Y-125839160D01*
X119762994Y-125695714D01*
X119762991Y-125695712D01*
X119520079Y-125578733D01*
X119520064Y-125578727D01*
X119265601Y-125489687D01*
X119265579Y-125489680D01*
X119002734Y-125429688D01*
X118734817Y-125399500D01*
X118734809Y-125399500D01*
X118465191Y-125399500D01*
X118465182Y-125399500D01*
X118197268Y-125429688D01*
X118197262Y-125429688D01*
X117934420Y-125489680D01*
X117934398Y-125489687D01*
X117679935Y-125578727D01*
X117679920Y-125578733D01*
X117437008Y-125695712D01*
X117437005Y-125695714D01*
X117208712Y-125839160D01*
X116997908Y-126007271D01*
X116807271Y-126197908D01*
X116639160Y-126408712D01*
X116495714Y-126637005D01*
X116495712Y-126637008D01*
X116378733Y-126879920D01*
X116378727Y-126879935D01*
X116289687Y-127134398D01*
X116289680Y-127134420D01*
X116229688Y-127397262D01*
X116229688Y-127397268D01*
X116199500Y-127665182D01*
X109387394Y-127665182D01*
X109373568Y-127595672D01*
X109320763Y-127468189D01*
X109296103Y-127431283D01*
X109244105Y-127353461D01*
X109146526Y-127255882D01*
X109031798Y-127179224D01*
X108904318Y-127126421D01*
X108904311Y-127126418D01*
X108791331Y-127103945D01*
X108768981Y-127099500D01*
X108630995Y-127099500D01*
X108611812Y-127103315D01*
X108495664Y-127126418D01*
X108495657Y-127126421D01*
X108368177Y-127179224D01*
X108253449Y-127255882D01*
X108155870Y-127353461D01*
X108079212Y-127468189D01*
X108026409Y-127595669D01*
X108026406Y-127595676D01*
X107999488Y-127731007D01*
X97100512Y-127731007D01*
X97100512Y-127720943D01*
X97059589Y-127568216D01*
X96980532Y-127431284D01*
X96980531Y-127431283D01*
X96980528Y-127431279D01*
X96868732Y-127319483D01*
X96868728Y-127319480D01*
X96731794Y-127240422D01*
X96579069Y-127199500D01*
X96420955Y-127199500D01*
X96268229Y-127240422D01*
X96131295Y-127319480D01*
X96131291Y-127319483D01*
X96019495Y-127431279D01*
X96019492Y-127431283D01*
X95940434Y-127568217D01*
X95899512Y-127720942D01*
X89000500Y-127720942D01*
X89000500Y-127665191D01*
X88970312Y-127397268D01*
X88970311Y-127397262D01*
X88910319Y-127134420D01*
X88910317Y-127134414D01*
X88910316Y-127134409D01*
X88821267Y-126879921D01*
X88766658Y-126766524D01*
X88704287Y-126637008D01*
X88704285Y-126637005D01*
X88560839Y-126408712D01*
X88392728Y-126197908D01*
X88202091Y-126007271D01*
X87991287Y-125839160D01*
X87762994Y-125695714D01*
X87762991Y-125695712D01*
X87520079Y-125578733D01*
X87520064Y-125578727D01*
X87265601Y-125489687D01*
X87265579Y-125489680D01*
X87002734Y-125429688D01*
X86734817Y-125399500D01*
X86734809Y-125399500D01*
X86465191Y-125399500D01*
X86465182Y-125399500D01*
X86197268Y-125429688D01*
X86197262Y-125429688D01*
X85934420Y-125489680D01*
X85934398Y-125489687D01*
X85679935Y-125578727D01*
X85679920Y-125578733D01*
X85437008Y-125695712D01*
X85437005Y-125695714D01*
X85208712Y-125839160D01*
X84997908Y-126007271D01*
X84807271Y-126197908D01*
X84639160Y-126408712D01*
X84495714Y-126637005D01*
X84495712Y-126637008D01*
X84378733Y-126879920D01*
X84378727Y-126879935D01*
X84289687Y-127134398D01*
X84289680Y-127134420D01*
X84229688Y-127397262D01*
X84229688Y-127397268D01*
X84199500Y-127665182D01*
X82100500Y-127665182D01*
X82100500Y-123734107D01*
X104699500Y-123734107D01*
X104699500Y-123865892D01*
X104733606Y-123993181D01*
X104733610Y-123993192D01*
X104799498Y-124107312D01*
X104799503Y-124107318D01*
X104892681Y-124200496D01*
X104892687Y-124200501D01*
X105006807Y-124266389D01*
X105006811Y-124266390D01*
X105006814Y-124266392D01*
X105134108Y-124300500D01*
X105265892Y-124300500D01*
X105393186Y-124266392D01*
X105393189Y-124266389D01*
X105393192Y-124266389D01*
X105507312Y-124200501D01*
X105507311Y-124200501D01*
X105507314Y-124200500D01*
X105600500Y-124107314D01*
X105649888Y-124021772D01*
X105666389Y-123993192D01*
X105666389Y-123993189D01*
X105666392Y-123993186D01*
X105700500Y-123865892D01*
X105700500Y-123734108D01*
X105700500Y-123734107D01*
X107799500Y-123734107D01*
X107799500Y-123865892D01*
X107833606Y-123993181D01*
X107833610Y-123993192D01*
X107899498Y-124107312D01*
X107899503Y-124107318D01*
X107992681Y-124200496D01*
X107992687Y-124200501D01*
X108106807Y-124266389D01*
X108106811Y-124266390D01*
X108106814Y-124266392D01*
X108234108Y-124300500D01*
X108365892Y-124300500D01*
X108493186Y-124266392D01*
X108493189Y-124266389D01*
X108493192Y-124266389D01*
X108607312Y-124200501D01*
X108607311Y-124200501D01*
X108607314Y-124200500D01*
X108700500Y-124107314D01*
X108749888Y-124021772D01*
X108766389Y-123993192D01*
X108766389Y-123993189D01*
X108766392Y-123993186D01*
X108800500Y-123865892D01*
X108800500Y-123734108D01*
X108791226Y-123699498D01*
X108766393Y-123606818D01*
X108766389Y-123606807D01*
X108700501Y-123492688D01*
X108700500Y-123492686D01*
X108700498Y-123492684D01*
X108700496Y-123492681D01*
X108641922Y-123434107D01*
X115799500Y-123434107D01*
X115799500Y-123565892D01*
X115833606Y-123693181D01*
X115833610Y-123693192D01*
X115899498Y-123807312D01*
X115899503Y-123807318D01*
X115992681Y-123900496D01*
X115992687Y-123900501D01*
X116106807Y-123966389D01*
X116106811Y-123966390D01*
X116106814Y-123966392D01*
X116234108Y-124000500D01*
X116265500Y-124000500D01*
X116337946Y-124021772D01*
X116387391Y-124078834D01*
X116399500Y-124134500D01*
X116399500Y-124165892D01*
X116433606Y-124293181D01*
X116433610Y-124293192D01*
X116499498Y-124407312D01*
X116499503Y-124407318D01*
X116592681Y-124500496D01*
X116592687Y-124500501D01*
X116706807Y-124566389D01*
X116706811Y-124566390D01*
X116706814Y-124566392D01*
X116834108Y-124600500D01*
X116965892Y-124600500D01*
X117093186Y-124566392D01*
X117093189Y-124566389D01*
X117093192Y-124566389D01*
X117207312Y-124500501D01*
X117207311Y-124500501D01*
X117207314Y-124500500D01*
X117300500Y-124407314D01*
X117316973Y-124378782D01*
X117366389Y-124293192D01*
X117366389Y-124293189D01*
X117366392Y-124293186D01*
X117400500Y-124165892D01*
X117400500Y-124034108D01*
X117366392Y-123906814D01*
X117366390Y-123906811D01*
X117366389Y-123906807D01*
X117300501Y-123792687D01*
X117300496Y-123792681D01*
X117207318Y-123699503D01*
X117207312Y-123699498D01*
X117093192Y-123633610D01*
X117093181Y-123633606D01*
X116965892Y-123599500D01*
X116934500Y-123599500D01*
X116862054Y-123578228D01*
X116812609Y-123521166D01*
X116800500Y-123465500D01*
X116800500Y-123434107D01*
X116766393Y-123306818D01*
X116766389Y-123306807D01*
X116700501Y-123192687D01*
X116700496Y-123192681D01*
X116607318Y-123099503D01*
X116607312Y-123099498D01*
X116493192Y-123033610D01*
X116493181Y-123033606D01*
X116365892Y-122999500D01*
X116234108Y-122999500D01*
X116106818Y-123033606D01*
X116106807Y-123033610D01*
X115992687Y-123099498D01*
X115992681Y-123099503D01*
X115899503Y-123192681D01*
X115899498Y-123192687D01*
X115833610Y-123306807D01*
X115833606Y-123306818D01*
X115799500Y-123434107D01*
X108641922Y-123434107D01*
X108607318Y-123399503D01*
X108607312Y-123399498D01*
X108493192Y-123333610D01*
X108493181Y-123333606D01*
X108365892Y-123299500D01*
X108234108Y-123299500D01*
X108106818Y-123333606D01*
X108106807Y-123333610D01*
X107992687Y-123399498D01*
X107992681Y-123399503D01*
X107899503Y-123492681D01*
X107899498Y-123492687D01*
X107833610Y-123606807D01*
X107833606Y-123606818D01*
X107799500Y-123734107D01*
X105700500Y-123734107D01*
X105691226Y-123699498D01*
X105666393Y-123606818D01*
X105666389Y-123606807D01*
X105600501Y-123492687D01*
X105600496Y-123492681D01*
X105507318Y-123399503D01*
X105507312Y-123399498D01*
X105393192Y-123333610D01*
X105393181Y-123333606D01*
X105265892Y-123299500D01*
X105134108Y-123299500D01*
X105006818Y-123333606D01*
X105006807Y-123333610D01*
X104892687Y-123399498D01*
X104892681Y-123399503D01*
X104799503Y-123492681D01*
X104799498Y-123492687D01*
X104733610Y-123606807D01*
X104733606Y-123606818D01*
X104699500Y-123734107D01*
X82100500Y-123734107D01*
X82100500Y-122734107D01*
X86199500Y-122734107D01*
X86199500Y-122865892D01*
X86233606Y-122993181D01*
X86233610Y-122993192D01*
X86299498Y-123107312D01*
X86299503Y-123107318D01*
X86392681Y-123200496D01*
X86392687Y-123200501D01*
X86506807Y-123266389D01*
X86506811Y-123266390D01*
X86506814Y-123266392D01*
X86634108Y-123300500D01*
X86765892Y-123300500D01*
X86893186Y-123266392D01*
X86893189Y-123266389D01*
X86893192Y-123266389D01*
X87007312Y-123200501D01*
X87007311Y-123200501D01*
X87007314Y-123200500D01*
X87100500Y-123107314D01*
X87143053Y-123033610D01*
X87166389Y-122993192D01*
X87166389Y-122993189D01*
X87166392Y-122993186D01*
X87200500Y-122865892D01*
X87200500Y-122734108D01*
X87188920Y-122690892D01*
X87166393Y-122606818D01*
X87166389Y-122606807D01*
X87138849Y-122559107D01*
X103474500Y-122559107D01*
X103474500Y-122690892D01*
X103508606Y-122818181D01*
X103508610Y-122818192D01*
X103574498Y-122932312D01*
X103574503Y-122932318D01*
X103667681Y-123025496D01*
X103667687Y-123025501D01*
X103781807Y-123091389D01*
X103781811Y-123091390D01*
X103781814Y-123091392D01*
X103909108Y-123125500D01*
X104040892Y-123125500D01*
X104168186Y-123091392D01*
X104168189Y-123091389D01*
X104168192Y-123091389D01*
X104268267Y-123033610D01*
X104282314Y-123025500D01*
X104375500Y-122932314D01*
X104441392Y-122818186D01*
X104475500Y-122690892D01*
X104475500Y-122634107D01*
X119899500Y-122634107D01*
X119899500Y-122765892D01*
X119933606Y-122893181D01*
X119933610Y-122893192D01*
X119999498Y-123007312D01*
X119999503Y-123007318D01*
X120092681Y-123100496D01*
X120092687Y-123100501D01*
X120206807Y-123166389D01*
X120206811Y-123166390D01*
X120206814Y-123166392D01*
X120334108Y-123200500D01*
X120465892Y-123200500D01*
X120593186Y-123166392D01*
X120593189Y-123166389D01*
X120593192Y-123166389D01*
X120707312Y-123100501D01*
X120707311Y-123100501D01*
X120707314Y-123100500D01*
X120800500Y-123007314D01*
X120843799Y-122932318D01*
X120866389Y-122893192D01*
X120866389Y-122893189D01*
X120866392Y-122893186D01*
X120900500Y-122765892D01*
X120900500Y-122634108D01*
X120866392Y-122506814D01*
X120866390Y-122506811D01*
X120866389Y-122506807D01*
X120800501Y-122392687D01*
X120800496Y-122392681D01*
X120707318Y-122299503D01*
X120707312Y-122299498D01*
X120593192Y-122233610D01*
X120593181Y-122233606D01*
X120465892Y-122199500D01*
X120334108Y-122199500D01*
X120206818Y-122233606D01*
X120206807Y-122233610D01*
X120092687Y-122299498D01*
X120092681Y-122299503D01*
X119999503Y-122392681D01*
X119999498Y-122392687D01*
X119933610Y-122506807D01*
X119933606Y-122506818D01*
X119899500Y-122634107D01*
X104475500Y-122634107D01*
X104475500Y-122559108D01*
X104457702Y-122492686D01*
X104441393Y-122431818D01*
X104441389Y-122431807D01*
X104375501Y-122317687D01*
X104375496Y-122317681D01*
X104282318Y-122224503D01*
X104282312Y-122224498D01*
X104168192Y-122158610D01*
X104168181Y-122158606D01*
X104040892Y-122124500D01*
X103909108Y-122124500D01*
X103781818Y-122158606D01*
X103781807Y-122158610D01*
X103667687Y-122224498D01*
X103667681Y-122224503D01*
X103574503Y-122317681D01*
X103574498Y-122317687D01*
X103508610Y-122431807D01*
X103508606Y-122431818D01*
X103474500Y-122559107D01*
X87138849Y-122559107D01*
X87100501Y-122492687D01*
X87100496Y-122492681D01*
X87007318Y-122399503D01*
X87007312Y-122399498D01*
X86893192Y-122333610D01*
X86893181Y-122333606D01*
X86765892Y-122299500D01*
X86634108Y-122299500D01*
X86506818Y-122333606D01*
X86506807Y-122333610D01*
X86392687Y-122399498D01*
X86392681Y-122399503D01*
X86299503Y-122492681D01*
X86299498Y-122492687D01*
X86233610Y-122606807D01*
X86233606Y-122606818D01*
X86199500Y-122734107D01*
X82100500Y-122734107D01*
X82100500Y-120234107D01*
X111399500Y-120234107D01*
X111399500Y-120365892D01*
X111433606Y-120493181D01*
X111433610Y-120493192D01*
X111499498Y-120607312D01*
X111499503Y-120607318D01*
X111592681Y-120700496D01*
X111592687Y-120700501D01*
X111706807Y-120766389D01*
X111706811Y-120766390D01*
X111706814Y-120766392D01*
X111834108Y-120800500D01*
X111965892Y-120800500D01*
X112093186Y-120766392D01*
X112093189Y-120766389D01*
X112093192Y-120766389D01*
X112207312Y-120700501D01*
X112207311Y-120700501D01*
X112207314Y-120700500D01*
X112300500Y-120607314D01*
X112366392Y-120493186D01*
X112400500Y-120365892D01*
X112400500Y-120234108D01*
X112366392Y-120106814D01*
X112366390Y-120106811D01*
X112366389Y-120106807D01*
X112300501Y-119992687D01*
X112300496Y-119992681D01*
X112207318Y-119899503D01*
X112207312Y-119899498D01*
X112093192Y-119833610D01*
X112093181Y-119833606D01*
X111965892Y-119799500D01*
X111834108Y-119799500D01*
X111706818Y-119833606D01*
X111706807Y-119833610D01*
X111592687Y-119899498D01*
X111592681Y-119899503D01*
X111499503Y-119992681D01*
X111499498Y-119992687D01*
X111433610Y-120106807D01*
X111433606Y-120106818D01*
X111399500Y-120234107D01*
X82100500Y-120234107D01*
X82100500Y-117234107D01*
X88099500Y-117234107D01*
X88099500Y-117365892D01*
X88133606Y-117493181D01*
X88133610Y-117493192D01*
X88199498Y-117607312D01*
X88199503Y-117607318D01*
X88292681Y-117700496D01*
X88292687Y-117700501D01*
X88406807Y-117766389D01*
X88406811Y-117766390D01*
X88406814Y-117766392D01*
X88534108Y-117800500D01*
X88665892Y-117800500D01*
X88793186Y-117766392D01*
X88793189Y-117766389D01*
X88793192Y-117766389D01*
X88907312Y-117700501D01*
X88907311Y-117700501D01*
X88907314Y-117700500D01*
X89000500Y-117607314D01*
X89042766Y-117534107D01*
X96899500Y-117534107D01*
X96899500Y-117665892D01*
X96933606Y-117793181D01*
X96933610Y-117793192D01*
X96999498Y-117907312D01*
X96999503Y-117907318D01*
X97092681Y-118000496D01*
X97092687Y-118000501D01*
X97206807Y-118066389D01*
X97206811Y-118066390D01*
X97206814Y-118066392D01*
X97334108Y-118100500D01*
X97465892Y-118100500D01*
X97601670Y-118064119D01*
X97602651Y-118067780D01*
X97660298Y-118061482D01*
X97727874Y-118095163D01*
X97752780Y-118126394D01*
X97799498Y-118207312D01*
X97799503Y-118207318D01*
X97892681Y-118300496D01*
X97892687Y-118300501D01*
X98006807Y-118366389D01*
X98006811Y-118366390D01*
X98006814Y-118366392D01*
X98134108Y-118400500D01*
X98265892Y-118400500D01*
X98393186Y-118366392D01*
X98393189Y-118366389D01*
X98393192Y-118366389D01*
X98507312Y-118300501D01*
X98507311Y-118300501D01*
X98507314Y-118300500D01*
X98600500Y-118207314D01*
X98616973Y-118178782D01*
X98666389Y-118093192D01*
X98666389Y-118093189D01*
X98666392Y-118093186D01*
X98700500Y-117965892D01*
X98700500Y-117834108D01*
X98700500Y-117834107D01*
X110199500Y-117834107D01*
X110199500Y-117965892D01*
X110233606Y-118093181D01*
X110233610Y-118093192D01*
X110299498Y-118207312D01*
X110299503Y-118207318D01*
X110392681Y-118300496D01*
X110392687Y-118300501D01*
X110506807Y-118366389D01*
X110506811Y-118366390D01*
X110506814Y-118366392D01*
X110634108Y-118400500D01*
X110765892Y-118400500D01*
X110893186Y-118366392D01*
X110893189Y-118366389D01*
X110893192Y-118366389D01*
X111007312Y-118300501D01*
X111007311Y-118300501D01*
X111007314Y-118300500D01*
X111100500Y-118207314D01*
X111116973Y-118178782D01*
X111166389Y-118093192D01*
X111166389Y-118093189D01*
X111166392Y-118093186D01*
X111200500Y-117965892D01*
X111200500Y-117834108D01*
X111166392Y-117706814D01*
X111166390Y-117706811D01*
X111166389Y-117706807D01*
X111100501Y-117592687D01*
X111100496Y-117592681D01*
X111007318Y-117499503D01*
X111007312Y-117499498D01*
X110893192Y-117433610D01*
X110893181Y-117433606D01*
X110765892Y-117399500D01*
X110634108Y-117399500D01*
X110506818Y-117433606D01*
X110506807Y-117433610D01*
X110392687Y-117499498D01*
X110392681Y-117499503D01*
X110299503Y-117592681D01*
X110299498Y-117592687D01*
X110233610Y-117706807D01*
X110233606Y-117706818D01*
X110199500Y-117834107D01*
X98700500Y-117834107D01*
X98666392Y-117706814D01*
X98666390Y-117706811D01*
X98666389Y-117706807D01*
X98600501Y-117592687D01*
X98600496Y-117592681D01*
X98507318Y-117499503D01*
X98507312Y-117499498D01*
X98393192Y-117433610D01*
X98393181Y-117433606D01*
X98265892Y-117399500D01*
X98134108Y-117399500D01*
X97998330Y-117435881D01*
X97997365Y-117432281D01*
X97939285Y-117438442D01*
X97871815Y-117404548D01*
X97847219Y-117373605D01*
X97800501Y-117292687D01*
X97800496Y-117292681D01*
X97707318Y-117199503D01*
X97707312Y-117199498D01*
X97593192Y-117133610D01*
X97593181Y-117133606D01*
X97465892Y-117099500D01*
X97334108Y-117099500D01*
X97206818Y-117133606D01*
X97206807Y-117133610D01*
X97092687Y-117199498D01*
X97092681Y-117199503D01*
X96999503Y-117292681D01*
X96999498Y-117292687D01*
X96933610Y-117406807D01*
X96933606Y-117406818D01*
X96899500Y-117534107D01*
X89042766Y-117534107D01*
X89066392Y-117493186D01*
X89100500Y-117365892D01*
X89100500Y-117234108D01*
X89091226Y-117199498D01*
X89066393Y-117106818D01*
X89066389Y-117106807D01*
X89000501Y-116992687D01*
X89000496Y-116992681D01*
X88907318Y-116899503D01*
X88907312Y-116899498D01*
X88793192Y-116833610D01*
X88793181Y-116833606D01*
X88665892Y-116799500D01*
X88534108Y-116799500D01*
X88406818Y-116833606D01*
X88406807Y-116833610D01*
X88292687Y-116899498D01*
X88292681Y-116899503D01*
X88199503Y-116992681D01*
X88199498Y-116992687D01*
X88133610Y-117106807D01*
X88133606Y-117106818D01*
X88099500Y-117234107D01*
X82100500Y-117234107D01*
X82100500Y-116034107D01*
X83299500Y-116034107D01*
X83299500Y-116165892D01*
X83333606Y-116293181D01*
X83333610Y-116293192D01*
X83399498Y-116407312D01*
X83399503Y-116407318D01*
X83492681Y-116500496D01*
X83492687Y-116500501D01*
X83606807Y-116566389D01*
X83606811Y-116566390D01*
X83606814Y-116566392D01*
X83734108Y-116600500D01*
X83865892Y-116600500D01*
X83993186Y-116566392D01*
X83993189Y-116566389D01*
X83993192Y-116566389D01*
X84107312Y-116500501D01*
X84107311Y-116500501D01*
X84107314Y-116500500D01*
X84200500Y-116407314D01*
X84217674Y-116377567D01*
X84242766Y-116334107D01*
X85199500Y-116334107D01*
X85199500Y-116465892D01*
X85233606Y-116593181D01*
X85233610Y-116593192D01*
X85299498Y-116707312D01*
X85299503Y-116707318D01*
X85392681Y-116800496D01*
X85392687Y-116800501D01*
X85506807Y-116866389D01*
X85506811Y-116866390D01*
X85506814Y-116866392D01*
X85634108Y-116900500D01*
X85765892Y-116900500D01*
X85893186Y-116866392D01*
X85893189Y-116866389D01*
X85893192Y-116866389D01*
X86007312Y-116800501D01*
X86007311Y-116800501D01*
X86007314Y-116800500D01*
X86100500Y-116707314D01*
X86142766Y-116634107D01*
X104399500Y-116634107D01*
X104399500Y-116765892D01*
X104433606Y-116893181D01*
X104433610Y-116893192D01*
X104499498Y-117007312D01*
X104499503Y-117007318D01*
X104592681Y-117100496D01*
X104592687Y-117100501D01*
X104706807Y-117166389D01*
X104706811Y-117166390D01*
X104706814Y-117166392D01*
X104834108Y-117200500D01*
X104965892Y-117200500D01*
X105093186Y-117166392D01*
X105093189Y-117166389D01*
X105093192Y-117166389D01*
X105207312Y-117100501D01*
X105207311Y-117100501D01*
X105207314Y-117100500D01*
X105300500Y-117007314D01*
X105316973Y-116978782D01*
X105366389Y-116893192D01*
X105366389Y-116893189D01*
X105366392Y-116893186D01*
X105400500Y-116765892D01*
X105400500Y-116634108D01*
X105366392Y-116506814D01*
X105366390Y-116506811D01*
X105366389Y-116506807D01*
X105300501Y-116392687D01*
X105300496Y-116392681D01*
X105207318Y-116299503D01*
X105207312Y-116299498D01*
X105093192Y-116233610D01*
X105093181Y-116233606D01*
X104965892Y-116199500D01*
X104834108Y-116199500D01*
X104706818Y-116233606D01*
X104706807Y-116233610D01*
X104592687Y-116299498D01*
X104592681Y-116299503D01*
X104499503Y-116392681D01*
X104499498Y-116392687D01*
X104433610Y-116506807D01*
X104433606Y-116506818D01*
X104399500Y-116634107D01*
X86142766Y-116634107D01*
X86166389Y-116593192D01*
X86166389Y-116593189D01*
X86166392Y-116593186D01*
X86200500Y-116465892D01*
X86200500Y-116334108D01*
X86191226Y-116299498D01*
X86166393Y-116206818D01*
X86166389Y-116206807D01*
X86100501Y-116092687D01*
X86100496Y-116092681D01*
X86007318Y-115999503D01*
X86007312Y-115999498D01*
X85894053Y-115934107D01*
X90574500Y-115934107D01*
X90574500Y-116065892D01*
X90608606Y-116193181D01*
X90608610Y-116193192D01*
X90674498Y-116307312D01*
X90674503Y-116307318D01*
X90767681Y-116400496D01*
X90767687Y-116400501D01*
X90881807Y-116466389D01*
X90881811Y-116466390D01*
X90881814Y-116466392D01*
X91009108Y-116500500D01*
X91140892Y-116500500D01*
X91268186Y-116466392D01*
X91268189Y-116466389D01*
X91268192Y-116466389D01*
X91382312Y-116400501D01*
X91382311Y-116400501D01*
X91382314Y-116400500D01*
X91390133Y-116392681D01*
X91405248Y-116377567D01*
X91471516Y-116341381D01*
X91546828Y-116346768D01*
X91594752Y-116377567D01*
X91617681Y-116400496D01*
X91617687Y-116400501D01*
X91731807Y-116466389D01*
X91731811Y-116466390D01*
X91731814Y-116466392D01*
X91859108Y-116500500D01*
X91990891Y-116500500D01*
X91990892Y-116500500D01*
X92118186Y-116466392D01*
X92118189Y-116466389D01*
X92118192Y-116466389D01*
X92232312Y-116400501D01*
X92232311Y-116400501D01*
X92232314Y-116400500D01*
X92325500Y-116307314D01*
X92341973Y-116278782D01*
X92391389Y-116193192D01*
X92391389Y-116193189D01*
X92391392Y-116193186D01*
X92425500Y-116065892D01*
X92425500Y-115934108D01*
X92425365Y-115933606D01*
X92391393Y-115806818D01*
X92391389Y-115806807D01*
X92325501Y-115692687D01*
X92325496Y-115692681D01*
X92232318Y-115599503D01*
X92232312Y-115599498D01*
X92118192Y-115533610D01*
X92118181Y-115533606D01*
X91990892Y-115499500D01*
X91859108Y-115499500D01*
X91731818Y-115533606D01*
X91731807Y-115533610D01*
X91617687Y-115599498D01*
X91617681Y-115599503D01*
X91594752Y-115622433D01*
X91528484Y-115658619D01*
X91453172Y-115653232D01*
X91405248Y-115622433D01*
X91382318Y-115599503D01*
X91382312Y-115599498D01*
X91268192Y-115533610D01*
X91268181Y-115533606D01*
X91140892Y-115499500D01*
X91009108Y-115499500D01*
X90881818Y-115533606D01*
X90881807Y-115533610D01*
X90767687Y-115599498D01*
X90767681Y-115599503D01*
X90674503Y-115692681D01*
X90674498Y-115692687D01*
X90608610Y-115806807D01*
X90608606Y-115806818D01*
X90574500Y-115934107D01*
X85894053Y-115934107D01*
X85893192Y-115933610D01*
X85893181Y-115933606D01*
X85765892Y-115899500D01*
X85634108Y-115899500D01*
X85506818Y-115933606D01*
X85506807Y-115933610D01*
X85392687Y-115999498D01*
X85392681Y-115999503D01*
X85299503Y-116092681D01*
X85299498Y-116092687D01*
X85233610Y-116206807D01*
X85233606Y-116206818D01*
X85199500Y-116334107D01*
X84242766Y-116334107D01*
X84266389Y-116293192D01*
X84266389Y-116293190D01*
X84266392Y-116293186D01*
X84300500Y-116165892D01*
X84300500Y-116034108D01*
X84291226Y-115999498D01*
X84266393Y-115906818D01*
X84266389Y-115906807D01*
X84200501Y-115792687D01*
X84200496Y-115792681D01*
X84107318Y-115699503D01*
X84107312Y-115699498D01*
X83993192Y-115633610D01*
X83993181Y-115633606D01*
X83865892Y-115599500D01*
X83734108Y-115599500D01*
X83606818Y-115633606D01*
X83606807Y-115633610D01*
X83492687Y-115699498D01*
X83492681Y-115699503D01*
X83399503Y-115792681D01*
X83399498Y-115792687D01*
X83333610Y-115906807D01*
X83333606Y-115906818D01*
X83299500Y-116034107D01*
X82100500Y-116034107D01*
X82100500Y-114934107D01*
X99499500Y-114934107D01*
X99499500Y-115065892D01*
X99533606Y-115193181D01*
X99533610Y-115193192D01*
X99599498Y-115307312D01*
X99599503Y-115307318D01*
X99692681Y-115400496D01*
X99692687Y-115400501D01*
X99806807Y-115466389D01*
X99806811Y-115466390D01*
X99806814Y-115466392D01*
X99934108Y-115500500D01*
X100065892Y-115500500D01*
X100193186Y-115466392D01*
X100193189Y-115466389D01*
X100193192Y-115466389D01*
X100307312Y-115400501D01*
X100307311Y-115400501D01*
X100307314Y-115400500D01*
X100400500Y-115307314D01*
X100466392Y-115193186D01*
X100500500Y-115065892D01*
X100500500Y-114934108D01*
X100466392Y-114806814D01*
X100466390Y-114806811D01*
X100466389Y-114806807D01*
X100400501Y-114692687D01*
X100400496Y-114692681D01*
X100307318Y-114599503D01*
X100307312Y-114599498D01*
X100193192Y-114533610D01*
X100193181Y-114533606D01*
X100065892Y-114499500D01*
X99934108Y-114499500D01*
X99806818Y-114533606D01*
X99806807Y-114533610D01*
X99692687Y-114599498D01*
X99692681Y-114599503D01*
X99599503Y-114692681D01*
X99599498Y-114692687D01*
X99533610Y-114806807D01*
X99533606Y-114806818D01*
X99499500Y-114934107D01*
X82100500Y-114934107D01*
X82100500Y-113634107D01*
X101399500Y-113634107D01*
X101399500Y-113765892D01*
X101433606Y-113893181D01*
X101433610Y-113893192D01*
X101499498Y-114007312D01*
X101499503Y-114007318D01*
X101592681Y-114100496D01*
X101592687Y-114100501D01*
X101706807Y-114166389D01*
X101706811Y-114166390D01*
X101706814Y-114166392D01*
X101834108Y-114200500D01*
X101965892Y-114200500D01*
X102093186Y-114166392D01*
X102093189Y-114166389D01*
X102093192Y-114166389D01*
X102207312Y-114100501D01*
X102207311Y-114100501D01*
X102207314Y-114100500D01*
X102300500Y-114007314D01*
X102336119Y-113945620D01*
X102366389Y-113893192D01*
X102366389Y-113893189D01*
X102366392Y-113893186D01*
X102400500Y-113765892D01*
X102400500Y-113634108D01*
X102400500Y-113634107D01*
X103194500Y-113634107D01*
X103194500Y-113765892D01*
X103228606Y-113893181D01*
X103228610Y-113893192D01*
X103294498Y-114007312D01*
X103294503Y-114007318D01*
X103387681Y-114100496D01*
X103387687Y-114100501D01*
X103501807Y-114166389D01*
X103501811Y-114166390D01*
X103501814Y-114166392D01*
X103629108Y-114200500D01*
X103760892Y-114200500D01*
X103888186Y-114166392D01*
X103888189Y-114166389D01*
X103888192Y-114166389D01*
X104002312Y-114100501D01*
X104002311Y-114100501D01*
X104002314Y-114100500D01*
X104017341Y-114085472D01*
X104083607Y-114049287D01*
X104158919Y-114054672D01*
X104179094Y-114064177D01*
X104249265Y-114104691D01*
X104249269Y-114104692D01*
X104249272Y-114104694D01*
X104376566Y-114138802D01*
X104508350Y-114138802D01*
X104635644Y-114104694D01*
X104635647Y-114104691D01*
X104635650Y-114104691D01*
X104749770Y-114038803D01*
X104749769Y-114038803D01*
X104749772Y-114038802D01*
X104842958Y-113945616D01*
X104873229Y-113893186D01*
X104908847Y-113831494D01*
X104908847Y-113831491D01*
X104908850Y-113831488D01*
X104942958Y-113704194D01*
X104942958Y-113634107D01*
X115499500Y-113634107D01*
X115499500Y-113765892D01*
X115533606Y-113893181D01*
X115533610Y-113893192D01*
X115599498Y-114007312D01*
X115599503Y-114007318D01*
X115692681Y-114100496D01*
X115692687Y-114100501D01*
X115806807Y-114166389D01*
X115806811Y-114166390D01*
X115806814Y-114166392D01*
X115934108Y-114200500D01*
X116065892Y-114200500D01*
X116193186Y-114166392D01*
X116193189Y-114166389D01*
X116193192Y-114166389D01*
X116307312Y-114100501D01*
X116307311Y-114100501D01*
X116307314Y-114100500D01*
X116400500Y-114007314D01*
X116436119Y-113945620D01*
X116466389Y-113893192D01*
X116466389Y-113893189D01*
X116466392Y-113893186D01*
X116500500Y-113765892D01*
X116500500Y-113734107D01*
X117374500Y-113734107D01*
X117374500Y-113865892D01*
X117408606Y-113993181D01*
X117408610Y-113993192D01*
X117474498Y-114107312D01*
X117474503Y-114107318D01*
X117567681Y-114200496D01*
X117567687Y-114200501D01*
X117681807Y-114266389D01*
X117681811Y-114266390D01*
X117681814Y-114266392D01*
X117809108Y-114300500D01*
X117940892Y-114300500D01*
X118068186Y-114266392D01*
X118068189Y-114266389D01*
X118068192Y-114266389D01*
X118182312Y-114200501D01*
X118182311Y-114200501D01*
X118182314Y-114200500D01*
X118182318Y-114200496D01*
X118205248Y-114177567D01*
X118271516Y-114141381D01*
X118346828Y-114146768D01*
X118394752Y-114177567D01*
X118417681Y-114200496D01*
X118417687Y-114200501D01*
X118531807Y-114266389D01*
X118531811Y-114266390D01*
X118531814Y-114266392D01*
X118659108Y-114300500D01*
X118790892Y-114300500D01*
X118918186Y-114266392D01*
X118918189Y-114266389D01*
X118918192Y-114266389D01*
X119032312Y-114200501D01*
X119032311Y-114200501D01*
X119032314Y-114200500D01*
X119125500Y-114107314D01*
X119141973Y-114078782D01*
X119191389Y-113993192D01*
X119191389Y-113993189D01*
X119191392Y-113993186D01*
X119225500Y-113865892D01*
X119225500Y-113734108D01*
X119191392Y-113606814D01*
X119191390Y-113606811D01*
X119191389Y-113606807D01*
X119125501Y-113492687D01*
X119125496Y-113492681D01*
X119032318Y-113399503D01*
X119032312Y-113399498D01*
X118918192Y-113333610D01*
X118918181Y-113333606D01*
X118790892Y-113299500D01*
X118659108Y-113299500D01*
X118531818Y-113333606D01*
X118531807Y-113333610D01*
X118417687Y-113399498D01*
X118417681Y-113399503D01*
X118394752Y-113422433D01*
X118328484Y-113458619D01*
X118253172Y-113453232D01*
X118205248Y-113422433D01*
X118182318Y-113399503D01*
X118182312Y-113399498D01*
X118068192Y-113333610D01*
X118068181Y-113333606D01*
X117940892Y-113299500D01*
X117809108Y-113299500D01*
X117681818Y-113333606D01*
X117681807Y-113333610D01*
X117567687Y-113399498D01*
X117567681Y-113399503D01*
X117474503Y-113492681D01*
X117474498Y-113492687D01*
X117408610Y-113606807D01*
X117408606Y-113606818D01*
X117374500Y-113734107D01*
X116500500Y-113734107D01*
X116500500Y-113634108D01*
X116466392Y-113506814D01*
X116466390Y-113506811D01*
X116466389Y-113506807D01*
X116400501Y-113392687D01*
X116400496Y-113392681D01*
X116307318Y-113299503D01*
X116307312Y-113299498D01*
X116193192Y-113233610D01*
X116193181Y-113233606D01*
X116065892Y-113199500D01*
X115934108Y-113199500D01*
X115806818Y-113233606D01*
X115806807Y-113233610D01*
X115692687Y-113299498D01*
X115692681Y-113299503D01*
X115599503Y-113392681D01*
X115599498Y-113392687D01*
X115533610Y-113506807D01*
X115533606Y-113506818D01*
X115499500Y-113634107D01*
X104942958Y-113634107D01*
X104942958Y-113572410D01*
X104921596Y-113492687D01*
X104908851Y-113445120D01*
X104908847Y-113445109D01*
X104842959Y-113330989D01*
X104842954Y-113330983D01*
X104749776Y-113237805D01*
X104749770Y-113237800D01*
X104635650Y-113171912D01*
X104635639Y-113171908D01*
X104508350Y-113137802D01*
X104376566Y-113137802D01*
X104249276Y-113171908D01*
X104249265Y-113171912D01*
X104135145Y-113237800D01*
X104135142Y-113237802D01*
X104120113Y-113252832D01*
X104053844Y-113289015D01*
X103978532Y-113283627D01*
X103958363Y-113274124D01*
X103888192Y-113233611D01*
X103888188Y-113233609D01*
X103888186Y-113233608D01*
X103888184Y-113233607D01*
X103888181Y-113233606D01*
X103760892Y-113199500D01*
X103629108Y-113199500D01*
X103501818Y-113233606D01*
X103501807Y-113233610D01*
X103387687Y-113299498D01*
X103387681Y-113299503D01*
X103294503Y-113392681D01*
X103294498Y-113392687D01*
X103228610Y-113506807D01*
X103228606Y-113506818D01*
X103194500Y-113634107D01*
X102400500Y-113634107D01*
X102366392Y-113506814D01*
X102366390Y-113506811D01*
X102366389Y-113506807D01*
X102300501Y-113392687D01*
X102300496Y-113392681D01*
X102207318Y-113299503D01*
X102207312Y-113299498D01*
X102093192Y-113233610D01*
X102093181Y-113233606D01*
X101965892Y-113199500D01*
X101834108Y-113199500D01*
X101706818Y-113233606D01*
X101706807Y-113233610D01*
X101592687Y-113299498D01*
X101592681Y-113299503D01*
X101499503Y-113392681D01*
X101499498Y-113392687D01*
X101433610Y-113506807D01*
X101433606Y-113506818D01*
X101399500Y-113634107D01*
X82100500Y-113634107D01*
X82100500Y-112534107D01*
X91999500Y-112534107D01*
X91999500Y-112665892D01*
X92033606Y-112793181D01*
X92033610Y-112793192D01*
X92099498Y-112907312D01*
X92099503Y-112907318D01*
X92192681Y-113000496D01*
X92192687Y-113000501D01*
X92306807Y-113066389D01*
X92306811Y-113066390D01*
X92306814Y-113066392D01*
X92434108Y-113100500D01*
X92565892Y-113100500D01*
X92693186Y-113066392D01*
X92693189Y-113066389D01*
X92693192Y-113066389D01*
X92807312Y-113000501D01*
X92807311Y-113000501D01*
X92807314Y-113000500D01*
X92873707Y-112934107D01*
X105499500Y-112934107D01*
X105499500Y-113065892D01*
X105533606Y-113193181D01*
X105533610Y-113193192D01*
X105599498Y-113307312D01*
X105599503Y-113307318D01*
X105692681Y-113400496D01*
X105692687Y-113400501D01*
X105806807Y-113466389D01*
X105806811Y-113466390D01*
X105806814Y-113466392D01*
X105934108Y-113500500D01*
X106065891Y-113500500D01*
X106065892Y-113500500D01*
X106193186Y-113466392D01*
X106193189Y-113466389D01*
X106193192Y-113466389D01*
X106307312Y-113400501D01*
X106307311Y-113400501D01*
X106307314Y-113400500D01*
X106400500Y-113307314D01*
X106443053Y-113233610D01*
X106466389Y-113193192D01*
X106466389Y-113193189D01*
X106466392Y-113193186D01*
X106500500Y-113065892D01*
X106500500Y-112934108D01*
X106493321Y-112907317D01*
X106466393Y-112806818D01*
X106466389Y-112806807D01*
X106400501Y-112692687D01*
X106400496Y-112692681D01*
X106307318Y-112599503D01*
X106307312Y-112599498D01*
X106193192Y-112533610D01*
X106193181Y-112533606D01*
X106065892Y-112499500D01*
X105934108Y-112499500D01*
X105806818Y-112533606D01*
X105806807Y-112533610D01*
X105692687Y-112599498D01*
X105692681Y-112599503D01*
X105599503Y-112692681D01*
X105599498Y-112692687D01*
X105533610Y-112806807D01*
X105533606Y-112806818D01*
X105499500Y-112934107D01*
X92873707Y-112934107D01*
X92900500Y-112907314D01*
X92966392Y-112793186D01*
X93000500Y-112665892D01*
X93000500Y-112534108D01*
X93000365Y-112533606D01*
X92966393Y-112406818D01*
X92966389Y-112406807D01*
X92900501Y-112292687D01*
X92900496Y-112292681D01*
X92807318Y-112199503D01*
X92807312Y-112199498D01*
X92694053Y-112134107D01*
X94099500Y-112134107D01*
X94099500Y-112265892D01*
X94133606Y-112393181D01*
X94133610Y-112393192D01*
X94199498Y-112507312D01*
X94199503Y-112507318D01*
X94292681Y-112600496D01*
X94292687Y-112600501D01*
X94406807Y-112666389D01*
X94406811Y-112666390D01*
X94406814Y-112666392D01*
X94534108Y-112700500D01*
X94665892Y-112700500D01*
X94793186Y-112666392D01*
X94793189Y-112666389D01*
X94793192Y-112666389D01*
X94907312Y-112600501D01*
X94907311Y-112600501D01*
X94907314Y-112600500D01*
X95000500Y-112507314D01*
X95066392Y-112393186D01*
X95100500Y-112265892D01*
X95100500Y-112234107D01*
X109999500Y-112234107D01*
X109999500Y-112365892D01*
X110033606Y-112493181D01*
X110033610Y-112493192D01*
X110099498Y-112607312D01*
X110099503Y-112607318D01*
X110192681Y-112700496D01*
X110192687Y-112700501D01*
X110306807Y-112766389D01*
X110306811Y-112766390D01*
X110306814Y-112766392D01*
X110434108Y-112800500D01*
X110565892Y-112800500D01*
X110693186Y-112766392D01*
X110693189Y-112766389D01*
X110693192Y-112766389D01*
X110807312Y-112700501D01*
X110807311Y-112700501D01*
X110807314Y-112700500D01*
X110900500Y-112607314D01*
X110943053Y-112533610D01*
X110966389Y-112493192D01*
X110966389Y-112493189D01*
X110966392Y-112493186D01*
X111000500Y-112365892D01*
X111000500Y-112234108D01*
X110991226Y-112199498D01*
X110966393Y-112106818D01*
X110966389Y-112106807D01*
X110900501Y-111992687D01*
X110900496Y-111992681D01*
X110807318Y-111899503D01*
X110807312Y-111899498D01*
X110693192Y-111833610D01*
X110693181Y-111833606D01*
X110565892Y-111799500D01*
X110434108Y-111799500D01*
X110306818Y-111833606D01*
X110306807Y-111833610D01*
X110192687Y-111899498D01*
X110192681Y-111899503D01*
X110099503Y-111992681D01*
X110099498Y-111992687D01*
X110033610Y-112106807D01*
X110033606Y-112106818D01*
X109999500Y-112234107D01*
X95100500Y-112234107D01*
X95100500Y-112134108D01*
X95100365Y-112133606D01*
X95066393Y-112006818D01*
X95066389Y-112006807D01*
X95000501Y-111892687D01*
X95000496Y-111892681D01*
X94907318Y-111799503D01*
X94907312Y-111799498D01*
X94793192Y-111733610D01*
X94793181Y-111733606D01*
X94665892Y-111699500D01*
X94534108Y-111699500D01*
X94406818Y-111733606D01*
X94406807Y-111733610D01*
X94292687Y-111799498D01*
X94292681Y-111799503D01*
X94199503Y-111892681D01*
X94199498Y-111892687D01*
X94133610Y-112006807D01*
X94133606Y-112006818D01*
X94099500Y-112134107D01*
X92694053Y-112134107D01*
X92693192Y-112133610D01*
X92693181Y-112133606D01*
X92565892Y-112099500D01*
X92434108Y-112099500D01*
X92306818Y-112133606D01*
X92306807Y-112133610D01*
X92192687Y-112199498D01*
X92192681Y-112199503D01*
X92099503Y-112292681D01*
X92099498Y-112292687D01*
X92033610Y-112406807D01*
X92033606Y-112406818D01*
X91999500Y-112534107D01*
X82100500Y-112534107D01*
X82100500Y-111234107D01*
X85099500Y-111234107D01*
X85099500Y-111365892D01*
X85133606Y-111493181D01*
X85133610Y-111493192D01*
X85199498Y-111607312D01*
X85199503Y-111607318D01*
X85292681Y-111700496D01*
X85292687Y-111700501D01*
X85406807Y-111766389D01*
X85406811Y-111766390D01*
X85406814Y-111766392D01*
X85534108Y-111800500D01*
X85665892Y-111800500D01*
X85793186Y-111766392D01*
X85793189Y-111766389D01*
X85793192Y-111766389D01*
X85907312Y-111700501D01*
X85907311Y-111700501D01*
X85907314Y-111700500D01*
X86000500Y-111607314D01*
X86066392Y-111493186D01*
X86100500Y-111365892D01*
X86100500Y-111334107D01*
X114699500Y-111334107D01*
X114699500Y-111465892D01*
X114733606Y-111593181D01*
X114733610Y-111593192D01*
X114799498Y-111707312D01*
X114799503Y-111707318D01*
X114892681Y-111800496D01*
X114892687Y-111800501D01*
X115006807Y-111866389D01*
X115006811Y-111866390D01*
X115006814Y-111866392D01*
X115134108Y-111900500D01*
X115265892Y-111900500D01*
X115393186Y-111866392D01*
X115393189Y-111866389D01*
X115393192Y-111866389D01*
X115507312Y-111800501D01*
X115507311Y-111800501D01*
X115507314Y-111800500D01*
X115600500Y-111707314D01*
X115658233Y-111607318D01*
X115666389Y-111593192D01*
X115666389Y-111593189D01*
X115666392Y-111593186D01*
X115700500Y-111465892D01*
X115700500Y-111434107D01*
X121199500Y-111434107D01*
X121199500Y-111565892D01*
X121233606Y-111693181D01*
X121233610Y-111693192D01*
X121299498Y-111807312D01*
X121299503Y-111807318D01*
X121392681Y-111900496D01*
X121392687Y-111900501D01*
X121506807Y-111966389D01*
X121506811Y-111966390D01*
X121506814Y-111966392D01*
X121634108Y-112000500D01*
X121765892Y-112000500D01*
X121893186Y-111966392D01*
X121893189Y-111966389D01*
X121893192Y-111966389D01*
X122007312Y-111900501D01*
X122007311Y-111900501D01*
X122007314Y-111900500D01*
X122100500Y-111807314D01*
X122143053Y-111733610D01*
X122166389Y-111693192D01*
X122166389Y-111693189D01*
X122166392Y-111693186D01*
X122200500Y-111565892D01*
X122200500Y-111434108D01*
X122166392Y-111306814D01*
X122166390Y-111306811D01*
X122166389Y-111306807D01*
X122100501Y-111192687D01*
X122100496Y-111192681D01*
X122007318Y-111099503D01*
X122007312Y-111099498D01*
X121893192Y-111033610D01*
X121893181Y-111033606D01*
X121765892Y-110999500D01*
X121634108Y-110999500D01*
X121506818Y-111033606D01*
X121506807Y-111033610D01*
X121392687Y-111099498D01*
X121392681Y-111099503D01*
X121299503Y-111192681D01*
X121299498Y-111192687D01*
X121233610Y-111306807D01*
X121233606Y-111306818D01*
X121199500Y-111434107D01*
X115700500Y-111434107D01*
X115700500Y-111334108D01*
X115666392Y-111206814D01*
X115666390Y-111206811D01*
X115666389Y-111206807D01*
X115600501Y-111092687D01*
X115600496Y-111092681D01*
X115507318Y-110999503D01*
X115507312Y-110999498D01*
X115393192Y-110933610D01*
X115393181Y-110933606D01*
X115265892Y-110899500D01*
X115134108Y-110899500D01*
X115006818Y-110933606D01*
X115006807Y-110933610D01*
X114892687Y-110999498D01*
X114892681Y-110999503D01*
X114799503Y-111092681D01*
X114799498Y-111092687D01*
X114733610Y-111206807D01*
X114733606Y-111206818D01*
X114699500Y-111334107D01*
X86100500Y-111334107D01*
X86100500Y-111234108D01*
X86089401Y-111192687D01*
X86066393Y-111106818D01*
X86066389Y-111106807D01*
X86000501Y-110992687D01*
X86000496Y-110992681D01*
X85907318Y-110899503D01*
X85907312Y-110899498D01*
X85793192Y-110833610D01*
X85793181Y-110833606D01*
X85665892Y-110799500D01*
X85534108Y-110799500D01*
X85406818Y-110833606D01*
X85406807Y-110833610D01*
X85292687Y-110899498D01*
X85292681Y-110899503D01*
X85199503Y-110992681D01*
X85199498Y-110992687D01*
X85133610Y-111106807D01*
X85133606Y-111106818D01*
X85099500Y-111234107D01*
X82100500Y-111234107D01*
X82100500Y-110234107D01*
X97599500Y-110234107D01*
X97599500Y-110365892D01*
X97633606Y-110493181D01*
X97633610Y-110493192D01*
X97699498Y-110607312D01*
X97699503Y-110607318D01*
X97792681Y-110700496D01*
X97792687Y-110700501D01*
X97906807Y-110766389D01*
X97906811Y-110766390D01*
X97906814Y-110766392D01*
X98034108Y-110800500D01*
X98165892Y-110800500D01*
X98293186Y-110766392D01*
X98293189Y-110766389D01*
X98293192Y-110766389D01*
X98407312Y-110700501D01*
X98407311Y-110700501D01*
X98407314Y-110700500D01*
X98500500Y-110607314D01*
X98562036Y-110500731D01*
X98566389Y-110493192D01*
X98566389Y-110493189D01*
X98566392Y-110493186D01*
X98600500Y-110365892D01*
X98600500Y-110234108D01*
X98571940Y-110127520D01*
X99392913Y-110127520D01*
X99392913Y-110259305D01*
X99427019Y-110386594D01*
X99427023Y-110386605D01*
X99492911Y-110500725D01*
X99492916Y-110500731D01*
X99586094Y-110593909D01*
X99586100Y-110593914D01*
X99700220Y-110659802D01*
X99700224Y-110659803D01*
X99700227Y-110659805D01*
X99827521Y-110693913D01*
X99959305Y-110693913D01*
X100086599Y-110659805D01*
X100086602Y-110659802D01*
X100086605Y-110659802D01*
X100200725Y-110593914D01*
X100200724Y-110593914D01*
X100200727Y-110593913D01*
X100228251Y-110566389D01*
X100298661Y-110495980D01*
X100364929Y-110459794D01*
X100440241Y-110465181D01*
X100488165Y-110495980D01*
X100492681Y-110500496D01*
X100492687Y-110500501D01*
X100606807Y-110566389D01*
X100606811Y-110566390D01*
X100606814Y-110566392D01*
X100734108Y-110600500D01*
X100865892Y-110600500D01*
X100993186Y-110566392D01*
X100993189Y-110566389D01*
X100993192Y-110566389D01*
X101107312Y-110500501D01*
X101107311Y-110500501D01*
X101107314Y-110500500D01*
X101200500Y-110407314D01*
X101266392Y-110293186D01*
X101300500Y-110165892D01*
X101300500Y-110034108D01*
X101289401Y-109992687D01*
X101266393Y-109906818D01*
X101266389Y-109906807D01*
X101200501Y-109792687D01*
X101200496Y-109792681D01*
X101107318Y-109699503D01*
X101107312Y-109699498D01*
X100993192Y-109633610D01*
X100993181Y-109633606D01*
X100865892Y-109599500D01*
X100734108Y-109599500D01*
X100606818Y-109633606D01*
X100606807Y-109633610D01*
X100492687Y-109699498D01*
X100492681Y-109699503D01*
X100394752Y-109797433D01*
X100328484Y-109833619D01*
X100253172Y-109828232D01*
X100205248Y-109797433D01*
X100200731Y-109792916D01*
X100200725Y-109792911D01*
X100086605Y-109727023D01*
X100086594Y-109727019D01*
X99959305Y-109692913D01*
X99827521Y-109692913D01*
X99700231Y-109727019D01*
X99700220Y-109727023D01*
X99586100Y-109792911D01*
X99586094Y-109792916D01*
X99492916Y-109886094D01*
X99492911Y-109886100D01*
X99427023Y-110000220D01*
X99427019Y-110000231D01*
X99392913Y-110127520D01*
X98571940Y-110127520D01*
X98566392Y-110106814D01*
X98566390Y-110106811D01*
X98566389Y-110106807D01*
X98500501Y-109992687D01*
X98500496Y-109992681D01*
X98407318Y-109899503D01*
X98407312Y-109899498D01*
X98293192Y-109833610D01*
X98293181Y-109833606D01*
X98165892Y-109799500D01*
X98034108Y-109799500D01*
X97906818Y-109833606D01*
X97906807Y-109833610D01*
X97792687Y-109899498D01*
X97792681Y-109899503D01*
X97699503Y-109992681D01*
X97699498Y-109992687D01*
X97633610Y-110106807D01*
X97633606Y-110106818D01*
X97599500Y-110234107D01*
X82100500Y-110234107D01*
X82100500Y-109434107D01*
X114599500Y-109434107D01*
X114599500Y-109565892D01*
X114633606Y-109693181D01*
X114633610Y-109693192D01*
X114699498Y-109807312D01*
X114699503Y-109807318D01*
X114792681Y-109900496D01*
X114792687Y-109900501D01*
X114906807Y-109966389D01*
X114906811Y-109966390D01*
X114906814Y-109966392D01*
X115034108Y-110000500D01*
X115165892Y-110000500D01*
X115293186Y-109966392D01*
X115293189Y-109966389D01*
X115293192Y-109966389D01*
X115407312Y-109900501D01*
X115407311Y-109900501D01*
X115407314Y-109900500D01*
X115500500Y-109807314D01*
X115546856Y-109727023D01*
X115566389Y-109693192D01*
X115566389Y-109693189D01*
X115566392Y-109693186D01*
X115600500Y-109565892D01*
X115600500Y-109434108D01*
X115566392Y-109306814D01*
X115566390Y-109306811D01*
X115566389Y-109306807D01*
X115500501Y-109192687D01*
X115500496Y-109192681D01*
X115407318Y-109099503D01*
X115407312Y-109099498D01*
X115293192Y-109033610D01*
X115293181Y-109033606D01*
X115165892Y-108999500D01*
X115034108Y-108999500D01*
X114906818Y-109033606D01*
X114906807Y-109033610D01*
X114792687Y-109099498D01*
X114792681Y-109099503D01*
X114699503Y-109192681D01*
X114699498Y-109192687D01*
X114633610Y-109306807D01*
X114633606Y-109306818D01*
X114599500Y-109434107D01*
X82100500Y-109434107D01*
X82100500Y-108315221D01*
X90498108Y-108315221D01*
X90498108Y-108447006D01*
X90532214Y-108574295D01*
X90532218Y-108574306D01*
X90598106Y-108688426D01*
X90598111Y-108688432D01*
X90691289Y-108781610D01*
X90691295Y-108781615D01*
X90805415Y-108847503D01*
X90805419Y-108847504D01*
X90805422Y-108847506D01*
X90932716Y-108881614D01*
X91064500Y-108881614D01*
X91191794Y-108847506D01*
X91191797Y-108847503D01*
X91191800Y-108847503D01*
X91305920Y-108781615D01*
X91305919Y-108781615D01*
X91305922Y-108781614D01*
X91399108Y-108688428D01*
X91445937Y-108607318D01*
X91464997Y-108574306D01*
X91464997Y-108574303D01*
X91465000Y-108574300D01*
X91499108Y-108447006D01*
X91499108Y-108315222D01*
X91477374Y-108234107D01*
X118199500Y-108234107D01*
X118199500Y-108365892D01*
X118233606Y-108493181D01*
X118233610Y-108493192D01*
X118299498Y-108607312D01*
X118299503Y-108607318D01*
X118392681Y-108700496D01*
X118392687Y-108700501D01*
X118506807Y-108766389D01*
X118506811Y-108766390D01*
X118506814Y-108766392D01*
X118634108Y-108800500D01*
X118765892Y-108800500D01*
X118893186Y-108766392D01*
X118893189Y-108766389D01*
X118893192Y-108766389D01*
X119007312Y-108700501D01*
X119007311Y-108700501D01*
X119007314Y-108700500D01*
X119100500Y-108607314D01*
X119166392Y-108493186D01*
X119200500Y-108365892D01*
X119200500Y-108234108D01*
X119166392Y-108106814D01*
X119166390Y-108106811D01*
X119166389Y-108106807D01*
X119100501Y-107992687D01*
X119100496Y-107992681D01*
X119007318Y-107899503D01*
X119007312Y-107899498D01*
X118893192Y-107833610D01*
X118893181Y-107833606D01*
X118765892Y-107799500D01*
X118634108Y-107799500D01*
X118506818Y-107833606D01*
X118506807Y-107833610D01*
X118392687Y-107899498D01*
X118392681Y-107899503D01*
X118299503Y-107992681D01*
X118299498Y-107992687D01*
X118233610Y-108106807D01*
X118233606Y-108106818D01*
X118199500Y-108234107D01*
X91477374Y-108234107D01*
X91465000Y-108187928D01*
X91464998Y-108187925D01*
X91464997Y-108187921D01*
X91399109Y-108073801D01*
X91399104Y-108073795D01*
X91305926Y-107980617D01*
X91305920Y-107980612D01*
X91191800Y-107914724D01*
X91191789Y-107914720D01*
X91064500Y-107880614D01*
X90932716Y-107880614D01*
X90805426Y-107914720D01*
X90805415Y-107914724D01*
X90691295Y-107980612D01*
X90691289Y-107980617D01*
X90598111Y-108073795D01*
X90598106Y-108073801D01*
X90532218Y-108187921D01*
X90532214Y-108187932D01*
X90498108Y-108315221D01*
X82100500Y-108315221D01*
X82100500Y-106684104D01*
X108949503Y-106684104D01*
X108949503Y-106815889D01*
X108983609Y-106943178D01*
X108983613Y-106943189D01*
X109049501Y-107057309D01*
X109049506Y-107057315D01*
X109142685Y-107150494D01*
X109142687Y-107150495D01*
X109142689Y-107150497D01*
X109255259Y-107215489D01*
X109307361Y-107270132D01*
X109321650Y-107344272D01*
X109317691Y-107366216D01*
X109299500Y-107434107D01*
X109299500Y-107565892D01*
X109333606Y-107693181D01*
X109333610Y-107693192D01*
X109399498Y-107807312D01*
X109399503Y-107807318D01*
X109492681Y-107900496D01*
X109492687Y-107900501D01*
X109606807Y-107966389D01*
X109606811Y-107966390D01*
X109606814Y-107966392D01*
X109734108Y-108000500D01*
X109865892Y-108000500D01*
X109993186Y-107966392D01*
X109993189Y-107966389D01*
X109993192Y-107966389D01*
X110107312Y-107900501D01*
X110107311Y-107900501D01*
X110107314Y-107900500D01*
X110200500Y-107807314D01*
X110266392Y-107693186D01*
X110300500Y-107565892D01*
X110300500Y-107434108D01*
X110266392Y-107306814D01*
X110266390Y-107306811D01*
X110266389Y-107306807D01*
X110200501Y-107192687D01*
X110200496Y-107192681D01*
X110107318Y-107099503D01*
X110107312Y-107099498D01*
X109994745Y-107034508D01*
X109942641Y-106979863D01*
X109928352Y-106905724D01*
X109932308Y-106883793D01*
X109950503Y-106815889D01*
X109950503Y-106684105D01*
X109916395Y-106556811D01*
X109916393Y-106556808D01*
X109916392Y-106556804D01*
X109850504Y-106442684D01*
X109850499Y-106442678D01*
X109757321Y-106349500D01*
X109757315Y-106349495D01*
X109643195Y-106283607D01*
X109643184Y-106283603D01*
X109515895Y-106249497D01*
X109384111Y-106249497D01*
X109256821Y-106283603D01*
X109256810Y-106283607D01*
X109142690Y-106349495D01*
X109142684Y-106349500D01*
X109049506Y-106442678D01*
X109049501Y-106442684D01*
X108983613Y-106556804D01*
X108983609Y-106556815D01*
X108949503Y-106684104D01*
X82100500Y-106684104D01*
X82100500Y-105584107D01*
X87399500Y-105584107D01*
X87399500Y-105715892D01*
X87433606Y-105843181D01*
X87433610Y-105843192D01*
X87499498Y-105957312D01*
X87499503Y-105957318D01*
X87592681Y-106050496D01*
X87592687Y-106050501D01*
X87706807Y-106116389D01*
X87706811Y-106116390D01*
X87706814Y-106116392D01*
X87834108Y-106150500D01*
X87965892Y-106150500D01*
X88093186Y-106116392D01*
X88093189Y-106116389D01*
X88093192Y-106116389D01*
X88207312Y-106050501D01*
X88207311Y-106050501D01*
X88207314Y-106050500D01*
X88300500Y-105957314D01*
X88366392Y-105843186D01*
X88400500Y-105715892D01*
X88400500Y-105709190D01*
X88421772Y-105636744D01*
X88478834Y-105587299D01*
X88517010Y-105576336D01*
X88523354Y-105575500D01*
X88523365Y-105575500D01*
X88650659Y-105541392D01*
X88650662Y-105541389D01*
X88650665Y-105541389D01*
X88764785Y-105475501D01*
X88764784Y-105475501D01*
X88764787Y-105475500D01*
X88857973Y-105382314D01*
X88901272Y-105307318D01*
X88923862Y-105268192D01*
X88923862Y-105268189D01*
X88923865Y-105268186D01*
X88957973Y-105140892D01*
X88957973Y-105009108D01*
X88937877Y-104934107D01*
X120799500Y-104934107D01*
X120799500Y-105065892D01*
X120833606Y-105193181D01*
X120833610Y-105193192D01*
X120899498Y-105307312D01*
X120899503Y-105307318D01*
X120992681Y-105400496D01*
X120992687Y-105400501D01*
X121106807Y-105466389D01*
X121106811Y-105466390D01*
X121106814Y-105466392D01*
X121234108Y-105500500D01*
X121365892Y-105500500D01*
X121493186Y-105466392D01*
X121493189Y-105466389D01*
X121493192Y-105466389D01*
X121607312Y-105400501D01*
X121607311Y-105400501D01*
X121607314Y-105400500D01*
X121700500Y-105307314D01*
X121766392Y-105193186D01*
X121800500Y-105065892D01*
X121800500Y-104934108D01*
X121766392Y-104806814D01*
X121766390Y-104806811D01*
X121766389Y-104806807D01*
X121700501Y-104692687D01*
X121700496Y-104692681D01*
X121607318Y-104599503D01*
X121607312Y-104599498D01*
X121493192Y-104533610D01*
X121493181Y-104533606D01*
X121365892Y-104499500D01*
X121234108Y-104499500D01*
X121106818Y-104533606D01*
X121106807Y-104533610D01*
X120992687Y-104599498D01*
X120992681Y-104599503D01*
X120899503Y-104692681D01*
X120899498Y-104692687D01*
X120833610Y-104806807D01*
X120833606Y-104806818D01*
X120799500Y-104934107D01*
X88937877Y-104934107D01*
X88923865Y-104881814D01*
X88923864Y-104881812D01*
X88923862Y-104881807D01*
X88857974Y-104767687D01*
X88857969Y-104767681D01*
X88764791Y-104674503D01*
X88764785Y-104674498D01*
X88650665Y-104608610D01*
X88650654Y-104608606D01*
X88523365Y-104574500D01*
X88391581Y-104574500D01*
X88264291Y-104608606D01*
X88264280Y-104608610D01*
X88150160Y-104674498D01*
X88150154Y-104674503D01*
X88056976Y-104767681D01*
X88056971Y-104767687D01*
X87991083Y-104881807D01*
X87991079Y-104881818D01*
X87956973Y-105009107D01*
X87956973Y-105015809D01*
X87935701Y-105088255D01*
X87878639Y-105137700D01*
X87840471Y-105148662D01*
X87834107Y-105149500D01*
X87706818Y-105183606D01*
X87706807Y-105183610D01*
X87592687Y-105249498D01*
X87592681Y-105249503D01*
X87499503Y-105342681D01*
X87499498Y-105342687D01*
X87433610Y-105456807D01*
X87433606Y-105456818D01*
X87399500Y-105584107D01*
X82100500Y-105584107D01*
X82100500Y-103684107D01*
X83949500Y-103684107D01*
X83949500Y-103815892D01*
X83983606Y-103943181D01*
X83983610Y-103943192D01*
X84049498Y-104057312D01*
X84049503Y-104057318D01*
X84142681Y-104150496D01*
X84142687Y-104150501D01*
X84256807Y-104216389D01*
X84256811Y-104216390D01*
X84256814Y-104216392D01*
X84384108Y-104250500D01*
X84515892Y-104250500D01*
X84643186Y-104216392D01*
X84643189Y-104216389D01*
X84643192Y-104216389D01*
X84757312Y-104150501D01*
X84757311Y-104150501D01*
X84757314Y-104150500D01*
X84850500Y-104057314D01*
X84916392Y-103943186D01*
X84950500Y-103815892D01*
X84950500Y-103684108D01*
X84916392Y-103556814D01*
X84916390Y-103556811D01*
X84916389Y-103556807D01*
X84850501Y-103442687D01*
X84850496Y-103442681D01*
X84757318Y-103349503D01*
X84757312Y-103349498D01*
X84643192Y-103283610D01*
X84643181Y-103283606D01*
X84515892Y-103249500D01*
X84384108Y-103249500D01*
X84256818Y-103283606D01*
X84256807Y-103283610D01*
X84142687Y-103349498D01*
X84142681Y-103349503D01*
X84049503Y-103442681D01*
X84049498Y-103442687D01*
X83983610Y-103556807D01*
X83983606Y-103556818D01*
X83949500Y-103684107D01*
X82100500Y-103684107D01*
X82100500Y-103034107D01*
X91199500Y-103034107D01*
X91199500Y-103165892D01*
X91233606Y-103293181D01*
X91233610Y-103293192D01*
X91299498Y-103407312D01*
X91299503Y-103407318D01*
X91392681Y-103500496D01*
X91392687Y-103500501D01*
X91506807Y-103566389D01*
X91506811Y-103566390D01*
X91506814Y-103566392D01*
X91634108Y-103600500D01*
X91765892Y-103600500D01*
X91893186Y-103566392D01*
X91893189Y-103566389D01*
X91893192Y-103566389D01*
X92007312Y-103500501D01*
X92007311Y-103500501D01*
X92007314Y-103500500D01*
X92100500Y-103407314D01*
X92133880Y-103349498D01*
X92166389Y-103293192D01*
X92166389Y-103293189D01*
X92166392Y-103293186D01*
X92200500Y-103165892D01*
X92200500Y-103034108D01*
X92166392Y-102906814D01*
X92166390Y-102906811D01*
X92166389Y-102906807D01*
X92100501Y-102792688D01*
X92100500Y-102792686D01*
X92100498Y-102792684D01*
X92100496Y-102792681D01*
X92041922Y-102734107D01*
X114299500Y-102734107D01*
X114299500Y-102865892D01*
X114333606Y-102993181D01*
X114333610Y-102993192D01*
X114399498Y-103107312D01*
X114399503Y-103107318D01*
X114492681Y-103200496D01*
X114492687Y-103200501D01*
X114606807Y-103266389D01*
X114606811Y-103266390D01*
X114606814Y-103266392D01*
X114734108Y-103300500D01*
X114865892Y-103300500D01*
X114993186Y-103266392D01*
X114993189Y-103266389D01*
X114993192Y-103266389D01*
X115107312Y-103200501D01*
X115107311Y-103200501D01*
X115107314Y-103200500D01*
X115200500Y-103107314D01*
X115266392Y-102993186D01*
X115300500Y-102865892D01*
X115300500Y-102734108D01*
X115291226Y-102699498D01*
X115266393Y-102606818D01*
X115266389Y-102606807D01*
X115200501Y-102492687D01*
X115200496Y-102492681D01*
X115107318Y-102399503D01*
X115107312Y-102399498D01*
X114993192Y-102333610D01*
X114993181Y-102333606D01*
X114865892Y-102299500D01*
X114734108Y-102299500D01*
X114606818Y-102333606D01*
X114606807Y-102333610D01*
X114492687Y-102399498D01*
X114492681Y-102399503D01*
X114399503Y-102492681D01*
X114399498Y-102492687D01*
X114333610Y-102606807D01*
X114333606Y-102606818D01*
X114299500Y-102734107D01*
X92041922Y-102734107D01*
X92007318Y-102699503D01*
X92007312Y-102699498D01*
X91893192Y-102633610D01*
X91893181Y-102633606D01*
X91765892Y-102599500D01*
X91634108Y-102599500D01*
X91506818Y-102633606D01*
X91506807Y-102633610D01*
X91392687Y-102699498D01*
X91392681Y-102699503D01*
X91299503Y-102792681D01*
X91299498Y-102792687D01*
X91233610Y-102906807D01*
X91233606Y-102906818D01*
X91199500Y-103034107D01*
X82100500Y-103034107D01*
X82100500Y-100134107D01*
X110499500Y-100134107D01*
X110499500Y-100265892D01*
X110533606Y-100393181D01*
X110533610Y-100393192D01*
X110599498Y-100507312D01*
X110599503Y-100507318D01*
X110692681Y-100600496D01*
X110692687Y-100600501D01*
X110806807Y-100666389D01*
X110806811Y-100666390D01*
X110806814Y-100666392D01*
X110934108Y-100700500D01*
X111065892Y-100700500D01*
X111193186Y-100666392D01*
X111193189Y-100666389D01*
X111193192Y-100666389D01*
X111307312Y-100600501D01*
X111307311Y-100600501D01*
X111307314Y-100600500D01*
X111400500Y-100507314D01*
X111466392Y-100393186D01*
X111500500Y-100265892D01*
X111500500Y-100134108D01*
X111466392Y-100006814D01*
X111466390Y-100006811D01*
X111466389Y-100006807D01*
X111400501Y-99892687D01*
X111400496Y-99892681D01*
X111307318Y-99799503D01*
X111307312Y-99799498D01*
X111193192Y-99733610D01*
X111193181Y-99733606D01*
X111065892Y-99699500D01*
X110934108Y-99699500D01*
X110806818Y-99733606D01*
X110806807Y-99733610D01*
X110692687Y-99799498D01*
X110692681Y-99799503D01*
X110599503Y-99892681D01*
X110599498Y-99892687D01*
X110533610Y-100006807D01*
X110533606Y-100006818D01*
X110499500Y-100134107D01*
X82100500Y-100134107D01*
X82100500Y-99234107D01*
X86199500Y-99234107D01*
X86199500Y-99365892D01*
X86233606Y-99493181D01*
X86233610Y-99493192D01*
X86299498Y-99607312D01*
X86299503Y-99607318D01*
X86392681Y-99700496D01*
X86392687Y-99700501D01*
X86506807Y-99766389D01*
X86506811Y-99766390D01*
X86506814Y-99766392D01*
X86634108Y-99800500D01*
X86765892Y-99800500D01*
X86893186Y-99766392D01*
X86893189Y-99766389D01*
X86893192Y-99766389D01*
X87007312Y-99700501D01*
X87007311Y-99700501D01*
X87007314Y-99700500D01*
X87100500Y-99607314D01*
X87166392Y-99493186D01*
X87200500Y-99365892D01*
X87200500Y-99234108D01*
X87166392Y-99106814D01*
X87166390Y-99106811D01*
X87166389Y-99106807D01*
X87100501Y-98992687D01*
X87100496Y-98992681D01*
X87007318Y-98899503D01*
X87007312Y-98899498D01*
X86893192Y-98833610D01*
X86893181Y-98833606D01*
X86765892Y-98799500D01*
X86634108Y-98799500D01*
X86506818Y-98833606D01*
X86506807Y-98833610D01*
X86392687Y-98899498D01*
X86392681Y-98899503D01*
X86299503Y-98992681D01*
X86299498Y-98992687D01*
X86233610Y-99106807D01*
X86233606Y-99106818D01*
X86199500Y-99234107D01*
X82100500Y-99234107D01*
X82100500Y-98334107D01*
X99399500Y-98334107D01*
X99399500Y-98465892D01*
X99433606Y-98593181D01*
X99433610Y-98593192D01*
X99499498Y-98707312D01*
X99499503Y-98707318D01*
X99592681Y-98800496D01*
X99592687Y-98800501D01*
X99706807Y-98866389D01*
X99706811Y-98866390D01*
X99706814Y-98866392D01*
X99834108Y-98900500D01*
X99965892Y-98900500D01*
X100093186Y-98866392D01*
X100093189Y-98866389D01*
X100093192Y-98866389D01*
X100207312Y-98800501D01*
X100207311Y-98800501D01*
X100207314Y-98800500D01*
X100300500Y-98707314D01*
X100366392Y-98593186D01*
X100400500Y-98465892D01*
X100400500Y-98334108D01*
X100366392Y-98206814D01*
X100366390Y-98206811D01*
X100366389Y-98206807D01*
X100300501Y-98092687D01*
X100300496Y-98092681D01*
X100207318Y-97999503D01*
X100207312Y-97999498D01*
X100093192Y-97933610D01*
X100093181Y-97933606D01*
X99965892Y-97899500D01*
X99834108Y-97899500D01*
X99706818Y-97933606D01*
X99706807Y-97933610D01*
X99592687Y-97999498D01*
X99592681Y-97999503D01*
X99499503Y-98092681D01*
X99499498Y-98092687D01*
X99433610Y-98206807D01*
X99433606Y-98206818D01*
X99399500Y-98334107D01*
X82100500Y-98334107D01*
X82100500Y-97434107D01*
X86199500Y-97434107D01*
X86199500Y-97565892D01*
X86233606Y-97693181D01*
X86233610Y-97693192D01*
X86299498Y-97807312D01*
X86299503Y-97807318D01*
X86392681Y-97900496D01*
X86392687Y-97900501D01*
X86506807Y-97966389D01*
X86506811Y-97966390D01*
X86506814Y-97966392D01*
X86634108Y-98000500D01*
X86765892Y-98000500D01*
X86893186Y-97966392D01*
X86893189Y-97966389D01*
X86893192Y-97966389D01*
X87007312Y-97900501D01*
X87007311Y-97900501D01*
X87007314Y-97900500D01*
X87100500Y-97807314D01*
X87158233Y-97707318D01*
X87166389Y-97693192D01*
X87166389Y-97693189D01*
X87166392Y-97693186D01*
X87200500Y-97565892D01*
X87200500Y-97434108D01*
X87173705Y-97334107D01*
X87499500Y-97334107D01*
X87499500Y-97465892D01*
X87533606Y-97593181D01*
X87533610Y-97593192D01*
X87599498Y-97707312D01*
X87599503Y-97707318D01*
X87692681Y-97800496D01*
X87692687Y-97800501D01*
X87806807Y-97866389D01*
X87806811Y-97866390D01*
X87806814Y-97866392D01*
X87934108Y-97900500D01*
X88065892Y-97900500D01*
X88193186Y-97866392D01*
X88193189Y-97866389D01*
X88193192Y-97866389D01*
X88307312Y-97800501D01*
X88307311Y-97800501D01*
X88307314Y-97800500D01*
X88400500Y-97707314D01*
X88466392Y-97593186D01*
X88500500Y-97465892D01*
X88500500Y-97334108D01*
X88466392Y-97206814D01*
X88466390Y-97206811D01*
X88466389Y-97206807D01*
X88400501Y-97092687D01*
X88400496Y-97092681D01*
X88307318Y-96999503D01*
X88307312Y-96999498D01*
X88193192Y-96933610D01*
X88193181Y-96933606D01*
X88065892Y-96899500D01*
X87934108Y-96899500D01*
X87806818Y-96933606D01*
X87806807Y-96933610D01*
X87692687Y-96999498D01*
X87692681Y-96999503D01*
X87599503Y-97092681D01*
X87599498Y-97092687D01*
X87533610Y-97206807D01*
X87533606Y-97206818D01*
X87499500Y-97334107D01*
X87173705Y-97334107D01*
X87166392Y-97306814D01*
X87166390Y-97306811D01*
X87166389Y-97306807D01*
X87100501Y-97192687D01*
X87100496Y-97192681D01*
X87007318Y-97099503D01*
X87007312Y-97099498D01*
X86893192Y-97033610D01*
X86893181Y-97033606D01*
X86765892Y-96999500D01*
X86634108Y-96999500D01*
X86506818Y-97033606D01*
X86506807Y-97033610D01*
X86392687Y-97099498D01*
X86392681Y-97099503D01*
X86299503Y-97192681D01*
X86299498Y-97192687D01*
X86233610Y-97306807D01*
X86233606Y-97306818D01*
X86199500Y-97434107D01*
X82100500Y-97434107D01*
X82100500Y-95534107D01*
X118999500Y-95534107D01*
X118999500Y-95665892D01*
X119033606Y-95793181D01*
X119033610Y-95793192D01*
X119099498Y-95907312D01*
X119099503Y-95907318D01*
X119192681Y-96000496D01*
X119192687Y-96000501D01*
X119306807Y-96066389D01*
X119306811Y-96066390D01*
X119306814Y-96066392D01*
X119434108Y-96100500D01*
X119565892Y-96100500D01*
X119693186Y-96066392D01*
X119693189Y-96066389D01*
X119693192Y-96066389D01*
X119807312Y-96000501D01*
X119807311Y-96000501D01*
X119807314Y-96000500D01*
X119807318Y-96000496D01*
X119855248Y-95952567D01*
X119921516Y-95916381D01*
X119996828Y-95921768D01*
X120044752Y-95952567D01*
X120092681Y-96000496D01*
X120092687Y-96000501D01*
X120206807Y-96066389D01*
X120206811Y-96066390D01*
X120206814Y-96066392D01*
X120334108Y-96100500D01*
X120465892Y-96100500D01*
X120593186Y-96066392D01*
X120593189Y-96066389D01*
X120593192Y-96066389D01*
X120707312Y-96000501D01*
X120707311Y-96000501D01*
X120707314Y-96000500D01*
X120800500Y-95907314D01*
X120816973Y-95878782D01*
X120866389Y-95793192D01*
X120866389Y-95793189D01*
X120866392Y-95793186D01*
X120900500Y-95665892D01*
X120900500Y-95534108D01*
X120866392Y-95406814D01*
X120866390Y-95406811D01*
X120866389Y-95406807D01*
X120800501Y-95292687D01*
X120800496Y-95292681D01*
X120707318Y-95199503D01*
X120707312Y-95199498D01*
X120593192Y-95133610D01*
X120593181Y-95133606D01*
X120465892Y-95099500D01*
X120334108Y-95099500D01*
X120206818Y-95133606D01*
X120206807Y-95133610D01*
X120092687Y-95199498D01*
X120092681Y-95199503D01*
X120044752Y-95247433D01*
X119978484Y-95283619D01*
X119903172Y-95278232D01*
X119855248Y-95247433D01*
X119807318Y-95199503D01*
X119807312Y-95199498D01*
X119693192Y-95133610D01*
X119693181Y-95133606D01*
X119565892Y-95099500D01*
X119434108Y-95099500D01*
X119306818Y-95133606D01*
X119306807Y-95133610D01*
X119192687Y-95199498D01*
X119192681Y-95199503D01*
X119099503Y-95292681D01*
X119099498Y-95292687D01*
X119033610Y-95406807D01*
X119033606Y-95406818D01*
X118999500Y-95534107D01*
X82100500Y-95534107D01*
X82100500Y-94934107D01*
X91899500Y-94934107D01*
X91899500Y-95065892D01*
X91933606Y-95193181D01*
X91933610Y-95193192D01*
X91999498Y-95307312D01*
X91999503Y-95307318D01*
X92092681Y-95400496D01*
X92092687Y-95400501D01*
X92206807Y-95466389D01*
X92206811Y-95466390D01*
X92206814Y-95466392D01*
X92334108Y-95500500D01*
X92465892Y-95500500D01*
X92593186Y-95466392D01*
X92593189Y-95466389D01*
X92593192Y-95466389D01*
X92629856Y-95445220D01*
X92707314Y-95400500D01*
X92800500Y-95307314D01*
X92817291Y-95278232D01*
X92866389Y-95193192D01*
X92866389Y-95193189D01*
X92866392Y-95193186D01*
X92900500Y-95065892D01*
X92900500Y-94934108D01*
X92866392Y-94806814D01*
X92866390Y-94806811D01*
X92866389Y-94806807D01*
X92800501Y-94692687D01*
X92800496Y-94692681D01*
X92707318Y-94599503D01*
X92707312Y-94599498D01*
X92593192Y-94533610D01*
X92593181Y-94533606D01*
X92465892Y-94499500D01*
X92334108Y-94499500D01*
X92206818Y-94533606D01*
X92206807Y-94533610D01*
X92092687Y-94599498D01*
X92092681Y-94599503D01*
X91999503Y-94692681D01*
X91999498Y-94692687D01*
X91933610Y-94806807D01*
X91933606Y-94806818D01*
X91899500Y-94934107D01*
X82100500Y-94934107D01*
X82100500Y-92334107D01*
X84499500Y-92334107D01*
X84499500Y-92465892D01*
X84533606Y-92593181D01*
X84533610Y-92593192D01*
X84599498Y-92707312D01*
X84599503Y-92707318D01*
X84692681Y-92800496D01*
X84692687Y-92800501D01*
X84806807Y-92866389D01*
X84806811Y-92866390D01*
X84806814Y-92866392D01*
X84934108Y-92900500D01*
X85065892Y-92900500D01*
X85193186Y-92866392D01*
X85193189Y-92866389D01*
X85193192Y-92866389D01*
X85307312Y-92800501D01*
X85307311Y-92800501D01*
X85307314Y-92800500D01*
X85400500Y-92707314D01*
X85433302Y-92650500D01*
X85466389Y-92593192D01*
X85466389Y-92593189D01*
X85466392Y-92593186D01*
X85500500Y-92465892D01*
X85500500Y-92334108D01*
X85489401Y-92292687D01*
X85466393Y-92206818D01*
X85466392Y-92206814D01*
X85459564Y-92194988D01*
X85429161Y-92142327D01*
X85429160Y-92142326D01*
X85400499Y-92092684D01*
X85391922Y-92084107D01*
X109899500Y-92084107D01*
X109899500Y-92215892D01*
X109933606Y-92343181D01*
X109933610Y-92343192D01*
X109999498Y-92457312D01*
X109999503Y-92457318D01*
X110092681Y-92550496D01*
X110092687Y-92550501D01*
X110206807Y-92616389D01*
X110206811Y-92616390D01*
X110206814Y-92616392D01*
X110334108Y-92650500D01*
X110465892Y-92650500D01*
X110593186Y-92616392D01*
X110593189Y-92616389D01*
X110593192Y-92616389D01*
X110707312Y-92550501D01*
X110707311Y-92550501D01*
X110707314Y-92550500D01*
X110800500Y-92457314D01*
X110837521Y-92393192D01*
X110866389Y-92343192D01*
X110866389Y-92343189D01*
X110866392Y-92343186D01*
X110900500Y-92215892D01*
X110900500Y-92134107D01*
X118899500Y-92134107D01*
X118899500Y-92265892D01*
X118933606Y-92393181D01*
X118933610Y-92393192D01*
X118999498Y-92507312D01*
X118999503Y-92507318D01*
X119092681Y-92600496D01*
X119092687Y-92600501D01*
X119206807Y-92666389D01*
X119206811Y-92666390D01*
X119206814Y-92666392D01*
X119334108Y-92700500D01*
X119465891Y-92700500D01*
X119465892Y-92700500D01*
X119563071Y-92674461D01*
X119638551Y-92676258D01*
X119701080Y-92718578D01*
X119727184Y-92769212D01*
X119733607Y-92793184D01*
X119733610Y-92793192D01*
X119799498Y-92907312D01*
X119799503Y-92907318D01*
X119892681Y-93000496D01*
X119892687Y-93000501D01*
X120006807Y-93066389D01*
X120006811Y-93066390D01*
X120006814Y-93066392D01*
X120134108Y-93100500D01*
X120265892Y-93100500D01*
X120393186Y-93066392D01*
X120393189Y-93066389D01*
X120393192Y-93066389D01*
X120507312Y-93000501D01*
X120507311Y-93000501D01*
X120507314Y-93000500D01*
X120600500Y-92907314D01*
X120662169Y-92800501D01*
X120666389Y-92793192D01*
X120666389Y-92793189D01*
X120666392Y-92793186D01*
X120700500Y-92665892D01*
X120700500Y-92534108D01*
X120666392Y-92406814D01*
X120666390Y-92406811D01*
X120666389Y-92406807D01*
X120600501Y-92292687D01*
X120600496Y-92292681D01*
X120507318Y-92199503D01*
X120507312Y-92199498D01*
X120393192Y-92133610D01*
X120393181Y-92133606D01*
X120265892Y-92099500D01*
X120134108Y-92099500D01*
X120036930Y-92125538D01*
X119961447Y-92123741D01*
X119898918Y-92081420D01*
X119872815Y-92030785D01*
X119866393Y-92006817D01*
X119866389Y-92006807D01*
X119800501Y-91892687D01*
X119800496Y-91892681D01*
X119707318Y-91799503D01*
X119707312Y-91799498D01*
X119593192Y-91733610D01*
X119593181Y-91733606D01*
X119465892Y-91699500D01*
X119334108Y-91699500D01*
X119206818Y-91733606D01*
X119206807Y-91733610D01*
X119092687Y-91799498D01*
X119092681Y-91799503D01*
X118999503Y-91892681D01*
X118999498Y-91892687D01*
X118933610Y-92006807D01*
X118933606Y-92006818D01*
X118899500Y-92134107D01*
X110900500Y-92134107D01*
X110900500Y-92084108D01*
X110879787Y-92006807D01*
X110866393Y-91956818D01*
X110866389Y-91956807D01*
X110800501Y-91842687D01*
X110800496Y-91842681D01*
X110707318Y-91749503D01*
X110707312Y-91749498D01*
X110593192Y-91683610D01*
X110593181Y-91683606D01*
X110465892Y-91649500D01*
X110334108Y-91649500D01*
X110206818Y-91683606D01*
X110206807Y-91683610D01*
X110092687Y-91749498D01*
X110092681Y-91749503D01*
X109999503Y-91842681D01*
X109999498Y-91842687D01*
X109933610Y-91956807D01*
X109933606Y-91956818D01*
X109899500Y-92084107D01*
X85391922Y-92084107D01*
X85307318Y-91999503D01*
X85307312Y-91999498D01*
X85193192Y-91933610D01*
X85193181Y-91933606D01*
X85065892Y-91899500D01*
X84934108Y-91899500D01*
X84806818Y-91933606D01*
X84806807Y-91933610D01*
X84692687Y-91999498D01*
X84692681Y-91999503D01*
X84599503Y-92092681D01*
X84599498Y-92092687D01*
X84533610Y-92206807D01*
X84533606Y-92206818D01*
X84499500Y-92334107D01*
X82100500Y-92334107D01*
X82100500Y-89134107D01*
X83899500Y-89134107D01*
X83899500Y-89265892D01*
X83933606Y-89393181D01*
X83933610Y-89393192D01*
X83999498Y-89507312D01*
X83999503Y-89507318D01*
X84092681Y-89600496D01*
X84092687Y-89600501D01*
X84206807Y-89666389D01*
X84206811Y-89666390D01*
X84206814Y-89666392D01*
X84334108Y-89700500D01*
X84465892Y-89700500D01*
X84593186Y-89666392D01*
X84593189Y-89666389D01*
X84593192Y-89666389D01*
X84707312Y-89600501D01*
X84707311Y-89600501D01*
X84707314Y-89600500D01*
X84800500Y-89507314D01*
X84866392Y-89393186D01*
X84900500Y-89265892D01*
X84900500Y-89134108D01*
X84891099Y-89099024D01*
X84866393Y-89006818D01*
X84866389Y-89006807D01*
X84800501Y-88892687D01*
X84800496Y-88892681D01*
X84707318Y-88799503D01*
X84707312Y-88799498D01*
X84594053Y-88734107D01*
X110949500Y-88734107D01*
X110949500Y-88865892D01*
X110983606Y-88993181D01*
X110983610Y-88993192D01*
X111049498Y-89107312D01*
X111049503Y-89107318D01*
X111142681Y-89200496D01*
X111142687Y-89200501D01*
X111256807Y-89266389D01*
X111256811Y-89266390D01*
X111256814Y-89266392D01*
X111384108Y-89300500D01*
X111515892Y-89300500D01*
X111643186Y-89266392D01*
X111643189Y-89266389D01*
X111643192Y-89266389D01*
X111757312Y-89200501D01*
X111757311Y-89200501D01*
X111757314Y-89200500D01*
X111850500Y-89107314D01*
X111916392Y-88993186D01*
X111950500Y-88865892D01*
X111950500Y-88734108D01*
X111950500Y-88734107D01*
X118199500Y-88734107D01*
X118199500Y-88865892D01*
X118233606Y-88993181D01*
X118233610Y-88993192D01*
X118299498Y-89107312D01*
X118299503Y-89107318D01*
X118392681Y-89200496D01*
X118392687Y-89200501D01*
X118506807Y-89266389D01*
X118506811Y-89266390D01*
X118506814Y-89266392D01*
X118634108Y-89300500D01*
X118774675Y-89300500D01*
X118774675Y-89303227D01*
X118835766Y-89312748D01*
X118892241Y-89362862D01*
X118912658Y-89435554D01*
X118894714Y-89500974D01*
X118833611Y-89606807D01*
X118833606Y-89606818D01*
X118799500Y-89734107D01*
X118799500Y-89865892D01*
X118833606Y-89993181D01*
X118833610Y-89993192D01*
X118899498Y-90107312D01*
X118899503Y-90107318D01*
X118992681Y-90200496D01*
X118992687Y-90200501D01*
X119106807Y-90266389D01*
X119106811Y-90266390D01*
X119106814Y-90266392D01*
X119234108Y-90300500D01*
X119365892Y-90300500D01*
X119493186Y-90266392D01*
X119493189Y-90266389D01*
X119493192Y-90266389D01*
X119607312Y-90200501D01*
X119607311Y-90200501D01*
X119607314Y-90200500D01*
X119700500Y-90107314D01*
X119766392Y-89993186D01*
X119800500Y-89865892D01*
X119800500Y-89734108D01*
X119766392Y-89606814D01*
X119766390Y-89606811D01*
X119766389Y-89606807D01*
X119700501Y-89492687D01*
X119700496Y-89492681D01*
X119607318Y-89399503D01*
X119607312Y-89399498D01*
X119493192Y-89333610D01*
X119493181Y-89333606D01*
X119365892Y-89299500D01*
X119234108Y-89299500D01*
X119225325Y-89299500D01*
X119225325Y-89296778D01*
X119164199Y-89287235D01*
X119107738Y-89237105D01*
X119087342Y-89164408D01*
X119105283Y-89099028D01*
X119166392Y-88993186D01*
X119200500Y-88865892D01*
X119200500Y-88734108D01*
X119200365Y-88733606D01*
X119166393Y-88606818D01*
X119166389Y-88606807D01*
X119100501Y-88492687D01*
X119100496Y-88492681D01*
X119007318Y-88399503D01*
X119007312Y-88399498D01*
X118893192Y-88333610D01*
X118893181Y-88333606D01*
X118765892Y-88299500D01*
X118634108Y-88299500D01*
X118506818Y-88333606D01*
X118506807Y-88333610D01*
X118392687Y-88399498D01*
X118392681Y-88399503D01*
X118299503Y-88492681D01*
X118299498Y-88492687D01*
X118233610Y-88606807D01*
X118233606Y-88606818D01*
X118199500Y-88734107D01*
X111950500Y-88734107D01*
X111950365Y-88733606D01*
X111916393Y-88606818D01*
X111916389Y-88606807D01*
X111850501Y-88492687D01*
X111850496Y-88492681D01*
X111757318Y-88399503D01*
X111757312Y-88399498D01*
X111643192Y-88333610D01*
X111643181Y-88333606D01*
X111515892Y-88299500D01*
X111384108Y-88299500D01*
X111256818Y-88333606D01*
X111256807Y-88333610D01*
X111142687Y-88399498D01*
X111142681Y-88399503D01*
X111049503Y-88492681D01*
X111049498Y-88492687D01*
X110983610Y-88606807D01*
X110983606Y-88606818D01*
X110949500Y-88734107D01*
X84594053Y-88734107D01*
X84593192Y-88733610D01*
X84593181Y-88733606D01*
X84465892Y-88699500D01*
X84334108Y-88699500D01*
X84206818Y-88733606D01*
X84206807Y-88733610D01*
X84092687Y-88799498D01*
X84092681Y-88799503D01*
X83999503Y-88892681D01*
X83999498Y-88892687D01*
X83933610Y-89006807D01*
X83933606Y-89006818D01*
X83899500Y-89134107D01*
X82100500Y-89134107D01*
X82100500Y-87534107D01*
X90799500Y-87534107D01*
X90799500Y-87665892D01*
X90833606Y-87793181D01*
X90833610Y-87793192D01*
X90899498Y-87907312D01*
X90899503Y-87907318D01*
X90992681Y-88000496D01*
X90992687Y-88000501D01*
X91106807Y-88066389D01*
X91106811Y-88066390D01*
X91106814Y-88066392D01*
X91234108Y-88100500D01*
X91365892Y-88100500D01*
X91493186Y-88066392D01*
X91493189Y-88066389D01*
X91493192Y-88066389D01*
X91607312Y-88000501D01*
X91607311Y-88000501D01*
X91607314Y-88000500D01*
X91700500Y-87907314D01*
X91766392Y-87793186D01*
X91784372Y-87726082D01*
X97404500Y-87726082D01*
X97404500Y-87873917D01*
X97433340Y-88018907D01*
X97433343Y-88018915D01*
X97489915Y-88155494D01*
X97572045Y-88278412D01*
X97676587Y-88382954D01*
X97799505Y-88465084D01*
X97936087Y-88521658D01*
X98081082Y-88550500D01*
X98081083Y-88550500D01*
X98228917Y-88550500D01*
X98228918Y-88550500D01*
X98373913Y-88521658D01*
X98510495Y-88465084D01*
X98633416Y-88382951D01*
X98695248Y-88321119D01*
X98761516Y-88284933D01*
X98836828Y-88290320D01*
X98884752Y-88321119D01*
X98946587Y-88382954D01*
X99069505Y-88465084D01*
X99206087Y-88521658D01*
X99351082Y-88550500D01*
X99351083Y-88550500D01*
X99498917Y-88550500D01*
X99498918Y-88550500D01*
X99643913Y-88521658D01*
X99780495Y-88465084D01*
X99903416Y-88382951D01*
X100007951Y-88278416D01*
X100090084Y-88155495D01*
X100146658Y-88018913D01*
X100175500Y-87873918D01*
X100175500Y-87726082D01*
X101214500Y-87726082D01*
X101214500Y-87873917D01*
X101243340Y-88018907D01*
X101243343Y-88018915D01*
X101299915Y-88155494D01*
X101382045Y-88278412D01*
X101486587Y-88382954D01*
X101609505Y-88465084D01*
X101746087Y-88521658D01*
X101891082Y-88550500D01*
X101891083Y-88550500D01*
X102038917Y-88550500D01*
X102038918Y-88550500D01*
X102183913Y-88521658D01*
X102320495Y-88465084D01*
X102443416Y-88382951D01*
X102547951Y-88278416D01*
X102630084Y-88155495D01*
X102686658Y-88018913D01*
X102715500Y-87873918D01*
X102715500Y-87726082D01*
X103754500Y-87726082D01*
X103754500Y-87873917D01*
X103783340Y-88018907D01*
X103783343Y-88018915D01*
X103839915Y-88155494D01*
X103922045Y-88278412D01*
X104026587Y-88382954D01*
X104149505Y-88465084D01*
X104286087Y-88521658D01*
X104431082Y-88550500D01*
X104431083Y-88550500D01*
X104578917Y-88550500D01*
X104578918Y-88550500D01*
X104723913Y-88521658D01*
X104860495Y-88465084D01*
X104983416Y-88382951D01*
X105087951Y-88278416D01*
X105170084Y-88155495D01*
X105226658Y-88018913D01*
X105255500Y-87873918D01*
X105255500Y-87726082D01*
X106294500Y-87726082D01*
X106294500Y-87873917D01*
X106323340Y-88018907D01*
X106323343Y-88018915D01*
X106379915Y-88155494D01*
X106462045Y-88278412D01*
X106566587Y-88382954D01*
X106689505Y-88465084D01*
X106826087Y-88521658D01*
X106971082Y-88550500D01*
X106971083Y-88550500D01*
X107118917Y-88550500D01*
X107118918Y-88550500D01*
X107263913Y-88521658D01*
X107400495Y-88465084D01*
X107523416Y-88382951D01*
X107627951Y-88278416D01*
X107710084Y-88155495D01*
X107766658Y-88018913D01*
X107795500Y-87873918D01*
X107795500Y-87834107D01*
X120599500Y-87834107D01*
X120599500Y-87965892D01*
X120633606Y-88093181D01*
X120633610Y-88093192D01*
X120699498Y-88207312D01*
X120699503Y-88207318D01*
X120792681Y-88300496D01*
X120792687Y-88300501D01*
X120906807Y-88366389D01*
X120906811Y-88366390D01*
X120906814Y-88366392D01*
X121034108Y-88400500D01*
X121165892Y-88400500D01*
X121293186Y-88366392D01*
X121293189Y-88366389D01*
X121293192Y-88366389D01*
X121407312Y-88300501D01*
X121407311Y-88300501D01*
X121407314Y-88300500D01*
X121500500Y-88207314D01*
X121530418Y-88155494D01*
X121566389Y-88093192D01*
X121566389Y-88093189D01*
X121566392Y-88093186D01*
X121600500Y-87965892D01*
X121600500Y-87834108D01*
X121566392Y-87706814D01*
X121566390Y-87706811D01*
X121566389Y-87706807D01*
X121500501Y-87592687D01*
X121500496Y-87592681D01*
X121407318Y-87499503D01*
X121407312Y-87499498D01*
X121293192Y-87433610D01*
X121293181Y-87433606D01*
X121165892Y-87399500D01*
X121034108Y-87399500D01*
X120906818Y-87433606D01*
X120906807Y-87433610D01*
X120792687Y-87499498D01*
X120792681Y-87499503D01*
X120699503Y-87592681D01*
X120699498Y-87592687D01*
X120633610Y-87706807D01*
X120633606Y-87706818D01*
X120599500Y-87834107D01*
X107795500Y-87834107D01*
X107795500Y-87726082D01*
X107766658Y-87581087D01*
X107710084Y-87444505D01*
X107687687Y-87410985D01*
X107627954Y-87321587D01*
X107523412Y-87217045D01*
X107400494Y-87134915D01*
X107263915Y-87078343D01*
X107263913Y-87078342D01*
X107263911Y-87078341D01*
X107263907Y-87078340D01*
X107155365Y-87056750D01*
X107118918Y-87049500D01*
X106971082Y-87049500D01*
X106947135Y-87054263D01*
X106826092Y-87078340D01*
X106826084Y-87078343D01*
X106689505Y-87134915D01*
X106566587Y-87217045D01*
X106462045Y-87321587D01*
X106379915Y-87444505D01*
X106323343Y-87581084D01*
X106323340Y-87581092D01*
X106294500Y-87726082D01*
X105255500Y-87726082D01*
X105226658Y-87581087D01*
X105170084Y-87444505D01*
X105147687Y-87410985D01*
X105087954Y-87321587D01*
X104983412Y-87217045D01*
X104860494Y-87134915D01*
X104723915Y-87078343D01*
X104723913Y-87078342D01*
X104723911Y-87078341D01*
X104723907Y-87078340D01*
X104607602Y-87055205D01*
X104578918Y-87049500D01*
X104431082Y-87049500D01*
X104407135Y-87054263D01*
X104286092Y-87078340D01*
X104286084Y-87078343D01*
X104149505Y-87134915D01*
X104026587Y-87217045D01*
X103922045Y-87321587D01*
X103839915Y-87444505D01*
X103783343Y-87581084D01*
X103783340Y-87581092D01*
X103754500Y-87726082D01*
X102715500Y-87726082D01*
X102686658Y-87581087D01*
X102630084Y-87444505D01*
X102607687Y-87410985D01*
X102547954Y-87321587D01*
X102443412Y-87217045D01*
X102320494Y-87134915D01*
X102183915Y-87078343D01*
X102183913Y-87078342D01*
X102183911Y-87078341D01*
X102183907Y-87078340D01*
X102067602Y-87055205D01*
X102038918Y-87049500D01*
X101891082Y-87049500D01*
X101867135Y-87054263D01*
X101746092Y-87078340D01*
X101746084Y-87078343D01*
X101609505Y-87134915D01*
X101486587Y-87217045D01*
X101382045Y-87321587D01*
X101299915Y-87444505D01*
X101243343Y-87581084D01*
X101243340Y-87581092D01*
X101214500Y-87726082D01*
X100175500Y-87726082D01*
X100146658Y-87581087D01*
X100090084Y-87444505D01*
X100067687Y-87410985D01*
X100007954Y-87321587D01*
X99903412Y-87217045D01*
X99780494Y-87134915D01*
X99643915Y-87078343D01*
X99643913Y-87078342D01*
X99643911Y-87078341D01*
X99643907Y-87078340D01*
X99527602Y-87055205D01*
X99498918Y-87049500D01*
X99351082Y-87049500D01*
X99327135Y-87054263D01*
X99206092Y-87078340D01*
X99206084Y-87078343D01*
X99069505Y-87134915D01*
X98946587Y-87217045D01*
X98946583Y-87217049D01*
X98884752Y-87278881D01*
X98818484Y-87315067D01*
X98743172Y-87309680D01*
X98695248Y-87278881D01*
X98633412Y-87217045D01*
X98510494Y-87134915D01*
X98373915Y-87078343D01*
X98373913Y-87078342D01*
X98373911Y-87078341D01*
X98373907Y-87078340D01*
X98257602Y-87055205D01*
X98228918Y-87049500D01*
X98081082Y-87049500D01*
X98057135Y-87054263D01*
X97936092Y-87078340D01*
X97936084Y-87078343D01*
X97799505Y-87134915D01*
X97676587Y-87217045D01*
X97572045Y-87321587D01*
X97489915Y-87444505D01*
X97433343Y-87581084D01*
X97433340Y-87581092D01*
X97404500Y-87726082D01*
X91784372Y-87726082D01*
X91800500Y-87665892D01*
X91800500Y-87534108D01*
X91791226Y-87499498D01*
X91766393Y-87406818D01*
X91766389Y-87406807D01*
X91700501Y-87292687D01*
X91700496Y-87292681D01*
X91607318Y-87199503D01*
X91607312Y-87199498D01*
X91493192Y-87133610D01*
X91493181Y-87133606D01*
X91365892Y-87099500D01*
X91234108Y-87099500D01*
X91106818Y-87133606D01*
X91106807Y-87133610D01*
X90992687Y-87199498D01*
X90992681Y-87199503D01*
X90899503Y-87292681D01*
X90899498Y-87292687D01*
X90833610Y-87406807D01*
X90833606Y-87406818D01*
X90799500Y-87534107D01*
X82100500Y-87534107D01*
X82100500Y-86934107D01*
X115199500Y-86934107D01*
X115199500Y-87065892D01*
X115233606Y-87193181D01*
X115233610Y-87193192D01*
X115299498Y-87307312D01*
X115299503Y-87307318D01*
X115392681Y-87400496D01*
X115392687Y-87400501D01*
X115506807Y-87466389D01*
X115506811Y-87466390D01*
X115506814Y-87466392D01*
X115634108Y-87500500D01*
X115765892Y-87500500D01*
X115893186Y-87466392D01*
X115893189Y-87466389D01*
X115893192Y-87466389D01*
X115989154Y-87410985D01*
X116062529Y-87393184D01*
X116133881Y-87417879D01*
X116172201Y-87460031D01*
X116199500Y-87507315D01*
X116292681Y-87600496D01*
X116292687Y-87600501D01*
X116406807Y-87666389D01*
X116406811Y-87666390D01*
X116406814Y-87666392D01*
X116534108Y-87700500D01*
X116665891Y-87700500D01*
X116665892Y-87700500D01*
X116793186Y-87666392D01*
X116793189Y-87666389D01*
X116793192Y-87666389D01*
X116907312Y-87600501D01*
X116907311Y-87600501D01*
X116907314Y-87600500D01*
X117000500Y-87507314D01*
X117043053Y-87433610D01*
X117066389Y-87393192D01*
X117066389Y-87393189D01*
X117066392Y-87393186D01*
X117100500Y-87265892D01*
X117100500Y-87134108D01*
X117100365Y-87133606D01*
X117066393Y-87006818D01*
X117066389Y-87006807D01*
X117000501Y-86892687D01*
X117000496Y-86892681D01*
X116907318Y-86799503D01*
X116907312Y-86799498D01*
X116793192Y-86733610D01*
X116793181Y-86733606D01*
X116665892Y-86699500D01*
X116534108Y-86699500D01*
X116406818Y-86733606D01*
X116406809Y-86733610D01*
X116310844Y-86789015D01*
X116237468Y-86806815D01*
X116166117Y-86782120D01*
X116127798Y-86739967D01*
X116100501Y-86692687D01*
X116100496Y-86692681D01*
X116007318Y-86599503D01*
X116007312Y-86599498D01*
X115893192Y-86533610D01*
X115893181Y-86533606D01*
X115765892Y-86499500D01*
X115634108Y-86499500D01*
X115506818Y-86533606D01*
X115506807Y-86533610D01*
X115392687Y-86599498D01*
X115392681Y-86599503D01*
X115299503Y-86692681D01*
X115299498Y-86692687D01*
X115233610Y-86806807D01*
X115233606Y-86806818D01*
X115199500Y-86934107D01*
X82100500Y-86934107D01*
X82100500Y-86034107D01*
X97799500Y-86034107D01*
X97799500Y-86165892D01*
X97833606Y-86293181D01*
X97833610Y-86293192D01*
X97899498Y-86407312D01*
X97899503Y-86407318D01*
X97992681Y-86500496D01*
X97992687Y-86500501D01*
X98106807Y-86566389D01*
X98106811Y-86566390D01*
X98106814Y-86566392D01*
X98234108Y-86600500D01*
X98365892Y-86600500D01*
X98493186Y-86566392D01*
X98493189Y-86566389D01*
X98493192Y-86566389D01*
X98607312Y-86500501D01*
X98607311Y-86500501D01*
X98607314Y-86500500D01*
X98700500Y-86407314D01*
X98766392Y-86293186D01*
X98800500Y-86165892D01*
X98800500Y-86034108D01*
X98766392Y-85906814D01*
X98766390Y-85906811D01*
X98766389Y-85906807D01*
X98700501Y-85792687D01*
X98700496Y-85792681D01*
X98607318Y-85699503D01*
X98607312Y-85699498D01*
X98493192Y-85633610D01*
X98493181Y-85633606D01*
X98365892Y-85599500D01*
X98234108Y-85599500D01*
X98106818Y-85633606D01*
X98106807Y-85633610D01*
X97992687Y-85699498D01*
X97992681Y-85699503D01*
X97899503Y-85792681D01*
X97899498Y-85792687D01*
X97833610Y-85906807D01*
X97833606Y-85906818D01*
X97799500Y-86034107D01*
X82100500Y-86034107D01*
X82100500Y-84534107D01*
X87899500Y-84534107D01*
X87899500Y-84665892D01*
X87933606Y-84793181D01*
X87933610Y-84793192D01*
X87999498Y-84907312D01*
X87999503Y-84907318D01*
X88092681Y-85000496D01*
X88092687Y-85000501D01*
X88206807Y-85066389D01*
X88206811Y-85066390D01*
X88206814Y-85066392D01*
X88334108Y-85100500D01*
X88465892Y-85100500D01*
X88593186Y-85066392D01*
X88593189Y-85066389D01*
X88593192Y-85066389D01*
X88707312Y-85000501D01*
X88707311Y-85000501D01*
X88707314Y-85000500D01*
X88800500Y-84907314D01*
X88866392Y-84793186D01*
X88900500Y-84665892D01*
X88900500Y-84534108D01*
X88866392Y-84406814D01*
X88866390Y-84406811D01*
X88866389Y-84406807D01*
X88800501Y-84292687D01*
X88800496Y-84292681D01*
X88707318Y-84199503D01*
X88707312Y-84199498D01*
X88593192Y-84133610D01*
X88593181Y-84133606D01*
X88465892Y-84099500D01*
X88334108Y-84099500D01*
X88206818Y-84133606D01*
X88206807Y-84133610D01*
X88092687Y-84199498D01*
X88092681Y-84199503D01*
X87999503Y-84292681D01*
X87999498Y-84292687D01*
X87933610Y-84406807D01*
X87933606Y-84406818D01*
X87899500Y-84534107D01*
X82100500Y-84534107D01*
X82100500Y-82984107D01*
X102049500Y-82984107D01*
X102049500Y-83115892D01*
X102083606Y-83243181D01*
X102083610Y-83243192D01*
X102149498Y-83357312D01*
X102149503Y-83357318D01*
X102242681Y-83450496D01*
X102242687Y-83450501D01*
X102356807Y-83516389D01*
X102356811Y-83516390D01*
X102356814Y-83516392D01*
X102484108Y-83550500D01*
X102615892Y-83550500D01*
X102743186Y-83516392D01*
X102743189Y-83516389D01*
X102743192Y-83516389D01*
X102857312Y-83450501D01*
X102857311Y-83450501D01*
X102857314Y-83450500D01*
X102950500Y-83357314D01*
X103016392Y-83243186D01*
X103050500Y-83115892D01*
X103050500Y-82984108D01*
X103016392Y-82856814D01*
X103016390Y-82856811D01*
X103016389Y-82856807D01*
X102950501Y-82742687D01*
X102950496Y-82742681D01*
X102857318Y-82649503D01*
X102857312Y-82649498D01*
X102830654Y-82634107D01*
X114399500Y-82634107D01*
X114399500Y-82765892D01*
X114433606Y-82893181D01*
X114433610Y-82893192D01*
X114499498Y-83007312D01*
X114499503Y-83007318D01*
X114592681Y-83100496D01*
X114592687Y-83100501D01*
X114706807Y-83166389D01*
X114706811Y-83166390D01*
X114706814Y-83166392D01*
X114834108Y-83200500D01*
X114965892Y-83200500D01*
X115093186Y-83166392D01*
X115093189Y-83166389D01*
X115093192Y-83166389D01*
X115207312Y-83100501D01*
X115207311Y-83100501D01*
X115207314Y-83100500D01*
X115300500Y-83007314D01*
X115366392Y-82893186D01*
X115400500Y-82765892D01*
X115400500Y-82634108D01*
X115366392Y-82506814D01*
X115366390Y-82506811D01*
X115366389Y-82506807D01*
X115300501Y-82392687D01*
X115300496Y-82392681D01*
X115207318Y-82299503D01*
X115207312Y-82299498D01*
X115093192Y-82233610D01*
X115093181Y-82233606D01*
X114965892Y-82199500D01*
X114834108Y-82199500D01*
X114706818Y-82233606D01*
X114706807Y-82233610D01*
X114592687Y-82299498D01*
X114592681Y-82299503D01*
X114499503Y-82392681D01*
X114499498Y-82392687D01*
X114433610Y-82506807D01*
X114433606Y-82506818D01*
X114399500Y-82634107D01*
X102830654Y-82634107D01*
X102743192Y-82583610D01*
X102743181Y-82583606D01*
X102615892Y-82549500D01*
X102484108Y-82549500D01*
X102356818Y-82583606D01*
X102356807Y-82583610D01*
X102242687Y-82649498D01*
X102242681Y-82649503D01*
X102149503Y-82742681D01*
X102149498Y-82742687D01*
X102083610Y-82856807D01*
X102083606Y-82856818D01*
X102049500Y-82984107D01*
X82100500Y-82984107D01*
X82100500Y-82134107D01*
X87699500Y-82134107D01*
X87699500Y-82265892D01*
X87733606Y-82393181D01*
X87733610Y-82393192D01*
X87799498Y-82507312D01*
X87799503Y-82507318D01*
X87892681Y-82600496D01*
X87892687Y-82600501D01*
X88006807Y-82666389D01*
X88006811Y-82666390D01*
X88006814Y-82666392D01*
X88134108Y-82700500D01*
X88265892Y-82700500D01*
X88393186Y-82666392D01*
X88393189Y-82666389D01*
X88393192Y-82666389D01*
X88507312Y-82600501D01*
X88507311Y-82600501D01*
X88507314Y-82600500D01*
X88600500Y-82507314D01*
X88616973Y-82478782D01*
X88666389Y-82393192D01*
X88666389Y-82393189D01*
X88666392Y-82393186D01*
X88700500Y-82265892D01*
X88700500Y-82134108D01*
X88666392Y-82006814D01*
X88666390Y-82006811D01*
X88666389Y-82006807D01*
X88600501Y-81892687D01*
X88600496Y-81892681D01*
X88507318Y-81799503D01*
X88507312Y-81799498D01*
X88393192Y-81733610D01*
X88393181Y-81733606D01*
X88265892Y-81699500D01*
X88134108Y-81699500D01*
X88006818Y-81733606D01*
X88006807Y-81733610D01*
X87892687Y-81799498D01*
X87892681Y-81799503D01*
X87799503Y-81892681D01*
X87799498Y-81892687D01*
X87733610Y-82006807D01*
X87733606Y-82006818D01*
X87699500Y-82134107D01*
X82100500Y-82134107D01*
X82100500Y-81434107D01*
X84599500Y-81434107D01*
X84599500Y-81565892D01*
X84633606Y-81693181D01*
X84633610Y-81693192D01*
X84699498Y-81807312D01*
X84699503Y-81807318D01*
X84792681Y-81900496D01*
X84792687Y-81900501D01*
X84906807Y-81966389D01*
X84906811Y-81966390D01*
X84906814Y-81966392D01*
X85034108Y-82000500D01*
X85165891Y-82000500D01*
X85165892Y-82000500D01*
X85293186Y-81966392D01*
X85293189Y-81966389D01*
X85293192Y-81966389D01*
X85407312Y-81900501D01*
X85407311Y-81900501D01*
X85407314Y-81900500D01*
X85500500Y-81807314D01*
X85543053Y-81733610D01*
X85566389Y-81693192D01*
X85566389Y-81693189D01*
X85566392Y-81693186D01*
X85600500Y-81565892D01*
X85600500Y-81434108D01*
X85600365Y-81433606D01*
X85566393Y-81306818D01*
X85566389Y-81306807D01*
X85500501Y-81192687D01*
X85500496Y-81192681D01*
X85407318Y-81099503D01*
X85407312Y-81099498D01*
X85293192Y-81033610D01*
X85293181Y-81033606D01*
X85165892Y-80999500D01*
X85034108Y-80999500D01*
X84906818Y-81033606D01*
X84906807Y-81033610D01*
X84792687Y-81099498D01*
X84792681Y-81099503D01*
X84699503Y-81192681D01*
X84699498Y-81192687D01*
X84633610Y-81306807D01*
X84633606Y-81306818D01*
X84599500Y-81434107D01*
X82100500Y-81434107D01*
X82100500Y-80829107D01*
X87499500Y-80829107D01*
X87499500Y-80960892D01*
X87533606Y-81088181D01*
X87533610Y-81088192D01*
X87599498Y-81202312D01*
X87599503Y-81202318D01*
X87692681Y-81295496D01*
X87692687Y-81295501D01*
X87806807Y-81361389D01*
X87806811Y-81361390D01*
X87806814Y-81361392D01*
X87934108Y-81395500D01*
X88065892Y-81395500D01*
X88193186Y-81361392D01*
X88193189Y-81361389D01*
X88193192Y-81361389D01*
X88307312Y-81295501D01*
X88307311Y-81295501D01*
X88307314Y-81295500D01*
X88400500Y-81202314D01*
X88426483Y-81157310D01*
X88466389Y-81088192D01*
X88466389Y-81088189D01*
X88466392Y-81088186D01*
X88500500Y-80960892D01*
X88500500Y-80834107D01*
X95999500Y-80834107D01*
X95999500Y-80965892D01*
X96033606Y-81093181D01*
X96033610Y-81093192D01*
X96099498Y-81207312D01*
X96099503Y-81207318D01*
X96193103Y-81300918D01*
X96229289Y-81367186D01*
X96227785Y-81430350D01*
X96193421Y-81558603D01*
X96193421Y-81690389D01*
X96227527Y-81817678D01*
X96227531Y-81817689D01*
X96293419Y-81931809D01*
X96293424Y-81931815D01*
X96386602Y-82024993D01*
X96386608Y-82024998D01*
X96500728Y-82090886D01*
X96500732Y-82090887D01*
X96500735Y-82090889D01*
X96628029Y-82124997D01*
X96759813Y-82124997D01*
X96887107Y-82090889D01*
X96887110Y-82090886D01*
X96887113Y-82090886D01*
X97001233Y-82024998D01*
X97001232Y-82024998D01*
X97001235Y-82024997D01*
X97094421Y-81931811D01*
X97150831Y-81834107D01*
X117799500Y-81834107D01*
X117799500Y-81965892D01*
X117833606Y-82093181D01*
X117833610Y-82093192D01*
X117899498Y-82207312D01*
X117899503Y-82207318D01*
X117992681Y-82300496D01*
X117992687Y-82300501D01*
X118106807Y-82366389D01*
X118106811Y-82366390D01*
X118106814Y-82366392D01*
X118234108Y-82400500D01*
X118365892Y-82400500D01*
X118493186Y-82366392D01*
X118493189Y-82366389D01*
X118493192Y-82366389D01*
X118607312Y-82300501D01*
X118607311Y-82300501D01*
X118607314Y-82300500D01*
X118700500Y-82207314D01*
X118766392Y-82093186D01*
X118800500Y-81965892D01*
X118800500Y-81834108D01*
X118791226Y-81799498D01*
X118766393Y-81706818D01*
X118766389Y-81706807D01*
X118700501Y-81592687D01*
X118700496Y-81592681D01*
X118607318Y-81499503D01*
X118607312Y-81499498D01*
X118493192Y-81433610D01*
X118493181Y-81433606D01*
X118365892Y-81399500D01*
X118234108Y-81399500D01*
X118106818Y-81433606D01*
X118106807Y-81433610D01*
X117992687Y-81499498D01*
X117992681Y-81499503D01*
X117899503Y-81592681D01*
X117899498Y-81592687D01*
X117833610Y-81706807D01*
X117833606Y-81706818D01*
X117799500Y-81834107D01*
X97150831Y-81834107D01*
X97160313Y-81817683D01*
X97194421Y-81690389D01*
X97194421Y-81558605D01*
X97194420Y-81558603D01*
X97160314Y-81431315D01*
X97160310Y-81431304D01*
X97094422Y-81317184D01*
X97094417Y-81317178D01*
X97000817Y-81223578D01*
X96964631Y-81157310D01*
X96966135Y-81094145D01*
X97000500Y-80965892D01*
X97000500Y-80834107D01*
X96966393Y-80706818D01*
X96966389Y-80706807D01*
X96900501Y-80592687D01*
X96900496Y-80592681D01*
X96807318Y-80499503D01*
X96807312Y-80499498D01*
X96693192Y-80433610D01*
X96693181Y-80433606D01*
X96565892Y-80399500D01*
X96434108Y-80399500D01*
X96306818Y-80433606D01*
X96306807Y-80433610D01*
X96192687Y-80499498D01*
X96192681Y-80499503D01*
X96099503Y-80592681D01*
X96099498Y-80592687D01*
X96033610Y-80706807D01*
X96033606Y-80706818D01*
X95999500Y-80834107D01*
X88500500Y-80834107D01*
X88500500Y-80829108D01*
X88466392Y-80701814D01*
X88466390Y-80701811D01*
X88466389Y-80701807D01*
X88400501Y-80587687D01*
X88400496Y-80587681D01*
X88307318Y-80494503D01*
X88307312Y-80494498D01*
X88193192Y-80428610D01*
X88193181Y-80428606D01*
X88065892Y-80394500D01*
X87934108Y-80394500D01*
X87806818Y-80428606D01*
X87806807Y-80428610D01*
X87692687Y-80494498D01*
X87692681Y-80494503D01*
X87599503Y-80587681D01*
X87599498Y-80587687D01*
X87533610Y-80701807D01*
X87533606Y-80701818D01*
X87499500Y-80829107D01*
X82100500Y-80829107D01*
X82100500Y-78334107D01*
X119199500Y-78334107D01*
X119199500Y-78465892D01*
X119233606Y-78593181D01*
X119233610Y-78593192D01*
X119299498Y-78707312D01*
X119299503Y-78707318D01*
X119392681Y-78800496D01*
X119392687Y-78800501D01*
X119506807Y-78866389D01*
X119506811Y-78866390D01*
X119506814Y-78866392D01*
X119634108Y-78900500D01*
X119765892Y-78900500D01*
X119893186Y-78866392D01*
X119893189Y-78866389D01*
X119893192Y-78866389D01*
X120007312Y-78800501D01*
X120007311Y-78800501D01*
X120007314Y-78800500D01*
X120100500Y-78707314D01*
X120166392Y-78593186D01*
X120200500Y-78465892D01*
X120200500Y-78334108D01*
X120166392Y-78206814D01*
X120166390Y-78206811D01*
X120166389Y-78206807D01*
X120100501Y-78092687D01*
X120100496Y-78092681D01*
X120007318Y-77999503D01*
X120007312Y-77999498D01*
X119893192Y-77933610D01*
X119893181Y-77933606D01*
X119765892Y-77899500D01*
X119634108Y-77899500D01*
X119506818Y-77933606D01*
X119506807Y-77933610D01*
X119392687Y-77999498D01*
X119392681Y-77999503D01*
X119299503Y-78092681D01*
X119299498Y-78092687D01*
X119233610Y-78206807D01*
X119233606Y-78206818D01*
X119199500Y-78334107D01*
X82100500Y-78334107D01*
X82100500Y-77134107D01*
X98499500Y-77134107D01*
X98499500Y-77265892D01*
X98533606Y-77393181D01*
X98533610Y-77393192D01*
X98599498Y-77507312D01*
X98599503Y-77507318D01*
X98692681Y-77600496D01*
X98692687Y-77600501D01*
X98806807Y-77666389D01*
X98806811Y-77666390D01*
X98806814Y-77666392D01*
X98934108Y-77700500D01*
X99065892Y-77700500D01*
X99193186Y-77666392D01*
X99193189Y-77666389D01*
X99193192Y-77666389D01*
X99307312Y-77600501D01*
X99307311Y-77600501D01*
X99307314Y-77600500D01*
X99400500Y-77507314D01*
X99466392Y-77393186D01*
X99500500Y-77265892D01*
X99500500Y-77134108D01*
X99466392Y-77006814D01*
X99466390Y-77006811D01*
X99466389Y-77006807D01*
X99400501Y-76892687D01*
X99400496Y-76892681D01*
X99307318Y-76799503D01*
X99307312Y-76799498D01*
X99193192Y-76733610D01*
X99193181Y-76733606D01*
X99065892Y-76699500D01*
X98934108Y-76699500D01*
X98806818Y-76733606D01*
X98806807Y-76733610D01*
X98692687Y-76799498D01*
X98692681Y-76799503D01*
X98599503Y-76892681D01*
X98599498Y-76892687D01*
X98533610Y-77006807D01*
X98533606Y-77006818D01*
X98499500Y-77134107D01*
X82100500Y-77134107D01*
X82100500Y-75634107D01*
X91199500Y-75634107D01*
X91199500Y-75765892D01*
X91233606Y-75893181D01*
X91233610Y-75893192D01*
X91299498Y-76007312D01*
X91299503Y-76007318D01*
X91392681Y-76100496D01*
X91392687Y-76100501D01*
X91506807Y-76166389D01*
X91506811Y-76166390D01*
X91506814Y-76166392D01*
X91634108Y-76200500D01*
X91765892Y-76200500D01*
X91893186Y-76166392D01*
X91893189Y-76166389D01*
X91893192Y-76166389D01*
X92007312Y-76100501D01*
X92007311Y-76100501D01*
X92007314Y-76100500D01*
X92073707Y-76034107D01*
X103199500Y-76034107D01*
X103199500Y-76165892D01*
X103233606Y-76293181D01*
X103233610Y-76293192D01*
X103299498Y-76407312D01*
X103299503Y-76407318D01*
X103392681Y-76500496D01*
X103392687Y-76500501D01*
X103506807Y-76566389D01*
X103506811Y-76566390D01*
X103506814Y-76566392D01*
X103634108Y-76600500D01*
X103765892Y-76600500D01*
X103893186Y-76566392D01*
X103893189Y-76566389D01*
X103893192Y-76566389D01*
X104007312Y-76500501D01*
X104007311Y-76500501D01*
X104007314Y-76500500D01*
X104100500Y-76407314D01*
X104166392Y-76293186D01*
X104200500Y-76165892D01*
X104200500Y-76034108D01*
X104193321Y-76007317D01*
X104166393Y-75906818D01*
X104166389Y-75906807D01*
X104100501Y-75792687D01*
X104100496Y-75792681D01*
X104007318Y-75699503D01*
X104007312Y-75699498D01*
X103893192Y-75633610D01*
X103893181Y-75633606D01*
X103765892Y-75599500D01*
X103634108Y-75599500D01*
X103506818Y-75633606D01*
X103506807Y-75633610D01*
X103392687Y-75699498D01*
X103392681Y-75699503D01*
X103299503Y-75792681D01*
X103299498Y-75792687D01*
X103233610Y-75906807D01*
X103233606Y-75906818D01*
X103199500Y-76034107D01*
X92073707Y-76034107D01*
X92100500Y-76007314D01*
X92166392Y-75893186D01*
X92200500Y-75765892D01*
X92200500Y-75634108D01*
X92200365Y-75633606D01*
X92166393Y-75506818D01*
X92166389Y-75506807D01*
X92100501Y-75392687D01*
X92100496Y-75392681D01*
X92007318Y-75299503D01*
X92007312Y-75299498D01*
X91893192Y-75233610D01*
X91893181Y-75233606D01*
X91765892Y-75199500D01*
X91634108Y-75199500D01*
X91506818Y-75233606D01*
X91506807Y-75233610D01*
X91392687Y-75299498D01*
X91392681Y-75299503D01*
X91299503Y-75392681D01*
X91299498Y-75392687D01*
X91233610Y-75506807D01*
X91233606Y-75506818D01*
X91199500Y-75634107D01*
X82100500Y-75634107D01*
X82100500Y-72665182D01*
X84199500Y-72665182D01*
X84199500Y-72934817D01*
X84229688Y-73202731D01*
X84229688Y-73202737D01*
X84289680Y-73465579D01*
X84289687Y-73465601D01*
X84378727Y-73720064D01*
X84378733Y-73720079D01*
X84495712Y-73962991D01*
X84495714Y-73962994D01*
X84639160Y-74191287D01*
X84807271Y-74402091D01*
X84997908Y-74592728D01*
X84997912Y-74592731D01*
X84997915Y-74592734D01*
X85139875Y-74705943D01*
X85208712Y-74760839D01*
X85437005Y-74904285D01*
X85437008Y-74904287D01*
X85566524Y-74966658D01*
X85679921Y-75021267D01*
X85934409Y-75110316D01*
X85934414Y-75110317D01*
X85934420Y-75110319D01*
X86094271Y-75146803D01*
X86197268Y-75170312D01*
X86465191Y-75200500D01*
X86465198Y-75200500D01*
X86734802Y-75200500D01*
X86734809Y-75200500D01*
X87002732Y-75170312D01*
X87002736Y-75170311D01*
X87002737Y-75170311D01*
X87265579Y-75110319D01*
X87265581Y-75110318D01*
X87265591Y-75110316D01*
X87520079Y-75021267D01*
X87762997Y-74904284D01*
X87991289Y-74760838D01*
X88202085Y-74592734D01*
X88392734Y-74402085D01*
X88560838Y-74191289D01*
X88704284Y-73962997D01*
X88821267Y-73720079D01*
X88910316Y-73465591D01*
X88970312Y-73202732D01*
X89000500Y-72934809D01*
X89000500Y-72665191D01*
X89000499Y-72665182D01*
X116199500Y-72665182D01*
X116199500Y-72934817D01*
X116229688Y-73202731D01*
X116229688Y-73202737D01*
X116289680Y-73465579D01*
X116289687Y-73465601D01*
X116378727Y-73720064D01*
X116378733Y-73720079D01*
X116495712Y-73962991D01*
X116495714Y-73962994D01*
X116639160Y-74191287D01*
X116807271Y-74402091D01*
X116997908Y-74592728D01*
X116997912Y-74592731D01*
X116997915Y-74592734D01*
X117139875Y-74705943D01*
X117208712Y-74760839D01*
X117437005Y-74904285D01*
X117437008Y-74904287D01*
X117566524Y-74966658D01*
X117679921Y-75021267D01*
X117934409Y-75110316D01*
X117934414Y-75110317D01*
X117934420Y-75110319D01*
X118094271Y-75146803D01*
X118197268Y-75170312D01*
X118465191Y-75200500D01*
X118465198Y-75200500D01*
X118734802Y-75200500D01*
X118734809Y-75200500D01*
X119002732Y-75170312D01*
X119002736Y-75170311D01*
X119002737Y-75170311D01*
X119265579Y-75110319D01*
X119265581Y-75110318D01*
X119265591Y-75110316D01*
X119520079Y-75021267D01*
X119762997Y-74904284D01*
X119991289Y-74760838D01*
X120202085Y-74592734D01*
X120392734Y-74402085D01*
X120560838Y-74191289D01*
X120704284Y-73962997D01*
X120821267Y-73720079D01*
X120910316Y-73465591D01*
X120970312Y-73202732D01*
X121000500Y-72934809D01*
X121000500Y-72665191D01*
X120970312Y-72397268D01*
X120910316Y-72134409D01*
X120821267Y-71879921D01*
X120766658Y-71766524D01*
X120704287Y-71637008D01*
X120704285Y-71637005D01*
X120560839Y-71408712D01*
X120392728Y-71197908D01*
X120202091Y-71007271D01*
X120180900Y-70990372D01*
X120128959Y-70948950D01*
X119991287Y-70839160D01*
X119762994Y-70695714D01*
X119762991Y-70695712D01*
X119520079Y-70578733D01*
X119520064Y-70578727D01*
X119265601Y-70489687D01*
X119265579Y-70489680D01*
X119002734Y-70429688D01*
X118734817Y-70399500D01*
X118734809Y-70399500D01*
X118465191Y-70399500D01*
X118465182Y-70399500D01*
X118197268Y-70429688D01*
X118197262Y-70429688D01*
X117934420Y-70489680D01*
X117934398Y-70489687D01*
X117679935Y-70578727D01*
X117679920Y-70578733D01*
X117437008Y-70695712D01*
X117437005Y-70695714D01*
X117208712Y-70839160D01*
X116997908Y-71007271D01*
X116807271Y-71197908D01*
X116639160Y-71408712D01*
X116495714Y-71637005D01*
X116495712Y-71637008D01*
X116378733Y-71879920D01*
X116378727Y-71879935D01*
X116289687Y-72134398D01*
X116289680Y-72134420D01*
X116229688Y-72397262D01*
X116229688Y-72397268D01*
X116199500Y-72665182D01*
X89000499Y-72665182D01*
X88970312Y-72397268D01*
X88910316Y-72134409D01*
X88821267Y-71879921D01*
X88766658Y-71766524D01*
X88704287Y-71637008D01*
X88704285Y-71637005D01*
X88560839Y-71408712D01*
X88392728Y-71197908D01*
X88202091Y-71007271D01*
X88180900Y-70990372D01*
X88128959Y-70948950D01*
X87991287Y-70839160D01*
X87762994Y-70695714D01*
X87762991Y-70695712D01*
X87520079Y-70578733D01*
X87520064Y-70578727D01*
X87265601Y-70489687D01*
X87265579Y-70489680D01*
X87002734Y-70429688D01*
X86734817Y-70399500D01*
X86734809Y-70399500D01*
X86465191Y-70399500D01*
X86465182Y-70399500D01*
X86197268Y-70429688D01*
X86197262Y-70429688D01*
X85934420Y-70489680D01*
X85934398Y-70489687D01*
X85679935Y-70578727D01*
X85679920Y-70578733D01*
X85437008Y-70695712D01*
X85437005Y-70695714D01*
X85208712Y-70839160D01*
X84997908Y-71007271D01*
X84807271Y-71197908D01*
X84639160Y-71408712D01*
X84495714Y-71637005D01*
X84495712Y-71637008D01*
X84378733Y-71879920D01*
X84378727Y-71879935D01*
X84289687Y-72134398D01*
X84289680Y-72134420D01*
X84229688Y-72397262D01*
X84229688Y-72397268D01*
X84199500Y-72665182D01*
X82100500Y-72665182D01*
X82100500Y-71062818D01*
X82121772Y-70990372D01*
X82139748Y-70968066D01*
X84768066Y-68339748D01*
X84834334Y-68303562D01*
X84862818Y-68300500D01*
X120337182Y-68300500D01*
X120409628Y-68321772D01*
G37*
%TD.AperFunction*%
%TD*%
M02*
