M48
; DRILL file KiCad 10.0.3 date 2026-07-23T12:42:29
; FORMAT={-:-/ absolute / metric / decimal}
; #@! TF.CreationDate,2026-07-23T12:42:29-04:00
; #@! TF.GenerationSoftware,Kicad,Pcbnew,10.0.3
; #@! TF.FileFunction,Plated,1,4,PTH
FMAT,2
METRIC
; #@! TA.AperFunction,Plated,PTH,ViaDrill
T1C0.300
; #@! TA.AperFunction,Plated,PTH,ComponentDrill
T2C0.600
%
G90
G05
T1
X82.6Y-77.8
X82.6Y-122.8
X83.1Y-116.5
X83.1Y-118.4
X83.6Y-125.8
X83.8Y-116.1
X84.0Y-99.3
X84.1Y-110.4
X84.2Y-97.3
X84.4Y-89.2
X84.45Y-103.75
X84.6Y-78.8
X84.6Y-130.8
X85.0Y-92.4
X85.1Y-81.5
X85.5Y-114.2
X85.6Y-75.8
X85.6Y-111.3
X85.7Y-116.4
X86.6Y-103.8
X86.7Y-97.5
X86.7Y-99.3
X86.7Y-122.8
X87.9Y-105.65
X88.0Y-80.895
X88.0Y-97.4
X88.2Y-82.2
X88.4Y-84.6
X88.4Y-107.8
X88.457Y-105.075
X88.6Y-117.3
X89.0Y-118.625
X89.6Y-74.8
X89.6Y-129.8
X90.5Y-99.5
X90.6Y-104.8
X90.999Y-108.381
X91.075Y-116.0
X91.3Y-87.6
X91.6Y-92.1
X91.6Y-130.8
X91.7Y-75.7
X91.7Y-103.1
X91.75Y-97.6
X91.925Y-116.0
X92.2Y-87.9
X92.4Y-95.0
X92.5Y-112.6
X92.6Y-69.8
X92.6Y-126.8
X93.4Y-113.1
X94.45Y-116.65
X94.55Y-118.8
X94.6Y-112.2
X94.95Y-110.6
X95.6Y-85.8
X95.6Y-87.8
X95.6Y-89.8
X95.6Y-94.7
X95.6Y-104.8
X96.3Y-99.7
X96.3Y-101.0
X96.35Y-97.65
X96.4Y-94.6
X96.5Y-80.9
X96.6Y-131.8
X96.694Y-81.624
X97.4Y-117.6
X97.4Y-129.8
X97.5Y-125.7
X97.6Y-75.8
X97.6Y-89.8
X97.6Y-104.8
X98.1Y-110.3
X98.2Y-117.9
X98.2Y-122.3
X98.3Y-86.1
X99.0Y-77.2
X99.4Y-114.2
X99.5Y-94.7
X99.5Y-97.2
X99.6Y-89.8
X99.6Y-99.7
X99.6Y-101.0
X99.6Y-102.8
X99.6Y-104.8
X99.893Y-110.193
X99.9Y-98.4
X100.0Y-115.0
X100.06Y-131.9
X100.1Y-120.7
X100.2Y-70.5
X100.2Y-72.9
X100.8Y-110.1
X101.6Y-89.8
X101.6Y-92.8
X101.6Y-94.8
X101.6Y-96.8
X101.6Y-98.8
X101.6Y-100.8
X101.6Y-102.8
X101.6Y-104.8
X101.6Y-106.8
X101.9Y-113.7
X101.9Y-127.3
X102.55Y-83.05
X102.6Y-131.6
X103.2Y-128.5
X103.3Y-69.4
X103.6Y-89.8
X103.6Y-91.8
X103.6Y-94.8
X103.6Y-96.8
X103.6Y-98.8
X103.6Y-100.8
X103.6Y-102.8
X103.695Y-113.7
X103.7Y-76.1
X103.975Y-122.625
X104.1Y-128.4
X104.4Y-117.6
X104.442Y-113.638
X104.6Y-120.8
X104.68Y-122.03
X104.9Y-70.7
X104.9Y-116.7
X105.2Y-123.8
X105.6Y-89.8
X105.6Y-94.8
X105.6Y-96.8
X105.6Y-98.8
X105.6Y-100.8
X105.6Y-104.8
X105.8Y-92.1
X105.984Y-123.826
X106.0Y-113.0
X106.45Y-131.6
X106.6Y-78.8
X107.6Y-72.325
X107.6Y-89.8
X107.6Y-104.8
X107.6Y-125.7
X107.7Y-129.9
X108.3Y-123.8
X108.3Y-129.2
X108.5Y-69.1
X109.1Y-109.0
X109.1Y-115.9
X109.45Y-106.75
X109.6Y-85.8
X109.6Y-87.8
X109.6Y-89.8
X109.6Y-94.8
X109.6Y-96.8
X109.6Y-104.8
X109.8Y-107.5
X109.95Y-72.325
X110.1Y-114.9
X110.4Y-92.15
X110.5Y-112.3
X110.6Y-101.3
X110.7Y-117.9
X111.0Y-100.2
X111.45Y-88.8
X111.9Y-120.3
X112.3Y-78.8
X112.6Y-69.8
X112.6Y-128.8
X114.6Y-121.3
X114.8Y-102.8
X114.9Y-82.7
X114.9Y-93.1
X115.1Y-109.5
X115.2Y-111.4
X115.3Y-104.8
X115.6Y-73.8
X115.6Y-117.8
X115.6Y-129.8
X115.7Y-87.0
X116.0Y-113.7
X116.3Y-123.5
X116.6Y-87.2
X116.6Y-119.8
X116.9Y-124.1
X117.875Y-113.8
X117.95Y-115.1
X118.05Y-116.9
X118.3Y-81.9
X118.7Y-88.8
X118.7Y-108.3
X118.725Y-113.8
X119.3Y-89.8
X119.4Y-92.2
X119.5Y-95.6
X119.6Y-69.8
X119.6Y-75.8
X119.6Y-88.8
X119.7Y-78.4
X120.2Y-92.6
X120.4Y-95.6
X120.4Y-112.8
X120.4Y-122.7
X120.6Y-124.8
X121.1Y-87.9
X121.3Y-90.3
X121.3Y-105.0
X121.6Y-82.8
X121.6Y-117.8
X121.7Y-111.5
X121.8Y-106.0
X121.9Y-94.7
T2
X98.155Y-87.8
X99.425Y-87.8
X100.695Y-87.8
X101.965Y-87.8
X103.235Y-87.8
X104.505Y-87.8
X105.775Y-87.8
X107.045Y-87.8
M30
