%TF.GenerationSoftware,KiCad,Pcbnew,10.0.3*%
%TF.CreationDate,2026-07-23T12:42:32-04:00*%
%TF.ProjectId,magnetic_expension_v2,6d61676e-6574-4696-935f-657870656e73,v2*%
%TF.SameCoordinates,Original*%
%TF.FileFunction,Legend,Top*%
%TF.FilePolarity,Positive*%
%FSLAX46Y46*%
G04 Gerber Fmt 4.6, Leading zero omitted, Abs format (unit mm)*
G04 Created by KiCad (PCBNEW 10.0.3) date 2026-07-23 12:42:32*
%MOMM*%
%LPD*%
G01*
G04 APERTURE LIST*
%ADD10C,0.100000*%
%ADD11C,0.150000*%
%ADD12C,0.120000*%
%ADD13C,0.130000*%
%ADD14C,0.152400*%
%ADD15C,0.000000*%
G04 APERTURE END LIST*
D10*
X90600000Y-68800000D02*
X90600000Y-76800000D01*
X90600000Y-76800000D02*
X82600000Y-76800000D01*
X90600000Y-123800000D02*
X82600000Y-123800000D01*
X90600000Y-131800000D02*
X90600000Y-123800000D01*
X92600000Y-123800000D02*
X112600000Y-123800000D01*
X93600000Y-106100000D02*
X93600000Y-84800000D01*
X105900000Y-84800000D02*
X93600000Y-84800000D01*
X111600000Y-84800000D02*
X108100000Y-84800000D01*
X111600000Y-106100000D02*
X93600000Y-106100000D01*
X111600000Y-106100000D02*
X111600000Y-84800000D01*
X114600000Y-68800000D02*
X114600000Y-76800000D01*
X114600000Y-123800000D02*
X114600000Y-131800000D01*
X114600000Y-123800000D02*
X122600000Y-123800000D01*
X122600000Y-76800000D02*
X114600000Y-76800000D01*
D11*
X149000000Y-94900000D02*
X151900000Y-94900000D01*
X151900000Y-105100000D01*
X149000000Y-105100000D01*
X149000000Y-94900000D01*
X153700000Y-103212500D02*
X154000000Y-103512500D01*
X154000000Y-102912500D02*
X153700000Y-103212500D01*
X156300000Y-101812500D02*
X157100000Y-102612500D01*
X156300000Y-102612500D02*
X157100000Y-101812500D01*
X156400000Y-105912500D02*
X156700000Y-106212500D01*
X156450000Y-101000000D02*
X156950000Y-101425000D01*
X156450000Y-101412500D02*
X156450000Y-101000000D01*
X156500000Y-103212500D02*
X156900000Y-103212500D01*
X157265686Y-102212500D02*
G75*
G02*
X156134314Y-102212500I-565686J0D01*
G01*
X156134314Y-102212500D02*
G75*
G02*
X157265686Y-102212500I565686J0D01*
G01*
X156700000Y-103012500D02*
X156700000Y-103412500D01*
X156700000Y-103212500D02*
X153700000Y-103212500D01*
X156700000Y-103212500D02*
X156700000Y-106212500D01*
X156700000Y-106212500D02*
X157000000Y-105912500D01*
X156950000Y-101425000D02*
X156950000Y-100975000D01*
D12*
X109238470Y-88095855D02*
X108781327Y-88095855D01*
X109009899Y-88095855D02*
X109009899Y-87295855D01*
X109009899Y-87295855D02*
X108933708Y-87410140D01*
X108933708Y-87410140D02*
X108857518Y-87486331D01*
X108857518Y-87486331D02*
X108781327Y-87524426D01*
X109438470Y-103945855D02*
X108981327Y-103945855D01*
X109209899Y-103945855D02*
X109209899Y-103145855D01*
X109209899Y-103145855D02*
X109133708Y-103260140D01*
X109133708Y-103260140D02*
X109057518Y-103336331D01*
X109057518Y-103336331D02*
X108981327Y-103374426D01*
D11*
X150206340Y-104810839D02*
X149406340Y-104810839D01*
X149406340Y-104810839D02*
X149977768Y-104544173D01*
X149977768Y-104544173D02*
X149406340Y-104277506D01*
X149406340Y-104277506D02*
X150206340Y-104277506D01*
X150206340Y-103553696D02*
X149787292Y-103553696D01*
X149787292Y-103553696D02*
X149711102Y-103591791D01*
X149711102Y-103591791D02*
X149673006Y-103667982D01*
X149673006Y-103667982D02*
X149673006Y-103820363D01*
X149673006Y-103820363D02*
X149711102Y-103896553D01*
X150168245Y-103553696D02*
X150206340Y-103629887D01*
X150206340Y-103629887D02*
X150206340Y-103820363D01*
X150206340Y-103820363D02*
X150168245Y-103896553D01*
X150168245Y-103896553D02*
X150092054Y-103934649D01*
X150092054Y-103934649D02*
X150015864Y-103934649D01*
X150015864Y-103934649D02*
X149939673Y-103896553D01*
X149939673Y-103896553D02*
X149901578Y-103820363D01*
X149901578Y-103820363D02*
X149901578Y-103629887D01*
X149901578Y-103629887D02*
X149863483Y-103553696D01*
X149673006Y-102829886D02*
X150320625Y-102829886D01*
X150320625Y-102829886D02*
X150396816Y-102867981D01*
X150396816Y-102867981D02*
X150434911Y-102906077D01*
X150434911Y-102906077D02*
X150473006Y-102982267D01*
X150473006Y-102982267D02*
X150473006Y-103096553D01*
X150473006Y-103096553D02*
X150434911Y-103172743D01*
X150168245Y-102829886D02*
X150206340Y-102906077D01*
X150206340Y-102906077D02*
X150206340Y-103058458D01*
X150206340Y-103058458D02*
X150168245Y-103134648D01*
X150168245Y-103134648D02*
X150130149Y-103172743D01*
X150130149Y-103172743D02*
X150053959Y-103210839D01*
X150053959Y-103210839D02*
X149825387Y-103210839D01*
X149825387Y-103210839D02*
X149749197Y-103172743D01*
X149749197Y-103172743D02*
X149711102Y-103134648D01*
X149711102Y-103134648D02*
X149673006Y-103058458D01*
X149673006Y-103058458D02*
X149673006Y-102906077D01*
X149673006Y-102906077D02*
X149711102Y-102829886D01*
X149673006Y-102448933D02*
X150206340Y-102448933D01*
X149749197Y-102448933D02*
X149711102Y-102410838D01*
X149711102Y-102410838D02*
X149673006Y-102334648D01*
X149673006Y-102334648D02*
X149673006Y-102220362D01*
X149673006Y-102220362D02*
X149711102Y-102144171D01*
X149711102Y-102144171D02*
X149787292Y-102106076D01*
X149787292Y-102106076D02*
X150206340Y-102106076D01*
X150168245Y-101420361D02*
X150206340Y-101496552D01*
X150206340Y-101496552D02*
X150206340Y-101648933D01*
X150206340Y-101648933D02*
X150168245Y-101725123D01*
X150168245Y-101725123D02*
X150092054Y-101763219D01*
X150092054Y-101763219D02*
X149787292Y-101763219D01*
X149787292Y-101763219D02*
X149711102Y-101725123D01*
X149711102Y-101725123D02*
X149673006Y-101648933D01*
X149673006Y-101648933D02*
X149673006Y-101496552D01*
X149673006Y-101496552D02*
X149711102Y-101420361D01*
X149711102Y-101420361D02*
X149787292Y-101382266D01*
X149787292Y-101382266D02*
X149863483Y-101382266D01*
X149863483Y-101382266D02*
X149939673Y-101763219D01*
X149673006Y-101153695D02*
X149673006Y-100848933D01*
X149406340Y-101039409D02*
X150092054Y-101039409D01*
X150092054Y-101039409D02*
X150168245Y-101001314D01*
X150168245Y-101001314D02*
X150206340Y-100925124D01*
X150206340Y-100925124D02*
X150206340Y-100848933D01*
X150206340Y-100582266D02*
X149673006Y-100582266D01*
X149406340Y-100582266D02*
X149444435Y-100620362D01*
X149444435Y-100620362D02*
X149482530Y-100582266D01*
X149482530Y-100582266D02*
X149444435Y-100544171D01*
X149444435Y-100544171D02*
X149406340Y-100582266D01*
X149406340Y-100582266D02*
X149482530Y-100582266D01*
X150168245Y-99858457D02*
X150206340Y-99934648D01*
X150206340Y-99934648D02*
X150206340Y-100087029D01*
X150206340Y-100087029D02*
X150168245Y-100163219D01*
X150168245Y-100163219D02*
X150130149Y-100201314D01*
X150130149Y-100201314D02*
X150053959Y-100239410D01*
X150053959Y-100239410D02*
X149825387Y-100239410D01*
X149825387Y-100239410D02*
X149749197Y-100201314D01*
X149749197Y-100201314D02*
X149711102Y-100163219D01*
X149711102Y-100163219D02*
X149673006Y-100087029D01*
X149673006Y-100087029D02*
X149673006Y-99934648D01*
X149673006Y-99934648D02*
X149711102Y-99858457D01*
X150168245Y-98944172D02*
X150206340Y-98867981D01*
X150206340Y-98867981D02*
X150206340Y-98715600D01*
X150206340Y-98715600D02*
X150168245Y-98639410D01*
X150168245Y-98639410D02*
X150092054Y-98601314D01*
X150092054Y-98601314D02*
X150053959Y-98601314D01*
X150053959Y-98601314D02*
X149977768Y-98639410D01*
X149977768Y-98639410D02*
X149939673Y-98715600D01*
X149939673Y-98715600D02*
X149939673Y-98829886D01*
X149939673Y-98829886D02*
X149901578Y-98906076D01*
X149901578Y-98906076D02*
X149825387Y-98944172D01*
X149825387Y-98944172D02*
X149787292Y-98944172D01*
X149787292Y-98944172D02*
X149711102Y-98906076D01*
X149711102Y-98906076D02*
X149673006Y-98829886D01*
X149673006Y-98829886D02*
X149673006Y-98715600D01*
X149673006Y-98715600D02*
X149711102Y-98639410D01*
X150168245Y-97953695D02*
X150206340Y-98029886D01*
X150206340Y-98029886D02*
X150206340Y-98182267D01*
X150206340Y-98182267D02*
X150168245Y-98258457D01*
X150168245Y-98258457D02*
X150092054Y-98296553D01*
X150092054Y-98296553D02*
X149787292Y-98296553D01*
X149787292Y-98296553D02*
X149711102Y-98258457D01*
X149711102Y-98258457D02*
X149673006Y-98182267D01*
X149673006Y-98182267D02*
X149673006Y-98029886D01*
X149673006Y-98029886D02*
X149711102Y-97953695D01*
X149711102Y-97953695D02*
X149787292Y-97915600D01*
X149787292Y-97915600D02*
X149863483Y-97915600D01*
X149863483Y-97915600D02*
X149939673Y-98296553D01*
X149673006Y-97572743D02*
X150206340Y-97572743D01*
X149749197Y-97572743D02*
X149711102Y-97534648D01*
X149711102Y-97534648D02*
X149673006Y-97458458D01*
X149673006Y-97458458D02*
X149673006Y-97344172D01*
X149673006Y-97344172D02*
X149711102Y-97267981D01*
X149711102Y-97267981D02*
X149787292Y-97229886D01*
X149787292Y-97229886D02*
X150206340Y-97229886D01*
X150168245Y-96887029D02*
X150206340Y-96810838D01*
X150206340Y-96810838D02*
X150206340Y-96658457D01*
X150206340Y-96658457D02*
X150168245Y-96582267D01*
X150168245Y-96582267D02*
X150092054Y-96544171D01*
X150092054Y-96544171D02*
X150053959Y-96544171D01*
X150053959Y-96544171D02*
X149977768Y-96582267D01*
X149977768Y-96582267D02*
X149939673Y-96658457D01*
X149939673Y-96658457D02*
X149939673Y-96772743D01*
X149939673Y-96772743D02*
X149901578Y-96848933D01*
X149901578Y-96848933D02*
X149825387Y-96887029D01*
X149825387Y-96887029D02*
X149787292Y-96887029D01*
X149787292Y-96887029D02*
X149711102Y-96848933D01*
X149711102Y-96848933D02*
X149673006Y-96772743D01*
X149673006Y-96772743D02*
X149673006Y-96658457D01*
X149673006Y-96658457D02*
X149711102Y-96582267D01*
X150206340Y-96087029D02*
X150168245Y-96163219D01*
X150168245Y-96163219D02*
X150130149Y-96201314D01*
X150130149Y-96201314D02*
X150053959Y-96239410D01*
X150053959Y-96239410D02*
X149825387Y-96239410D01*
X149825387Y-96239410D02*
X149749197Y-96201314D01*
X149749197Y-96201314D02*
X149711102Y-96163219D01*
X149711102Y-96163219D02*
X149673006Y-96087029D01*
X149673006Y-96087029D02*
X149673006Y-95972743D01*
X149673006Y-95972743D02*
X149711102Y-95896552D01*
X149711102Y-95896552D02*
X149749197Y-95858457D01*
X149749197Y-95858457D02*
X149825387Y-95820362D01*
X149825387Y-95820362D02*
X150053959Y-95820362D01*
X150053959Y-95820362D02*
X150130149Y-95858457D01*
X150130149Y-95858457D02*
X150168245Y-95896552D01*
X150168245Y-95896552D02*
X150206340Y-95972743D01*
X150206340Y-95972743D02*
X150206340Y-96087029D01*
X150206340Y-95477504D02*
X149673006Y-95477504D01*
X149825387Y-95477504D02*
X149749197Y-95439409D01*
X149749197Y-95439409D02*
X149711102Y-95401314D01*
X149711102Y-95401314D02*
X149673006Y-95325123D01*
X149673006Y-95325123D02*
X149673006Y-95248933D01*
X150960961Y-104887030D02*
X151494295Y-104696554D01*
X151494295Y-104696554D02*
X150960961Y-104506077D01*
X150770485Y-104239411D02*
X150732390Y-104201315D01*
X150732390Y-104201315D02*
X150694295Y-104125125D01*
X150694295Y-104125125D02*
X150694295Y-103934649D01*
X150694295Y-103934649D02*
X150732390Y-103858458D01*
X150732390Y-103858458D02*
X150770485Y-103820363D01*
X150770485Y-103820363D02*
X150846676Y-103782268D01*
X150846676Y-103782268D02*
X150922866Y-103782268D01*
X150922866Y-103782268D02*
X151037152Y-103820363D01*
X151037152Y-103820363D02*
X151494295Y-104277506D01*
X151494295Y-104277506D02*
X151494295Y-103782268D01*
X150770485Y-102867982D02*
X150732390Y-102829886D01*
X150732390Y-102829886D02*
X150694295Y-102753696D01*
X150694295Y-102753696D02*
X150694295Y-102563220D01*
X150694295Y-102563220D02*
X150732390Y-102487029D01*
X150732390Y-102487029D02*
X150770485Y-102448934D01*
X150770485Y-102448934D02*
X150846676Y-102410839D01*
X150846676Y-102410839D02*
X150922866Y-102410839D01*
X150922866Y-102410839D02*
X151037152Y-102448934D01*
X151037152Y-102448934D02*
X151494295Y-102906077D01*
X151494295Y-102906077D02*
X151494295Y-102410839D01*
X150694295Y-101915600D02*
X150694295Y-101839410D01*
X150694295Y-101839410D02*
X150732390Y-101763219D01*
X150732390Y-101763219D02*
X150770485Y-101725124D01*
X150770485Y-101725124D02*
X150846676Y-101687029D01*
X150846676Y-101687029D02*
X150999057Y-101648934D01*
X150999057Y-101648934D02*
X151189533Y-101648934D01*
X151189533Y-101648934D02*
X151341914Y-101687029D01*
X151341914Y-101687029D02*
X151418104Y-101725124D01*
X151418104Y-101725124D02*
X151456200Y-101763219D01*
X151456200Y-101763219D02*
X151494295Y-101839410D01*
X151494295Y-101839410D02*
X151494295Y-101915600D01*
X151494295Y-101915600D02*
X151456200Y-101991791D01*
X151456200Y-101991791D02*
X151418104Y-102029886D01*
X151418104Y-102029886D02*
X151341914Y-102067981D01*
X151341914Y-102067981D02*
X151189533Y-102106077D01*
X151189533Y-102106077D02*
X150999057Y-102106077D01*
X150999057Y-102106077D02*
X150846676Y-102067981D01*
X150846676Y-102067981D02*
X150770485Y-102029886D01*
X150770485Y-102029886D02*
X150732390Y-101991791D01*
X150732390Y-101991791D02*
X150694295Y-101915600D01*
X150770485Y-101344172D02*
X150732390Y-101306076D01*
X150732390Y-101306076D02*
X150694295Y-101229886D01*
X150694295Y-101229886D02*
X150694295Y-101039410D01*
X150694295Y-101039410D02*
X150732390Y-100963219D01*
X150732390Y-100963219D02*
X150770485Y-100925124D01*
X150770485Y-100925124D02*
X150846676Y-100887029D01*
X150846676Y-100887029D02*
X150922866Y-100887029D01*
X150922866Y-100887029D02*
X151037152Y-100925124D01*
X151037152Y-100925124D02*
X151494295Y-101382267D01*
X151494295Y-101382267D02*
X151494295Y-100887029D01*
X150694295Y-100201314D02*
X150694295Y-100353695D01*
X150694295Y-100353695D02*
X150732390Y-100429886D01*
X150732390Y-100429886D02*
X150770485Y-100467981D01*
X150770485Y-100467981D02*
X150884771Y-100544171D01*
X150884771Y-100544171D02*
X151037152Y-100582267D01*
X151037152Y-100582267D02*
X151341914Y-100582267D01*
X151341914Y-100582267D02*
X151418104Y-100544171D01*
X151418104Y-100544171D02*
X151456200Y-100506076D01*
X151456200Y-100506076D02*
X151494295Y-100429886D01*
X151494295Y-100429886D02*
X151494295Y-100277505D01*
X151494295Y-100277505D02*
X151456200Y-100201314D01*
X151456200Y-100201314D02*
X151418104Y-100163219D01*
X151418104Y-100163219D02*
X151341914Y-100125124D01*
X151341914Y-100125124D02*
X151151438Y-100125124D01*
X151151438Y-100125124D02*
X151075247Y-100163219D01*
X151075247Y-100163219D02*
X151037152Y-100201314D01*
X151037152Y-100201314D02*
X150999057Y-100277505D01*
X150999057Y-100277505D02*
X150999057Y-100429886D01*
X150999057Y-100429886D02*
X151037152Y-100506076D01*
X151037152Y-100506076D02*
X151075247Y-100544171D01*
X151075247Y-100544171D02*
X151151438Y-100582267D01*
X151189533Y-99782266D02*
X151189533Y-99172743D01*
X150694295Y-98639409D02*
X150694295Y-98563219D01*
X150694295Y-98563219D02*
X150732390Y-98487028D01*
X150732390Y-98487028D02*
X150770485Y-98448933D01*
X150770485Y-98448933D02*
X150846676Y-98410838D01*
X150846676Y-98410838D02*
X150999057Y-98372743D01*
X150999057Y-98372743D02*
X151189533Y-98372743D01*
X151189533Y-98372743D02*
X151341914Y-98410838D01*
X151341914Y-98410838D02*
X151418104Y-98448933D01*
X151418104Y-98448933D02*
X151456200Y-98487028D01*
X151456200Y-98487028D02*
X151494295Y-98563219D01*
X151494295Y-98563219D02*
X151494295Y-98639409D01*
X151494295Y-98639409D02*
X151456200Y-98715600D01*
X151456200Y-98715600D02*
X151418104Y-98753695D01*
X151418104Y-98753695D02*
X151341914Y-98791790D01*
X151341914Y-98791790D02*
X151189533Y-98829886D01*
X151189533Y-98829886D02*
X150999057Y-98829886D01*
X150999057Y-98829886D02*
X150846676Y-98791790D01*
X150846676Y-98791790D02*
X150770485Y-98753695D01*
X150770485Y-98753695D02*
X150732390Y-98715600D01*
X150732390Y-98715600D02*
X150694295Y-98639409D01*
X150694295Y-97687028D02*
X150694295Y-97839409D01*
X150694295Y-97839409D02*
X150732390Y-97915600D01*
X150732390Y-97915600D02*
X150770485Y-97953695D01*
X150770485Y-97953695D02*
X150884771Y-98029885D01*
X150884771Y-98029885D02*
X151037152Y-98067981D01*
X151037152Y-98067981D02*
X151341914Y-98067981D01*
X151341914Y-98067981D02*
X151418104Y-98029885D01*
X151418104Y-98029885D02*
X151456200Y-97991790D01*
X151456200Y-97991790D02*
X151494295Y-97915600D01*
X151494295Y-97915600D02*
X151494295Y-97763219D01*
X151494295Y-97763219D02*
X151456200Y-97687028D01*
X151456200Y-97687028D02*
X151418104Y-97648933D01*
X151418104Y-97648933D02*
X151341914Y-97610838D01*
X151341914Y-97610838D02*
X151151438Y-97610838D01*
X151151438Y-97610838D02*
X151075247Y-97648933D01*
X151075247Y-97648933D02*
X151037152Y-97687028D01*
X151037152Y-97687028D02*
X150999057Y-97763219D01*
X150999057Y-97763219D02*
X150999057Y-97915600D01*
X150999057Y-97915600D02*
X151037152Y-97991790D01*
X151037152Y-97991790D02*
X151075247Y-98029885D01*
X151075247Y-98029885D02*
X151151438Y-98067981D01*
X151189533Y-97267980D02*
X151189533Y-96658457D01*
X151418104Y-96163219D02*
X151456200Y-96125123D01*
X151456200Y-96125123D02*
X151494295Y-96163219D01*
X151494295Y-96163219D02*
X151456200Y-96201314D01*
X151456200Y-96201314D02*
X151418104Y-96163219D01*
X151418104Y-96163219D02*
X151494295Y-96163219D01*
X150732390Y-96315600D02*
X150694295Y-96239409D01*
X150694295Y-96239409D02*
X150694295Y-96048933D01*
X150694295Y-96048933D02*
X150732390Y-95972742D01*
X150732390Y-95972742D02*
X150808580Y-95934647D01*
X150808580Y-95934647D02*
X150884771Y-95934647D01*
X150884771Y-95934647D02*
X150960961Y-95972742D01*
X150960961Y-95972742D02*
X150999057Y-96010838D01*
X150999057Y-96010838D02*
X151037152Y-96087028D01*
X151037152Y-96087028D02*
X151075247Y-96125123D01*
X151075247Y-96125123D02*
X151151438Y-96163219D01*
X151151438Y-96163219D02*
X151189533Y-96163219D01*
X151418104Y-95477505D02*
X151456200Y-95439409D01*
X151456200Y-95439409D02*
X151494295Y-95477505D01*
X151494295Y-95477505D02*
X151456200Y-95515600D01*
X151456200Y-95515600D02*
X151418104Y-95477505D01*
X151418104Y-95477505D02*
X151494295Y-95477505D01*
X150732390Y-95629886D02*
X150694295Y-95553695D01*
X150694295Y-95553695D02*
X150694295Y-95363219D01*
X150694295Y-95363219D02*
X150732390Y-95287028D01*
X150732390Y-95287028D02*
X150808580Y-95248933D01*
X150808580Y-95248933D02*
X150884771Y-95248933D01*
X150884771Y-95248933D02*
X150960961Y-95287028D01*
X150960961Y-95287028D02*
X150999057Y-95325124D01*
X150999057Y-95325124D02*
X151037152Y-95401314D01*
X151037152Y-95401314D02*
X151075247Y-95439409D01*
X151075247Y-95439409D02*
X151151438Y-95477505D01*
X151151438Y-95477505D02*
X151189533Y-95477505D01*
X154269819Y-102670958D02*
X153603152Y-102147149D01*
X153603152Y-102670958D02*
X154269819Y-102147149D01*
X155103152Y-105970958D02*
X155769819Y-105732863D01*
X155103152Y-105494768D02*
X155769819Y-105732863D01*
X155769819Y-105732863D02*
X156007914Y-105828101D01*
X156007914Y-105828101D02*
X156055533Y-105875720D01*
X156055533Y-105875720D02*
X156103152Y-105970958D01*
X89959580Y-103842857D02*
X90007200Y-103890476D01*
X90007200Y-103890476D02*
X90054819Y-104033333D01*
X90054819Y-104033333D02*
X90054819Y-104128571D01*
X90054819Y-104128571D02*
X90007200Y-104271428D01*
X90007200Y-104271428D02*
X89911961Y-104366666D01*
X89911961Y-104366666D02*
X89816723Y-104414285D01*
X89816723Y-104414285D02*
X89626247Y-104461904D01*
X89626247Y-104461904D02*
X89483390Y-104461904D01*
X89483390Y-104461904D02*
X89292914Y-104414285D01*
X89292914Y-104414285D02*
X89197676Y-104366666D01*
X89197676Y-104366666D02*
X89102438Y-104271428D01*
X89102438Y-104271428D02*
X89054819Y-104128571D01*
X89054819Y-104128571D02*
X89054819Y-104033333D01*
X89054819Y-104033333D02*
X89102438Y-103890476D01*
X89102438Y-103890476D02*
X89150057Y-103842857D01*
X89054819Y-102938095D02*
X89054819Y-103414285D01*
X89054819Y-103414285D02*
X89531009Y-103461904D01*
X89531009Y-103461904D02*
X89483390Y-103414285D01*
X89483390Y-103414285D02*
X89435771Y-103319047D01*
X89435771Y-103319047D02*
X89435771Y-103080952D01*
X89435771Y-103080952D02*
X89483390Y-102985714D01*
X89483390Y-102985714D02*
X89531009Y-102938095D01*
X89531009Y-102938095D02*
X89626247Y-102890476D01*
X89626247Y-102890476D02*
X89864342Y-102890476D01*
X89864342Y-102890476D02*
X89959580Y-102938095D01*
X89959580Y-102938095D02*
X90007200Y-102985714D01*
X90007200Y-102985714D02*
X90054819Y-103080952D01*
X90054819Y-103080952D02*
X90054819Y-103319047D01*
X90054819Y-103319047D02*
X90007200Y-103414285D01*
X90007200Y-103414285D02*
X89959580Y-103461904D01*
X89054819Y-102033333D02*
X89054819Y-102223809D01*
X89054819Y-102223809D02*
X89102438Y-102319047D01*
X89102438Y-102319047D02*
X89150057Y-102366666D01*
X89150057Y-102366666D02*
X89292914Y-102461904D01*
X89292914Y-102461904D02*
X89483390Y-102509523D01*
X89483390Y-102509523D02*
X89864342Y-102509523D01*
X89864342Y-102509523D02*
X89959580Y-102461904D01*
X89959580Y-102461904D02*
X90007200Y-102414285D01*
X90007200Y-102414285D02*
X90054819Y-102319047D01*
X90054819Y-102319047D02*
X90054819Y-102128571D01*
X90054819Y-102128571D02*
X90007200Y-102033333D01*
X90007200Y-102033333D02*
X89959580Y-101985714D01*
X89959580Y-101985714D02*
X89864342Y-101938095D01*
X89864342Y-101938095D02*
X89626247Y-101938095D01*
X89626247Y-101938095D02*
X89531009Y-101985714D01*
X89531009Y-101985714D02*
X89483390Y-102033333D01*
X89483390Y-102033333D02*
X89435771Y-102128571D01*
X89435771Y-102128571D02*
X89435771Y-102319047D01*
X89435771Y-102319047D02*
X89483390Y-102414285D01*
X89483390Y-102414285D02*
X89531009Y-102461904D01*
X89531009Y-102461904D02*
X89626247Y-102509523D01*
X91861905Y-77854819D02*
X91861905Y-76854819D01*
X91861905Y-76854819D02*
X92100000Y-76854819D01*
X92100000Y-76854819D02*
X92242857Y-76902438D01*
X92242857Y-76902438D02*
X92338095Y-76997676D01*
X92338095Y-76997676D02*
X92385714Y-77092914D01*
X92385714Y-77092914D02*
X92433333Y-77283390D01*
X92433333Y-77283390D02*
X92433333Y-77426247D01*
X92433333Y-77426247D02*
X92385714Y-77616723D01*
X92385714Y-77616723D02*
X92338095Y-77711961D01*
X92338095Y-77711961D02*
X92242857Y-77807200D01*
X92242857Y-77807200D02*
X92100000Y-77854819D01*
X92100000Y-77854819D02*
X91861905Y-77854819D01*
X93385714Y-77854819D02*
X92814286Y-77854819D01*
X93100000Y-77854819D02*
X93100000Y-76854819D01*
X93100000Y-76854819D02*
X93004762Y-76997676D01*
X93004762Y-76997676D02*
X92909524Y-77092914D01*
X92909524Y-77092914D02*
X92814286Y-77140533D01*
X120369642Y-96104819D02*
X120036309Y-95628628D01*
X119798214Y-96104819D02*
X119798214Y-95104819D01*
X119798214Y-95104819D02*
X120179166Y-95104819D01*
X120179166Y-95104819D02*
X120274404Y-95152438D01*
X120274404Y-95152438D02*
X120322023Y-95200057D01*
X120322023Y-95200057D02*
X120369642Y-95295295D01*
X120369642Y-95295295D02*
X120369642Y-95438152D01*
X120369642Y-95438152D02*
X120322023Y-95533390D01*
X120322023Y-95533390D02*
X120274404Y-95581009D01*
X120274404Y-95581009D02*
X120179166Y-95628628D01*
X120179166Y-95628628D02*
X119798214Y-95628628D01*
X121322023Y-96104819D02*
X120750595Y-96104819D01*
X121036309Y-96104819D02*
X121036309Y-95104819D01*
X121036309Y-95104819D02*
X120941071Y-95247676D01*
X120941071Y-95247676D02*
X120845833Y-95342914D01*
X120845833Y-95342914D02*
X120750595Y-95390533D01*
X122179166Y-95104819D02*
X121988690Y-95104819D01*
X121988690Y-95104819D02*
X121893452Y-95152438D01*
X121893452Y-95152438D02*
X121845833Y-95200057D01*
X121845833Y-95200057D02*
X121750595Y-95342914D01*
X121750595Y-95342914D02*
X121702976Y-95533390D01*
X121702976Y-95533390D02*
X121702976Y-95914342D01*
X121702976Y-95914342D02*
X121750595Y-96009580D01*
X121750595Y-96009580D02*
X121798214Y-96057200D01*
X121798214Y-96057200D02*
X121893452Y-96104819D01*
X121893452Y-96104819D02*
X122083928Y-96104819D01*
X122083928Y-96104819D02*
X122179166Y-96057200D01*
X122179166Y-96057200D02*
X122226785Y-96009580D01*
X122226785Y-96009580D02*
X122274404Y-95914342D01*
X122274404Y-95914342D02*
X122274404Y-95676247D01*
X122274404Y-95676247D02*
X122226785Y-95581009D01*
X122226785Y-95581009D02*
X122179166Y-95533390D01*
X122179166Y-95533390D02*
X122083928Y-95485771D01*
X122083928Y-95485771D02*
X121893452Y-95485771D01*
X121893452Y-95485771D02*
X121798214Y-95533390D01*
X121798214Y-95533390D02*
X121750595Y-95581009D01*
X121750595Y-95581009D02*
X121702976Y-95676247D01*
X117457142Y-124959580D02*
X117409523Y-125007200D01*
X117409523Y-125007200D02*
X117266666Y-125054819D01*
X117266666Y-125054819D02*
X117171428Y-125054819D01*
X117171428Y-125054819D02*
X117028571Y-125007200D01*
X117028571Y-125007200D02*
X116933333Y-124911961D01*
X116933333Y-124911961D02*
X116885714Y-124816723D01*
X116885714Y-124816723D02*
X116838095Y-124626247D01*
X116838095Y-124626247D02*
X116838095Y-124483390D01*
X116838095Y-124483390D02*
X116885714Y-124292914D01*
X116885714Y-124292914D02*
X116933333Y-124197676D01*
X116933333Y-124197676D02*
X117028571Y-124102438D01*
X117028571Y-124102438D02*
X117171428Y-124054819D01*
X117171428Y-124054819D02*
X117266666Y-124054819D01*
X117266666Y-124054819D02*
X117409523Y-124102438D01*
X117409523Y-124102438D02*
X117457142Y-124150057D01*
X117790476Y-124054819D02*
X118409523Y-124054819D01*
X118409523Y-124054819D02*
X118076190Y-124435771D01*
X118076190Y-124435771D02*
X118219047Y-124435771D01*
X118219047Y-124435771D02*
X118314285Y-124483390D01*
X118314285Y-124483390D02*
X118361904Y-124531009D01*
X118361904Y-124531009D02*
X118409523Y-124626247D01*
X118409523Y-124626247D02*
X118409523Y-124864342D01*
X118409523Y-124864342D02*
X118361904Y-124959580D01*
X118361904Y-124959580D02*
X118314285Y-125007200D01*
X118314285Y-125007200D02*
X118219047Y-125054819D01*
X118219047Y-125054819D02*
X117933333Y-125054819D01*
X117933333Y-125054819D02*
X117838095Y-125007200D01*
X117838095Y-125007200D02*
X117790476Y-124959580D01*
X118885714Y-125054819D02*
X119076190Y-125054819D01*
X119076190Y-125054819D02*
X119171428Y-125007200D01*
X119171428Y-125007200D02*
X119219047Y-124959580D01*
X119219047Y-124959580D02*
X119314285Y-124816723D01*
X119314285Y-124816723D02*
X119361904Y-124626247D01*
X119361904Y-124626247D02*
X119361904Y-124245295D01*
X119361904Y-124245295D02*
X119314285Y-124150057D01*
X119314285Y-124150057D02*
X119266666Y-124102438D01*
X119266666Y-124102438D02*
X119171428Y-124054819D01*
X119171428Y-124054819D02*
X118980952Y-124054819D01*
X118980952Y-124054819D02*
X118885714Y-124102438D01*
X118885714Y-124102438D02*
X118838095Y-124150057D01*
X118838095Y-124150057D02*
X118790476Y-124245295D01*
X118790476Y-124245295D02*
X118790476Y-124483390D01*
X118790476Y-124483390D02*
X118838095Y-124578628D01*
X118838095Y-124578628D02*
X118885714Y-124626247D01*
X118885714Y-124626247D02*
X118980952Y-124673866D01*
X118980952Y-124673866D02*
X119171428Y-124673866D01*
X119171428Y-124673866D02*
X119266666Y-124626247D01*
X119266666Y-124626247D02*
X119314285Y-124578628D01*
X119314285Y-124578628D02*
X119361904Y-124483390D01*
X82759580Y-96142857D02*
X82807200Y-96190476D01*
X82807200Y-96190476D02*
X82854819Y-96333333D01*
X82854819Y-96333333D02*
X82854819Y-96428571D01*
X82854819Y-96428571D02*
X82807200Y-96571428D01*
X82807200Y-96571428D02*
X82711961Y-96666666D01*
X82711961Y-96666666D02*
X82616723Y-96714285D01*
X82616723Y-96714285D02*
X82426247Y-96761904D01*
X82426247Y-96761904D02*
X82283390Y-96761904D01*
X82283390Y-96761904D02*
X82092914Y-96714285D01*
X82092914Y-96714285D02*
X81997676Y-96666666D01*
X81997676Y-96666666D02*
X81902438Y-96571428D01*
X81902438Y-96571428D02*
X81854819Y-96428571D01*
X81854819Y-96428571D02*
X81854819Y-96333333D01*
X81854819Y-96333333D02*
X81902438Y-96190476D01*
X81902438Y-96190476D02*
X81950057Y-96142857D01*
X81854819Y-95238095D02*
X81854819Y-95714285D01*
X81854819Y-95714285D02*
X82331009Y-95761904D01*
X82331009Y-95761904D02*
X82283390Y-95714285D01*
X82283390Y-95714285D02*
X82235771Y-95619047D01*
X82235771Y-95619047D02*
X82235771Y-95380952D01*
X82235771Y-95380952D02*
X82283390Y-95285714D01*
X82283390Y-95285714D02*
X82331009Y-95238095D01*
X82331009Y-95238095D02*
X82426247Y-95190476D01*
X82426247Y-95190476D02*
X82664342Y-95190476D01*
X82664342Y-95190476D02*
X82759580Y-95238095D01*
X82759580Y-95238095D02*
X82807200Y-95285714D01*
X82807200Y-95285714D02*
X82854819Y-95380952D01*
X82854819Y-95380952D02*
X82854819Y-95619047D01*
X82854819Y-95619047D02*
X82807200Y-95714285D01*
X82807200Y-95714285D02*
X82759580Y-95761904D01*
X82854819Y-94238095D02*
X82854819Y-94809523D01*
X82854819Y-94523809D02*
X81854819Y-94523809D01*
X81854819Y-94523809D02*
X81997676Y-94619047D01*
X81997676Y-94619047D02*
X82092914Y-94714285D01*
X82092914Y-94714285D02*
X82140533Y-94809523D01*
D12*
X100085714Y-110463855D02*
X99819047Y-110082902D01*
X99628571Y-110463855D02*
X99628571Y-109663855D01*
X99628571Y-109663855D02*
X99933333Y-109663855D01*
X99933333Y-109663855D02*
X100009523Y-109701950D01*
X100009523Y-109701950D02*
X100047618Y-109740045D01*
X100047618Y-109740045D02*
X100085714Y-109816236D01*
X100085714Y-109816236D02*
X100085714Y-109930521D01*
X100085714Y-109930521D02*
X100047618Y-110006712D01*
X100047618Y-110006712D02*
X100009523Y-110044807D01*
X100009523Y-110044807D02*
X99933333Y-110082902D01*
X99933333Y-110082902D02*
X99628571Y-110082902D01*
X100847618Y-110463855D02*
X100390475Y-110463855D01*
X100619047Y-110463855D02*
X100619047Y-109663855D01*
X100619047Y-109663855D02*
X100542856Y-109778140D01*
X100542856Y-109778140D02*
X100466666Y-109854331D01*
X100466666Y-109854331D02*
X100390475Y-109892426D01*
X101609523Y-110463855D02*
X101152380Y-110463855D01*
X101380952Y-110463855D02*
X101380952Y-109663855D01*
X101380952Y-109663855D02*
X101304761Y-109778140D01*
X101304761Y-109778140D02*
X101228571Y-109854331D01*
X101228571Y-109854331D02*
X101152380Y-109892426D01*
D11*
X92857142Y-79454819D02*
X92523809Y-78978628D01*
X92285714Y-79454819D02*
X92285714Y-78454819D01*
X92285714Y-78454819D02*
X92666666Y-78454819D01*
X92666666Y-78454819D02*
X92761904Y-78502438D01*
X92761904Y-78502438D02*
X92809523Y-78550057D01*
X92809523Y-78550057D02*
X92857142Y-78645295D01*
X92857142Y-78645295D02*
X92857142Y-78788152D01*
X92857142Y-78788152D02*
X92809523Y-78883390D01*
X92809523Y-78883390D02*
X92761904Y-78931009D01*
X92761904Y-78931009D02*
X92666666Y-78978628D01*
X92666666Y-78978628D02*
X92285714Y-78978628D01*
X93809523Y-79454819D02*
X93238095Y-79454819D01*
X93523809Y-79454819D02*
X93523809Y-78454819D01*
X93523809Y-78454819D02*
X93428571Y-78597676D01*
X93428571Y-78597676D02*
X93333333Y-78692914D01*
X93333333Y-78692914D02*
X93238095Y-78740533D01*
X94142857Y-78454819D02*
X94809523Y-78454819D01*
X94809523Y-78454819D02*
X94380952Y-79454819D01*
X93544642Y-123404819D02*
X93211309Y-122928628D01*
X92973214Y-123404819D02*
X92973214Y-122404819D01*
X92973214Y-122404819D02*
X93354166Y-122404819D01*
X93354166Y-122404819D02*
X93449404Y-122452438D01*
X93449404Y-122452438D02*
X93497023Y-122500057D01*
X93497023Y-122500057D02*
X93544642Y-122595295D01*
X93544642Y-122595295D02*
X93544642Y-122738152D01*
X93544642Y-122738152D02*
X93497023Y-122833390D01*
X93497023Y-122833390D02*
X93449404Y-122881009D01*
X93449404Y-122881009D02*
X93354166Y-122928628D01*
X93354166Y-122928628D02*
X92973214Y-122928628D01*
X94497023Y-123404819D02*
X93925595Y-123404819D01*
X94211309Y-123404819D02*
X94211309Y-122404819D01*
X94211309Y-122404819D02*
X94116071Y-122547676D01*
X94116071Y-122547676D02*
X94020833Y-122642914D01*
X94020833Y-122642914D02*
X93925595Y-122690533D01*
X94877976Y-122500057D02*
X94925595Y-122452438D01*
X94925595Y-122452438D02*
X95020833Y-122404819D01*
X95020833Y-122404819D02*
X95258928Y-122404819D01*
X95258928Y-122404819D02*
X95354166Y-122452438D01*
X95354166Y-122452438D02*
X95401785Y-122500057D01*
X95401785Y-122500057D02*
X95449404Y-122595295D01*
X95449404Y-122595295D02*
X95449404Y-122690533D01*
X95449404Y-122690533D02*
X95401785Y-122833390D01*
X95401785Y-122833390D02*
X94830357Y-123404819D01*
X94830357Y-123404819D02*
X95449404Y-123404819D01*
X119857142Y-80654819D02*
X119523809Y-80178628D01*
X119285714Y-80654819D02*
X119285714Y-79654819D01*
X119285714Y-79654819D02*
X119666666Y-79654819D01*
X119666666Y-79654819D02*
X119761904Y-79702438D01*
X119761904Y-79702438D02*
X119809523Y-79750057D01*
X119809523Y-79750057D02*
X119857142Y-79845295D01*
X119857142Y-79845295D02*
X119857142Y-79988152D01*
X119857142Y-79988152D02*
X119809523Y-80083390D01*
X119809523Y-80083390D02*
X119761904Y-80131009D01*
X119761904Y-80131009D02*
X119666666Y-80178628D01*
X119666666Y-80178628D02*
X119285714Y-80178628D01*
X120238095Y-79750057D02*
X120285714Y-79702438D01*
X120285714Y-79702438D02*
X120380952Y-79654819D01*
X120380952Y-79654819D02*
X120619047Y-79654819D01*
X120619047Y-79654819D02*
X120714285Y-79702438D01*
X120714285Y-79702438D02*
X120761904Y-79750057D01*
X120761904Y-79750057D02*
X120809523Y-79845295D01*
X120809523Y-79845295D02*
X120809523Y-79940533D01*
X120809523Y-79940533D02*
X120761904Y-80083390D01*
X120761904Y-80083390D02*
X120190476Y-80654819D01*
X120190476Y-80654819D02*
X120809523Y-80654819D01*
X121190476Y-79750057D02*
X121238095Y-79702438D01*
X121238095Y-79702438D02*
X121333333Y-79654819D01*
X121333333Y-79654819D02*
X121571428Y-79654819D01*
X121571428Y-79654819D02*
X121666666Y-79702438D01*
X121666666Y-79702438D02*
X121714285Y-79750057D01*
X121714285Y-79750057D02*
X121761904Y-79845295D01*
X121761904Y-79845295D02*
X121761904Y-79940533D01*
X121761904Y-79940533D02*
X121714285Y-80083390D01*
X121714285Y-80083390D02*
X121142857Y-80654819D01*
X121142857Y-80654819D02*
X121761904Y-80654819D01*
X109459580Y-69166666D02*
X109507200Y-69214285D01*
X109507200Y-69214285D02*
X109554819Y-69357142D01*
X109554819Y-69357142D02*
X109554819Y-69452380D01*
X109554819Y-69452380D02*
X109507200Y-69595237D01*
X109507200Y-69595237D02*
X109411961Y-69690475D01*
X109411961Y-69690475D02*
X109316723Y-69738094D01*
X109316723Y-69738094D02*
X109126247Y-69785713D01*
X109126247Y-69785713D02*
X108983390Y-69785713D01*
X108983390Y-69785713D02*
X108792914Y-69738094D01*
X108792914Y-69738094D02*
X108697676Y-69690475D01*
X108697676Y-69690475D02*
X108602438Y-69595237D01*
X108602438Y-69595237D02*
X108554819Y-69452380D01*
X108554819Y-69452380D02*
X108554819Y-69357142D01*
X108554819Y-69357142D02*
X108602438Y-69214285D01*
X108602438Y-69214285D02*
X108650057Y-69166666D01*
X108554819Y-68309523D02*
X108554819Y-68499999D01*
X108554819Y-68499999D02*
X108602438Y-68595237D01*
X108602438Y-68595237D02*
X108650057Y-68642856D01*
X108650057Y-68642856D02*
X108792914Y-68738094D01*
X108792914Y-68738094D02*
X108983390Y-68785713D01*
X108983390Y-68785713D02*
X109364342Y-68785713D01*
X109364342Y-68785713D02*
X109459580Y-68738094D01*
X109459580Y-68738094D02*
X109507200Y-68690475D01*
X109507200Y-68690475D02*
X109554819Y-68595237D01*
X109554819Y-68595237D02*
X109554819Y-68404761D01*
X109554819Y-68404761D02*
X109507200Y-68309523D01*
X109507200Y-68309523D02*
X109459580Y-68261904D01*
X109459580Y-68261904D02*
X109364342Y-68214285D01*
X109364342Y-68214285D02*
X109126247Y-68214285D01*
X109126247Y-68214285D02*
X109031009Y-68261904D01*
X109031009Y-68261904D02*
X108983390Y-68309523D01*
X108983390Y-68309523D02*
X108935771Y-68404761D01*
X108935771Y-68404761D02*
X108935771Y-68595237D01*
X108935771Y-68595237D02*
X108983390Y-68690475D01*
X108983390Y-68690475D02*
X109031009Y-68738094D01*
X109031009Y-68738094D02*
X109126247Y-68785713D01*
X93208333Y-72729580D02*
X93160714Y-72777200D01*
X93160714Y-72777200D02*
X93017857Y-72824819D01*
X93017857Y-72824819D02*
X92922619Y-72824819D01*
X92922619Y-72824819D02*
X92779762Y-72777200D01*
X92779762Y-72777200D02*
X92684524Y-72681961D01*
X92684524Y-72681961D02*
X92636905Y-72586723D01*
X92636905Y-72586723D02*
X92589286Y-72396247D01*
X92589286Y-72396247D02*
X92589286Y-72253390D01*
X92589286Y-72253390D02*
X92636905Y-72062914D01*
X92636905Y-72062914D02*
X92684524Y-71967676D01*
X92684524Y-71967676D02*
X92779762Y-71872438D01*
X92779762Y-71872438D02*
X92922619Y-71824819D01*
X92922619Y-71824819D02*
X93017857Y-71824819D01*
X93017857Y-71824819D02*
X93160714Y-71872438D01*
X93160714Y-71872438D02*
X93208333Y-71920057D01*
X94113095Y-71824819D02*
X93636905Y-71824819D01*
X93636905Y-71824819D02*
X93589286Y-72301009D01*
X93589286Y-72301009D02*
X93636905Y-72253390D01*
X93636905Y-72253390D02*
X93732143Y-72205771D01*
X93732143Y-72205771D02*
X93970238Y-72205771D01*
X93970238Y-72205771D02*
X94065476Y-72253390D01*
X94065476Y-72253390D02*
X94113095Y-72301009D01*
X94113095Y-72301009D02*
X94160714Y-72396247D01*
X94160714Y-72396247D02*
X94160714Y-72634342D01*
X94160714Y-72634342D02*
X94113095Y-72729580D01*
X94113095Y-72729580D02*
X94065476Y-72777200D01*
X94065476Y-72777200D02*
X93970238Y-72824819D01*
X93970238Y-72824819D02*
X93732143Y-72824819D01*
X93732143Y-72824819D02*
X93636905Y-72777200D01*
X93636905Y-72777200D02*
X93589286Y-72729580D01*
X122054819Y-119666666D02*
X121578628Y-119999999D01*
X122054819Y-120238094D02*
X121054819Y-120238094D01*
X121054819Y-120238094D02*
X121054819Y-119857142D01*
X121054819Y-119857142D02*
X121102438Y-119761904D01*
X121102438Y-119761904D02*
X121150057Y-119714285D01*
X121150057Y-119714285D02*
X121245295Y-119666666D01*
X121245295Y-119666666D02*
X121388152Y-119666666D01*
X121388152Y-119666666D02*
X121483390Y-119714285D01*
X121483390Y-119714285D02*
X121531009Y-119761904D01*
X121531009Y-119761904D02*
X121578628Y-119857142D01*
X121578628Y-119857142D02*
X121578628Y-120238094D01*
X121483390Y-119095237D02*
X121435771Y-119190475D01*
X121435771Y-119190475D02*
X121388152Y-119238094D01*
X121388152Y-119238094D02*
X121292914Y-119285713D01*
X121292914Y-119285713D02*
X121245295Y-119285713D01*
X121245295Y-119285713D02*
X121150057Y-119238094D01*
X121150057Y-119238094D02*
X121102438Y-119190475D01*
X121102438Y-119190475D02*
X121054819Y-119095237D01*
X121054819Y-119095237D02*
X121054819Y-118904761D01*
X121054819Y-118904761D02*
X121102438Y-118809523D01*
X121102438Y-118809523D02*
X121150057Y-118761904D01*
X121150057Y-118761904D02*
X121245295Y-118714285D01*
X121245295Y-118714285D02*
X121292914Y-118714285D01*
X121292914Y-118714285D02*
X121388152Y-118761904D01*
X121388152Y-118761904D02*
X121435771Y-118809523D01*
X121435771Y-118809523D02*
X121483390Y-118904761D01*
X121483390Y-118904761D02*
X121483390Y-119095237D01*
X121483390Y-119095237D02*
X121531009Y-119190475D01*
X121531009Y-119190475D02*
X121578628Y-119238094D01*
X121578628Y-119238094D02*
X121673866Y-119285713D01*
X121673866Y-119285713D02*
X121864342Y-119285713D01*
X121864342Y-119285713D02*
X121959580Y-119238094D01*
X121959580Y-119238094D02*
X122007200Y-119190475D01*
X122007200Y-119190475D02*
X122054819Y-119095237D01*
X122054819Y-119095237D02*
X122054819Y-118904761D01*
X122054819Y-118904761D02*
X122007200Y-118809523D01*
X122007200Y-118809523D02*
X121959580Y-118761904D01*
X121959580Y-118761904D02*
X121864342Y-118714285D01*
X121864342Y-118714285D02*
X121673866Y-118714285D01*
X121673866Y-118714285D02*
X121578628Y-118761904D01*
X121578628Y-118761904D02*
X121531009Y-118809523D01*
X121531009Y-118809523D02*
X121483390Y-118904761D01*
X119659580Y-113042857D02*
X119707200Y-113090476D01*
X119707200Y-113090476D02*
X119754819Y-113233333D01*
X119754819Y-113233333D02*
X119754819Y-113328571D01*
X119754819Y-113328571D02*
X119707200Y-113471428D01*
X119707200Y-113471428D02*
X119611961Y-113566666D01*
X119611961Y-113566666D02*
X119516723Y-113614285D01*
X119516723Y-113614285D02*
X119326247Y-113661904D01*
X119326247Y-113661904D02*
X119183390Y-113661904D01*
X119183390Y-113661904D02*
X118992914Y-113614285D01*
X118992914Y-113614285D02*
X118897676Y-113566666D01*
X118897676Y-113566666D02*
X118802438Y-113471428D01*
X118802438Y-113471428D02*
X118754819Y-113328571D01*
X118754819Y-113328571D02*
X118754819Y-113233333D01*
X118754819Y-113233333D02*
X118802438Y-113090476D01*
X118802438Y-113090476D02*
X118850057Y-113042857D01*
X119088152Y-112185714D02*
X119754819Y-112185714D01*
X118707200Y-112423809D02*
X119421485Y-112661904D01*
X119421485Y-112661904D02*
X119421485Y-112042857D01*
X118754819Y-111471428D02*
X118754819Y-111376190D01*
X118754819Y-111376190D02*
X118802438Y-111280952D01*
X118802438Y-111280952D02*
X118850057Y-111233333D01*
X118850057Y-111233333D02*
X118945295Y-111185714D01*
X118945295Y-111185714D02*
X119135771Y-111138095D01*
X119135771Y-111138095D02*
X119373866Y-111138095D01*
X119373866Y-111138095D02*
X119564342Y-111185714D01*
X119564342Y-111185714D02*
X119659580Y-111233333D01*
X119659580Y-111233333D02*
X119707200Y-111280952D01*
X119707200Y-111280952D02*
X119754819Y-111376190D01*
X119754819Y-111376190D02*
X119754819Y-111471428D01*
X119754819Y-111471428D02*
X119707200Y-111566666D01*
X119707200Y-111566666D02*
X119659580Y-111614285D01*
X119659580Y-111614285D02*
X119564342Y-111661904D01*
X119564342Y-111661904D02*
X119373866Y-111709523D01*
X119373866Y-111709523D02*
X119135771Y-111709523D01*
X119135771Y-111709523D02*
X118945295Y-111661904D01*
X118945295Y-111661904D02*
X118850057Y-111614285D01*
X118850057Y-111614285D02*
X118802438Y-111566666D01*
X118802438Y-111566666D02*
X118754819Y-111471428D01*
D12*
X113647619Y-111863855D02*
X113380952Y-111482902D01*
X113190476Y-111863855D02*
X113190476Y-111063855D01*
X113190476Y-111063855D02*
X113495238Y-111063855D01*
X113495238Y-111063855D02*
X113571428Y-111101950D01*
X113571428Y-111101950D02*
X113609523Y-111140045D01*
X113609523Y-111140045D02*
X113647619Y-111216236D01*
X113647619Y-111216236D02*
X113647619Y-111330521D01*
X113647619Y-111330521D02*
X113609523Y-111406712D01*
X113609523Y-111406712D02*
X113571428Y-111444807D01*
X113571428Y-111444807D02*
X113495238Y-111482902D01*
X113495238Y-111482902D02*
X113190476Y-111482902D01*
X113990476Y-111863855D02*
X113990476Y-111063855D01*
X113990476Y-111063855D02*
X114447619Y-111863855D01*
X114447619Y-111863855D02*
X114447619Y-111063855D01*
X114866666Y-111863855D02*
X115019047Y-111863855D01*
X115019047Y-111863855D02*
X115095237Y-111825760D01*
X115095237Y-111825760D02*
X115133333Y-111787664D01*
X115133333Y-111787664D02*
X115209523Y-111673379D01*
X115209523Y-111673379D02*
X115247618Y-111520998D01*
X115247618Y-111520998D02*
X115247618Y-111216236D01*
X115247618Y-111216236D02*
X115209523Y-111140045D01*
X115209523Y-111140045D02*
X115171428Y-111101950D01*
X115171428Y-111101950D02*
X115095237Y-111063855D01*
X115095237Y-111063855D02*
X114942856Y-111063855D01*
X114942856Y-111063855D02*
X114866666Y-111101950D01*
X114866666Y-111101950D02*
X114828571Y-111140045D01*
X114828571Y-111140045D02*
X114790475Y-111216236D01*
X114790475Y-111216236D02*
X114790475Y-111406712D01*
X114790475Y-111406712D02*
X114828571Y-111482902D01*
X114828571Y-111482902D02*
X114866666Y-111520998D01*
X114866666Y-111520998D02*
X114942856Y-111559093D01*
X114942856Y-111559093D02*
X115095237Y-111559093D01*
X115095237Y-111559093D02*
X115171428Y-111520998D01*
X115171428Y-111520998D02*
X115209523Y-111482902D01*
X115209523Y-111482902D02*
X115247618Y-111406712D01*
D11*
X119857142Y-79054819D02*
X119523809Y-78578628D01*
X119285714Y-79054819D02*
X119285714Y-78054819D01*
X119285714Y-78054819D02*
X119666666Y-78054819D01*
X119666666Y-78054819D02*
X119761904Y-78102438D01*
X119761904Y-78102438D02*
X119809523Y-78150057D01*
X119809523Y-78150057D02*
X119857142Y-78245295D01*
X119857142Y-78245295D02*
X119857142Y-78388152D01*
X119857142Y-78388152D02*
X119809523Y-78483390D01*
X119809523Y-78483390D02*
X119761904Y-78531009D01*
X119761904Y-78531009D02*
X119666666Y-78578628D01*
X119666666Y-78578628D02*
X119285714Y-78578628D01*
X120238095Y-78150057D02*
X120285714Y-78102438D01*
X120285714Y-78102438D02*
X120380952Y-78054819D01*
X120380952Y-78054819D02*
X120619047Y-78054819D01*
X120619047Y-78054819D02*
X120714285Y-78102438D01*
X120714285Y-78102438D02*
X120761904Y-78150057D01*
X120761904Y-78150057D02*
X120809523Y-78245295D01*
X120809523Y-78245295D02*
X120809523Y-78340533D01*
X120809523Y-78340533D02*
X120761904Y-78483390D01*
X120761904Y-78483390D02*
X120190476Y-79054819D01*
X120190476Y-79054819D02*
X120809523Y-79054819D01*
X121142857Y-78054819D02*
X121761904Y-78054819D01*
X121761904Y-78054819D02*
X121428571Y-78435771D01*
X121428571Y-78435771D02*
X121571428Y-78435771D01*
X121571428Y-78435771D02*
X121666666Y-78483390D01*
X121666666Y-78483390D02*
X121714285Y-78531009D01*
X121714285Y-78531009D02*
X121761904Y-78626247D01*
X121761904Y-78626247D02*
X121761904Y-78864342D01*
X121761904Y-78864342D02*
X121714285Y-78959580D01*
X121714285Y-78959580D02*
X121666666Y-79007200D01*
X121666666Y-79007200D02*
X121571428Y-79054819D01*
X121571428Y-79054819D02*
X121285714Y-79054819D01*
X121285714Y-79054819D02*
X121190476Y-79007200D01*
X121190476Y-79007200D02*
X121142857Y-78959580D01*
X108999999Y-88745180D02*
X108999999Y-88507085D01*
X109238094Y-88602323D02*
X108999999Y-88507085D01*
X108999999Y-88507085D02*
X108761904Y-88602323D01*
X109142856Y-88316609D02*
X108999999Y-88507085D01*
X108999999Y-88507085D02*
X108857142Y-88316609D01*
X102504761Y-69450057D02*
X102409523Y-69402438D01*
X102409523Y-69402438D02*
X102314285Y-69307200D01*
X102314285Y-69307200D02*
X102171428Y-69164342D01*
X102171428Y-69164342D02*
X102076190Y-69116723D01*
X102076190Y-69116723D02*
X101980952Y-69116723D01*
X102028571Y-69354819D02*
X101933333Y-69307200D01*
X101933333Y-69307200D02*
X101838095Y-69211961D01*
X101838095Y-69211961D02*
X101790476Y-69021485D01*
X101790476Y-69021485D02*
X101790476Y-68688152D01*
X101790476Y-68688152D02*
X101838095Y-68497676D01*
X101838095Y-68497676D02*
X101933333Y-68402438D01*
X101933333Y-68402438D02*
X102028571Y-68354819D01*
X102028571Y-68354819D02*
X102219047Y-68354819D01*
X102219047Y-68354819D02*
X102314285Y-68402438D01*
X102314285Y-68402438D02*
X102409523Y-68497676D01*
X102409523Y-68497676D02*
X102457142Y-68688152D01*
X102457142Y-68688152D02*
X102457142Y-69021485D01*
X102457142Y-69021485D02*
X102409523Y-69211961D01*
X102409523Y-69211961D02*
X102314285Y-69307200D01*
X102314285Y-69307200D02*
X102219047Y-69354819D01*
X102219047Y-69354819D02*
X102028571Y-69354819D01*
X102838095Y-68450057D02*
X102885714Y-68402438D01*
X102885714Y-68402438D02*
X102980952Y-68354819D01*
X102980952Y-68354819D02*
X103219047Y-68354819D01*
X103219047Y-68354819D02*
X103314285Y-68402438D01*
X103314285Y-68402438D02*
X103361904Y-68450057D01*
X103361904Y-68450057D02*
X103409523Y-68545295D01*
X103409523Y-68545295D02*
X103409523Y-68640533D01*
X103409523Y-68640533D02*
X103361904Y-68783390D01*
X103361904Y-68783390D02*
X102790476Y-69354819D01*
X102790476Y-69354819D02*
X103409523Y-69354819D01*
X97957142Y-125059580D02*
X97909523Y-125107200D01*
X97909523Y-125107200D02*
X97766666Y-125154819D01*
X97766666Y-125154819D02*
X97671428Y-125154819D01*
X97671428Y-125154819D02*
X97528571Y-125107200D01*
X97528571Y-125107200D02*
X97433333Y-125011961D01*
X97433333Y-125011961D02*
X97385714Y-124916723D01*
X97385714Y-124916723D02*
X97338095Y-124726247D01*
X97338095Y-124726247D02*
X97338095Y-124583390D01*
X97338095Y-124583390D02*
X97385714Y-124392914D01*
X97385714Y-124392914D02*
X97433333Y-124297676D01*
X97433333Y-124297676D02*
X97528571Y-124202438D01*
X97528571Y-124202438D02*
X97671428Y-124154819D01*
X97671428Y-124154819D02*
X97766666Y-124154819D01*
X97766666Y-124154819D02*
X97909523Y-124202438D01*
X97909523Y-124202438D02*
X97957142Y-124250057D01*
X98909523Y-125154819D02*
X98338095Y-125154819D01*
X98623809Y-125154819D02*
X98623809Y-124154819D01*
X98623809Y-124154819D02*
X98528571Y-124297676D01*
X98528571Y-124297676D02*
X98433333Y-124392914D01*
X98433333Y-124392914D02*
X98338095Y-124440533D01*
X99861904Y-125154819D02*
X99290476Y-125154819D01*
X99576190Y-125154819D02*
X99576190Y-124154819D01*
X99576190Y-124154819D02*
X99480952Y-124297676D01*
X99480952Y-124297676D02*
X99385714Y-124392914D01*
X99385714Y-124392914D02*
X99290476Y-124440533D01*
X82732142Y-116059580D02*
X82684523Y-116107200D01*
X82684523Y-116107200D02*
X82541666Y-116154819D01*
X82541666Y-116154819D02*
X82446428Y-116154819D01*
X82446428Y-116154819D02*
X82303571Y-116107200D01*
X82303571Y-116107200D02*
X82208333Y-116011961D01*
X82208333Y-116011961D02*
X82160714Y-115916723D01*
X82160714Y-115916723D02*
X82113095Y-115726247D01*
X82113095Y-115726247D02*
X82113095Y-115583390D01*
X82113095Y-115583390D02*
X82160714Y-115392914D01*
X82160714Y-115392914D02*
X82208333Y-115297676D01*
X82208333Y-115297676D02*
X82303571Y-115202438D01*
X82303571Y-115202438D02*
X82446428Y-115154819D01*
X82446428Y-115154819D02*
X82541666Y-115154819D01*
X82541666Y-115154819D02*
X82684523Y-115202438D01*
X82684523Y-115202438D02*
X82732142Y-115250057D01*
X83589285Y-115488152D02*
X83589285Y-116154819D01*
X83351190Y-115107200D02*
X83113095Y-115821485D01*
X83113095Y-115821485D02*
X83732142Y-115821485D01*
X84017857Y-115154819D02*
X84684523Y-115154819D01*
X84684523Y-115154819D02*
X84255952Y-116154819D01*
X119157142Y-90209580D02*
X119109523Y-90257200D01*
X119109523Y-90257200D02*
X118966666Y-90304819D01*
X118966666Y-90304819D02*
X118871428Y-90304819D01*
X118871428Y-90304819D02*
X118728571Y-90257200D01*
X118728571Y-90257200D02*
X118633333Y-90161961D01*
X118633333Y-90161961D02*
X118585714Y-90066723D01*
X118585714Y-90066723D02*
X118538095Y-89876247D01*
X118538095Y-89876247D02*
X118538095Y-89733390D01*
X118538095Y-89733390D02*
X118585714Y-89542914D01*
X118585714Y-89542914D02*
X118633333Y-89447676D01*
X118633333Y-89447676D02*
X118728571Y-89352438D01*
X118728571Y-89352438D02*
X118871428Y-89304819D01*
X118871428Y-89304819D02*
X118966666Y-89304819D01*
X118966666Y-89304819D02*
X119109523Y-89352438D01*
X119109523Y-89352438D02*
X119157142Y-89400057D01*
X119538095Y-89400057D02*
X119585714Y-89352438D01*
X119585714Y-89352438D02*
X119680952Y-89304819D01*
X119680952Y-89304819D02*
X119919047Y-89304819D01*
X119919047Y-89304819D02*
X120014285Y-89352438D01*
X120014285Y-89352438D02*
X120061904Y-89400057D01*
X120061904Y-89400057D02*
X120109523Y-89495295D01*
X120109523Y-89495295D02*
X120109523Y-89590533D01*
X120109523Y-89590533D02*
X120061904Y-89733390D01*
X120061904Y-89733390D02*
X119490476Y-90304819D01*
X119490476Y-90304819D02*
X120109523Y-90304819D01*
X120585714Y-90304819D02*
X120776190Y-90304819D01*
X120776190Y-90304819D02*
X120871428Y-90257200D01*
X120871428Y-90257200D02*
X120919047Y-90209580D01*
X120919047Y-90209580D02*
X121014285Y-90066723D01*
X121014285Y-90066723D02*
X121061904Y-89876247D01*
X121061904Y-89876247D02*
X121061904Y-89495295D01*
X121061904Y-89495295D02*
X121014285Y-89400057D01*
X121014285Y-89400057D02*
X120966666Y-89352438D01*
X120966666Y-89352438D02*
X120871428Y-89304819D01*
X120871428Y-89304819D02*
X120680952Y-89304819D01*
X120680952Y-89304819D02*
X120585714Y-89352438D01*
X120585714Y-89352438D02*
X120538095Y-89400057D01*
X120538095Y-89400057D02*
X120490476Y-89495295D01*
X120490476Y-89495295D02*
X120490476Y-89733390D01*
X120490476Y-89733390D02*
X120538095Y-89828628D01*
X120538095Y-89828628D02*
X120585714Y-89876247D01*
X120585714Y-89876247D02*
X120680952Y-89923866D01*
X120680952Y-89923866D02*
X120871428Y-89923866D01*
X120871428Y-89923866D02*
X120966666Y-89876247D01*
X120966666Y-89876247D02*
X121014285Y-89828628D01*
X121014285Y-89828628D02*
X121061904Y-89733390D01*
X88961905Y-77854819D02*
X88961905Y-78664342D01*
X88961905Y-78664342D02*
X89009524Y-78759580D01*
X89009524Y-78759580D02*
X89057143Y-78807200D01*
X89057143Y-78807200D02*
X89152381Y-78854819D01*
X89152381Y-78854819D02*
X89342857Y-78854819D01*
X89342857Y-78854819D02*
X89438095Y-78807200D01*
X89438095Y-78807200D02*
X89485714Y-78759580D01*
X89485714Y-78759580D02*
X89533333Y-78664342D01*
X89533333Y-78664342D02*
X89533333Y-77854819D01*
X90533333Y-78854819D02*
X89961905Y-78854819D01*
X90247619Y-78854819D02*
X90247619Y-77854819D01*
X90247619Y-77854819D02*
X90152381Y-77997676D01*
X90152381Y-77997676D02*
X90057143Y-78092914D01*
X90057143Y-78092914D02*
X89961905Y-78140533D01*
X91152381Y-77854819D02*
X91247619Y-77854819D01*
X91247619Y-77854819D02*
X91342857Y-77902438D01*
X91342857Y-77902438D02*
X91390476Y-77950057D01*
X91390476Y-77950057D02*
X91438095Y-78045295D01*
X91438095Y-78045295D02*
X91485714Y-78235771D01*
X91485714Y-78235771D02*
X91485714Y-78473866D01*
X91485714Y-78473866D02*
X91438095Y-78664342D01*
X91438095Y-78664342D02*
X91390476Y-78759580D01*
X91390476Y-78759580D02*
X91342857Y-78807200D01*
X91342857Y-78807200D02*
X91247619Y-78854819D01*
X91247619Y-78854819D02*
X91152381Y-78854819D01*
X91152381Y-78854819D02*
X91057143Y-78807200D01*
X91057143Y-78807200D02*
X91009524Y-78759580D01*
X91009524Y-78759580D02*
X90961905Y-78664342D01*
X90961905Y-78664342D02*
X90914286Y-78473866D01*
X90914286Y-78473866D02*
X90914286Y-78235771D01*
X90914286Y-78235771D02*
X90961905Y-78045295D01*
X90961905Y-78045295D02*
X91009524Y-77950057D01*
X91009524Y-77950057D02*
X91057143Y-77902438D01*
X91057143Y-77902438D02*
X91152381Y-77854819D01*
X107157142Y-114759580D02*
X107109523Y-114807200D01*
X107109523Y-114807200D02*
X106966666Y-114854819D01*
X106966666Y-114854819D02*
X106871428Y-114854819D01*
X106871428Y-114854819D02*
X106728571Y-114807200D01*
X106728571Y-114807200D02*
X106633333Y-114711961D01*
X106633333Y-114711961D02*
X106585714Y-114616723D01*
X106585714Y-114616723D02*
X106538095Y-114426247D01*
X106538095Y-114426247D02*
X106538095Y-114283390D01*
X106538095Y-114283390D02*
X106585714Y-114092914D01*
X106585714Y-114092914D02*
X106633333Y-113997676D01*
X106633333Y-113997676D02*
X106728571Y-113902438D01*
X106728571Y-113902438D02*
X106871428Y-113854819D01*
X106871428Y-113854819D02*
X106966666Y-113854819D01*
X106966666Y-113854819D02*
X107109523Y-113902438D01*
X107109523Y-113902438D02*
X107157142Y-113950057D01*
X108109523Y-114854819D02*
X107538095Y-114854819D01*
X107823809Y-114854819D02*
X107823809Y-113854819D01*
X107823809Y-113854819D02*
X107728571Y-113997676D01*
X107728571Y-113997676D02*
X107633333Y-114092914D01*
X107633333Y-114092914D02*
X107538095Y-114140533D01*
X108966666Y-113854819D02*
X108776190Y-113854819D01*
X108776190Y-113854819D02*
X108680952Y-113902438D01*
X108680952Y-113902438D02*
X108633333Y-113950057D01*
X108633333Y-113950057D02*
X108538095Y-114092914D01*
X108538095Y-114092914D02*
X108490476Y-114283390D01*
X108490476Y-114283390D02*
X108490476Y-114664342D01*
X108490476Y-114664342D02*
X108538095Y-114759580D01*
X108538095Y-114759580D02*
X108585714Y-114807200D01*
X108585714Y-114807200D02*
X108680952Y-114854819D01*
X108680952Y-114854819D02*
X108871428Y-114854819D01*
X108871428Y-114854819D02*
X108966666Y-114807200D01*
X108966666Y-114807200D02*
X109014285Y-114759580D01*
X109014285Y-114759580D02*
X109061904Y-114664342D01*
X109061904Y-114664342D02*
X109061904Y-114426247D01*
X109061904Y-114426247D02*
X109014285Y-114331009D01*
X109014285Y-114331009D02*
X108966666Y-114283390D01*
X108966666Y-114283390D02*
X108871428Y-114235771D01*
X108871428Y-114235771D02*
X108680952Y-114235771D01*
X108680952Y-114235771D02*
X108585714Y-114283390D01*
X108585714Y-114283390D02*
X108538095Y-114331009D01*
X108538095Y-114331009D02*
X108490476Y-114426247D01*
X97133333Y-69254819D02*
X96800000Y-68778628D01*
X96561905Y-69254819D02*
X96561905Y-68254819D01*
X96561905Y-68254819D02*
X96942857Y-68254819D01*
X96942857Y-68254819D02*
X97038095Y-68302438D01*
X97038095Y-68302438D02*
X97085714Y-68350057D01*
X97085714Y-68350057D02*
X97133333Y-68445295D01*
X97133333Y-68445295D02*
X97133333Y-68588152D01*
X97133333Y-68588152D02*
X97085714Y-68683390D01*
X97085714Y-68683390D02*
X97038095Y-68731009D01*
X97038095Y-68731009D02*
X96942857Y-68778628D01*
X96942857Y-68778628D02*
X96561905Y-68778628D01*
X97466667Y-68254819D02*
X98085714Y-68254819D01*
X98085714Y-68254819D02*
X97752381Y-68635771D01*
X97752381Y-68635771D02*
X97895238Y-68635771D01*
X97895238Y-68635771D02*
X97990476Y-68683390D01*
X97990476Y-68683390D02*
X98038095Y-68731009D01*
X98038095Y-68731009D02*
X98085714Y-68826247D01*
X98085714Y-68826247D02*
X98085714Y-69064342D01*
X98085714Y-69064342D02*
X98038095Y-69159580D01*
X98038095Y-69159580D02*
X97990476Y-69207200D01*
X97990476Y-69207200D02*
X97895238Y-69254819D01*
X97895238Y-69254819D02*
X97609524Y-69254819D01*
X97609524Y-69254819D02*
X97514286Y-69207200D01*
X97514286Y-69207200D02*
X97466667Y-69159580D01*
X115554819Y-82942857D02*
X115078628Y-83276190D01*
X115554819Y-83514285D02*
X114554819Y-83514285D01*
X114554819Y-83514285D02*
X114554819Y-83133333D01*
X114554819Y-83133333D02*
X114602438Y-83038095D01*
X114602438Y-83038095D02*
X114650057Y-82990476D01*
X114650057Y-82990476D02*
X114745295Y-82942857D01*
X114745295Y-82942857D02*
X114888152Y-82942857D01*
X114888152Y-82942857D02*
X114983390Y-82990476D01*
X114983390Y-82990476D02*
X115031009Y-83038095D01*
X115031009Y-83038095D02*
X115078628Y-83133333D01*
X115078628Y-83133333D02*
X115078628Y-83514285D01*
X114650057Y-82561904D02*
X114602438Y-82514285D01*
X114602438Y-82514285D02*
X114554819Y-82419047D01*
X114554819Y-82419047D02*
X114554819Y-82180952D01*
X114554819Y-82180952D02*
X114602438Y-82085714D01*
X114602438Y-82085714D02*
X114650057Y-82038095D01*
X114650057Y-82038095D02*
X114745295Y-81990476D01*
X114745295Y-81990476D02*
X114840533Y-81990476D01*
X114840533Y-81990476D02*
X114983390Y-82038095D01*
X114983390Y-82038095D02*
X115554819Y-82609523D01*
X115554819Y-82609523D02*
X115554819Y-81990476D01*
X115554819Y-81038095D02*
X115554819Y-81609523D01*
X115554819Y-81323809D02*
X114554819Y-81323809D01*
X114554819Y-81323809D02*
X114697676Y-81419047D01*
X114697676Y-81419047D02*
X114792914Y-81514285D01*
X114792914Y-81514285D02*
X114840533Y-81609523D01*
X117554819Y-108061904D02*
X118364342Y-108061904D01*
X118364342Y-108061904D02*
X118459580Y-108014285D01*
X118459580Y-108014285D02*
X118507200Y-107966666D01*
X118507200Y-107966666D02*
X118554819Y-107871428D01*
X118554819Y-107871428D02*
X118554819Y-107680952D01*
X118554819Y-107680952D02*
X118507200Y-107585714D01*
X118507200Y-107585714D02*
X118459580Y-107538095D01*
X118459580Y-107538095D02*
X118364342Y-107490476D01*
X118364342Y-107490476D02*
X117554819Y-107490476D01*
X118554819Y-106966666D02*
X118554819Y-106776190D01*
X118554819Y-106776190D02*
X118507200Y-106680952D01*
X118507200Y-106680952D02*
X118459580Y-106633333D01*
X118459580Y-106633333D02*
X118316723Y-106538095D01*
X118316723Y-106538095D02*
X118126247Y-106490476D01*
X118126247Y-106490476D02*
X117745295Y-106490476D01*
X117745295Y-106490476D02*
X117650057Y-106538095D01*
X117650057Y-106538095D02*
X117602438Y-106585714D01*
X117602438Y-106585714D02*
X117554819Y-106680952D01*
X117554819Y-106680952D02*
X117554819Y-106871428D01*
X117554819Y-106871428D02*
X117602438Y-106966666D01*
X117602438Y-106966666D02*
X117650057Y-107014285D01*
X117650057Y-107014285D02*
X117745295Y-107061904D01*
X117745295Y-107061904D02*
X117983390Y-107061904D01*
X117983390Y-107061904D02*
X118078628Y-107014285D01*
X118078628Y-107014285D02*
X118126247Y-106966666D01*
X118126247Y-106966666D02*
X118173866Y-106871428D01*
X118173866Y-106871428D02*
X118173866Y-106680952D01*
X118173866Y-106680952D02*
X118126247Y-106585714D01*
X118126247Y-106585714D02*
X118078628Y-106538095D01*
X118078628Y-106538095D02*
X117983390Y-106490476D01*
X98354819Y-119490476D02*
X97878628Y-119823809D01*
X98354819Y-120061904D02*
X97354819Y-120061904D01*
X97354819Y-120061904D02*
X97354819Y-119680952D01*
X97354819Y-119680952D02*
X97402438Y-119585714D01*
X97402438Y-119585714D02*
X97450057Y-119538095D01*
X97450057Y-119538095D02*
X97545295Y-119490476D01*
X97545295Y-119490476D02*
X97688152Y-119490476D01*
X97688152Y-119490476D02*
X97783390Y-119538095D01*
X97783390Y-119538095D02*
X97831009Y-119585714D01*
X97831009Y-119585714D02*
X97878628Y-119680952D01*
X97878628Y-119680952D02*
X97878628Y-120061904D01*
X98354819Y-119061904D02*
X97354819Y-119061904D01*
X97354819Y-119061904D02*
X98354819Y-118490476D01*
X98354819Y-118490476D02*
X97354819Y-118490476D01*
X98354819Y-117490476D02*
X98354819Y-118061904D01*
X98354819Y-117776190D02*
X97354819Y-117776190D01*
X97354819Y-117776190D02*
X97497676Y-117871428D01*
X97497676Y-117871428D02*
X97592914Y-117966666D01*
X97592914Y-117966666D02*
X97640533Y-118061904D01*
X91959580Y-125542857D02*
X92007200Y-125590476D01*
X92007200Y-125590476D02*
X92054819Y-125733333D01*
X92054819Y-125733333D02*
X92054819Y-125828571D01*
X92054819Y-125828571D02*
X92007200Y-125971428D01*
X92007200Y-125971428D02*
X91911961Y-126066666D01*
X91911961Y-126066666D02*
X91816723Y-126114285D01*
X91816723Y-126114285D02*
X91626247Y-126161904D01*
X91626247Y-126161904D02*
X91483390Y-126161904D01*
X91483390Y-126161904D02*
X91292914Y-126114285D01*
X91292914Y-126114285D02*
X91197676Y-126066666D01*
X91197676Y-126066666D02*
X91102438Y-125971428D01*
X91102438Y-125971428D02*
X91054819Y-125828571D01*
X91054819Y-125828571D02*
X91054819Y-125733333D01*
X91054819Y-125733333D02*
X91102438Y-125590476D01*
X91102438Y-125590476D02*
X91150057Y-125542857D01*
X91054819Y-124638095D02*
X91054819Y-125114285D01*
X91054819Y-125114285D02*
X91531009Y-125161904D01*
X91531009Y-125161904D02*
X91483390Y-125114285D01*
X91483390Y-125114285D02*
X91435771Y-125019047D01*
X91435771Y-125019047D02*
X91435771Y-124780952D01*
X91435771Y-124780952D02*
X91483390Y-124685714D01*
X91483390Y-124685714D02*
X91531009Y-124638095D01*
X91531009Y-124638095D02*
X91626247Y-124590476D01*
X91626247Y-124590476D02*
X91864342Y-124590476D01*
X91864342Y-124590476D02*
X91959580Y-124638095D01*
X91959580Y-124638095D02*
X92007200Y-124685714D01*
X92007200Y-124685714D02*
X92054819Y-124780952D01*
X92054819Y-124780952D02*
X92054819Y-125019047D01*
X92054819Y-125019047D02*
X92007200Y-125114285D01*
X92007200Y-125114285D02*
X91959580Y-125161904D01*
X91388152Y-123733333D02*
X92054819Y-123733333D01*
X91007200Y-123971428D02*
X91721485Y-124209523D01*
X91721485Y-124209523D02*
X91721485Y-123590476D01*
D12*
X92087664Y-119214285D02*
X92125760Y-119252381D01*
X92125760Y-119252381D02*
X92163855Y-119366666D01*
X92163855Y-119366666D02*
X92163855Y-119442857D01*
X92163855Y-119442857D02*
X92125760Y-119557143D01*
X92125760Y-119557143D02*
X92049569Y-119633333D01*
X92049569Y-119633333D02*
X91973379Y-119671428D01*
X91973379Y-119671428D02*
X91820998Y-119709524D01*
X91820998Y-119709524D02*
X91706712Y-119709524D01*
X91706712Y-119709524D02*
X91554331Y-119671428D01*
X91554331Y-119671428D02*
X91478140Y-119633333D01*
X91478140Y-119633333D02*
X91401950Y-119557143D01*
X91401950Y-119557143D02*
X91363855Y-119442857D01*
X91363855Y-119442857D02*
X91363855Y-119366666D01*
X91363855Y-119366666D02*
X91401950Y-119252381D01*
X91401950Y-119252381D02*
X91440045Y-119214285D01*
X91440045Y-118909524D02*
X91401950Y-118871428D01*
X91401950Y-118871428D02*
X91363855Y-118795238D01*
X91363855Y-118795238D02*
X91363855Y-118604762D01*
X91363855Y-118604762D02*
X91401950Y-118528571D01*
X91401950Y-118528571D02*
X91440045Y-118490476D01*
X91440045Y-118490476D02*
X91516236Y-118452381D01*
X91516236Y-118452381D02*
X91592426Y-118452381D01*
X91592426Y-118452381D02*
X91706712Y-118490476D01*
X91706712Y-118490476D02*
X92163855Y-118947619D01*
X92163855Y-118947619D02*
X92163855Y-118452381D01*
X91363855Y-118185714D02*
X91363855Y-117690476D01*
X91363855Y-117690476D02*
X91668617Y-117957142D01*
X91668617Y-117957142D02*
X91668617Y-117842857D01*
X91668617Y-117842857D02*
X91706712Y-117766666D01*
X91706712Y-117766666D02*
X91744807Y-117728571D01*
X91744807Y-117728571D02*
X91820998Y-117690476D01*
X91820998Y-117690476D02*
X92011474Y-117690476D01*
X92011474Y-117690476D02*
X92087664Y-117728571D01*
X92087664Y-117728571D02*
X92125760Y-117766666D01*
X92125760Y-117766666D02*
X92163855Y-117842857D01*
X92163855Y-117842857D02*
X92163855Y-118071428D01*
X92163855Y-118071428D02*
X92125760Y-118147619D01*
X92125760Y-118147619D02*
X92087664Y-118185714D01*
D11*
X95954819Y-112061904D02*
X96764342Y-112061904D01*
X96764342Y-112061904D02*
X96859580Y-112014285D01*
X96859580Y-112014285D02*
X96907200Y-111966666D01*
X96907200Y-111966666D02*
X96954819Y-111871428D01*
X96954819Y-111871428D02*
X96954819Y-111680952D01*
X96954819Y-111680952D02*
X96907200Y-111585714D01*
X96907200Y-111585714D02*
X96859580Y-111538095D01*
X96859580Y-111538095D02*
X96764342Y-111490476D01*
X96764342Y-111490476D02*
X95954819Y-111490476D01*
X95954819Y-110585714D02*
X95954819Y-110776190D01*
X95954819Y-110776190D02*
X96002438Y-110871428D01*
X96002438Y-110871428D02*
X96050057Y-110919047D01*
X96050057Y-110919047D02*
X96192914Y-111014285D01*
X96192914Y-111014285D02*
X96383390Y-111061904D01*
X96383390Y-111061904D02*
X96764342Y-111061904D01*
X96764342Y-111061904D02*
X96859580Y-111014285D01*
X96859580Y-111014285D02*
X96907200Y-110966666D01*
X96907200Y-110966666D02*
X96954819Y-110871428D01*
X96954819Y-110871428D02*
X96954819Y-110680952D01*
X96954819Y-110680952D02*
X96907200Y-110585714D01*
X96907200Y-110585714D02*
X96859580Y-110538095D01*
X96859580Y-110538095D02*
X96764342Y-110490476D01*
X96764342Y-110490476D02*
X96526247Y-110490476D01*
X96526247Y-110490476D02*
X96431009Y-110538095D01*
X96431009Y-110538095D02*
X96383390Y-110585714D01*
X96383390Y-110585714D02*
X96335771Y-110680952D01*
X96335771Y-110680952D02*
X96335771Y-110871428D01*
X96335771Y-110871428D02*
X96383390Y-110966666D01*
X96383390Y-110966666D02*
X96431009Y-111014285D01*
X96431009Y-111014285D02*
X96526247Y-111061904D01*
D12*
X123187664Y-94314285D02*
X123225760Y-94352381D01*
X123225760Y-94352381D02*
X123263855Y-94466666D01*
X123263855Y-94466666D02*
X123263855Y-94542857D01*
X123263855Y-94542857D02*
X123225760Y-94657143D01*
X123225760Y-94657143D02*
X123149569Y-94733333D01*
X123149569Y-94733333D02*
X123073379Y-94771428D01*
X123073379Y-94771428D02*
X122920998Y-94809524D01*
X122920998Y-94809524D02*
X122806712Y-94809524D01*
X122806712Y-94809524D02*
X122654331Y-94771428D01*
X122654331Y-94771428D02*
X122578140Y-94733333D01*
X122578140Y-94733333D02*
X122501950Y-94657143D01*
X122501950Y-94657143D02*
X122463855Y-94542857D01*
X122463855Y-94542857D02*
X122463855Y-94466666D01*
X122463855Y-94466666D02*
X122501950Y-94352381D01*
X122501950Y-94352381D02*
X122540045Y-94314285D01*
X122463855Y-94047619D02*
X122463855Y-93552381D01*
X122463855Y-93552381D02*
X122768617Y-93819047D01*
X122768617Y-93819047D02*
X122768617Y-93704762D01*
X122768617Y-93704762D02*
X122806712Y-93628571D01*
X122806712Y-93628571D02*
X122844807Y-93590476D01*
X122844807Y-93590476D02*
X122920998Y-93552381D01*
X122920998Y-93552381D02*
X123111474Y-93552381D01*
X123111474Y-93552381D02*
X123187664Y-93590476D01*
X123187664Y-93590476D02*
X123225760Y-93628571D01*
X123225760Y-93628571D02*
X123263855Y-93704762D01*
X123263855Y-93704762D02*
X123263855Y-93933333D01*
X123263855Y-93933333D02*
X123225760Y-94009524D01*
X123225760Y-94009524D02*
X123187664Y-94047619D01*
X123263855Y-92790476D02*
X123263855Y-93247619D01*
X123263855Y-93019047D02*
X122463855Y-93019047D01*
X122463855Y-93019047D02*
X122578140Y-93095238D01*
X122578140Y-93095238D02*
X122654331Y-93171428D01*
X122654331Y-93171428D02*
X122692426Y-93247619D01*
D11*
X108254819Y-69066666D02*
X107778628Y-69399999D01*
X108254819Y-69638094D02*
X107254819Y-69638094D01*
X107254819Y-69638094D02*
X107254819Y-69257142D01*
X107254819Y-69257142D02*
X107302438Y-69161904D01*
X107302438Y-69161904D02*
X107350057Y-69114285D01*
X107350057Y-69114285D02*
X107445295Y-69066666D01*
X107445295Y-69066666D02*
X107588152Y-69066666D01*
X107588152Y-69066666D02*
X107683390Y-69114285D01*
X107683390Y-69114285D02*
X107731009Y-69161904D01*
X107731009Y-69161904D02*
X107778628Y-69257142D01*
X107778628Y-69257142D02*
X107778628Y-69638094D01*
X107350057Y-68685713D02*
X107302438Y-68638094D01*
X107302438Y-68638094D02*
X107254819Y-68542856D01*
X107254819Y-68542856D02*
X107254819Y-68304761D01*
X107254819Y-68304761D02*
X107302438Y-68209523D01*
X107302438Y-68209523D02*
X107350057Y-68161904D01*
X107350057Y-68161904D02*
X107445295Y-68114285D01*
X107445295Y-68114285D02*
X107540533Y-68114285D01*
X107540533Y-68114285D02*
X107683390Y-68161904D01*
X107683390Y-68161904D02*
X108254819Y-68733332D01*
X108254819Y-68733332D02*
X108254819Y-68114285D01*
X119857142Y-86159580D02*
X119809523Y-86207200D01*
X119809523Y-86207200D02*
X119666666Y-86254819D01*
X119666666Y-86254819D02*
X119571428Y-86254819D01*
X119571428Y-86254819D02*
X119428571Y-86207200D01*
X119428571Y-86207200D02*
X119333333Y-86111961D01*
X119333333Y-86111961D02*
X119285714Y-86016723D01*
X119285714Y-86016723D02*
X119238095Y-85826247D01*
X119238095Y-85826247D02*
X119238095Y-85683390D01*
X119238095Y-85683390D02*
X119285714Y-85492914D01*
X119285714Y-85492914D02*
X119333333Y-85397676D01*
X119333333Y-85397676D02*
X119428571Y-85302438D01*
X119428571Y-85302438D02*
X119571428Y-85254819D01*
X119571428Y-85254819D02*
X119666666Y-85254819D01*
X119666666Y-85254819D02*
X119809523Y-85302438D01*
X119809523Y-85302438D02*
X119857142Y-85350057D01*
X120761904Y-85254819D02*
X120285714Y-85254819D01*
X120285714Y-85254819D02*
X120238095Y-85731009D01*
X120238095Y-85731009D02*
X120285714Y-85683390D01*
X120285714Y-85683390D02*
X120380952Y-85635771D01*
X120380952Y-85635771D02*
X120619047Y-85635771D01*
X120619047Y-85635771D02*
X120714285Y-85683390D01*
X120714285Y-85683390D02*
X120761904Y-85731009D01*
X120761904Y-85731009D02*
X120809523Y-85826247D01*
X120809523Y-85826247D02*
X120809523Y-86064342D01*
X120809523Y-86064342D02*
X120761904Y-86159580D01*
X120761904Y-86159580D02*
X120714285Y-86207200D01*
X120714285Y-86207200D02*
X120619047Y-86254819D01*
X120619047Y-86254819D02*
X120380952Y-86254819D01*
X120380952Y-86254819D02*
X120285714Y-86207200D01*
X120285714Y-86207200D02*
X120238095Y-86159580D01*
X121380952Y-85683390D02*
X121285714Y-85635771D01*
X121285714Y-85635771D02*
X121238095Y-85588152D01*
X121238095Y-85588152D02*
X121190476Y-85492914D01*
X121190476Y-85492914D02*
X121190476Y-85445295D01*
X121190476Y-85445295D02*
X121238095Y-85350057D01*
X121238095Y-85350057D02*
X121285714Y-85302438D01*
X121285714Y-85302438D02*
X121380952Y-85254819D01*
X121380952Y-85254819D02*
X121571428Y-85254819D01*
X121571428Y-85254819D02*
X121666666Y-85302438D01*
X121666666Y-85302438D02*
X121714285Y-85350057D01*
X121714285Y-85350057D02*
X121761904Y-85445295D01*
X121761904Y-85445295D02*
X121761904Y-85492914D01*
X121761904Y-85492914D02*
X121714285Y-85588152D01*
X121714285Y-85588152D02*
X121666666Y-85635771D01*
X121666666Y-85635771D02*
X121571428Y-85683390D01*
X121571428Y-85683390D02*
X121380952Y-85683390D01*
X121380952Y-85683390D02*
X121285714Y-85731009D01*
X121285714Y-85731009D02*
X121238095Y-85778628D01*
X121238095Y-85778628D02*
X121190476Y-85873866D01*
X121190476Y-85873866D02*
X121190476Y-86064342D01*
X121190476Y-86064342D02*
X121238095Y-86159580D01*
X121238095Y-86159580D02*
X121285714Y-86207200D01*
X121285714Y-86207200D02*
X121380952Y-86254819D01*
X121380952Y-86254819D02*
X121571428Y-86254819D01*
X121571428Y-86254819D02*
X121666666Y-86207200D01*
X121666666Y-86207200D02*
X121714285Y-86159580D01*
X121714285Y-86159580D02*
X121761904Y-86064342D01*
X121761904Y-86064342D02*
X121761904Y-85873866D01*
X121761904Y-85873866D02*
X121714285Y-85778628D01*
X121714285Y-85778628D02*
X121666666Y-85731009D01*
X121666666Y-85731009D02*
X121571428Y-85683390D01*
X83057142Y-92059580D02*
X83009523Y-92107200D01*
X83009523Y-92107200D02*
X82866666Y-92154819D01*
X82866666Y-92154819D02*
X82771428Y-92154819D01*
X82771428Y-92154819D02*
X82628571Y-92107200D01*
X82628571Y-92107200D02*
X82533333Y-92011961D01*
X82533333Y-92011961D02*
X82485714Y-91916723D01*
X82485714Y-91916723D02*
X82438095Y-91726247D01*
X82438095Y-91726247D02*
X82438095Y-91583390D01*
X82438095Y-91583390D02*
X82485714Y-91392914D01*
X82485714Y-91392914D02*
X82533333Y-91297676D01*
X82533333Y-91297676D02*
X82628571Y-91202438D01*
X82628571Y-91202438D02*
X82771428Y-91154819D01*
X82771428Y-91154819D02*
X82866666Y-91154819D01*
X82866666Y-91154819D02*
X83009523Y-91202438D01*
X83009523Y-91202438D02*
X83057142Y-91250057D01*
X83961904Y-91154819D02*
X83485714Y-91154819D01*
X83485714Y-91154819D02*
X83438095Y-91631009D01*
X83438095Y-91631009D02*
X83485714Y-91583390D01*
X83485714Y-91583390D02*
X83580952Y-91535771D01*
X83580952Y-91535771D02*
X83819047Y-91535771D01*
X83819047Y-91535771D02*
X83914285Y-91583390D01*
X83914285Y-91583390D02*
X83961904Y-91631009D01*
X83961904Y-91631009D02*
X84009523Y-91726247D01*
X84009523Y-91726247D02*
X84009523Y-91964342D01*
X84009523Y-91964342D02*
X83961904Y-92059580D01*
X83961904Y-92059580D02*
X83914285Y-92107200D01*
X83914285Y-92107200D02*
X83819047Y-92154819D01*
X83819047Y-92154819D02*
X83580952Y-92154819D01*
X83580952Y-92154819D02*
X83485714Y-92107200D01*
X83485714Y-92107200D02*
X83438095Y-92059580D01*
X84390476Y-91250057D02*
X84438095Y-91202438D01*
X84438095Y-91202438D02*
X84533333Y-91154819D01*
X84533333Y-91154819D02*
X84771428Y-91154819D01*
X84771428Y-91154819D02*
X84866666Y-91202438D01*
X84866666Y-91202438D02*
X84914285Y-91250057D01*
X84914285Y-91250057D02*
X84961904Y-91345295D01*
X84961904Y-91345295D02*
X84961904Y-91440533D01*
X84961904Y-91440533D02*
X84914285Y-91583390D01*
X84914285Y-91583390D02*
X84342857Y-92154819D01*
X84342857Y-92154819D02*
X84961904Y-92154819D01*
X96659580Y-81842857D02*
X96707200Y-81890476D01*
X96707200Y-81890476D02*
X96754819Y-82033333D01*
X96754819Y-82033333D02*
X96754819Y-82128571D01*
X96754819Y-82128571D02*
X96707200Y-82271428D01*
X96707200Y-82271428D02*
X96611961Y-82366666D01*
X96611961Y-82366666D02*
X96516723Y-82414285D01*
X96516723Y-82414285D02*
X96326247Y-82461904D01*
X96326247Y-82461904D02*
X96183390Y-82461904D01*
X96183390Y-82461904D02*
X95992914Y-82414285D01*
X95992914Y-82414285D02*
X95897676Y-82366666D01*
X95897676Y-82366666D02*
X95802438Y-82271428D01*
X95802438Y-82271428D02*
X95754819Y-82128571D01*
X95754819Y-82128571D02*
X95754819Y-82033333D01*
X95754819Y-82033333D02*
X95802438Y-81890476D01*
X95802438Y-81890476D02*
X95850057Y-81842857D01*
X96088152Y-80985714D02*
X96754819Y-80985714D01*
X95707200Y-81223809D02*
X96421485Y-81461904D01*
X96421485Y-81461904D02*
X96421485Y-80842857D01*
X95754819Y-80557142D02*
X95754819Y-79938095D01*
X95754819Y-79938095D02*
X96135771Y-80271428D01*
X96135771Y-80271428D02*
X96135771Y-80128571D01*
X96135771Y-80128571D02*
X96183390Y-80033333D01*
X96183390Y-80033333D02*
X96231009Y-79985714D01*
X96231009Y-79985714D02*
X96326247Y-79938095D01*
X96326247Y-79938095D02*
X96564342Y-79938095D01*
X96564342Y-79938095D02*
X96659580Y-79985714D01*
X96659580Y-79985714D02*
X96707200Y-80033333D01*
X96707200Y-80033333D02*
X96754819Y-80128571D01*
X96754819Y-80128571D02*
X96754819Y-80414285D01*
X96754819Y-80414285D02*
X96707200Y-80509523D01*
X96707200Y-80509523D02*
X96659580Y-80557142D01*
X85761905Y-102254819D02*
X85761905Y-103064342D01*
X85761905Y-103064342D02*
X85809524Y-103159580D01*
X85809524Y-103159580D02*
X85857143Y-103207200D01*
X85857143Y-103207200D02*
X85952381Y-103254819D01*
X85952381Y-103254819D02*
X86142857Y-103254819D01*
X86142857Y-103254819D02*
X86238095Y-103207200D01*
X86238095Y-103207200D02*
X86285714Y-103159580D01*
X86285714Y-103159580D02*
X86333333Y-103064342D01*
X86333333Y-103064342D02*
X86333333Y-102254819D01*
X87333333Y-103254819D02*
X86761905Y-103254819D01*
X87047619Y-103254819D02*
X87047619Y-102254819D01*
X87047619Y-102254819D02*
X86952381Y-102397676D01*
X86952381Y-102397676D02*
X86857143Y-102492914D01*
X86857143Y-102492914D02*
X86761905Y-102540533D01*
X87714286Y-102350057D02*
X87761905Y-102302438D01*
X87761905Y-102302438D02*
X87857143Y-102254819D01*
X87857143Y-102254819D02*
X88095238Y-102254819D01*
X88095238Y-102254819D02*
X88190476Y-102302438D01*
X88190476Y-102302438D02*
X88238095Y-102350057D01*
X88238095Y-102350057D02*
X88285714Y-102445295D01*
X88285714Y-102445295D02*
X88285714Y-102540533D01*
X88285714Y-102540533D02*
X88238095Y-102683390D01*
X88238095Y-102683390D02*
X87666667Y-103254819D01*
X87666667Y-103254819D02*
X88285714Y-103254819D01*
X113109580Y-121942857D02*
X113157200Y-121990476D01*
X113157200Y-121990476D02*
X113204819Y-122133333D01*
X113204819Y-122133333D02*
X113204819Y-122228571D01*
X113204819Y-122228571D02*
X113157200Y-122371428D01*
X113157200Y-122371428D02*
X113061961Y-122466666D01*
X113061961Y-122466666D02*
X112966723Y-122514285D01*
X112966723Y-122514285D02*
X112776247Y-122561904D01*
X112776247Y-122561904D02*
X112633390Y-122561904D01*
X112633390Y-122561904D02*
X112442914Y-122514285D01*
X112442914Y-122514285D02*
X112347676Y-122466666D01*
X112347676Y-122466666D02*
X112252438Y-122371428D01*
X112252438Y-122371428D02*
X112204819Y-122228571D01*
X112204819Y-122228571D02*
X112204819Y-122133333D01*
X112204819Y-122133333D02*
X112252438Y-121990476D01*
X112252438Y-121990476D02*
X112300057Y-121942857D01*
X113204819Y-120990476D02*
X113204819Y-121561904D01*
X113204819Y-121276190D02*
X112204819Y-121276190D01*
X112204819Y-121276190D02*
X112347676Y-121371428D01*
X112347676Y-121371428D02*
X112442914Y-121466666D01*
X112442914Y-121466666D02*
X112490533Y-121561904D01*
X112204819Y-120371428D02*
X112204819Y-120276190D01*
X112204819Y-120276190D02*
X112252438Y-120180952D01*
X112252438Y-120180952D02*
X112300057Y-120133333D01*
X112300057Y-120133333D02*
X112395295Y-120085714D01*
X112395295Y-120085714D02*
X112585771Y-120038095D01*
X112585771Y-120038095D02*
X112823866Y-120038095D01*
X112823866Y-120038095D02*
X113014342Y-120085714D01*
X113014342Y-120085714D02*
X113109580Y-120133333D01*
X113109580Y-120133333D02*
X113157200Y-120180952D01*
X113157200Y-120180952D02*
X113204819Y-120276190D01*
X113204819Y-120276190D02*
X113204819Y-120371428D01*
X113204819Y-120371428D02*
X113157200Y-120466666D01*
X113157200Y-120466666D02*
X113109580Y-120514285D01*
X113109580Y-120514285D02*
X113014342Y-120561904D01*
X113014342Y-120561904D02*
X112823866Y-120609523D01*
X112823866Y-120609523D02*
X112585771Y-120609523D01*
X112585771Y-120609523D02*
X112395295Y-120561904D01*
X112395295Y-120561904D02*
X112300057Y-120514285D01*
X112300057Y-120514285D02*
X112252438Y-120466666D01*
X112252438Y-120466666D02*
X112204819Y-120371428D01*
X86933333Y-123554819D02*
X86600000Y-123078628D01*
X86361905Y-123554819D02*
X86361905Y-122554819D01*
X86361905Y-122554819D02*
X86742857Y-122554819D01*
X86742857Y-122554819D02*
X86838095Y-122602438D01*
X86838095Y-122602438D02*
X86885714Y-122650057D01*
X86885714Y-122650057D02*
X86933333Y-122745295D01*
X86933333Y-122745295D02*
X86933333Y-122888152D01*
X86933333Y-122888152D02*
X86885714Y-122983390D01*
X86885714Y-122983390D02*
X86838095Y-123031009D01*
X86838095Y-123031009D02*
X86742857Y-123078628D01*
X86742857Y-123078628D02*
X86361905Y-123078628D01*
X87361905Y-123554819D02*
X87361905Y-122554819D01*
X87361905Y-122554819D02*
X87933333Y-123554819D01*
X87933333Y-123554819D02*
X87933333Y-122554819D01*
X88933333Y-123554819D02*
X88361905Y-123554819D01*
X88647619Y-123554819D02*
X88647619Y-122554819D01*
X88647619Y-122554819D02*
X88552381Y-122697676D01*
X88552381Y-122697676D02*
X88457143Y-122792914D01*
X88457143Y-122792914D02*
X88361905Y-122840533D01*
X89314286Y-122650057D02*
X89361905Y-122602438D01*
X89361905Y-122602438D02*
X89457143Y-122554819D01*
X89457143Y-122554819D02*
X89695238Y-122554819D01*
X89695238Y-122554819D02*
X89790476Y-122602438D01*
X89790476Y-122602438D02*
X89838095Y-122650057D01*
X89838095Y-122650057D02*
X89885714Y-122745295D01*
X89885714Y-122745295D02*
X89885714Y-122840533D01*
X89885714Y-122840533D02*
X89838095Y-122983390D01*
X89838095Y-122983390D02*
X89266667Y-123554819D01*
X89266667Y-123554819D02*
X89885714Y-123554819D01*
X112259580Y-72466666D02*
X112307200Y-72514285D01*
X112307200Y-72514285D02*
X112354819Y-72657142D01*
X112354819Y-72657142D02*
X112354819Y-72752380D01*
X112354819Y-72752380D02*
X112307200Y-72895237D01*
X112307200Y-72895237D02*
X112211961Y-72990475D01*
X112211961Y-72990475D02*
X112116723Y-73038094D01*
X112116723Y-73038094D02*
X111926247Y-73085713D01*
X111926247Y-73085713D02*
X111783390Y-73085713D01*
X111783390Y-73085713D02*
X111592914Y-73038094D01*
X111592914Y-73038094D02*
X111497676Y-72990475D01*
X111497676Y-72990475D02*
X111402438Y-72895237D01*
X111402438Y-72895237D02*
X111354819Y-72752380D01*
X111354819Y-72752380D02*
X111354819Y-72657142D01*
X111354819Y-72657142D02*
X111402438Y-72514285D01*
X111402438Y-72514285D02*
X111450057Y-72466666D01*
X111783390Y-71895237D02*
X111735771Y-71990475D01*
X111735771Y-71990475D02*
X111688152Y-72038094D01*
X111688152Y-72038094D02*
X111592914Y-72085713D01*
X111592914Y-72085713D02*
X111545295Y-72085713D01*
X111545295Y-72085713D02*
X111450057Y-72038094D01*
X111450057Y-72038094D02*
X111402438Y-71990475D01*
X111402438Y-71990475D02*
X111354819Y-71895237D01*
X111354819Y-71895237D02*
X111354819Y-71704761D01*
X111354819Y-71704761D02*
X111402438Y-71609523D01*
X111402438Y-71609523D02*
X111450057Y-71561904D01*
X111450057Y-71561904D02*
X111545295Y-71514285D01*
X111545295Y-71514285D02*
X111592914Y-71514285D01*
X111592914Y-71514285D02*
X111688152Y-71561904D01*
X111688152Y-71561904D02*
X111735771Y-71609523D01*
X111735771Y-71609523D02*
X111783390Y-71704761D01*
X111783390Y-71704761D02*
X111783390Y-71895237D01*
X111783390Y-71895237D02*
X111831009Y-71990475D01*
X111831009Y-71990475D02*
X111878628Y-72038094D01*
X111878628Y-72038094D02*
X111973866Y-72085713D01*
X111973866Y-72085713D02*
X112164342Y-72085713D01*
X112164342Y-72085713D02*
X112259580Y-72038094D01*
X112259580Y-72038094D02*
X112307200Y-71990475D01*
X112307200Y-71990475D02*
X112354819Y-71895237D01*
X112354819Y-71895237D02*
X112354819Y-71704761D01*
X112354819Y-71704761D02*
X112307200Y-71609523D01*
X112307200Y-71609523D02*
X112259580Y-71561904D01*
X112259580Y-71561904D02*
X112164342Y-71514285D01*
X112164342Y-71514285D02*
X111973866Y-71514285D01*
X111973866Y-71514285D02*
X111878628Y-71561904D01*
X111878628Y-71561904D02*
X111831009Y-71609523D01*
X111831009Y-71609523D02*
X111783390Y-71704761D01*
D12*
X115063855Y-103152380D02*
X114682902Y-103419047D01*
X115063855Y-103609523D02*
X114263855Y-103609523D01*
X114263855Y-103609523D02*
X114263855Y-103304761D01*
X114263855Y-103304761D02*
X114301950Y-103228571D01*
X114301950Y-103228571D02*
X114340045Y-103190476D01*
X114340045Y-103190476D02*
X114416236Y-103152380D01*
X114416236Y-103152380D02*
X114530521Y-103152380D01*
X114530521Y-103152380D02*
X114606712Y-103190476D01*
X114606712Y-103190476D02*
X114644807Y-103228571D01*
X114644807Y-103228571D02*
X114682902Y-103304761D01*
X114682902Y-103304761D02*
X114682902Y-103609523D01*
X115063855Y-102809523D02*
X114263855Y-102809523D01*
X114263855Y-102809523D02*
X115063855Y-102352380D01*
X115063855Y-102352380D02*
X114263855Y-102352380D01*
X114263855Y-102047619D02*
X114263855Y-101552381D01*
X114263855Y-101552381D02*
X114568617Y-101819047D01*
X114568617Y-101819047D02*
X114568617Y-101704762D01*
X114568617Y-101704762D02*
X114606712Y-101628571D01*
X114606712Y-101628571D02*
X114644807Y-101590476D01*
X114644807Y-101590476D02*
X114720998Y-101552381D01*
X114720998Y-101552381D02*
X114911474Y-101552381D01*
X114911474Y-101552381D02*
X114987664Y-101590476D01*
X114987664Y-101590476D02*
X115025760Y-101628571D01*
X115025760Y-101628571D02*
X115063855Y-101704762D01*
X115063855Y-101704762D02*
X115063855Y-101933333D01*
X115063855Y-101933333D02*
X115025760Y-102009524D01*
X115025760Y-102009524D02*
X114987664Y-102047619D01*
X86609524Y-115563855D02*
X86609524Y-116211474D01*
X86609524Y-116211474D02*
X86647619Y-116287664D01*
X86647619Y-116287664D02*
X86685714Y-116325760D01*
X86685714Y-116325760D02*
X86761905Y-116363855D01*
X86761905Y-116363855D02*
X86914286Y-116363855D01*
X86914286Y-116363855D02*
X86990476Y-116325760D01*
X86990476Y-116325760D02*
X87028571Y-116287664D01*
X87028571Y-116287664D02*
X87066667Y-116211474D01*
X87066667Y-116211474D02*
X87066667Y-115563855D01*
X87866666Y-116363855D02*
X87409523Y-116363855D01*
X87638095Y-116363855D02*
X87638095Y-115563855D01*
X87638095Y-115563855D02*
X87561904Y-115678140D01*
X87561904Y-115678140D02*
X87485714Y-115754331D01*
X87485714Y-115754331D02*
X87409523Y-115792426D01*
X88628571Y-116363855D02*
X88171428Y-116363855D01*
X88400000Y-116363855D02*
X88400000Y-115563855D01*
X88400000Y-115563855D02*
X88323809Y-115678140D01*
X88323809Y-115678140D02*
X88247619Y-115754331D01*
X88247619Y-115754331D02*
X88171428Y-115792426D01*
D11*
X97950057Y-79095238D02*
X97902438Y-79190476D01*
X97902438Y-79190476D02*
X97807200Y-79285714D01*
X97807200Y-79285714D02*
X97664342Y-79428571D01*
X97664342Y-79428571D02*
X97616723Y-79523809D01*
X97616723Y-79523809D02*
X97616723Y-79619047D01*
X97854819Y-79571428D02*
X97807200Y-79666666D01*
X97807200Y-79666666D02*
X97711961Y-79761904D01*
X97711961Y-79761904D02*
X97521485Y-79809523D01*
X97521485Y-79809523D02*
X97188152Y-79809523D01*
X97188152Y-79809523D02*
X96997676Y-79761904D01*
X96997676Y-79761904D02*
X96902438Y-79666666D01*
X96902438Y-79666666D02*
X96854819Y-79571428D01*
X96854819Y-79571428D02*
X96854819Y-79380952D01*
X96854819Y-79380952D02*
X96902438Y-79285714D01*
X96902438Y-79285714D02*
X96997676Y-79190476D01*
X96997676Y-79190476D02*
X97188152Y-79142857D01*
X97188152Y-79142857D02*
X97521485Y-79142857D01*
X97521485Y-79142857D02*
X97711961Y-79190476D01*
X97711961Y-79190476D02*
X97807200Y-79285714D01*
X97807200Y-79285714D02*
X97854819Y-79380952D01*
X97854819Y-79380952D02*
X97854819Y-79571428D01*
X96854819Y-78809523D02*
X96854819Y-78190476D01*
X96854819Y-78190476D02*
X97235771Y-78523809D01*
X97235771Y-78523809D02*
X97235771Y-78380952D01*
X97235771Y-78380952D02*
X97283390Y-78285714D01*
X97283390Y-78285714D02*
X97331009Y-78238095D01*
X97331009Y-78238095D02*
X97426247Y-78190476D01*
X97426247Y-78190476D02*
X97664342Y-78190476D01*
X97664342Y-78190476D02*
X97759580Y-78238095D01*
X97759580Y-78238095D02*
X97807200Y-78285714D01*
X97807200Y-78285714D02*
X97854819Y-78380952D01*
X97854819Y-78380952D02*
X97854819Y-78666666D01*
X97854819Y-78666666D02*
X97807200Y-78761904D01*
X97807200Y-78761904D02*
X97759580Y-78809523D01*
D12*
X115063855Y-106352380D02*
X114682902Y-106619047D01*
X115063855Y-106809523D02*
X114263855Y-106809523D01*
X114263855Y-106809523D02*
X114263855Y-106504761D01*
X114263855Y-106504761D02*
X114301950Y-106428571D01*
X114301950Y-106428571D02*
X114340045Y-106390476D01*
X114340045Y-106390476D02*
X114416236Y-106352380D01*
X114416236Y-106352380D02*
X114530521Y-106352380D01*
X114530521Y-106352380D02*
X114606712Y-106390476D01*
X114606712Y-106390476D02*
X114644807Y-106428571D01*
X114644807Y-106428571D02*
X114682902Y-106504761D01*
X114682902Y-106504761D02*
X114682902Y-106809523D01*
X115063855Y-106009523D02*
X114263855Y-106009523D01*
X114263855Y-106009523D02*
X115063855Y-105552380D01*
X115063855Y-105552380D02*
X114263855Y-105552380D01*
X114340045Y-105209524D02*
X114301950Y-105171428D01*
X114301950Y-105171428D02*
X114263855Y-105095238D01*
X114263855Y-105095238D02*
X114263855Y-104904762D01*
X114263855Y-104904762D02*
X114301950Y-104828571D01*
X114301950Y-104828571D02*
X114340045Y-104790476D01*
X114340045Y-104790476D02*
X114416236Y-104752381D01*
X114416236Y-104752381D02*
X114492426Y-104752381D01*
X114492426Y-104752381D02*
X114606712Y-104790476D01*
X114606712Y-104790476D02*
X115063855Y-105247619D01*
X115063855Y-105247619D02*
X115063855Y-104752381D01*
D11*
X90354819Y-111490476D02*
X89878628Y-111823809D01*
X90354819Y-112061904D02*
X89354819Y-112061904D01*
X89354819Y-112061904D02*
X89354819Y-111680952D01*
X89354819Y-111680952D02*
X89402438Y-111585714D01*
X89402438Y-111585714D02*
X89450057Y-111538095D01*
X89450057Y-111538095D02*
X89545295Y-111490476D01*
X89545295Y-111490476D02*
X89688152Y-111490476D01*
X89688152Y-111490476D02*
X89783390Y-111538095D01*
X89783390Y-111538095D02*
X89831009Y-111585714D01*
X89831009Y-111585714D02*
X89878628Y-111680952D01*
X89878628Y-111680952D02*
X89878628Y-112061904D01*
X90354819Y-111061904D02*
X89354819Y-111061904D01*
X89354819Y-111061904D02*
X90354819Y-110490476D01*
X90354819Y-110490476D02*
X89354819Y-110490476D01*
X89688152Y-109585714D02*
X90354819Y-109585714D01*
X89307200Y-109823809D02*
X90021485Y-110061904D01*
X90021485Y-110061904D02*
X90021485Y-109442857D01*
X120354819Y-119890476D02*
X119878628Y-120223809D01*
X120354819Y-120461904D02*
X119354819Y-120461904D01*
X119354819Y-120461904D02*
X119354819Y-120080952D01*
X119354819Y-120080952D02*
X119402438Y-119985714D01*
X119402438Y-119985714D02*
X119450057Y-119938095D01*
X119450057Y-119938095D02*
X119545295Y-119890476D01*
X119545295Y-119890476D02*
X119688152Y-119890476D01*
X119688152Y-119890476D02*
X119783390Y-119938095D01*
X119783390Y-119938095D02*
X119831009Y-119985714D01*
X119831009Y-119985714D02*
X119878628Y-120080952D01*
X119878628Y-120080952D02*
X119878628Y-120461904D01*
X120354819Y-119461904D02*
X119354819Y-119461904D01*
X119354819Y-119461904D02*
X120354819Y-118890476D01*
X120354819Y-118890476D02*
X119354819Y-118890476D01*
X119783390Y-118271428D02*
X119735771Y-118366666D01*
X119735771Y-118366666D02*
X119688152Y-118414285D01*
X119688152Y-118414285D02*
X119592914Y-118461904D01*
X119592914Y-118461904D02*
X119545295Y-118461904D01*
X119545295Y-118461904D02*
X119450057Y-118414285D01*
X119450057Y-118414285D02*
X119402438Y-118366666D01*
X119402438Y-118366666D02*
X119354819Y-118271428D01*
X119354819Y-118271428D02*
X119354819Y-118080952D01*
X119354819Y-118080952D02*
X119402438Y-117985714D01*
X119402438Y-117985714D02*
X119450057Y-117938095D01*
X119450057Y-117938095D02*
X119545295Y-117890476D01*
X119545295Y-117890476D02*
X119592914Y-117890476D01*
X119592914Y-117890476D02*
X119688152Y-117938095D01*
X119688152Y-117938095D02*
X119735771Y-117985714D01*
X119735771Y-117985714D02*
X119783390Y-118080952D01*
X119783390Y-118080952D02*
X119783390Y-118271428D01*
X119783390Y-118271428D02*
X119831009Y-118366666D01*
X119831009Y-118366666D02*
X119878628Y-118414285D01*
X119878628Y-118414285D02*
X119973866Y-118461904D01*
X119973866Y-118461904D02*
X120164342Y-118461904D01*
X120164342Y-118461904D02*
X120259580Y-118414285D01*
X120259580Y-118414285D02*
X120307200Y-118366666D01*
X120307200Y-118366666D02*
X120354819Y-118271428D01*
X120354819Y-118271428D02*
X120354819Y-118080952D01*
X120354819Y-118080952D02*
X120307200Y-117985714D01*
X120307200Y-117985714D02*
X120259580Y-117938095D01*
X120259580Y-117938095D02*
X120164342Y-117890476D01*
X120164342Y-117890476D02*
X119973866Y-117890476D01*
X119973866Y-117890476D02*
X119878628Y-117938095D01*
X119878628Y-117938095D02*
X119831009Y-117985714D01*
X119831009Y-117985714D02*
X119783390Y-118080952D01*
X84157142Y-88754819D02*
X83823809Y-88278628D01*
X83585714Y-88754819D02*
X83585714Y-87754819D01*
X83585714Y-87754819D02*
X83966666Y-87754819D01*
X83966666Y-87754819D02*
X84061904Y-87802438D01*
X84061904Y-87802438D02*
X84109523Y-87850057D01*
X84109523Y-87850057D02*
X84157142Y-87945295D01*
X84157142Y-87945295D02*
X84157142Y-88088152D01*
X84157142Y-88088152D02*
X84109523Y-88183390D01*
X84109523Y-88183390D02*
X84061904Y-88231009D01*
X84061904Y-88231009D02*
X83966666Y-88278628D01*
X83966666Y-88278628D02*
X83585714Y-88278628D01*
X84538095Y-87850057D02*
X84585714Y-87802438D01*
X84585714Y-87802438D02*
X84680952Y-87754819D01*
X84680952Y-87754819D02*
X84919047Y-87754819D01*
X84919047Y-87754819D02*
X85014285Y-87802438D01*
X85014285Y-87802438D02*
X85061904Y-87850057D01*
X85061904Y-87850057D02*
X85109523Y-87945295D01*
X85109523Y-87945295D02*
X85109523Y-88040533D01*
X85109523Y-88040533D02*
X85061904Y-88183390D01*
X85061904Y-88183390D02*
X84490476Y-88754819D01*
X84490476Y-88754819D02*
X85109523Y-88754819D01*
X85728571Y-87754819D02*
X85823809Y-87754819D01*
X85823809Y-87754819D02*
X85919047Y-87802438D01*
X85919047Y-87802438D02*
X85966666Y-87850057D01*
X85966666Y-87850057D02*
X86014285Y-87945295D01*
X86014285Y-87945295D02*
X86061904Y-88135771D01*
X86061904Y-88135771D02*
X86061904Y-88373866D01*
X86061904Y-88373866D02*
X86014285Y-88564342D01*
X86014285Y-88564342D02*
X85966666Y-88659580D01*
X85966666Y-88659580D02*
X85919047Y-88707200D01*
X85919047Y-88707200D02*
X85823809Y-88754819D01*
X85823809Y-88754819D02*
X85728571Y-88754819D01*
X85728571Y-88754819D02*
X85633333Y-88707200D01*
X85633333Y-88707200D02*
X85585714Y-88659580D01*
X85585714Y-88659580D02*
X85538095Y-88564342D01*
X85538095Y-88564342D02*
X85490476Y-88373866D01*
X85490476Y-88373866D02*
X85490476Y-88135771D01*
X85490476Y-88135771D02*
X85538095Y-87945295D01*
X85538095Y-87945295D02*
X85585714Y-87850057D01*
X85585714Y-87850057D02*
X85633333Y-87802438D01*
X85633333Y-87802438D02*
X85728571Y-87754819D01*
X87554819Y-80042857D02*
X87078628Y-80376190D01*
X87554819Y-80614285D02*
X86554819Y-80614285D01*
X86554819Y-80614285D02*
X86554819Y-80233333D01*
X86554819Y-80233333D02*
X86602438Y-80138095D01*
X86602438Y-80138095D02*
X86650057Y-80090476D01*
X86650057Y-80090476D02*
X86745295Y-80042857D01*
X86745295Y-80042857D02*
X86888152Y-80042857D01*
X86888152Y-80042857D02*
X86983390Y-80090476D01*
X86983390Y-80090476D02*
X87031009Y-80138095D01*
X87031009Y-80138095D02*
X87078628Y-80233333D01*
X87078628Y-80233333D02*
X87078628Y-80614285D01*
X87554819Y-79090476D02*
X87554819Y-79661904D01*
X87554819Y-79376190D02*
X86554819Y-79376190D01*
X86554819Y-79376190D02*
X86697676Y-79471428D01*
X86697676Y-79471428D02*
X86792914Y-79566666D01*
X86792914Y-79566666D02*
X86840533Y-79661904D01*
X86983390Y-78519047D02*
X86935771Y-78614285D01*
X86935771Y-78614285D02*
X86888152Y-78661904D01*
X86888152Y-78661904D02*
X86792914Y-78709523D01*
X86792914Y-78709523D02*
X86745295Y-78709523D01*
X86745295Y-78709523D02*
X86650057Y-78661904D01*
X86650057Y-78661904D02*
X86602438Y-78614285D01*
X86602438Y-78614285D02*
X86554819Y-78519047D01*
X86554819Y-78519047D02*
X86554819Y-78328571D01*
X86554819Y-78328571D02*
X86602438Y-78233333D01*
X86602438Y-78233333D02*
X86650057Y-78185714D01*
X86650057Y-78185714D02*
X86745295Y-78138095D01*
X86745295Y-78138095D02*
X86792914Y-78138095D01*
X86792914Y-78138095D02*
X86888152Y-78185714D01*
X86888152Y-78185714D02*
X86935771Y-78233333D01*
X86935771Y-78233333D02*
X86983390Y-78328571D01*
X86983390Y-78328571D02*
X86983390Y-78519047D01*
X86983390Y-78519047D02*
X87031009Y-78614285D01*
X87031009Y-78614285D02*
X87078628Y-78661904D01*
X87078628Y-78661904D02*
X87173866Y-78709523D01*
X87173866Y-78709523D02*
X87364342Y-78709523D01*
X87364342Y-78709523D02*
X87459580Y-78661904D01*
X87459580Y-78661904D02*
X87507200Y-78614285D01*
X87507200Y-78614285D02*
X87554819Y-78519047D01*
X87554819Y-78519047D02*
X87554819Y-78328571D01*
X87554819Y-78328571D02*
X87507200Y-78233333D01*
X87507200Y-78233333D02*
X87459580Y-78185714D01*
X87459580Y-78185714D02*
X87364342Y-78138095D01*
X87364342Y-78138095D02*
X87173866Y-78138095D01*
X87173866Y-78138095D02*
X87078628Y-78185714D01*
X87078628Y-78185714D02*
X87031009Y-78233333D01*
X87031009Y-78233333D02*
X86983390Y-78328571D01*
X119054819Y-83966666D02*
X118578628Y-84299999D01*
X119054819Y-84538094D02*
X118054819Y-84538094D01*
X118054819Y-84538094D02*
X118054819Y-84157142D01*
X118054819Y-84157142D02*
X118102438Y-84061904D01*
X118102438Y-84061904D02*
X118150057Y-84014285D01*
X118150057Y-84014285D02*
X118245295Y-83966666D01*
X118245295Y-83966666D02*
X118388152Y-83966666D01*
X118388152Y-83966666D02*
X118483390Y-84014285D01*
X118483390Y-84014285D02*
X118531009Y-84061904D01*
X118531009Y-84061904D02*
X118578628Y-84157142D01*
X118578628Y-84157142D02*
X118578628Y-84538094D01*
X119054819Y-83538094D02*
X118054819Y-83538094D01*
X118054819Y-83538094D02*
X119054819Y-82966666D01*
X119054819Y-82966666D02*
X118054819Y-82966666D01*
X119054819Y-81966666D02*
X119054819Y-82538094D01*
X119054819Y-82252380D02*
X118054819Y-82252380D01*
X118054819Y-82252380D02*
X118197676Y-82347618D01*
X118197676Y-82347618D02*
X118292914Y-82442856D01*
X118292914Y-82442856D02*
X118340533Y-82538094D01*
X118388152Y-81109523D02*
X119054819Y-81109523D01*
X118007200Y-81347618D02*
X118721485Y-81585713D01*
X118721485Y-81585713D02*
X118721485Y-80966666D01*
X106757142Y-108659580D02*
X106709523Y-108707200D01*
X106709523Y-108707200D02*
X106566666Y-108754819D01*
X106566666Y-108754819D02*
X106471428Y-108754819D01*
X106471428Y-108754819D02*
X106328571Y-108707200D01*
X106328571Y-108707200D02*
X106233333Y-108611961D01*
X106233333Y-108611961D02*
X106185714Y-108516723D01*
X106185714Y-108516723D02*
X106138095Y-108326247D01*
X106138095Y-108326247D02*
X106138095Y-108183390D01*
X106138095Y-108183390D02*
X106185714Y-107992914D01*
X106185714Y-107992914D02*
X106233333Y-107897676D01*
X106233333Y-107897676D02*
X106328571Y-107802438D01*
X106328571Y-107802438D02*
X106471428Y-107754819D01*
X106471428Y-107754819D02*
X106566666Y-107754819D01*
X106566666Y-107754819D02*
X106709523Y-107802438D01*
X106709523Y-107802438D02*
X106757142Y-107850057D01*
X107709523Y-108754819D02*
X107138095Y-108754819D01*
X107423809Y-108754819D02*
X107423809Y-107754819D01*
X107423809Y-107754819D02*
X107328571Y-107897676D01*
X107328571Y-107897676D02*
X107233333Y-107992914D01*
X107233333Y-107992914D02*
X107138095Y-108040533D01*
X108614285Y-107754819D02*
X108138095Y-107754819D01*
X108138095Y-107754819D02*
X108090476Y-108231009D01*
X108090476Y-108231009D02*
X108138095Y-108183390D01*
X108138095Y-108183390D02*
X108233333Y-108135771D01*
X108233333Y-108135771D02*
X108471428Y-108135771D01*
X108471428Y-108135771D02*
X108566666Y-108183390D01*
X108566666Y-108183390D02*
X108614285Y-108231009D01*
X108614285Y-108231009D02*
X108661904Y-108326247D01*
X108661904Y-108326247D02*
X108661904Y-108564342D01*
X108661904Y-108564342D02*
X108614285Y-108659580D01*
X108614285Y-108659580D02*
X108566666Y-108707200D01*
X108566666Y-108707200D02*
X108471428Y-108754819D01*
X108471428Y-108754819D02*
X108233333Y-108754819D01*
X108233333Y-108754819D02*
X108138095Y-108707200D01*
X108138095Y-108707200D02*
X108090476Y-108659580D01*
X116209523Y-88054819D02*
X115876190Y-87578628D01*
X115638095Y-88054819D02*
X115638095Y-87054819D01*
X115638095Y-87054819D02*
X116019047Y-87054819D01*
X116019047Y-87054819D02*
X116114285Y-87102438D01*
X116114285Y-87102438D02*
X116161904Y-87150057D01*
X116161904Y-87150057D02*
X116209523Y-87245295D01*
X116209523Y-87245295D02*
X116209523Y-87388152D01*
X116209523Y-87388152D02*
X116161904Y-87483390D01*
X116161904Y-87483390D02*
X116114285Y-87531009D01*
X116114285Y-87531009D02*
X116019047Y-87578628D01*
X116019047Y-87578628D02*
X115638095Y-87578628D01*
X116638095Y-88054819D02*
X116638095Y-87054819D01*
X116638095Y-87054819D02*
X117209523Y-88054819D01*
X117209523Y-88054819D02*
X117209523Y-87054819D01*
X118114285Y-87054819D02*
X117923809Y-87054819D01*
X117923809Y-87054819D02*
X117828571Y-87102438D01*
X117828571Y-87102438D02*
X117780952Y-87150057D01*
X117780952Y-87150057D02*
X117685714Y-87292914D01*
X117685714Y-87292914D02*
X117638095Y-87483390D01*
X117638095Y-87483390D02*
X117638095Y-87864342D01*
X117638095Y-87864342D02*
X117685714Y-87959580D01*
X117685714Y-87959580D02*
X117733333Y-88007200D01*
X117733333Y-88007200D02*
X117828571Y-88054819D01*
X117828571Y-88054819D02*
X118019047Y-88054819D01*
X118019047Y-88054819D02*
X118114285Y-88007200D01*
X118114285Y-88007200D02*
X118161904Y-87959580D01*
X118161904Y-87959580D02*
X118209523Y-87864342D01*
X118209523Y-87864342D02*
X118209523Y-87626247D01*
X118209523Y-87626247D02*
X118161904Y-87531009D01*
X118161904Y-87531009D02*
X118114285Y-87483390D01*
X118114285Y-87483390D02*
X118019047Y-87435771D01*
X118019047Y-87435771D02*
X117828571Y-87435771D01*
X117828571Y-87435771D02*
X117733333Y-87483390D01*
X117733333Y-87483390D02*
X117685714Y-87531009D01*
X117685714Y-87531009D02*
X117638095Y-87626247D01*
X83959580Y-113242857D02*
X84007200Y-113290476D01*
X84007200Y-113290476D02*
X84054819Y-113433333D01*
X84054819Y-113433333D02*
X84054819Y-113528571D01*
X84054819Y-113528571D02*
X84007200Y-113671428D01*
X84007200Y-113671428D02*
X83911961Y-113766666D01*
X83911961Y-113766666D02*
X83816723Y-113814285D01*
X83816723Y-113814285D02*
X83626247Y-113861904D01*
X83626247Y-113861904D02*
X83483390Y-113861904D01*
X83483390Y-113861904D02*
X83292914Y-113814285D01*
X83292914Y-113814285D02*
X83197676Y-113766666D01*
X83197676Y-113766666D02*
X83102438Y-113671428D01*
X83102438Y-113671428D02*
X83054819Y-113528571D01*
X83054819Y-113528571D02*
X83054819Y-113433333D01*
X83054819Y-113433333D02*
X83102438Y-113290476D01*
X83102438Y-113290476D02*
X83150057Y-113242857D01*
X83150057Y-112861904D02*
X83102438Y-112814285D01*
X83102438Y-112814285D02*
X83054819Y-112719047D01*
X83054819Y-112719047D02*
X83054819Y-112480952D01*
X83054819Y-112480952D02*
X83102438Y-112385714D01*
X83102438Y-112385714D02*
X83150057Y-112338095D01*
X83150057Y-112338095D02*
X83245295Y-112290476D01*
X83245295Y-112290476D02*
X83340533Y-112290476D01*
X83340533Y-112290476D02*
X83483390Y-112338095D01*
X83483390Y-112338095D02*
X84054819Y-112909523D01*
X84054819Y-112909523D02*
X84054819Y-112290476D01*
X83054819Y-111671428D02*
X83054819Y-111576190D01*
X83054819Y-111576190D02*
X83102438Y-111480952D01*
X83102438Y-111480952D02*
X83150057Y-111433333D01*
X83150057Y-111433333D02*
X83245295Y-111385714D01*
X83245295Y-111385714D02*
X83435771Y-111338095D01*
X83435771Y-111338095D02*
X83673866Y-111338095D01*
X83673866Y-111338095D02*
X83864342Y-111385714D01*
X83864342Y-111385714D02*
X83959580Y-111433333D01*
X83959580Y-111433333D02*
X84007200Y-111480952D01*
X84007200Y-111480952D02*
X84054819Y-111576190D01*
X84054819Y-111576190D02*
X84054819Y-111671428D01*
X84054819Y-111671428D02*
X84007200Y-111766666D01*
X84007200Y-111766666D02*
X83959580Y-111814285D01*
X83959580Y-111814285D02*
X83864342Y-111861904D01*
X83864342Y-111861904D02*
X83673866Y-111909523D01*
X83673866Y-111909523D02*
X83435771Y-111909523D01*
X83435771Y-111909523D02*
X83245295Y-111861904D01*
X83245295Y-111861904D02*
X83150057Y-111814285D01*
X83150057Y-111814285D02*
X83102438Y-111766666D01*
X83102438Y-111766666D02*
X83054819Y-111671428D01*
X110609580Y-114942857D02*
X110657200Y-114990476D01*
X110657200Y-114990476D02*
X110704819Y-115133333D01*
X110704819Y-115133333D02*
X110704819Y-115228571D01*
X110704819Y-115228571D02*
X110657200Y-115371428D01*
X110657200Y-115371428D02*
X110561961Y-115466666D01*
X110561961Y-115466666D02*
X110466723Y-115514285D01*
X110466723Y-115514285D02*
X110276247Y-115561904D01*
X110276247Y-115561904D02*
X110133390Y-115561904D01*
X110133390Y-115561904D02*
X109942914Y-115514285D01*
X109942914Y-115514285D02*
X109847676Y-115466666D01*
X109847676Y-115466666D02*
X109752438Y-115371428D01*
X109752438Y-115371428D02*
X109704819Y-115228571D01*
X109704819Y-115228571D02*
X109704819Y-115133333D01*
X109704819Y-115133333D02*
X109752438Y-114990476D01*
X109752438Y-114990476D02*
X109800057Y-114942857D01*
X109704819Y-114609523D02*
X109704819Y-113990476D01*
X109704819Y-113990476D02*
X110085771Y-114323809D01*
X110085771Y-114323809D02*
X110085771Y-114180952D01*
X110085771Y-114180952D02*
X110133390Y-114085714D01*
X110133390Y-114085714D02*
X110181009Y-114038095D01*
X110181009Y-114038095D02*
X110276247Y-113990476D01*
X110276247Y-113990476D02*
X110514342Y-113990476D01*
X110514342Y-113990476D02*
X110609580Y-114038095D01*
X110609580Y-114038095D02*
X110657200Y-114085714D01*
X110657200Y-114085714D02*
X110704819Y-114180952D01*
X110704819Y-114180952D02*
X110704819Y-114466666D01*
X110704819Y-114466666D02*
X110657200Y-114561904D01*
X110657200Y-114561904D02*
X110609580Y-114609523D01*
X109704819Y-113085714D02*
X109704819Y-113561904D01*
X109704819Y-113561904D02*
X110181009Y-113609523D01*
X110181009Y-113609523D02*
X110133390Y-113561904D01*
X110133390Y-113561904D02*
X110085771Y-113466666D01*
X110085771Y-113466666D02*
X110085771Y-113228571D01*
X110085771Y-113228571D02*
X110133390Y-113133333D01*
X110133390Y-113133333D02*
X110181009Y-113085714D01*
X110181009Y-113085714D02*
X110276247Y-113038095D01*
X110276247Y-113038095D02*
X110514342Y-113038095D01*
X110514342Y-113038095D02*
X110609580Y-113085714D01*
X110609580Y-113085714D02*
X110657200Y-113133333D01*
X110657200Y-113133333D02*
X110704819Y-113228571D01*
X110704819Y-113228571D02*
X110704819Y-113466666D01*
X110704819Y-113466666D02*
X110657200Y-113561904D01*
X110657200Y-113561904D02*
X110609580Y-113609523D01*
X95750057Y-68895238D02*
X95702438Y-68990476D01*
X95702438Y-68990476D02*
X95607200Y-69085714D01*
X95607200Y-69085714D02*
X95464342Y-69228571D01*
X95464342Y-69228571D02*
X95416723Y-69323809D01*
X95416723Y-69323809D02*
X95416723Y-69419047D01*
X95654819Y-69371428D02*
X95607200Y-69466666D01*
X95607200Y-69466666D02*
X95511961Y-69561904D01*
X95511961Y-69561904D02*
X95321485Y-69609523D01*
X95321485Y-69609523D02*
X94988152Y-69609523D01*
X94988152Y-69609523D02*
X94797676Y-69561904D01*
X94797676Y-69561904D02*
X94702438Y-69466666D01*
X94702438Y-69466666D02*
X94654819Y-69371428D01*
X94654819Y-69371428D02*
X94654819Y-69180952D01*
X94654819Y-69180952D02*
X94702438Y-69085714D01*
X94702438Y-69085714D02*
X94797676Y-68990476D01*
X94797676Y-68990476D02*
X94988152Y-68942857D01*
X94988152Y-68942857D02*
X95321485Y-68942857D01*
X95321485Y-68942857D02*
X95511961Y-68990476D01*
X95511961Y-68990476D02*
X95607200Y-69085714D01*
X95607200Y-69085714D02*
X95654819Y-69180952D01*
X95654819Y-69180952D02*
X95654819Y-69371428D01*
X95654819Y-67990476D02*
X95654819Y-68561904D01*
X95654819Y-68276190D02*
X94654819Y-68276190D01*
X94654819Y-68276190D02*
X94797676Y-68371428D01*
X94797676Y-68371428D02*
X94892914Y-68466666D01*
X94892914Y-68466666D02*
X94940533Y-68561904D01*
X103838095Y-119254819D02*
X103838095Y-120064342D01*
X103838095Y-120064342D02*
X103885714Y-120159580D01*
X103885714Y-120159580D02*
X103933333Y-120207200D01*
X103933333Y-120207200D02*
X104028571Y-120254819D01*
X104028571Y-120254819D02*
X104219047Y-120254819D01*
X104219047Y-120254819D02*
X104314285Y-120207200D01*
X104314285Y-120207200D02*
X104361904Y-120159580D01*
X104361904Y-120159580D02*
X104409523Y-120064342D01*
X104409523Y-120064342D02*
X104409523Y-119254819D01*
X104790476Y-119254819D02*
X105409523Y-119254819D01*
X105409523Y-119254819D02*
X105076190Y-119635771D01*
X105076190Y-119635771D02*
X105219047Y-119635771D01*
X105219047Y-119635771D02*
X105314285Y-119683390D01*
X105314285Y-119683390D02*
X105361904Y-119731009D01*
X105361904Y-119731009D02*
X105409523Y-119826247D01*
X105409523Y-119826247D02*
X105409523Y-120064342D01*
X105409523Y-120064342D02*
X105361904Y-120159580D01*
X105361904Y-120159580D02*
X105314285Y-120207200D01*
X105314285Y-120207200D02*
X105219047Y-120254819D01*
X105219047Y-120254819D02*
X104933333Y-120254819D01*
X104933333Y-120254819D02*
X104838095Y-120207200D01*
X104838095Y-120207200D02*
X104790476Y-120159580D01*
D12*
X92087664Y-116814285D02*
X92125760Y-116852381D01*
X92125760Y-116852381D02*
X92163855Y-116966666D01*
X92163855Y-116966666D02*
X92163855Y-117042857D01*
X92163855Y-117042857D02*
X92125760Y-117157143D01*
X92125760Y-117157143D02*
X92049569Y-117233333D01*
X92049569Y-117233333D02*
X91973379Y-117271428D01*
X91973379Y-117271428D02*
X91820998Y-117309524D01*
X91820998Y-117309524D02*
X91706712Y-117309524D01*
X91706712Y-117309524D02*
X91554331Y-117271428D01*
X91554331Y-117271428D02*
X91478140Y-117233333D01*
X91478140Y-117233333D02*
X91401950Y-117157143D01*
X91401950Y-117157143D02*
X91363855Y-117042857D01*
X91363855Y-117042857D02*
X91363855Y-116966666D01*
X91363855Y-116966666D02*
X91401950Y-116852381D01*
X91401950Y-116852381D02*
X91440045Y-116814285D01*
X91440045Y-116509524D02*
X91401950Y-116471428D01*
X91401950Y-116471428D02*
X91363855Y-116395238D01*
X91363855Y-116395238D02*
X91363855Y-116204762D01*
X91363855Y-116204762D02*
X91401950Y-116128571D01*
X91401950Y-116128571D02*
X91440045Y-116090476D01*
X91440045Y-116090476D02*
X91516236Y-116052381D01*
X91516236Y-116052381D02*
X91592426Y-116052381D01*
X91592426Y-116052381D02*
X91706712Y-116090476D01*
X91706712Y-116090476D02*
X92163855Y-116547619D01*
X92163855Y-116547619D02*
X92163855Y-116052381D01*
X91440045Y-115747619D02*
X91401950Y-115709523D01*
X91401950Y-115709523D02*
X91363855Y-115633333D01*
X91363855Y-115633333D02*
X91363855Y-115442857D01*
X91363855Y-115442857D02*
X91401950Y-115366666D01*
X91401950Y-115366666D02*
X91440045Y-115328571D01*
X91440045Y-115328571D02*
X91516236Y-115290476D01*
X91516236Y-115290476D02*
X91592426Y-115290476D01*
X91592426Y-115290476D02*
X91706712Y-115328571D01*
X91706712Y-115328571D02*
X92163855Y-115785714D01*
X92163855Y-115785714D02*
X92163855Y-115290476D01*
D11*
X113257142Y-100859580D02*
X113209523Y-100907200D01*
X113209523Y-100907200D02*
X113066666Y-100954819D01*
X113066666Y-100954819D02*
X112971428Y-100954819D01*
X112971428Y-100954819D02*
X112828571Y-100907200D01*
X112828571Y-100907200D02*
X112733333Y-100811961D01*
X112733333Y-100811961D02*
X112685714Y-100716723D01*
X112685714Y-100716723D02*
X112638095Y-100526247D01*
X112638095Y-100526247D02*
X112638095Y-100383390D01*
X112638095Y-100383390D02*
X112685714Y-100192914D01*
X112685714Y-100192914D02*
X112733333Y-100097676D01*
X112733333Y-100097676D02*
X112828571Y-100002438D01*
X112828571Y-100002438D02*
X112971428Y-99954819D01*
X112971428Y-99954819D02*
X113066666Y-99954819D01*
X113066666Y-99954819D02*
X113209523Y-100002438D01*
X113209523Y-100002438D02*
X113257142Y-100050057D01*
X113590476Y-99954819D02*
X114209523Y-99954819D01*
X114209523Y-99954819D02*
X113876190Y-100335771D01*
X113876190Y-100335771D02*
X114019047Y-100335771D01*
X114019047Y-100335771D02*
X114114285Y-100383390D01*
X114114285Y-100383390D02*
X114161904Y-100431009D01*
X114161904Y-100431009D02*
X114209523Y-100526247D01*
X114209523Y-100526247D02*
X114209523Y-100764342D01*
X114209523Y-100764342D02*
X114161904Y-100859580D01*
X114161904Y-100859580D02*
X114114285Y-100907200D01*
X114114285Y-100907200D02*
X114019047Y-100954819D01*
X114019047Y-100954819D02*
X113733333Y-100954819D01*
X113733333Y-100954819D02*
X113638095Y-100907200D01*
X113638095Y-100907200D02*
X113590476Y-100859580D01*
X114542857Y-99954819D02*
X115161904Y-99954819D01*
X115161904Y-99954819D02*
X114828571Y-100335771D01*
X114828571Y-100335771D02*
X114971428Y-100335771D01*
X114971428Y-100335771D02*
X115066666Y-100383390D01*
X115066666Y-100383390D02*
X115114285Y-100431009D01*
X115114285Y-100431009D02*
X115161904Y-100526247D01*
X115161904Y-100526247D02*
X115161904Y-100764342D01*
X115161904Y-100764342D02*
X115114285Y-100859580D01*
X115114285Y-100859580D02*
X115066666Y-100907200D01*
X115066666Y-100907200D02*
X114971428Y-100954819D01*
X114971428Y-100954819D02*
X114685714Y-100954819D01*
X114685714Y-100954819D02*
X114590476Y-100907200D01*
X114590476Y-100907200D02*
X114542857Y-100859580D01*
X109833333Y-125154819D02*
X109500000Y-124678628D01*
X109261905Y-125154819D02*
X109261905Y-124154819D01*
X109261905Y-124154819D02*
X109642857Y-124154819D01*
X109642857Y-124154819D02*
X109738095Y-124202438D01*
X109738095Y-124202438D02*
X109785714Y-124250057D01*
X109785714Y-124250057D02*
X109833333Y-124345295D01*
X109833333Y-124345295D02*
X109833333Y-124488152D01*
X109833333Y-124488152D02*
X109785714Y-124583390D01*
X109785714Y-124583390D02*
X109738095Y-124631009D01*
X109738095Y-124631009D02*
X109642857Y-124678628D01*
X109642857Y-124678628D02*
X109261905Y-124678628D01*
X110738095Y-124154819D02*
X110261905Y-124154819D01*
X110261905Y-124154819D02*
X110214286Y-124631009D01*
X110214286Y-124631009D02*
X110261905Y-124583390D01*
X110261905Y-124583390D02*
X110357143Y-124535771D01*
X110357143Y-124535771D02*
X110595238Y-124535771D01*
X110595238Y-124535771D02*
X110690476Y-124583390D01*
X110690476Y-124583390D02*
X110738095Y-124631009D01*
X110738095Y-124631009D02*
X110785714Y-124726247D01*
X110785714Y-124726247D02*
X110785714Y-124964342D01*
X110785714Y-124964342D02*
X110738095Y-125059580D01*
X110738095Y-125059580D02*
X110690476Y-125107200D01*
X110690476Y-125107200D02*
X110595238Y-125154819D01*
X110595238Y-125154819D02*
X110357143Y-125154819D01*
X110357143Y-125154819D02*
X110261905Y-125107200D01*
X110261905Y-125107200D02*
X110214286Y-125059580D01*
D12*
X88687664Y-85814285D02*
X88725760Y-85852381D01*
X88725760Y-85852381D02*
X88763855Y-85966666D01*
X88763855Y-85966666D02*
X88763855Y-86042857D01*
X88763855Y-86042857D02*
X88725760Y-86157143D01*
X88725760Y-86157143D02*
X88649569Y-86233333D01*
X88649569Y-86233333D02*
X88573379Y-86271428D01*
X88573379Y-86271428D02*
X88420998Y-86309524D01*
X88420998Y-86309524D02*
X88306712Y-86309524D01*
X88306712Y-86309524D02*
X88154331Y-86271428D01*
X88154331Y-86271428D02*
X88078140Y-86233333D01*
X88078140Y-86233333D02*
X88001950Y-86157143D01*
X88001950Y-86157143D02*
X87963855Y-86042857D01*
X87963855Y-86042857D02*
X87963855Y-85966666D01*
X87963855Y-85966666D02*
X88001950Y-85852381D01*
X88001950Y-85852381D02*
X88040045Y-85814285D01*
X88230521Y-85128571D02*
X88763855Y-85128571D01*
X87925760Y-85319047D02*
X88497188Y-85509524D01*
X88497188Y-85509524D02*
X88497188Y-85014285D01*
X87963855Y-84366666D02*
X87963855Y-84519047D01*
X87963855Y-84519047D02*
X88001950Y-84595238D01*
X88001950Y-84595238D02*
X88040045Y-84633333D01*
X88040045Y-84633333D02*
X88154331Y-84709523D01*
X88154331Y-84709523D02*
X88306712Y-84747619D01*
X88306712Y-84747619D02*
X88611474Y-84747619D01*
X88611474Y-84747619D02*
X88687664Y-84709523D01*
X88687664Y-84709523D02*
X88725760Y-84671428D01*
X88725760Y-84671428D02*
X88763855Y-84595238D01*
X88763855Y-84595238D02*
X88763855Y-84442857D01*
X88763855Y-84442857D02*
X88725760Y-84366666D01*
X88725760Y-84366666D02*
X88687664Y-84328571D01*
X88687664Y-84328571D02*
X88611474Y-84290476D01*
X88611474Y-84290476D02*
X88420998Y-84290476D01*
X88420998Y-84290476D02*
X88344807Y-84328571D01*
X88344807Y-84328571D02*
X88306712Y-84366666D01*
X88306712Y-84366666D02*
X88268617Y-84442857D01*
X88268617Y-84442857D02*
X88268617Y-84595238D01*
X88268617Y-84595238D02*
X88306712Y-84671428D01*
X88306712Y-84671428D02*
X88344807Y-84709523D01*
X88344807Y-84709523D02*
X88420998Y-84747619D01*
D11*
X121454819Y-116461904D02*
X122264342Y-116461904D01*
X122264342Y-116461904D02*
X122359580Y-116414285D01*
X122359580Y-116414285D02*
X122407200Y-116366666D01*
X122407200Y-116366666D02*
X122454819Y-116271428D01*
X122454819Y-116271428D02*
X122454819Y-116080952D01*
X122454819Y-116080952D02*
X122407200Y-115985714D01*
X122407200Y-115985714D02*
X122359580Y-115938095D01*
X122359580Y-115938095D02*
X122264342Y-115890476D01*
X122264342Y-115890476D02*
X121454819Y-115890476D01*
X121883390Y-115271428D02*
X121835771Y-115366666D01*
X121835771Y-115366666D02*
X121788152Y-115414285D01*
X121788152Y-115414285D02*
X121692914Y-115461904D01*
X121692914Y-115461904D02*
X121645295Y-115461904D01*
X121645295Y-115461904D02*
X121550057Y-115414285D01*
X121550057Y-115414285D02*
X121502438Y-115366666D01*
X121502438Y-115366666D02*
X121454819Y-115271428D01*
X121454819Y-115271428D02*
X121454819Y-115080952D01*
X121454819Y-115080952D02*
X121502438Y-114985714D01*
X121502438Y-114985714D02*
X121550057Y-114938095D01*
X121550057Y-114938095D02*
X121645295Y-114890476D01*
X121645295Y-114890476D02*
X121692914Y-114890476D01*
X121692914Y-114890476D02*
X121788152Y-114938095D01*
X121788152Y-114938095D02*
X121835771Y-114985714D01*
X121835771Y-114985714D02*
X121883390Y-115080952D01*
X121883390Y-115080952D02*
X121883390Y-115271428D01*
X121883390Y-115271428D02*
X121931009Y-115366666D01*
X121931009Y-115366666D02*
X121978628Y-115414285D01*
X121978628Y-115414285D02*
X122073866Y-115461904D01*
X122073866Y-115461904D02*
X122264342Y-115461904D01*
X122264342Y-115461904D02*
X122359580Y-115414285D01*
X122359580Y-115414285D02*
X122407200Y-115366666D01*
X122407200Y-115366666D02*
X122454819Y-115271428D01*
X122454819Y-115271428D02*
X122454819Y-115080952D01*
X122454819Y-115080952D02*
X122407200Y-114985714D01*
X122407200Y-114985714D02*
X122359580Y-114938095D01*
X122359580Y-114938095D02*
X122264342Y-114890476D01*
X122264342Y-114890476D02*
X122073866Y-114890476D01*
X122073866Y-114890476D02*
X121978628Y-114938095D01*
X121978628Y-114938095D02*
X121931009Y-114985714D01*
X121931009Y-114985714D02*
X121883390Y-115080952D01*
X86838095Y-104304819D02*
X86838095Y-105114342D01*
X86838095Y-105114342D02*
X86885714Y-105209580D01*
X86885714Y-105209580D02*
X86933333Y-105257200D01*
X86933333Y-105257200D02*
X87028571Y-105304819D01*
X87028571Y-105304819D02*
X87219047Y-105304819D01*
X87219047Y-105304819D02*
X87314285Y-105257200D01*
X87314285Y-105257200D02*
X87361904Y-105209580D01*
X87361904Y-105209580D02*
X87409523Y-105114342D01*
X87409523Y-105114342D02*
X87409523Y-104304819D01*
X88361904Y-104304819D02*
X87885714Y-104304819D01*
X87885714Y-104304819D02*
X87838095Y-104781009D01*
X87838095Y-104781009D02*
X87885714Y-104733390D01*
X87885714Y-104733390D02*
X87980952Y-104685771D01*
X87980952Y-104685771D02*
X88219047Y-104685771D01*
X88219047Y-104685771D02*
X88314285Y-104733390D01*
X88314285Y-104733390D02*
X88361904Y-104781009D01*
X88361904Y-104781009D02*
X88409523Y-104876247D01*
X88409523Y-104876247D02*
X88409523Y-105114342D01*
X88409523Y-105114342D02*
X88361904Y-105209580D01*
X88361904Y-105209580D02*
X88314285Y-105257200D01*
X88314285Y-105257200D02*
X88219047Y-105304819D01*
X88219047Y-105304819D02*
X87980952Y-105304819D01*
X87980952Y-105304819D02*
X87885714Y-105257200D01*
X87885714Y-105257200D02*
X87838095Y-105209580D01*
X86054819Y-86267857D02*
X85578628Y-86601190D01*
X86054819Y-86839285D02*
X85054819Y-86839285D01*
X85054819Y-86839285D02*
X85054819Y-86458333D01*
X85054819Y-86458333D02*
X85102438Y-86363095D01*
X85102438Y-86363095D02*
X85150057Y-86315476D01*
X85150057Y-86315476D02*
X85245295Y-86267857D01*
X85245295Y-86267857D02*
X85388152Y-86267857D01*
X85388152Y-86267857D02*
X85483390Y-86315476D01*
X85483390Y-86315476D02*
X85531009Y-86363095D01*
X85531009Y-86363095D02*
X85578628Y-86458333D01*
X85578628Y-86458333D02*
X85578628Y-86839285D01*
X86054819Y-85315476D02*
X86054819Y-85886904D01*
X86054819Y-85601190D02*
X85054819Y-85601190D01*
X85054819Y-85601190D02*
X85197676Y-85696428D01*
X85197676Y-85696428D02*
X85292914Y-85791666D01*
X85292914Y-85791666D02*
X85340533Y-85886904D01*
X86054819Y-84839285D02*
X86054819Y-84648809D01*
X86054819Y-84648809D02*
X86007200Y-84553571D01*
X86007200Y-84553571D02*
X85959580Y-84505952D01*
X85959580Y-84505952D02*
X85816723Y-84410714D01*
X85816723Y-84410714D02*
X85626247Y-84363095D01*
X85626247Y-84363095D02*
X85245295Y-84363095D01*
X85245295Y-84363095D02*
X85150057Y-84410714D01*
X85150057Y-84410714D02*
X85102438Y-84458333D01*
X85102438Y-84458333D02*
X85054819Y-84553571D01*
X85054819Y-84553571D02*
X85054819Y-84744047D01*
X85054819Y-84744047D02*
X85102438Y-84839285D01*
X85102438Y-84839285D02*
X85150057Y-84886904D01*
X85150057Y-84886904D02*
X85245295Y-84934523D01*
X85245295Y-84934523D02*
X85483390Y-84934523D01*
X85483390Y-84934523D02*
X85578628Y-84886904D01*
X85578628Y-84886904D02*
X85626247Y-84839285D01*
X85626247Y-84839285D02*
X85673866Y-84744047D01*
X85673866Y-84744047D02*
X85673866Y-84553571D01*
X85673866Y-84553571D02*
X85626247Y-84458333D01*
X85626247Y-84458333D02*
X85578628Y-84410714D01*
X85578628Y-84410714D02*
X85483390Y-84363095D01*
X82357142Y-103159580D02*
X82309523Y-103207200D01*
X82309523Y-103207200D02*
X82166666Y-103254819D01*
X82166666Y-103254819D02*
X82071428Y-103254819D01*
X82071428Y-103254819D02*
X81928571Y-103207200D01*
X81928571Y-103207200D02*
X81833333Y-103111961D01*
X81833333Y-103111961D02*
X81785714Y-103016723D01*
X81785714Y-103016723D02*
X81738095Y-102826247D01*
X81738095Y-102826247D02*
X81738095Y-102683390D01*
X81738095Y-102683390D02*
X81785714Y-102492914D01*
X81785714Y-102492914D02*
X81833333Y-102397676D01*
X81833333Y-102397676D02*
X81928571Y-102302438D01*
X81928571Y-102302438D02*
X82071428Y-102254819D01*
X82071428Y-102254819D02*
X82166666Y-102254819D01*
X82166666Y-102254819D02*
X82309523Y-102302438D01*
X82309523Y-102302438D02*
X82357142Y-102350057D01*
X83261904Y-102254819D02*
X82785714Y-102254819D01*
X82785714Y-102254819D02*
X82738095Y-102731009D01*
X82738095Y-102731009D02*
X82785714Y-102683390D01*
X82785714Y-102683390D02*
X82880952Y-102635771D01*
X82880952Y-102635771D02*
X83119047Y-102635771D01*
X83119047Y-102635771D02*
X83214285Y-102683390D01*
X83214285Y-102683390D02*
X83261904Y-102731009D01*
X83261904Y-102731009D02*
X83309523Y-102826247D01*
X83309523Y-102826247D02*
X83309523Y-103064342D01*
X83309523Y-103064342D02*
X83261904Y-103159580D01*
X83261904Y-103159580D02*
X83214285Y-103207200D01*
X83214285Y-103207200D02*
X83119047Y-103254819D01*
X83119047Y-103254819D02*
X82880952Y-103254819D01*
X82880952Y-103254819D02*
X82785714Y-103207200D01*
X82785714Y-103207200D02*
X82738095Y-103159580D01*
X84214285Y-102254819D02*
X83738095Y-102254819D01*
X83738095Y-102254819D02*
X83690476Y-102731009D01*
X83690476Y-102731009D02*
X83738095Y-102683390D01*
X83738095Y-102683390D02*
X83833333Y-102635771D01*
X83833333Y-102635771D02*
X84071428Y-102635771D01*
X84071428Y-102635771D02*
X84166666Y-102683390D01*
X84166666Y-102683390D02*
X84214285Y-102731009D01*
X84214285Y-102731009D02*
X84261904Y-102826247D01*
X84261904Y-102826247D02*
X84261904Y-103064342D01*
X84261904Y-103064342D02*
X84214285Y-103159580D01*
X84214285Y-103159580D02*
X84166666Y-103207200D01*
X84166666Y-103207200D02*
X84071428Y-103254819D01*
X84071428Y-103254819D02*
X83833333Y-103254819D01*
X83833333Y-103254819D02*
X83738095Y-103207200D01*
X83738095Y-103207200D02*
X83690476Y-103159580D01*
D12*
X92163855Y-97233332D02*
X91782902Y-97499999D01*
X92163855Y-97690475D02*
X91363855Y-97690475D01*
X91363855Y-97690475D02*
X91363855Y-97385713D01*
X91363855Y-97385713D02*
X91401950Y-97309523D01*
X91401950Y-97309523D02*
X91440045Y-97271428D01*
X91440045Y-97271428D02*
X91516236Y-97233332D01*
X91516236Y-97233332D02*
X91630521Y-97233332D01*
X91630521Y-97233332D02*
X91706712Y-97271428D01*
X91706712Y-97271428D02*
X91744807Y-97309523D01*
X91744807Y-97309523D02*
X91782902Y-97385713D01*
X91782902Y-97385713D02*
X91782902Y-97690475D01*
X92163855Y-96890475D02*
X91363855Y-96890475D01*
X91363855Y-96890475D02*
X92163855Y-96433332D01*
X92163855Y-96433332D02*
X91363855Y-96433332D01*
X92163855Y-95633333D02*
X92163855Y-96090476D01*
X92163855Y-95861904D02*
X91363855Y-95861904D01*
X91363855Y-95861904D02*
X91478140Y-95938095D01*
X91478140Y-95938095D02*
X91554331Y-96014285D01*
X91554331Y-96014285D02*
X91592426Y-96090476D01*
X91363855Y-95366666D02*
X91363855Y-94871428D01*
X91363855Y-94871428D02*
X91668617Y-95138094D01*
X91668617Y-95138094D02*
X91668617Y-95023809D01*
X91668617Y-95023809D02*
X91706712Y-94947618D01*
X91706712Y-94947618D02*
X91744807Y-94909523D01*
X91744807Y-94909523D02*
X91820998Y-94871428D01*
X91820998Y-94871428D02*
X92011474Y-94871428D01*
X92011474Y-94871428D02*
X92087664Y-94909523D01*
X92087664Y-94909523D02*
X92125760Y-94947618D01*
X92125760Y-94947618D02*
X92163855Y-95023809D01*
X92163855Y-95023809D02*
X92163855Y-95252380D01*
X92163855Y-95252380D02*
X92125760Y-95328571D01*
X92125760Y-95328571D02*
X92087664Y-95366666D01*
D11*
X88259580Y-114642857D02*
X88307200Y-114690476D01*
X88307200Y-114690476D02*
X88354819Y-114833333D01*
X88354819Y-114833333D02*
X88354819Y-114928571D01*
X88354819Y-114928571D02*
X88307200Y-115071428D01*
X88307200Y-115071428D02*
X88211961Y-115166666D01*
X88211961Y-115166666D02*
X88116723Y-115214285D01*
X88116723Y-115214285D02*
X87926247Y-115261904D01*
X87926247Y-115261904D02*
X87783390Y-115261904D01*
X87783390Y-115261904D02*
X87592914Y-115214285D01*
X87592914Y-115214285D02*
X87497676Y-115166666D01*
X87497676Y-115166666D02*
X87402438Y-115071428D01*
X87402438Y-115071428D02*
X87354819Y-114928571D01*
X87354819Y-114928571D02*
X87354819Y-114833333D01*
X87354819Y-114833333D02*
X87402438Y-114690476D01*
X87402438Y-114690476D02*
X87450057Y-114642857D01*
X87450057Y-114261904D02*
X87402438Y-114214285D01*
X87402438Y-114214285D02*
X87354819Y-114119047D01*
X87354819Y-114119047D02*
X87354819Y-113880952D01*
X87354819Y-113880952D02*
X87402438Y-113785714D01*
X87402438Y-113785714D02*
X87450057Y-113738095D01*
X87450057Y-113738095D02*
X87545295Y-113690476D01*
X87545295Y-113690476D02*
X87640533Y-113690476D01*
X87640533Y-113690476D02*
X87783390Y-113738095D01*
X87783390Y-113738095D02*
X88354819Y-114309523D01*
X88354819Y-114309523D02*
X88354819Y-113690476D01*
X87688152Y-112833333D02*
X88354819Y-112833333D01*
X87307200Y-113071428D02*
X88021485Y-113309523D01*
X88021485Y-113309523D02*
X88021485Y-112690476D01*
X110357142Y-109259580D02*
X110309523Y-109307200D01*
X110309523Y-109307200D02*
X110166666Y-109354819D01*
X110166666Y-109354819D02*
X110071428Y-109354819D01*
X110071428Y-109354819D02*
X109928571Y-109307200D01*
X109928571Y-109307200D02*
X109833333Y-109211961D01*
X109833333Y-109211961D02*
X109785714Y-109116723D01*
X109785714Y-109116723D02*
X109738095Y-108926247D01*
X109738095Y-108926247D02*
X109738095Y-108783390D01*
X109738095Y-108783390D02*
X109785714Y-108592914D01*
X109785714Y-108592914D02*
X109833333Y-108497676D01*
X109833333Y-108497676D02*
X109928571Y-108402438D01*
X109928571Y-108402438D02*
X110071428Y-108354819D01*
X110071428Y-108354819D02*
X110166666Y-108354819D01*
X110166666Y-108354819D02*
X110309523Y-108402438D01*
X110309523Y-108402438D02*
X110357142Y-108450057D01*
X111309523Y-109354819D02*
X110738095Y-109354819D01*
X111023809Y-109354819D02*
X111023809Y-108354819D01*
X111023809Y-108354819D02*
X110928571Y-108497676D01*
X110928571Y-108497676D02*
X110833333Y-108592914D01*
X110833333Y-108592914D02*
X110738095Y-108640533D01*
X112166666Y-108688152D02*
X112166666Y-109354819D01*
X111928571Y-108307200D02*
X111690476Y-109021485D01*
X111690476Y-109021485D02*
X112309523Y-109021485D01*
D13*
X121621428Y-104523882D02*
X121578571Y-104566740D01*
X121578571Y-104566740D02*
X121449999Y-104609597D01*
X121449999Y-104609597D02*
X121364285Y-104609597D01*
X121364285Y-104609597D02*
X121235714Y-104566740D01*
X121235714Y-104566740D02*
X121149999Y-104481025D01*
X121149999Y-104481025D02*
X121107142Y-104395311D01*
X121107142Y-104395311D02*
X121064285Y-104223882D01*
X121064285Y-104223882D02*
X121064285Y-104095311D01*
X121064285Y-104095311D02*
X121107142Y-103923882D01*
X121107142Y-103923882D02*
X121149999Y-103838168D01*
X121149999Y-103838168D02*
X121235714Y-103752454D01*
X121235714Y-103752454D02*
X121364285Y-103709597D01*
X121364285Y-103709597D02*
X121449999Y-103709597D01*
X121449999Y-103709597D02*
X121578571Y-103752454D01*
X121578571Y-103752454D02*
X121621428Y-103795311D01*
X121921428Y-103709597D02*
X122478571Y-103709597D01*
X122478571Y-103709597D02*
X122178571Y-104052454D01*
X122178571Y-104052454D02*
X122307142Y-104052454D01*
X122307142Y-104052454D02*
X122392857Y-104095311D01*
X122392857Y-104095311D02*
X122435714Y-104138168D01*
X122435714Y-104138168D02*
X122478571Y-104223882D01*
X122478571Y-104223882D02*
X122478571Y-104438168D01*
X122478571Y-104438168D02*
X122435714Y-104523882D01*
X122435714Y-104523882D02*
X122392857Y-104566740D01*
X122392857Y-104566740D02*
X122307142Y-104609597D01*
X122307142Y-104609597D02*
X122049999Y-104609597D01*
X122049999Y-104609597D02*
X121964285Y-104566740D01*
X121964285Y-104566740D02*
X121921428Y-104523882D01*
X122992857Y-104095311D02*
X122907142Y-104052454D01*
X122907142Y-104052454D02*
X122864285Y-104009597D01*
X122864285Y-104009597D02*
X122821428Y-103923882D01*
X122821428Y-103923882D02*
X122821428Y-103881025D01*
X122821428Y-103881025D02*
X122864285Y-103795311D01*
X122864285Y-103795311D02*
X122907142Y-103752454D01*
X122907142Y-103752454D02*
X122992857Y-103709597D01*
X122992857Y-103709597D02*
X123164285Y-103709597D01*
X123164285Y-103709597D02*
X123250000Y-103752454D01*
X123250000Y-103752454D02*
X123292857Y-103795311D01*
X123292857Y-103795311D02*
X123335714Y-103881025D01*
X123335714Y-103881025D02*
X123335714Y-103923882D01*
X123335714Y-103923882D02*
X123292857Y-104009597D01*
X123292857Y-104009597D02*
X123250000Y-104052454D01*
X123250000Y-104052454D02*
X123164285Y-104095311D01*
X123164285Y-104095311D02*
X122992857Y-104095311D01*
X122992857Y-104095311D02*
X122907142Y-104138168D01*
X122907142Y-104138168D02*
X122864285Y-104181025D01*
X122864285Y-104181025D02*
X122821428Y-104266740D01*
X122821428Y-104266740D02*
X122821428Y-104438168D01*
X122821428Y-104438168D02*
X122864285Y-104523882D01*
X122864285Y-104523882D02*
X122907142Y-104566740D01*
X122907142Y-104566740D02*
X122992857Y-104609597D01*
X122992857Y-104609597D02*
X123164285Y-104609597D01*
X123164285Y-104609597D02*
X123250000Y-104566740D01*
X123250000Y-104566740D02*
X123292857Y-104523882D01*
X123292857Y-104523882D02*
X123335714Y-104438168D01*
X123335714Y-104438168D02*
X123335714Y-104266740D01*
X123335714Y-104266740D02*
X123292857Y-104181025D01*
X123292857Y-104181025D02*
X123250000Y-104138168D01*
X123250000Y-104138168D02*
X123164285Y-104095311D01*
D11*
X95733333Y-75954819D02*
X95400000Y-75478628D01*
X95161905Y-75954819D02*
X95161905Y-74954819D01*
X95161905Y-74954819D02*
X95542857Y-74954819D01*
X95542857Y-74954819D02*
X95638095Y-75002438D01*
X95638095Y-75002438D02*
X95685714Y-75050057D01*
X95685714Y-75050057D02*
X95733333Y-75145295D01*
X95733333Y-75145295D02*
X95733333Y-75288152D01*
X95733333Y-75288152D02*
X95685714Y-75383390D01*
X95685714Y-75383390D02*
X95638095Y-75431009D01*
X95638095Y-75431009D02*
X95542857Y-75478628D01*
X95542857Y-75478628D02*
X95161905Y-75478628D01*
X96685714Y-75954819D02*
X96114286Y-75954819D01*
X96400000Y-75954819D02*
X96400000Y-74954819D01*
X96400000Y-74954819D02*
X96304762Y-75097676D01*
X96304762Y-75097676D02*
X96209524Y-75192914D01*
X96209524Y-75192914D02*
X96114286Y-75240533D01*
X113154819Y-83766666D02*
X112678628Y-84099999D01*
X113154819Y-84338094D02*
X112154819Y-84338094D01*
X112154819Y-84338094D02*
X112154819Y-83957142D01*
X112154819Y-83957142D02*
X112202438Y-83861904D01*
X112202438Y-83861904D02*
X112250057Y-83814285D01*
X112250057Y-83814285D02*
X112345295Y-83766666D01*
X112345295Y-83766666D02*
X112488152Y-83766666D01*
X112488152Y-83766666D02*
X112583390Y-83814285D01*
X112583390Y-83814285D02*
X112631009Y-83861904D01*
X112631009Y-83861904D02*
X112678628Y-83957142D01*
X112678628Y-83957142D02*
X112678628Y-84338094D01*
X112488152Y-82909523D02*
X113154819Y-82909523D01*
X112107200Y-83147618D02*
X112821485Y-83385713D01*
X112821485Y-83385713D02*
X112821485Y-82766666D01*
X83057142Y-90559580D02*
X83009523Y-90607200D01*
X83009523Y-90607200D02*
X82866666Y-90654819D01*
X82866666Y-90654819D02*
X82771428Y-90654819D01*
X82771428Y-90654819D02*
X82628571Y-90607200D01*
X82628571Y-90607200D02*
X82533333Y-90511961D01*
X82533333Y-90511961D02*
X82485714Y-90416723D01*
X82485714Y-90416723D02*
X82438095Y-90226247D01*
X82438095Y-90226247D02*
X82438095Y-90083390D01*
X82438095Y-90083390D02*
X82485714Y-89892914D01*
X82485714Y-89892914D02*
X82533333Y-89797676D01*
X82533333Y-89797676D02*
X82628571Y-89702438D01*
X82628571Y-89702438D02*
X82771428Y-89654819D01*
X82771428Y-89654819D02*
X82866666Y-89654819D01*
X82866666Y-89654819D02*
X83009523Y-89702438D01*
X83009523Y-89702438D02*
X83057142Y-89750057D01*
X83961904Y-89654819D02*
X83485714Y-89654819D01*
X83485714Y-89654819D02*
X83438095Y-90131009D01*
X83438095Y-90131009D02*
X83485714Y-90083390D01*
X83485714Y-90083390D02*
X83580952Y-90035771D01*
X83580952Y-90035771D02*
X83819047Y-90035771D01*
X83819047Y-90035771D02*
X83914285Y-90083390D01*
X83914285Y-90083390D02*
X83961904Y-90131009D01*
X83961904Y-90131009D02*
X84009523Y-90226247D01*
X84009523Y-90226247D02*
X84009523Y-90464342D01*
X84009523Y-90464342D02*
X83961904Y-90559580D01*
X83961904Y-90559580D02*
X83914285Y-90607200D01*
X83914285Y-90607200D02*
X83819047Y-90654819D01*
X83819047Y-90654819D02*
X83580952Y-90654819D01*
X83580952Y-90654819D02*
X83485714Y-90607200D01*
X83485714Y-90607200D02*
X83438095Y-90559580D01*
X84342857Y-89654819D02*
X84961904Y-89654819D01*
X84961904Y-89654819D02*
X84628571Y-90035771D01*
X84628571Y-90035771D02*
X84771428Y-90035771D01*
X84771428Y-90035771D02*
X84866666Y-90083390D01*
X84866666Y-90083390D02*
X84914285Y-90131009D01*
X84914285Y-90131009D02*
X84961904Y-90226247D01*
X84961904Y-90226247D02*
X84961904Y-90464342D01*
X84961904Y-90464342D02*
X84914285Y-90559580D01*
X84914285Y-90559580D02*
X84866666Y-90607200D01*
X84866666Y-90607200D02*
X84771428Y-90654819D01*
X84771428Y-90654819D02*
X84485714Y-90654819D01*
X84485714Y-90654819D02*
X84390476Y-90607200D01*
X84390476Y-90607200D02*
X84342857Y-90559580D01*
X83609580Y-82442857D02*
X83657200Y-82490476D01*
X83657200Y-82490476D02*
X83704819Y-82633333D01*
X83704819Y-82633333D02*
X83704819Y-82728571D01*
X83704819Y-82728571D02*
X83657200Y-82871428D01*
X83657200Y-82871428D02*
X83561961Y-82966666D01*
X83561961Y-82966666D02*
X83466723Y-83014285D01*
X83466723Y-83014285D02*
X83276247Y-83061904D01*
X83276247Y-83061904D02*
X83133390Y-83061904D01*
X83133390Y-83061904D02*
X82942914Y-83014285D01*
X82942914Y-83014285D02*
X82847676Y-82966666D01*
X82847676Y-82966666D02*
X82752438Y-82871428D01*
X82752438Y-82871428D02*
X82704819Y-82728571D01*
X82704819Y-82728571D02*
X82704819Y-82633333D01*
X82704819Y-82633333D02*
X82752438Y-82490476D01*
X82752438Y-82490476D02*
X82800057Y-82442857D01*
X83038152Y-81585714D02*
X83704819Y-81585714D01*
X82657200Y-81823809D02*
X83371485Y-82061904D01*
X83371485Y-82061904D02*
X83371485Y-81442857D01*
X83133390Y-80919047D02*
X83085771Y-81014285D01*
X83085771Y-81014285D02*
X83038152Y-81061904D01*
X83038152Y-81061904D02*
X82942914Y-81109523D01*
X82942914Y-81109523D02*
X82895295Y-81109523D01*
X82895295Y-81109523D02*
X82800057Y-81061904D01*
X82800057Y-81061904D02*
X82752438Y-81014285D01*
X82752438Y-81014285D02*
X82704819Y-80919047D01*
X82704819Y-80919047D02*
X82704819Y-80728571D01*
X82704819Y-80728571D02*
X82752438Y-80633333D01*
X82752438Y-80633333D02*
X82800057Y-80585714D01*
X82800057Y-80585714D02*
X82895295Y-80538095D01*
X82895295Y-80538095D02*
X82942914Y-80538095D01*
X82942914Y-80538095D02*
X83038152Y-80585714D01*
X83038152Y-80585714D02*
X83085771Y-80633333D01*
X83085771Y-80633333D02*
X83133390Y-80728571D01*
X83133390Y-80728571D02*
X83133390Y-80919047D01*
X83133390Y-80919047D02*
X83181009Y-81014285D01*
X83181009Y-81014285D02*
X83228628Y-81061904D01*
X83228628Y-81061904D02*
X83323866Y-81109523D01*
X83323866Y-81109523D02*
X83514342Y-81109523D01*
X83514342Y-81109523D02*
X83609580Y-81061904D01*
X83609580Y-81061904D02*
X83657200Y-81014285D01*
X83657200Y-81014285D02*
X83704819Y-80919047D01*
X83704819Y-80919047D02*
X83704819Y-80728571D01*
X83704819Y-80728571D02*
X83657200Y-80633333D01*
X83657200Y-80633333D02*
X83609580Y-80585714D01*
X83609580Y-80585714D02*
X83514342Y-80538095D01*
X83514342Y-80538095D02*
X83323866Y-80538095D01*
X83323866Y-80538095D02*
X83228628Y-80585714D01*
X83228628Y-80585714D02*
X83181009Y-80633333D01*
X83181009Y-80633333D02*
X83133390Y-80728571D01*
X83557142Y-123509580D02*
X83509523Y-123557200D01*
X83509523Y-123557200D02*
X83366666Y-123604819D01*
X83366666Y-123604819D02*
X83271428Y-123604819D01*
X83271428Y-123604819D02*
X83128571Y-123557200D01*
X83128571Y-123557200D02*
X83033333Y-123461961D01*
X83033333Y-123461961D02*
X82985714Y-123366723D01*
X82985714Y-123366723D02*
X82938095Y-123176247D01*
X82938095Y-123176247D02*
X82938095Y-123033390D01*
X82938095Y-123033390D02*
X82985714Y-122842914D01*
X82985714Y-122842914D02*
X83033333Y-122747676D01*
X83033333Y-122747676D02*
X83128571Y-122652438D01*
X83128571Y-122652438D02*
X83271428Y-122604819D01*
X83271428Y-122604819D02*
X83366666Y-122604819D01*
X83366666Y-122604819D02*
X83509523Y-122652438D01*
X83509523Y-122652438D02*
X83557142Y-122700057D01*
X84461904Y-122604819D02*
X83985714Y-122604819D01*
X83985714Y-122604819D02*
X83938095Y-123081009D01*
X83938095Y-123081009D02*
X83985714Y-123033390D01*
X83985714Y-123033390D02*
X84080952Y-122985771D01*
X84080952Y-122985771D02*
X84319047Y-122985771D01*
X84319047Y-122985771D02*
X84414285Y-123033390D01*
X84414285Y-123033390D02*
X84461904Y-123081009D01*
X84461904Y-123081009D02*
X84509523Y-123176247D01*
X84509523Y-123176247D02*
X84509523Y-123414342D01*
X84509523Y-123414342D02*
X84461904Y-123509580D01*
X84461904Y-123509580D02*
X84414285Y-123557200D01*
X84414285Y-123557200D02*
X84319047Y-123604819D01*
X84319047Y-123604819D02*
X84080952Y-123604819D01*
X84080952Y-123604819D02*
X83985714Y-123557200D01*
X83985714Y-123557200D02*
X83938095Y-123509580D01*
X85128571Y-122604819D02*
X85223809Y-122604819D01*
X85223809Y-122604819D02*
X85319047Y-122652438D01*
X85319047Y-122652438D02*
X85366666Y-122700057D01*
X85366666Y-122700057D02*
X85414285Y-122795295D01*
X85414285Y-122795295D02*
X85461904Y-122985771D01*
X85461904Y-122985771D02*
X85461904Y-123223866D01*
X85461904Y-123223866D02*
X85414285Y-123414342D01*
X85414285Y-123414342D02*
X85366666Y-123509580D01*
X85366666Y-123509580D02*
X85319047Y-123557200D01*
X85319047Y-123557200D02*
X85223809Y-123604819D01*
X85223809Y-123604819D02*
X85128571Y-123604819D01*
X85128571Y-123604819D02*
X85033333Y-123557200D01*
X85033333Y-123557200D02*
X84985714Y-123509580D01*
X84985714Y-123509580D02*
X84938095Y-123414342D01*
X84938095Y-123414342D02*
X84890476Y-123223866D01*
X84890476Y-123223866D02*
X84890476Y-122985771D01*
X84890476Y-122985771D02*
X84938095Y-122795295D01*
X84938095Y-122795295D02*
X84985714Y-122700057D01*
X84985714Y-122700057D02*
X85033333Y-122652438D01*
X85033333Y-122652438D02*
X85128571Y-122604819D01*
X99028571Y-131554819D02*
X98552381Y-131554819D01*
X98552381Y-131554819D02*
X98504762Y-132031009D01*
X98504762Y-132031009D02*
X98552381Y-131983390D01*
X98552381Y-131983390D02*
X98647619Y-131935771D01*
X98647619Y-131935771D02*
X98885714Y-131935771D01*
X98885714Y-131935771D02*
X98980952Y-131983390D01*
X98980952Y-131983390D02*
X99028571Y-132031009D01*
X99028571Y-132031009D02*
X99076190Y-132126247D01*
X99076190Y-132126247D02*
X99076190Y-132364342D01*
X99076190Y-132364342D02*
X99028571Y-132459580D01*
X99028571Y-132459580D02*
X98980952Y-132507200D01*
X98980952Y-132507200D02*
X98885714Y-132554819D01*
X98885714Y-132554819D02*
X98647619Y-132554819D01*
X98647619Y-132554819D02*
X98552381Y-132507200D01*
X98552381Y-132507200D02*
X98504762Y-132459580D01*
X99457143Y-131650057D02*
X99504762Y-131602438D01*
X99504762Y-131602438D02*
X99600000Y-131554819D01*
X99600000Y-131554819D02*
X99838095Y-131554819D01*
X99838095Y-131554819D02*
X99933333Y-131602438D01*
X99933333Y-131602438D02*
X99980952Y-131650057D01*
X99980952Y-131650057D02*
X100028571Y-131745295D01*
X100028571Y-131745295D02*
X100028571Y-131840533D01*
X100028571Y-131840533D02*
X99980952Y-131983390D01*
X99980952Y-131983390D02*
X99409524Y-132554819D01*
X99409524Y-132554819D02*
X100028571Y-132554819D01*
X100600000Y-131983390D02*
X100504762Y-131935771D01*
X100504762Y-131935771D02*
X100457143Y-131888152D01*
X100457143Y-131888152D02*
X100409524Y-131792914D01*
X100409524Y-131792914D02*
X100409524Y-131745295D01*
X100409524Y-131745295D02*
X100457143Y-131650057D01*
X100457143Y-131650057D02*
X100504762Y-131602438D01*
X100504762Y-131602438D02*
X100600000Y-131554819D01*
X100600000Y-131554819D02*
X100790476Y-131554819D01*
X100790476Y-131554819D02*
X100885714Y-131602438D01*
X100885714Y-131602438D02*
X100933333Y-131650057D01*
X100933333Y-131650057D02*
X100980952Y-131745295D01*
X100980952Y-131745295D02*
X100980952Y-131792914D01*
X100980952Y-131792914D02*
X100933333Y-131888152D01*
X100933333Y-131888152D02*
X100885714Y-131935771D01*
X100885714Y-131935771D02*
X100790476Y-131983390D01*
X100790476Y-131983390D02*
X100600000Y-131983390D01*
X100600000Y-131983390D02*
X100504762Y-132031009D01*
X100504762Y-132031009D02*
X100457143Y-132078628D01*
X100457143Y-132078628D02*
X100409524Y-132173866D01*
X100409524Y-132173866D02*
X100409524Y-132364342D01*
X100409524Y-132364342D02*
X100457143Y-132459580D01*
X100457143Y-132459580D02*
X100504762Y-132507200D01*
X100504762Y-132507200D02*
X100600000Y-132554819D01*
X100600000Y-132554819D02*
X100790476Y-132554819D01*
X100790476Y-132554819D02*
X100885714Y-132507200D01*
X100885714Y-132507200D02*
X100933333Y-132459580D01*
X100933333Y-132459580D02*
X100980952Y-132364342D01*
X100980952Y-132364342D02*
X100980952Y-132173866D01*
X100980952Y-132173866D02*
X100933333Y-132078628D01*
X100933333Y-132078628D02*
X100885714Y-132031009D01*
X100885714Y-132031009D02*
X100790476Y-131983390D01*
X101552381Y-131983390D02*
X101457143Y-131935771D01*
X101457143Y-131935771D02*
X101409524Y-131888152D01*
X101409524Y-131888152D02*
X101361905Y-131792914D01*
X101361905Y-131792914D02*
X101361905Y-131745295D01*
X101361905Y-131745295D02*
X101409524Y-131650057D01*
X101409524Y-131650057D02*
X101457143Y-131602438D01*
X101457143Y-131602438D02*
X101552381Y-131554819D01*
X101552381Y-131554819D02*
X101742857Y-131554819D01*
X101742857Y-131554819D02*
X101838095Y-131602438D01*
X101838095Y-131602438D02*
X101885714Y-131650057D01*
X101885714Y-131650057D02*
X101933333Y-131745295D01*
X101933333Y-131745295D02*
X101933333Y-131792914D01*
X101933333Y-131792914D02*
X101885714Y-131888152D01*
X101885714Y-131888152D02*
X101838095Y-131935771D01*
X101838095Y-131935771D02*
X101742857Y-131983390D01*
X101742857Y-131983390D02*
X101552381Y-131983390D01*
X101552381Y-131983390D02*
X101457143Y-132031009D01*
X101457143Y-132031009D02*
X101409524Y-132078628D01*
X101409524Y-132078628D02*
X101361905Y-132173866D01*
X101361905Y-132173866D02*
X101361905Y-132364342D01*
X101361905Y-132364342D02*
X101409524Y-132459580D01*
X101409524Y-132459580D02*
X101457143Y-132507200D01*
X101457143Y-132507200D02*
X101552381Y-132554819D01*
X101552381Y-132554819D02*
X101742857Y-132554819D01*
X101742857Y-132554819D02*
X101838095Y-132507200D01*
X101838095Y-132507200D02*
X101885714Y-132459580D01*
X101885714Y-132459580D02*
X101933333Y-132364342D01*
X101933333Y-132364342D02*
X101933333Y-132173866D01*
X101933333Y-132173866D02*
X101885714Y-132078628D01*
X101885714Y-132078628D02*
X101838095Y-132031009D01*
X101838095Y-132031009D02*
X101742857Y-131983390D01*
X102838095Y-131554819D02*
X102361905Y-131554819D01*
X102361905Y-131554819D02*
X102314286Y-132031009D01*
X102314286Y-132031009D02*
X102361905Y-131983390D01*
X102361905Y-131983390D02*
X102457143Y-131935771D01*
X102457143Y-131935771D02*
X102695238Y-131935771D01*
X102695238Y-131935771D02*
X102790476Y-131983390D01*
X102790476Y-131983390D02*
X102838095Y-132031009D01*
X102838095Y-132031009D02*
X102885714Y-132126247D01*
X102885714Y-132126247D02*
X102885714Y-132364342D01*
X102885714Y-132364342D02*
X102838095Y-132459580D01*
X102838095Y-132459580D02*
X102790476Y-132507200D01*
X102790476Y-132507200D02*
X102695238Y-132554819D01*
X102695238Y-132554819D02*
X102457143Y-132554819D01*
X102457143Y-132554819D02*
X102361905Y-132507200D01*
X102361905Y-132507200D02*
X102314286Y-132459580D01*
X103504762Y-131554819D02*
X103600000Y-131554819D01*
X103600000Y-131554819D02*
X103695238Y-131602438D01*
X103695238Y-131602438D02*
X103742857Y-131650057D01*
X103742857Y-131650057D02*
X103790476Y-131745295D01*
X103790476Y-131745295D02*
X103838095Y-131935771D01*
X103838095Y-131935771D02*
X103838095Y-132173866D01*
X103838095Y-132173866D02*
X103790476Y-132364342D01*
X103790476Y-132364342D02*
X103742857Y-132459580D01*
X103742857Y-132459580D02*
X103695238Y-132507200D01*
X103695238Y-132507200D02*
X103600000Y-132554819D01*
X103600000Y-132554819D02*
X103504762Y-132554819D01*
X103504762Y-132554819D02*
X103409524Y-132507200D01*
X103409524Y-132507200D02*
X103361905Y-132459580D01*
X103361905Y-132459580D02*
X103314286Y-132364342D01*
X103314286Y-132364342D02*
X103266667Y-132173866D01*
X103266667Y-132173866D02*
X103266667Y-131935771D01*
X103266667Y-131935771D02*
X103314286Y-131745295D01*
X103314286Y-131745295D02*
X103361905Y-131650057D01*
X103361905Y-131650057D02*
X103409524Y-131602438D01*
X103409524Y-131602438D02*
X103504762Y-131554819D01*
X104171429Y-131554819D02*
X104790476Y-131554819D01*
X104790476Y-131554819D02*
X104457143Y-131935771D01*
X104457143Y-131935771D02*
X104600000Y-131935771D01*
X104600000Y-131935771D02*
X104695238Y-131983390D01*
X104695238Y-131983390D02*
X104742857Y-132031009D01*
X104742857Y-132031009D02*
X104790476Y-132126247D01*
X104790476Y-132126247D02*
X104790476Y-132364342D01*
X104790476Y-132364342D02*
X104742857Y-132459580D01*
X104742857Y-132459580D02*
X104695238Y-132507200D01*
X104695238Y-132507200D02*
X104600000Y-132554819D01*
X104600000Y-132554819D02*
X104314286Y-132554819D01*
X104314286Y-132554819D02*
X104219048Y-132507200D01*
X104219048Y-132507200D02*
X104171429Y-132459580D01*
X105123810Y-131554819D02*
X105790476Y-131554819D01*
X105790476Y-131554819D02*
X105361905Y-132554819D01*
X106600000Y-131888152D02*
X106600000Y-132554819D01*
X106361905Y-131507200D02*
X106123810Y-132221485D01*
X106123810Y-132221485D02*
X106742857Y-132221485D01*
%TO.C,C56*%
D12*
X89090000Y-100440580D02*
X89090000Y-100159420D01*
X90110000Y-100440580D02*
X90110000Y-100159420D01*
%TO.C,D1*%
X93590000Y-76450000D02*
X93590000Y-78150000D01*
X93590000Y-76450000D02*
X96250000Y-76450000D01*
X93590000Y-78150000D02*
X96250000Y-78150000D01*
%TO.C,R16*%
X120785436Y-96565000D02*
X121239564Y-96565000D01*
X120785436Y-98035000D02*
X121239564Y-98035000D01*
%TO.C,C28*%
X112090000Y-95159420D02*
X112090000Y-95440580D01*
X113110000Y-95159420D02*
X113110000Y-95440580D01*
%TO.C,U2*%
D14*
X98764600Y-91208700D02*
X98764600Y-91485960D01*
X98764600Y-104114040D02*
X98764600Y-104391300D01*
X98764600Y-104391300D02*
X106435400Y-104391300D01*
X106435400Y-91208700D02*
X98764600Y-91208700D01*
X106435400Y-91485960D02*
X106435400Y-91208700D01*
X106435400Y-104391300D02*
X106435400Y-104114040D01*
D15*
G36*
X96712801Y-103705500D02*
G01*
X96458801Y-103705500D01*
X96458801Y-103324500D01*
X96712801Y-103324500D01*
X96712801Y-103705500D01*
G37*
G36*
X108741199Y-92275500D02*
G01*
X108487199Y-92275500D01*
X108487199Y-91894500D01*
X108741199Y-91894500D01*
X108741199Y-92275500D01*
G37*
%TO.C,C39*%
D12*
X118361252Y-121065000D02*
X117838748Y-121065000D01*
X118361252Y-122535000D02*
X117838748Y-122535000D01*
%TO.C,C51*%
X83740580Y-92790000D02*
X83459420Y-92790000D01*
X83740580Y-93810000D02*
X83459420Y-93810000D01*
%TO.C,R11*%
X100377500Y-112537258D02*
X100377500Y-112062742D01*
X101422500Y-112537258D02*
X101422500Y-112062742D01*
%TO.C,R17*%
X92960000Y-80907742D02*
X92960000Y-81382258D01*
X94005000Y-80907742D02*
X94005000Y-81382258D01*
%TO.C,R12*%
X94414564Y-120565000D02*
X93960436Y-120565000D01*
X94414564Y-122035000D02*
X93960436Y-122035000D01*
%TO.C,R22*%
X117312742Y-79677500D02*
X117787258Y-79677500D01*
X117312742Y-80722500D02*
X117787258Y-80722500D01*
%TO.C,C6*%
X106690000Y-73036252D02*
X106690000Y-71613748D01*
X108510000Y-73036252D02*
X108510000Y-71613748D01*
%TO.C,C5*%
X93234420Y-73290000D02*
X93515580Y-73290000D01*
X93234420Y-74310000D02*
X93515580Y-74310000D01*
%TO.C,C49*%
X83515580Y-118790000D02*
X83234420Y-118790000D01*
X83515580Y-119810000D02*
X83234420Y-119810000D01*
%TO.C,R8*%
X121077500Y-122212258D02*
X121077500Y-121737742D01*
X122122500Y-122212258D02*
X122122500Y-121737742D01*
%TO.C,C40*%
X116959420Y-111790000D02*
X117240580Y-111790000D01*
X116959420Y-112810000D02*
X117240580Y-112810000D01*
%TO.C,C57*%
X91190000Y-101011252D02*
X91190000Y-99588748D01*
X93010000Y-101011252D02*
X93010000Y-99588748D01*
%TO.C,RN9*%
X113130000Y-108800000D02*
X113130000Y-109800000D01*
X115070000Y-108800000D02*
X115070000Y-109800000D01*
%TO.C,R23*%
X117787258Y-78077500D02*
X117312742Y-78077500D01*
X117787258Y-79122500D02*
X117312742Y-79122500D01*
%TO.C,C17*%
X82990000Y-105740580D02*
X82990000Y-105459420D01*
X84010000Y-105740580D02*
X84010000Y-105459420D01*
%TO.C,U1*%
D14*
X96846900Y-86809400D02*
X96846900Y-88790600D01*
X96846900Y-88790600D02*
X108353100Y-88790600D01*
X108353100Y-86809400D02*
X96846900Y-86809400D01*
X108353100Y-88790600D02*
X108353100Y-86809400D01*
%TO.C,R6*%
D12*
X100577500Y-115537258D02*
X100577500Y-115062742D01*
X101622500Y-115537258D02*
X101622500Y-115062742D01*
%TO.C,C9*%
X107190000Y-116640580D02*
X107190000Y-116359420D01*
X108210000Y-116640580D02*
X108210000Y-116359420D01*
%TO.C,Q2*%
X100740000Y-73170000D02*
X100740000Y-70590000D01*
X101720000Y-70590000D02*
X100740000Y-70590000D01*
X104480000Y-70590000D02*
X105460000Y-70590000D01*
X105460000Y-70590000D02*
X105460000Y-73310000D01*
X100890000Y-73720000D02*
X100560000Y-73960000D01*
X100560000Y-73480000D01*
X100890000Y-73720000D01*
G36*
X100890000Y-73720000D02*
G01*
X100560000Y-73960000D01*
X100560000Y-73480000D01*
X100890000Y-73720000D01*
G37*
%TO.C,C4*%
X109090000Y-100159420D02*
X109090000Y-100440580D01*
X110110000Y-100159420D02*
X110110000Y-100440580D01*
%TO.C,C11*%
X99311252Y-121390000D02*
X97888748Y-121390000D01*
X99311252Y-123210000D02*
X97888748Y-123210000D01*
%TO.C,C47*%
X83515580Y-116790000D02*
X83234420Y-116790000D01*
X83515580Y-117810000D02*
X83234420Y-117810000D01*
%TO.C,C34*%
X113590000Y-116859420D02*
X113590000Y-117140580D01*
X114610000Y-116859420D02*
X114610000Y-117140580D01*
%TO.C,R15*%
X116862742Y-100777500D02*
X117337258Y-100777500D01*
X116862742Y-101822500D02*
X117337258Y-101822500D01*
%TO.C,U7*%
X115490000Y-93915000D02*
X115490000Y-93680000D01*
X115490000Y-96660000D02*
X115490000Y-96185000D01*
X115965000Y-93440000D02*
X115790000Y-93440000D01*
X115965000Y-96660000D02*
X115490000Y-96660000D01*
X118235000Y-93440000D02*
X118710000Y-93440000D01*
X118235000Y-96660000D02*
X118710000Y-96660000D01*
X118710000Y-93440000D02*
X118710000Y-93915000D01*
X118710000Y-96660000D02*
X118710000Y-96185000D01*
X115490000Y-93440000D02*
X115250000Y-93110000D01*
X115730000Y-93110000D01*
X115490000Y-93440000D01*
G36*
X115490000Y-93440000D02*
G01*
X115250000Y-93110000D01*
X115730000Y-93110000D01*
X115490000Y-93440000D01*
G37*
%TO.C,C32*%
X113590000Y-113940580D02*
X113590000Y-113659420D01*
X114610000Y-113940580D02*
X114610000Y-113659420D01*
%TO.C,C29*%
X119088748Y-90790000D02*
X120511252Y-90790000D01*
X119088748Y-92610000D02*
X120511252Y-92610000D01*
%TO.C,C37*%
X120288748Y-98890000D02*
X121711252Y-98890000D01*
X120288748Y-100710000D02*
X121711252Y-100710000D01*
%TO.C,U10*%
X88910000Y-79610000D02*
X88910000Y-80085000D01*
X88910000Y-82830000D02*
X88910000Y-82355000D01*
X89385000Y-79610000D02*
X88910000Y-79610000D01*
X89385000Y-82830000D02*
X88910000Y-82830000D01*
X91655000Y-79610000D02*
X92130000Y-79610000D01*
X91655000Y-82830000D02*
X91830000Y-82830000D01*
X92130000Y-79610000D02*
X92130000Y-80085000D01*
X92130000Y-82355000D02*
X92130000Y-82590000D01*
X92130000Y-82830000D02*
X92370000Y-83160000D01*
X91890000Y-83160000D01*
X92130000Y-82830000D01*
G36*
X92370000Y-83160000D02*
G01*
X91890000Y-83160000D01*
X92130000Y-82830000D01*
X92370000Y-83160000D01*
G37*
%TO.C,C16*%
X107659420Y-112390000D02*
X107940580Y-112390000D01*
X107659420Y-113410000D02*
X107940580Y-113410000D01*
%TO.C,R3*%
X100012258Y-68277500D02*
X99537742Y-68277500D01*
X100012258Y-69322500D02*
X99537742Y-69322500D01*
%TO.C,R21*%
X114577500Y-79637258D02*
X114577500Y-79162742D01*
X115622500Y-79637258D02*
X115622500Y-79162742D01*
%TO.C,U9*%
X115540000Y-105240000D02*
X115635000Y-105240000D01*
X115540000Y-109360000D02*
X115540000Y-105240000D01*
X115635000Y-109360000D02*
X115540000Y-109360000D01*
X120565000Y-105240000D02*
X120660000Y-105240000D01*
X120660000Y-105240000D02*
X120660000Y-109360000D01*
X120660000Y-109360000D02*
X120565000Y-109360000D01*
X120570000Y-104700000D02*
X120900000Y-104460000D01*
X120900000Y-104940000D01*
X120570000Y-104700000D01*
G36*
X120900000Y-104940000D02*
G01*
X120570000Y-104700000D01*
X120900000Y-104460000D01*
X120900000Y-104940000D01*
G37*
%TO.C,RN1*%
X98630000Y-119300000D02*
X98630000Y-118300000D01*
X100570000Y-119300000D02*
X100570000Y-118300000D01*
%TO.C,RN10*%
X98030000Y-80430000D02*
X99030000Y-80430000D01*
X98030000Y-82370000D02*
X99030000Y-82370000D01*
%TO.C,C54*%
X90365000Y-121488748D02*
X90365000Y-122011252D01*
X91835000Y-121488748D02*
X91835000Y-122011252D01*
%TO.C,C13*%
X104240580Y-106290000D02*
X103959420Y-106290000D01*
X104240580Y-107310000D02*
X103959420Y-107310000D01*
%TO.C,C23*%
X95311252Y-117890000D02*
X93888748Y-117890000D01*
X95311252Y-119710000D02*
X93888748Y-119710000D01*
%TO.C,Q4*%
X104040000Y-76740000D02*
X104135000Y-76740000D01*
X104040000Y-80860000D02*
X104040000Y-76740000D01*
X104135000Y-80860000D02*
X104040000Y-80860000D01*
X109065000Y-76740000D02*
X109160000Y-76740000D01*
X109160000Y-76740000D02*
X109160000Y-80860000D01*
X109160000Y-80860000D02*
X109065000Y-80860000D01*
X109070000Y-76200000D02*
X109400000Y-75960000D01*
X109400000Y-76440000D01*
X109070000Y-76200000D01*
G36*
X109400000Y-76440000D02*
G01*
X109070000Y-76200000D01*
X109400000Y-75960000D01*
X109400000Y-76440000D01*
G37*
%TO.C,U6*%
X94040000Y-109240000D02*
X94135000Y-109240000D01*
X94040000Y-113360000D02*
X94040000Y-109240000D01*
X94135000Y-113360000D02*
X94040000Y-113360000D01*
X99065000Y-109240000D02*
X99160000Y-109240000D01*
X99160000Y-109240000D02*
X99160000Y-113360000D01*
X99160000Y-113360000D02*
X99065000Y-113360000D01*
X94130000Y-113900000D02*
X93800000Y-114140000D01*
X93800000Y-113660000D01*
X94130000Y-113900000D01*
G36*
X94130000Y-113900000D02*
G01*
X93800000Y-114140000D01*
X93800000Y-113660000D01*
X94130000Y-113900000D01*
G37*
%TO.C,U4*%
X102410000Y-109610000D02*
X102885000Y-109610000D01*
X102410000Y-110085000D02*
X102410000Y-109610000D01*
X102410000Y-112355000D02*
X102410000Y-112830000D01*
X102410000Y-112830000D02*
X102885000Y-112830000D01*
X105155000Y-109610000D02*
X105390000Y-109610000D01*
X105630000Y-110085000D02*
X105630000Y-109910000D01*
X105630000Y-112355000D02*
X105630000Y-112830000D01*
X105630000Y-112830000D02*
X105155000Y-112830000D01*
X105630000Y-109610000D02*
X105960000Y-109370000D01*
X105960000Y-109850000D01*
X105630000Y-109610000D01*
G36*
X105960000Y-109850000D02*
G01*
X105630000Y-109610000D01*
X105960000Y-109370000D01*
X105960000Y-109850000D01*
G37*
%TO.C,RN5*%
X91130000Y-106300000D02*
X91130000Y-107300000D01*
X93070000Y-106300000D02*
X93070000Y-107300000D01*
%TO.C,C31*%
X120734420Y-93290000D02*
X121015580Y-93290000D01*
X120734420Y-94310000D02*
X121015580Y-94310000D01*
%TO.C,R2*%
X105837258Y-68277500D02*
X105362742Y-68277500D01*
X105837258Y-69322500D02*
X105362742Y-69322500D01*
%TO.C,C58*%
X117611252Y-85065000D02*
X117088748Y-85065000D01*
X117611252Y-86535000D02*
X117088748Y-86535000D01*
%TO.C,C52*%
X86888748Y-92390000D02*
X88311252Y-92390000D01*
X86888748Y-94210000D02*
X88311252Y-94210000D01*
%TO.C,C19*%
X82990000Y-108484420D02*
X82990000Y-108765580D01*
X84010000Y-108484420D02*
X84010000Y-108765580D01*
%TO.C,C2*%
X95090000Y-92759420D02*
X95090000Y-93040580D01*
X96110000Y-92759420D02*
X96110000Y-93040580D01*
%TO.C,C43*%
X94472500Y-81385580D02*
X94472500Y-81104420D01*
X95492500Y-81385580D02*
X95492500Y-81104420D01*
%TO.C,U12*%
X83540000Y-96240000D02*
X83635000Y-96240000D01*
X83540000Y-100360000D02*
X83540000Y-96240000D01*
X83635000Y-100360000D02*
X83540000Y-100360000D01*
X88565000Y-96240000D02*
X88660000Y-96240000D01*
X88660000Y-96240000D02*
X88660000Y-100360000D01*
X88660000Y-100360000D02*
X88565000Y-100360000D01*
X88570000Y-95700000D02*
X88900000Y-95460000D01*
X88900000Y-95940000D01*
X88570000Y-95700000D01*
G36*
X88900000Y-95940000D02*
G01*
X88570000Y-95700000D01*
X88900000Y-95460000D01*
X88900000Y-95940000D01*
G37*
%TO.C,C10*%
X113690000Y-122011252D02*
X113690000Y-120588748D01*
X115510000Y-122011252D02*
X115510000Y-120588748D01*
%TO.C,RN12*%
X88000000Y-120330000D02*
X89000000Y-120330000D01*
X88000000Y-122270000D02*
X89000000Y-122270000D01*
%TO.C,C8*%
X109040000Y-73036252D02*
X109040000Y-71613748D01*
X110860000Y-73036252D02*
X110860000Y-71613748D01*
%TO.C,RN3*%
X112130000Y-103100000D02*
X112130000Y-102100000D01*
X114070000Y-103100000D02*
X114070000Y-102100000D01*
%TO.C,U11*%
X86490000Y-116690000D02*
X89710000Y-116690000D01*
X86490000Y-116815000D02*
X86490000Y-116690000D01*
X86490000Y-119910000D02*
X86490000Y-119785000D01*
X89710000Y-116690000D02*
X89710000Y-116815000D01*
X89710000Y-119785000D02*
X89710000Y-119910000D01*
X89710000Y-119910000D02*
X86490000Y-119910000D01*
X85940000Y-116810000D02*
X85700000Y-116480000D01*
X86180000Y-116480000D01*
X85940000Y-116810000D01*
G36*
X85940000Y-116810000D02*
G01*
X85700000Y-116480000D01*
X86180000Y-116480000D01*
X85940000Y-116810000D01*
G37*
%TO.C,Q3*%
X98240000Y-79160000D02*
X98240000Y-76440000D01*
X99220000Y-79160000D02*
X98240000Y-79160000D01*
X101980000Y-79160000D02*
X102960000Y-79160000D01*
X102960000Y-76580000D02*
X102960000Y-79160000D01*
X102810000Y-76030000D02*
X103140000Y-75790000D01*
X103140000Y-76270000D01*
X102810000Y-76030000D01*
G36*
X103140000Y-76270000D02*
G01*
X102810000Y-76030000D01*
X103140000Y-75790000D01*
X103140000Y-76270000D01*
G37*
%TO.C,C30*%
X116040580Y-91590000D02*
X115759420Y-91590000D01*
X116040580Y-92610000D02*
X115759420Y-92610000D01*
%TO.C,C44*%
X90690000Y-86988748D02*
X90690000Y-88411252D01*
X92510000Y-86988748D02*
X92510000Y-88411252D01*
%TO.C,RN2*%
X112130000Y-106300000D02*
X112130000Y-105300000D01*
X114070000Y-106300000D02*
X114070000Y-105300000D01*
%TO.C,RN4*%
X87230000Y-110300000D02*
X87230000Y-111300000D01*
X89170000Y-110300000D02*
X89170000Y-111300000D01*
%TO.C,RN8*%
X117130000Y-118700000D02*
X117130000Y-119700000D01*
X119070000Y-118700000D02*
X119070000Y-119700000D01*
%TO.C,R20*%
X87872936Y-87565000D02*
X88327064Y-87565000D01*
X87872936Y-89035000D02*
X88327064Y-89035000D01*
%TO.C,R18*%
X86577500Y-82062742D02*
X86577500Y-82537258D01*
X87622500Y-82062742D02*
X87622500Y-82537258D01*
%TO.C,RN14*%
X115930000Y-82300000D02*
X115930000Y-83300000D01*
X117870000Y-82300000D02*
X117870000Y-83300000D01*
%TO.C,C15*%
X106490000Y-110640580D02*
X106490000Y-110359420D01*
X107510000Y-110640580D02*
X107510000Y-110359420D01*
%TO.C,RN6*%
X117300000Y-88330000D02*
X116300000Y-88330000D01*
X117300000Y-90270000D02*
X116300000Y-90270000D01*
%TO.C,C27*%
X91690000Y-112088748D02*
X91690000Y-113511252D01*
X93510000Y-112088748D02*
X93510000Y-113511252D01*
%TO.C,C20*%
X84590000Y-110888748D02*
X84590000Y-112311252D01*
X86410000Y-110888748D02*
X86410000Y-112311252D01*
%TO.C,R9*%
X103862742Y-107777500D02*
X104337258Y-107777500D01*
X103862742Y-108822500D02*
X104337258Y-108822500D01*
%TO.C,R10*%
X103837258Y-114277500D02*
X103362742Y-114277500D01*
X103837258Y-115322500D02*
X103362742Y-115322500D01*
%TO.C,C45*%
X91734420Y-83790000D02*
X92015580Y-83790000D01*
X91734420Y-84810000D02*
X92015580Y-84810000D01*
%TO.C,C35*%
X111190000Y-115011252D02*
X111190000Y-113588748D01*
X113010000Y-115011252D02*
X113010000Y-113588748D01*
%TO.C,Q1*%
X95240000Y-73120000D02*
X95240000Y-70540000D01*
X96220000Y-70540000D02*
X95240000Y-70540000D01*
X98980000Y-70540000D02*
X99960000Y-70540000D01*
X99960000Y-70540000D02*
X99960000Y-73260000D01*
X95390000Y-73670000D02*
X95060000Y-73910000D01*
X95060000Y-73430000D01*
X95390000Y-73670000D01*
G36*
X95390000Y-73670000D02*
G01*
X95060000Y-73910000D01*
X95060000Y-73430000D01*
X95390000Y-73670000D01*
G37*
%TO.C,U3*%
X102540000Y-118240000D02*
X106660000Y-118240000D01*
X102540000Y-118335000D02*
X102540000Y-118240000D01*
X102540000Y-123360000D02*
X102540000Y-123265000D01*
X106660000Y-118240000D02*
X106660000Y-118335000D01*
X106660000Y-123265000D02*
X106660000Y-123360000D01*
X106660000Y-123360000D02*
X102540000Y-123360000D01*
X102000000Y-118330000D02*
X101760000Y-118000000D01*
X102240000Y-118000000D01*
X102000000Y-118330000D01*
G36*
X102000000Y-118330000D02*
G01*
X101760000Y-118000000D01*
X102240000Y-118000000D01*
X102000000Y-118330000D01*
G37*
%TO.C,C22*%
X95336252Y-115390000D02*
X93913748Y-115390000D01*
X95336252Y-117210000D02*
X93913748Y-117210000D01*
%TO.C,C33*%
X115111252Y-97790000D02*
X113688748Y-97790000D01*
X115111252Y-99610000D02*
X113688748Y-99610000D01*
%TO.C,R5*%
X110237258Y-122177500D02*
X109762742Y-122177500D01*
X110237258Y-123222500D02*
X109762742Y-123222500D01*
%TO.C,C18*%
X103863748Y-115890000D02*
X105286252Y-115890000D01*
X103863748Y-117710000D02*
X105286252Y-117710000D01*
%TO.C,RN7*%
X114000000Y-88330000D02*
X113000000Y-88330000D01*
X114000000Y-90270000D02*
X113000000Y-90270000D01*
%TO.C,C46*%
X89090000Y-85159420D02*
X89090000Y-85440580D01*
X90110000Y-85159420D02*
X90110000Y-85440580D01*
%TO.C,U8*%
X116490000Y-114090000D02*
X119710000Y-114090000D01*
X116490000Y-114215000D02*
X116490000Y-114090000D01*
X116490000Y-117310000D02*
X116490000Y-117185000D01*
X119710000Y-114090000D02*
X119710000Y-114215000D01*
X119710000Y-117185000D02*
X119710000Y-117310000D01*
X119710000Y-117310000D02*
X116490000Y-117310000D01*
X115940000Y-114210000D02*
X115700000Y-113880000D01*
X116180000Y-113880000D01*
X115940000Y-114210000D01*
G36*
X115940000Y-114210000D02*
G01*
X115700000Y-113880000D01*
X116180000Y-113880000D01*
X115940000Y-114210000D01*
G37*
%TO.C,RN11*%
X101200000Y-80430000D02*
X102200000Y-80430000D01*
X101200000Y-82370000D02*
X102200000Y-82370000D01*
%TO.C,U5*%
X85990000Y-105690000D02*
X89210000Y-105690000D01*
X85990000Y-105815000D02*
X85990000Y-105690000D01*
X85990000Y-108910000D02*
X85990000Y-108785000D01*
X89210000Y-105690000D02*
X89210000Y-105815000D01*
X89210000Y-108785000D02*
X89210000Y-108910000D01*
X89210000Y-108910000D02*
X85990000Y-108910000D01*
X85440000Y-105810000D02*
X85200000Y-105480000D01*
X85680000Y-105480000D01*
X85440000Y-105810000D01*
G36*
X85440000Y-105810000D02*
G01*
X85200000Y-105480000D01*
X85680000Y-105480000D01*
X85440000Y-105810000D01*
G37*
%TO.C,R19*%
X86577500Y-85387742D02*
X86577500Y-85862258D01*
X87622500Y-85387742D02*
X87622500Y-85862258D01*
%TO.C,C55*%
X82090000Y-100440580D02*
X82090000Y-100159420D01*
X83110000Y-100440580D02*
X83110000Y-100159420D01*
%TO.C,C1*%
X90690000Y-93111252D02*
X90690000Y-91688748D01*
X92510000Y-93111252D02*
X92510000Y-91688748D01*
%TO.C,R13*%
X113577500Y-95537258D02*
X113577500Y-95062742D01*
X114622500Y-95537258D02*
X114622500Y-95062742D01*
%TO.C,RN13*%
X89130000Y-95900000D02*
X89130000Y-96900000D01*
X91070000Y-95900000D02*
X91070000Y-96900000D01*
%TO.C,C24*%
X88865000Y-114038748D02*
X88865000Y-114561252D01*
X90335000Y-114038748D02*
X90335000Y-114561252D01*
%TO.C,C21*%
X98459420Y-115790000D02*
X98740580Y-115790000D01*
X98459420Y-116810000D02*
X98740580Y-116810000D01*
%TO.C,C14*%
X109588748Y-109790000D02*
X111011252Y-109790000D01*
X109588748Y-111610000D02*
X111011252Y-111610000D01*
%TO.C,C38*%
X120288748Y-101390000D02*
X121711252Y-101390000D01*
X120288748Y-103210000D02*
X121711252Y-103210000D01*
%TO.C,C26*%
X92465580Y-108790000D02*
X92184420Y-108790000D01*
X92465580Y-109810000D02*
X92184420Y-109810000D01*
%TO.C,R1*%
X93162742Y-74977500D02*
X93637258Y-74977500D01*
X93162742Y-76022500D02*
X93637258Y-76022500D01*
%TO.C,C3*%
X99959420Y-85290000D02*
X100240580Y-85290000D01*
X99959420Y-86310000D02*
X100240580Y-86310000D01*
%TO.C,C25*%
X100734420Y-107790000D02*
X101015580Y-107790000D01*
X100734420Y-108810000D02*
X101015580Y-108810000D01*
%TO.C,C41*%
X121290000Y-107940580D02*
X121290000Y-107659420D01*
X122310000Y-107940580D02*
X122310000Y-107659420D01*
%TO.C,C42*%
X121190000Y-111063748D02*
X121190000Y-112486252D01*
X123010000Y-111063748D02*
X123010000Y-112486252D01*
%TO.C,R4*%
X110590000Y-76622936D02*
X110590000Y-80977064D01*
X114010000Y-76622936D02*
X114010000Y-80977064D01*
%TO.C,C53*%
X86888748Y-89890000D02*
X88311252Y-89890000D01*
X86888748Y-91710000D02*
X88311252Y-91710000D01*
%TO.C,C48*%
X84190000Y-82511252D02*
X84190000Y-81088748D01*
X86010000Y-82511252D02*
X86010000Y-81088748D01*
%TO.C,C12*%
X110188748Y-117390000D02*
X111611252Y-117390000D01*
X110188748Y-119210000D02*
X111611252Y-119210000D01*
%TO.C,C7*%
X106265000Y-84488748D02*
X106265000Y-85011252D01*
X107735000Y-84488748D02*
X107735000Y-85011252D01*
%TO.C,C36*%
X116684420Y-102290000D02*
X116965580Y-102290000D01*
X116684420Y-103310000D02*
X116965580Y-103310000D01*
%TO.C,R14*%
X117077500Y-98562742D02*
X117077500Y-99037258D01*
X118122500Y-98562742D02*
X118122500Y-99037258D01*
%TO.C,C50*%
X84911252Y-120390000D02*
X83488748Y-120390000D01*
X84911252Y-122210000D02*
X83488748Y-122210000D01*
%TO.C,R7*%
X109862742Y-119777500D02*
X110337258Y-119777500D01*
X109862742Y-120822500D02*
X110337258Y-120822500D01*
%TD*%
M02*
