%TF.GenerationSoftware,KiCad,Pcbnew,10.0.3*%
%TF.CreationDate,2026-07-23T12:42:31-04:00*%
%TF.ProjectId,magnetic_expension_v2,6d61676e-6574-4696-935f-657870656e73,v2*%
%TF.SameCoordinates,Original*%
%TF.FileFunction,Paste,Top*%
%TF.FilePolarity,Positive*%
%FSLAX46Y46*%
G04 Gerber Fmt 4.6, Leading zero omitted, Abs format (unit mm)*
G04 Created by KiCad (PCBNEW 10.0.3) date 2026-07-23 12:42:31*
%MOMM*%
%LPD*%
G01*
G04 APERTURE LIST*
G04 Aperture macros list*
%AMRoundRect*
0 Rectangle with rounded corners*
0 $1 Rounding radius*
0 $2 $3 $4 $5 $6 $7 $8 $9 X,Y pos of 4 corners*
0 Add a 4 corners polygon primitive as box body*
4,1,4,$2,$3,$4,$5,$6,$7,$8,$9,$2,$3,0*
0 Add four circle primitives for the rounded corners*
1,1,$1+$1,$2,$3*
1,1,$1+$1,$4,$5*
1,1,$1+$1,$6,$7*
1,1,$1+$1,$8,$9*
0 Add four rect primitives between the rounded corners*
20,1,$1+$1,$2,$3,$4,$5,0*
20,1,$1+$1,$4,$5,$6,$7,0*
20,1,$1+$1,$6,$7,$8,$9,0*
20,1,$1+$1,$8,$9,$2,$3,0*%
%AMFreePoly0*
4,1,9,3.862500,-0.866500,0.737500,-0.866500,0.737500,-0.450000,-0.737500,-0.450000,-0.737500,0.450000,0.737500,0.450000,0.737500,0.866500,3.862500,0.866500,3.862500,-0.866500,3.862500,-0.866500,$1*%
G04 Aperture macros list end*
%ADD10RoundRect,0.225000X0.250000X-0.225000X0.250000X0.225000X-0.250000X0.225000X-0.250000X-0.225000X0*%
%ADD11RoundRect,0.112500X-0.187500X-0.112500X0.187500X-0.112500X0.187500X0.112500X-0.187500X0.112500X0*%
%ADD12RoundRect,0.250000X-0.262500X-0.450000X0.262500X-0.450000X0.262500X0.450000X-0.262500X0.450000X0*%
%ADD13RoundRect,0.225000X-0.250000X0.225000X-0.250000X-0.225000X0.250000X-0.225000X0.250000X0.225000X0*%
%ADD14R,1.924799X0.532600*%
%ADD15RoundRect,0.250000X0.250000X0.475000X-0.250000X0.475000X-0.250000X-0.475000X0.250000X-0.475000X0*%
%ADD16RoundRect,0.225000X0.225000X0.250000X-0.225000X0.250000X-0.225000X-0.250000X0.225000X-0.250000X0*%
%ADD17RoundRect,0.200000X0.275000X-0.200000X0.275000X0.200000X-0.275000X0.200000X-0.275000X-0.200000X0*%
%ADD18RoundRect,0.200000X-0.275000X0.200000X-0.275000X-0.200000X0.275000X-0.200000X0.275000X0.200000X0*%
%ADD19RoundRect,0.250000X0.262500X0.450000X-0.262500X0.450000X-0.262500X-0.450000X0.262500X-0.450000X0*%
%ADD20RoundRect,0.200000X-0.200000X-0.275000X0.200000X-0.275000X0.200000X0.275000X-0.200000X0.275000X0*%
%ADD21RoundRect,0.250000X0.650000X-0.325000X0.650000X0.325000X-0.650000X0.325000X-0.650000X-0.325000X0*%
%ADD22RoundRect,0.225000X-0.225000X-0.250000X0.225000X-0.250000X0.225000X0.250000X-0.225000X0.250000X0*%
%ADD23R,0.500000X0.800000*%
%ADD24RoundRect,0.200000X0.200000X0.275000X-0.200000X0.275000X-0.200000X-0.275000X0.200000X-0.275000X0*%
%ADD25RoundRect,0.225000X0.225000X-0.425000X0.225000X0.425000X-0.225000X0.425000X-0.225000X-0.425000X0*%
%ADD26FreePoly0,90.000000*%
%ADD27RoundRect,0.250000X0.325000X0.650000X-0.325000X0.650000X-0.325000X-0.650000X0.325000X-0.650000X0*%
%ADD28RoundRect,0.170000X-0.170000X-0.170000X0.170000X-0.170000X0.170000X0.170000X-0.170000X0.170000X0*%
%ADD29RoundRect,0.062500X-0.350000X-0.062500X0.350000X-0.062500X0.350000X0.062500X-0.350000X0.062500X0*%
%ADD30RoundRect,0.062500X-0.062500X-0.350000X0.062500X-0.350000X0.062500X0.350000X-0.062500X0.350000X0*%
%ADD31RoundRect,0.250000X-0.325000X-0.650000X0.325000X-0.650000X0.325000X0.650000X-0.325000X0.650000X0*%
%ADD32RoundRect,0.170000X0.170000X0.170000X-0.170000X0.170000X-0.170000X-0.170000X0.170000X-0.170000X0*%
%ADD33RoundRect,0.062500X0.350000X0.062500X-0.350000X0.062500X-0.350000X-0.062500X0.350000X-0.062500X0*%
%ADD34RoundRect,0.062500X0.062500X0.350000X-0.062500X0.350000X-0.062500X-0.350000X0.062500X-0.350000X0*%
%ADD35RoundRect,0.150000X-0.150000X0.825000X-0.150000X-0.825000X0.150000X-0.825000X0.150000X0.825000X0*%
%ADD36R,0.800000X0.500000*%
%ADD37RoundRect,0.250000X-0.475000X0.250000X-0.475000X-0.250000X0.475000X-0.250000X0.475000X0.250000X0*%
%ADD38RoundRect,0.150000X-0.150000X0.725000X-0.150000X-0.725000X0.150000X-0.725000X0.150000X0.725000X0*%
%ADD39RoundRect,0.150000X0.150000X-0.825000X0.150000X0.825000X-0.150000X0.825000X-0.150000X-0.825000X0*%
%ADD40RoundRect,0.170000X-0.170000X0.170000X-0.170000X-0.170000X0.170000X-0.170000X0.170000X0.170000X0*%
%ADD41RoundRect,0.062500X-0.062500X0.350000X-0.062500X-0.350000X0.062500X-0.350000X0.062500X0.350000X0*%
%ADD42RoundRect,0.062500X-0.350000X0.062500X-0.350000X-0.062500X0.350000X-0.062500X0.350000X0.062500X0*%
%ADD43RoundRect,0.125000X-0.687500X-0.125000X0.687500X-0.125000X0.687500X0.125000X-0.687500X0.125000X0*%
%ADD44RoundRect,0.225000X-0.225000X0.425000X-0.225000X-0.425000X0.225000X-0.425000X0.225000X0.425000X0*%
%ADD45FreePoly0,270.000000*%
%ADD46RoundRect,0.250000X-0.650000X0.325000X-0.650000X-0.325000X0.650000X-0.325000X0.650000X0.325000X0*%
%ADD47RoundRect,0.150000X-0.825000X-0.150000X0.825000X-0.150000X0.825000X0.150000X-0.825000X0.150000X0*%
%ADD48RoundRect,0.250000X-1.425000X0.362500X-1.425000X-0.362500X1.425000X-0.362500X1.425000X0.362500X0*%
G04 APERTURE END LIST*
D10*
%TO.C,C56*%
X89600000Y-101075000D03*
X89600000Y-99525000D03*
%TD*%
D11*
%TO.C,D1*%
X94150000Y-77300000D03*
X96250000Y-77300000D03*
%TD*%
D12*
%TO.C,R16*%
X120100000Y-97300000D03*
X121925000Y-97300000D03*
%TD*%
D13*
%TO.C,C28*%
X112600000Y-94525000D03*
X112600000Y-96075000D03*
%TD*%
D14*
%TO.C,U2*%
X107270801Y-103515000D03*
X107270801Y-102245000D03*
X107270801Y-100975000D03*
X107270801Y-99705000D03*
X107270801Y-98435000D03*
X107270801Y-97165000D03*
X107270801Y-95895000D03*
X107270801Y-94625000D03*
X107270801Y-93355000D03*
X107270801Y-92085000D03*
X97929199Y-92085000D03*
X97929199Y-93355000D03*
X97929199Y-94625000D03*
X97929199Y-95895000D03*
X97929199Y-97165000D03*
X97929199Y-98435000D03*
X97929199Y-99705000D03*
X97929199Y-100975000D03*
X97929199Y-102245000D03*
X97929199Y-103515000D03*
%TD*%
D15*
%TO.C,C39*%
X119050000Y-121800000D03*
X117150000Y-121800000D03*
%TD*%
D16*
%TO.C,C51*%
X84375000Y-93300000D03*
X82825000Y-93300000D03*
%TD*%
D17*
%TO.C,R11*%
X100900000Y-113125000D03*
X100900000Y-111475000D03*
%TD*%
D18*
%TO.C,R17*%
X93482500Y-80320000D03*
X93482500Y-81970000D03*
%TD*%
D19*
%TO.C,R12*%
X95100000Y-121300000D03*
X93275000Y-121300000D03*
%TD*%
D20*
%TO.C,R22*%
X116725000Y-80200000D03*
X118375000Y-80200000D03*
%TD*%
D21*
%TO.C,C6*%
X107600000Y-73800000D03*
X107600000Y-70850000D03*
%TD*%
D22*
%TO.C,C5*%
X92600000Y-73800000D03*
X94150000Y-73800000D03*
%TD*%
D16*
%TO.C,C49*%
X84150000Y-119300000D03*
X82600000Y-119300000D03*
%TD*%
D17*
%TO.C,R8*%
X121600000Y-122800000D03*
X121600000Y-121150000D03*
%TD*%
D22*
%TO.C,C40*%
X116325000Y-112300000D03*
X117875000Y-112300000D03*
%TD*%
D21*
%TO.C,C57*%
X92100000Y-101775000D03*
X92100000Y-98825000D03*
%TD*%
D23*
%TO.C,RN9*%
X113600000Y-110200000D03*
X114600000Y-110200000D03*
X114600000Y-108400000D03*
X113600000Y-108400000D03*
%TD*%
D24*
%TO.C,R23*%
X118375000Y-78600000D03*
X116725000Y-78600000D03*
%TD*%
D10*
%TO.C,C17*%
X83500000Y-106375000D03*
X83500000Y-104825000D03*
%TD*%
D17*
%TO.C,R6*%
X101100000Y-116125000D03*
X101100000Y-114475000D03*
%TD*%
D10*
%TO.C,C9*%
X107700000Y-117275000D03*
X107700000Y-115725000D03*
%TD*%
D25*
%TO.C,Q2*%
X101600000Y-73900000D03*
D26*
X103100000Y-73812500D03*
D25*
X104600000Y-73900000D03*
%TD*%
D13*
%TO.C,C4*%
X109600000Y-99525000D03*
X109600000Y-101075000D03*
%TD*%
D27*
%TO.C,C11*%
X100075000Y-122300000D03*
X97125000Y-122300000D03*
%TD*%
D16*
%TO.C,C47*%
X84150000Y-117300000D03*
X82600000Y-117300000D03*
%TD*%
D13*
%TO.C,C34*%
X114100000Y-116225000D03*
X114100000Y-117775000D03*
%TD*%
D20*
%TO.C,R15*%
X116275000Y-101300000D03*
X117925000Y-101300000D03*
%TD*%
D28*
%TO.C,U7*%
X116680000Y-94630000D03*
X116680000Y-95470000D03*
X117520000Y-94630000D03*
X117520000Y-95470000D03*
D29*
X115637500Y-94300000D03*
X115637500Y-94800000D03*
X115637500Y-95300000D03*
X115637500Y-95800000D03*
D30*
X116350000Y-96512500D03*
X116850000Y-96512500D03*
X117350000Y-96512500D03*
X117850000Y-96512500D03*
D29*
X118562500Y-95800000D03*
X118562500Y-95300000D03*
X118562500Y-94800000D03*
X118562500Y-94300000D03*
D30*
X117850000Y-93587500D03*
X117350000Y-93587500D03*
X116850000Y-93587500D03*
X116350000Y-93587500D03*
%TD*%
D10*
%TO.C,C32*%
X114100000Y-114575000D03*
X114100000Y-113025000D03*
%TD*%
D31*
%TO.C,C29*%
X118325000Y-91700000D03*
X121275000Y-91700000D03*
%TD*%
%TO.C,C37*%
X119525000Y-99800000D03*
X122475000Y-99800000D03*
%TD*%
D32*
%TO.C,U10*%
X90940000Y-81640000D03*
X90940000Y-80800000D03*
X90100000Y-81640000D03*
X90100000Y-80800000D03*
D33*
X91982500Y-81970000D03*
X91982500Y-81470000D03*
X91982500Y-80970000D03*
X91982500Y-80470000D03*
D34*
X91270000Y-79757500D03*
X90770000Y-79757500D03*
X90270000Y-79757500D03*
X89770000Y-79757500D03*
D33*
X89057500Y-80470000D03*
X89057500Y-80970000D03*
X89057500Y-81470000D03*
X89057500Y-81970000D03*
D34*
X89770000Y-82682500D03*
X90270000Y-82682500D03*
X90770000Y-82682500D03*
X91270000Y-82682500D03*
%TD*%
D22*
%TO.C,C16*%
X107025000Y-112900000D03*
X108575000Y-112900000D03*
%TD*%
D24*
%TO.C,R3*%
X100600000Y-68800000D03*
X98950000Y-68800000D03*
%TD*%
D17*
%TO.C,R21*%
X115100000Y-80225000D03*
X115100000Y-78575000D03*
%TD*%
D35*
%TO.C,U9*%
X120005000Y-104825000D03*
X118735000Y-104825000D03*
X117465000Y-104825000D03*
X116195000Y-104825000D03*
X116195000Y-109775000D03*
X117465000Y-109775000D03*
X118735000Y-109775000D03*
X120005000Y-109775000D03*
%TD*%
D23*
%TO.C,RN1*%
X100100000Y-117900000D03*
X99100000Y-117900000D03*
X99100000Y-119700000D03*
X100100000Y-119700000D03*
%TD*%
D36*
%TO.C,RN10*%
X99430000Y-81900000D03*
X99430000Y-80900000D03*
X97630000Y-80900000D03*
X97630000Y-81900000D03*
%TD*%
D37*
%TO.C,C54*%
X91100000Y-120800000D03*
X91100000Y-122700000D03*
%TD*%
D16*
%TO.C,C13*%
X104875000Y-106800000D03*
X103325000Y-106800000D03*
%TD*%
D27*
%TO.C,C23*%
X96075000Y-118800000D03*
X93125000Y-118800000D03*
%TD*%
D38*
%TO.C,Q4*%
X108505000Y-76225000D03*
X107235000Y-76225000D03*
X105965000Y-76225000D03*
X104695000Y-76225000D03*
X104695000Y-81375000D03*
X105965000Y-81375000D03*
X107235000Y-81375000D03*
X108505000Y-81375000D03*
%TD*%
D39*
%TO.C,U6*%
X94695000Y-113775000D03*
X95965000Y-113775000D03*
X97235000Y-113775000D03*
X98505000Y-113775000D03*
X98505000Y-108825000D03*
X97235000Y-108825000D03*
X95965000Y-108825000D03*
X94695000Y-108825000D03*
%TD*%
D40*
%TO.C,U4*%
X104440000Y-110800000D03*
X103600000Y-110800000D03*
X104440000Y-111640000D03*
X103600000Y-111640000D03*
D41*
X104770000Y-109757500D03*
X104270000Y-109757500D03*
X103770000Y-109757500D03*
X103270000Y-109757500D03*
D42*
X102557500Y-110470000D03*
X102557500Y-110970000D03*
X102557500Y-111470000D03*
X102557500Y-111970000D03*
D41*
X103270000Y-112682500D03*
X103770000Y-112682500D03*
X104270000Y-112682500D03*
X104770000Y-112682500D03*
D42*
X105482500Y-111970000D03*
X105482500Y-111470000D03*
X105482500Y-110970000D03*
X105482500Y-110470000D03*
%TD*%
D23*
%TO.C,RN5*%
X91600000Y-107700000D03*
X92600000Y-107700000D03*
X92600000Y-105900000D03*
X91600000Y-105900000D03*
%TD*%
D22*
%TO.C,C31*%
X120100000Y-93800000D03*
X121650000Y-93800000D03*
%TD*%
D24*
%TO.C,R2*%
X106425000Y-68800000D03*
X104775000Y-68800000D03*
%TD*%
D15*
%TO.C,C58*%
X118300000Y-85800000D03*
X116400000Y-85800000D03*
%TD*%
D31*
%TO.C,C52*%
X86125000Y-93300000D03*
X89075000Y-93300000D03*
%TD*%
D13*
%TO.C,C19*%
X83500000Y-107850000D03*
X83500000Y-109400000D03*
%TD*%
%TO.C,C2*%
X95600000Y-92125000D03*
X95600000Y-93675000D03*
%TD*%
D10*
%TO.C,C43*%
X94982500Y-82020000D03*
X94982500Y-80470000D03*
%TD*%
D35*
%TO.C,U12*%
X88005000Y-95825000D03*
X86735000Y-95825000D03*
X85465000Y-95825000D03*
X84195000Y-95825000D03*
X84195000Y-100775000D03*
X85465000Y-100775000D03*
X86735000Y-100775000D03*
X88005000Y-100775000D03*
%TD*%
D21*
%TO.C,C10*%
X114600000Y-122775000D03*
X114600000Y-119825000D03*
%TD*%
D36*
%TO.C,RN12*%
X89400000Y-121800000D03*
X89400000Y-120800000D03*
X87600000Y-120800000D03*
X87600000Y-121800000D03*
%TD*%
D21*
%TO.C,C8*%
X109950000Y-73800000D03*
X109950000Y-70850000D03*
%TD*%
D23*
%TO.C,RN3*%
X113600000Y-101700000D03*
X112600000Y-101700000D03*
X112600000Y-103500000D03*
X113600000Y-103500000D03*
%TD*%
D43*
%TO.C,U11*%
X85987500Y-117325000D03*
X85987500Y-117975000D03*
X85987500Y-118625000D03*
X85987500Y-119275000D03*
X90212500Y-119275000D03*
X90212500Y-118625000D03*
X90212500Y-117975000D03*
X90212500Y-117325000D03*
%TD*%
D44*
%TO.C,Q3*%
X102100000Y-75850000D03*
D45*
X100600000Y-75937500D03*
D44*
X99100000Y-75850000D03*
%TD*%
D16*
%TO.C,C30*%
X116675000Y-92100000D03*
X115125000Y-92100000D03*
%TD*%
D46*
%TO.C,C44*%
X91600000Y-86225000D03*
X91600000Y-89175000D03*
%TD*%
D23*
%TO.C,RN2*%
X113600000Y-104900000D03*
X112600000Y-104900000D03*
X112600000Y-106700000D03*
X113600000Y-106700000D03*
%TD*%
%TO.C,RN4*%
X87700000Y-111700000D03*
X88700000Y-111700000D03*
X88700000Y-109900000D03*
X87700000Y-109900000D03*
%TD*%
%TO.C,RN8*%
X117600000Y-120100000D03*
X118600000Y-120100000D03*
X118600000Y-118300000D03*
X117600000Y-118300000D03*
%TD*%
D12*
%TO.C,R20*%
X87187500Y-88300000D03*
X89012500Y-88300000D03*
%TD*%
D18*
%TO.C,R18*%
X87100000Y-81475000D03*
X87100000Y-83125000D03*
%TD*%
D23*
%TO.C,RN14*%
X116400000Y-83700000D03*
X117400000Y-83700000D03*
X117400000Y-81900000D03*
X116400000Y-81900000D03*
%TD*%
D10*
%TO.C,C15*%
X107000000Y-111275000D03*
X107000000Y-109725000D03*
%TD*%
D36*
%TO.C,RN6*%
X115900000Y-88800000D03*
X115900000Y-89800000D03*
X117700000Y-89800000D03*
X117700000Y-88800000D03*
%TD*%
D46*
%TO.C,C27*%
X92600000Y-111325000D03*
X92600000Y-114275000D03*
%TD*%
%TO.C,C20*%
X85500000Y-110125000D03*
X85500000Y-113075000D03*
%TD*%
D20*
%TO.C,R9*%
X103275000Y-108300000D03*
X104925000Y-108300000D03*
%TD*%
D24*
%TO.C,R10*%
X104425000Y-114800000D03*
X102775000Y-114800000D03*
%TD*%
D22*
%TO.C,C45*%
X91100000Y-84300000D03*
X92650000Y-84300000D03*
%TD*%
D21*
%TO.C,C35*%
X112100000Y-115775000D03*
X112100000Y-112825000D03*
%TD*%
D25*
%TO.C,Q1*%
X96100000Y-73850000D03*
D26*
X97600000Y-73762500D03*
D25*
X99100000Y-73850000D03*
%TD*%
D47*
%TO.C,U3*%
X102125000Y-118895000D03*
X102125000Y-120165000D03*
X102125000Y-121435000D03*
X102125000Y-122705000D03*
X107075000Y-122705000D03*
X107075000Y-121435000D03*
X107075000Y-120165000D03*
X107075000Y-118895000D03*
%TD*%
D27*
%TO.C,C22*%
X96100000Y-116300000D03*
X93150000Y-116300000D03*
%TD*%
%TO.C,C33*%
X115875000Y-98700000D03*
X112925000Y-98700000D03*
%TD*%
D24*
%TO.C,R5*%
X110825000Y-122700000D03*
X109175000Y-122700000D03*
%TD*%
D31*
%TO.C,C18*%
X103100000Y-116800000D03*
X106050000Y-116800000D03*
%TD*%
D36*
%TO.C,RN7*%
X112600000Y-88800000D03*
X112600000Y-89800000D03*
X114400000Y-89800000D03*
X114400000Y-88800000D03*
%TD*%
D13*
%TO.C,C46*%
X89600000Y-84525000D03*
X89600000Y-86075000D03*
%TD*%
D43*
%TO.C,U8*%
X115987500Y-114725000D03*
X115987500Y-115375000D03*
X115987500Y-116025000D03*
X115987500Y-116675000D03*
X120212500Y-116675000D03*
X120212500Y-116025000D03*
X120212500Y-115375000D03*
X120212500Y-114725000D03*
%TD*%
D36*
%TO.C,RN11*%
X102600000Y-81900000D03*
X102600000Y-80900000D03*
X100800000Y-80900000D03*
X100800000Y-81900000D03*
%TD*%
D43*
%TO.C,U5*%
X85487500Y-106325000D03*
X85487500Y-106975000D03*
X85487500Y-107625000D03*
X85487500Y-108275000D03*
X89712500Y-108275000D03*
X89712500Y-107625000D03*
X89712500Y-106975000D03*
X89712500Y-106325000D03*
%TD*%
D18*
%TO.C,R19*%
X87100000Y-84800000D03*
X87100000Y-86450000D03*
%TD*%
D10*
%TO.C,C55*%
X82600000Y-101075000D03*
X82600000Y-99525000D03*
%TD*%
D21*
%TO.C,C1*%
X91600000Y-93875000D03*
X91600000Y-90925000D03*
%TD*%
D17*
%TO.C,R13*%
X114100000Y-96125000D03*
X114100000Y-94475000D03*
%TD*%
D23*
%TO.C,RN13*%
X89600000Y-97300000D03*
X90600000Y-97300000D03*
X90600000Y-95500000D03*
X89600000Y-95500000D03*
%TD*%
D37*
%TO.C,C24*%
X89600000Y-113350000D03*
X89600000Y-115250000D03*
%TD*%
D22*
%TO.C,C21*%
X97825000Y-116300000D03*
X99375000Y-116300000D03*
%TD*%
D31*
%TO.C,C14*%
X108825000Y-110700000D03*
X111775000Y-110700000D03*
%TD*%
%TO.C,C38*%
X119525000Y-102300000D03*
X122475000Y-102300000D03*
%TD*%
D16*
%TO.C,C26*%
X93100000Y-109300000D03*
X91550000Y-109300000D03*
%TD*%
D20*
%TO.C,R1*%
X92575000Y-75500000D03*
X94225000Y-75500000D03*
%TD*%
D22*
%TO.C,C3*%
X99325000Y-85800000D03*
X100875000Y-85800000D03*
%TD*%
%TO.C,C25*%
X100100000Y-108300000D03*
X101650000Y-108300000D03*
%TD*%
D10*
%TO.C,C41*%
X121800000Y-108575000D03*
X121800000Y-107025000D03*
%TD*%
D46*
%TO.C,C42*%
X122100000Y-110300000D03*
X122100000Y-113250000D03*
%TD*%
D48*
%TO.C,R4*%
X112300000Y-75837500D03*
X112300000Y-81762500D03*
%TD*%
D31*
%TO.C,C53*%
X86125000Y-90800000D03*
X89075000Y-90800000D03*
%TD*%
D21*
%TO.C,C48*%
X85100000Y-83275000D03*
X85100000Y-80325000D03*
%TD*%
D31*
%TO.C,C12*%
X109425000Y-118300000D03*
X112375000Y-118300000D03*
%TD*%
D37*
%TO.C,C7*%
X107000000Y-83800000D03*
X107000000Y-85700000D03*
%TD*%
D22*
%TO.C,C36*%
X116050000Y-102800000D03*
X117600000Y-102800000D03*
%TD*%
D18*
%TO.C,R14*%
X117600000Y-97975000D03*
X117600000Y-99625000D03*
%TD*%
D27*
%TO.C,C50*%
X85675000Y-121300000D03*
X82725000Y-121300000D03*
%TD*%
D20*
%TO.C,R7*%
X109275000Y-120300000D03*
X110925000Y-120300000D03*
%TD*%
M02*
